<?xml version="1.0" encoding="utf-8"?>
<!-- Generator: Adobe Illustrator 21.0.0, SVG Export Plug-In . SVG Version: 6.00 Build 0)  -->
<svg version="1.1" id="Layer_1" xmlns="http://www.w3.org/2000/svg" xmlns:xlink="http://www.w3.org/1999/xlink" x="0px" y="0px"
	 viewBox="0 0 660.1 1417.3" style="enable-background:new 0 0 660.1 1417.3;" xml:space="preserve">
<g>
	<path d="M553.2,14.2H108c-50.7,0-92,41.3-92,92v1205c0,50.7,41.3,92,92,92h445.2c50.7,0,92-41.3,92-92v-1205
		C645.2,55.4,604,14.2,553.2,14.2z M625.2,1311.2c0,39.7-32.3,72-72,72H108c-39.7,0-72-32.3-72-72v-1205c0-39.7,32.3-72,72-72h445.2
		c39.7,0,72,32.3,72,72V1311.2z"/>
	<path d="M553.2,51H108c-30.4,0-55.1,24.7-55.1,55.1v1205c0,30.4,24.7,55.1,55.1,55.1h445.2c30.4,0,55.1-24.7,55.1-55.1v-1205
		C608.4,75.8,583.7,51,553.2,51z M598.4,1311.2c0,24.9-20.2,45.1-45.1,45.1H108c-24.9,0-45.1-20.2-45.1-45.1v-1205
		C62.9,81.3,83.1,61,108,61h445.2c24.9,0,45.1,20.2,45.1,45.1V1311.2z"/>
	<path d="M330.6,1124.2c-29.6,0-53.7,24.1-53.7,53.7s24.1,53.7,53.7,53.7c29.6,0,53.7-24.1,53.7-53.7S360.2,1124.2,330.6,1124.2z
		 M330.6,1221.6c-24.1,0-43.7-19.6-43.7-43.7c0-24.1,19.6-43.7,43.7-43.7c24.1,0,43.7,19.6,43.7,43.7
		C374.3,1202,354.7,1221.6,330.6,1221.6z"/>
	<path d="M330.6,1090.2c-48.3,0-87.7,39.3-87.7,87.7s39.3,87.7,87.7,87.7c48.3,0,87.7-39.3,87.7-87.7S379,1090.2,330.6,1090.2z
		 M330.6,1255.5c-42.8,0-77.7-34.8-77.7-77.7c0-42.8,34.8-77.7,77.7-77.7s77.7,34.8,77.7,77.7
		C408.3,1220.7,373.5,1255.5,330.6,1255.5z"/>
	<path d="M330.6,1081.6c-53.1,0-96.2,43.2-96.2,96.2c0,53.1,43.2,96.2,96.2,96.2c53.1,0,96.2-43.2,96.2-96.2
		C426.9,1124.8,383.7,1081.6,330.6,1081.6z M330.6,1269.1c-50.3,0-91.2-40.9-91.2-91.2c0-50.3,40.9-91.2,91.2-91.2
		c50.3,0,91.2,40.9,91.2,91.2C421.9,1228.2,380.9,1269.1,330.6,1269.1z"/>
	<path d="M202.9,183.5c-6.7,0-12.1,5.4-12.1,12.1c0,6.7,5.4,12.1,12.1,12.1c6.7,0,12.1-5.4,12.1-12.1
		C215,188.9,209.5,183.5,202.9,183.5z M202.9,202.6c-3.9,0-7.1-3.2-7.1-7.1c0-3.9,3.2-7.1,7.1-7.1c3.9,0,7.1,3.2,7.1,7.1
		C210,199.5,206.8,202.6,202.9,202.6z"/>
	<path d="M202.9,216.4c-6.7,0-12.1,5.4-12.1,12.1c0,6.7,5.4,12.1,12.1,12.1c6.7,0,12.1-5.4,12.1-12.1
		C215,221.8,209.5,216.4,202.9,216.4z M202.9,235.5c-3.9,0-7.1-3.2-7.1-7.1c0-3.9,3.2-7.1,7.1-7.1c3.9,0,7.1,3.2,7.1,7.1
		C210,232.4,206.8,235.5,202.9,235.5z"/>
	<path d="M202.9,249.3c-6.7,0-12.1,5.4-12.1,12.1c0,6.7,5.4,12.1,12.1,12.1c6.7,0,12.1-5.4,12.1-12.1
		C215,254.7,209.5,249.3,202.9,249.3z M202.9,268.4c-3.9,0-7.1-3.2-7.1-7.1c0-3.9,3.2-7.1,7.1-7.1c3.9,0,7.1,3.2,7.1,7.1
		C210,265.3,206.8,268.4,202.9,268.4z"/>
	<path d="M202.9,282.2c-6.7,0-12.1,5.4-12.1,12.1s5.4,12.1,12.1,12.1c6.7,0,12.1-5.4,12.1-12.1S209.5,282.2,202.9,282.2z
		 M202.9,301.3c-3.9,0-7.1-3.2-7.1-7.1s3.2-7.1,7.1-7.1c3.9,0,7.1,3.2,7.1,7.1S206.8,301.3,202.9,301.3z"/>
	<path d="M202.9,315.1c-6.7,0-12.1,5.4-12.1,12.1c0,6.7,5.4,12.1,12.1,12.1c6.7,0,12.1-5.4,12.1-12.1
		C215,320.5,209.5,315.1,202.9,315.1z M202.9,334.3c-3.9,0-7.1-3.2-7.1-7.1c0-3.9,3.2-7.1,7.1-7.1c3.9,0,7.1,3.2,7.1,7.1
		C210,331.1,206.8,334.3,202.9,334.3z"/>
	<path d="M235.8,207.6c6.7,0,12.1-5.4,12.1-12.1c0-6.7-5.4-12.1-12.1-12.1s-12.1,5.4-12.1,12.1C223.7,202.2,229.1,207.6,235.8,207.6
		z M235.8,188.5c3.9,0,7.1,3.2,7.1,7.1c0,3.9-3.2,7.1-7.1,7.1s-7.1-3.2-7.1-7.1C228.7,191.6,231.9,188.5,235.8,188.5z"/>
	<path d="M235.8,240.5c6.7,0,12.1-5.4,12.1-12.1c0-6.7-5.4-12.1-12.1-12.1s-12.1,5.4-12.1,12.1C223.7,235.1,229.1,240.5,235.8,240.5
		z M235.8,221.4c3.9,0,7.1,3.2,7.1,7.1c0,3.9-3.2,7.1-7.1,7.1s-7.1-3.2-7.1-7.1C228.7,224.5,231.9,221.4,235.8,221.4z"/>
	<path d="M235.8,273.4c6.7,0,12.1-5.4,12.1-12.1c0-6.7-5.4-12.1-12.1-12.1s-12.1,5.4-12.1,12.1C223.7,268,229.1,273.4,235.8,273.4z
		 M235.8,254.3c3.9,0,7.1,3.2,7.1,7.1c0,3.9-3.2,7.1-7.1,7.1s-7.1-3.2-7.1-7.1C228.7,257.5,231.9,254.3,235.8,254.3z"/>
	<path d="M235.8,306.3c6.7,0,12.1-5.4,12.1-12.1s-5.4-12.1-12.1-12.1s-12.1,5.4-12.1,12.1S229.1,306.3,235.8,306.3z M235.8,287.2
		c3.9,0,7.1,3.2,7.1,7.1s-3.2,7.1-7.1,7.1s-7.1-3.2-7.1-7.1S231.9,287.2,235.8,287.2z"/>
	<path d="M247.9,327.2c0-6.7-5.4-12.1-12.1-12.1s-12.1,5.4-12.1,12.1c0,6.7,5.4,12.1,12.1,12.1S247.9,333.8,247.9,327.2z
		 M228.7,327.2c0-3.9,3.2-7.1,7.1-7.1s7.1,3.2,7.1,7.1c0,3.9-3.2,7.1-7.1,7.1S228.7,331.1,228.7,327.2z"/>
	<path d="M268.7,207.6c6.7,0,12.1-5.4,12.1-12.1c0-6.7-5.4-12.1-12.1-12.1s-12.1,5.4-12.1,12.1C256.6,202.2,262,207.6,268.7,207.6z
		 M268.7,188.5c3.9,0,7.1,3.2,7.1,7.1c0,3.9-3.2,7.1-7.1,7.1c-3.9,0-7.1-3.2-7.1-7.1C261.6,191.6,264.8,188.5,268.7,188.5z"/>
	<path d="M268.7,240.5c6.7,0,12.1-5.4,12.1-12.1c0-6.7-5.4-12.1-12.1-12.1s-12.1,5.4-12.1,12.1C256.6,235.1,262,240.5,268.7,240.5z
		 M268.7,221.4c3.9,0,7.1,3.2,7.1,7.1c0,3.9-3.2,7.1-7.1,7.1c-3.9,0-7.1-3.2-7.1-7.1C261.6,224.5,264.8,221.4,268.7,221.4z"/>
	<path d="M268.7,273.4c6.7,0,12.1-5.4,12.1-12.1c0-6.7-5.4-12.1-12.1-12.1s-12.1,5.4-12.1,12.1C256.6,268,262,273.4,268.7,273.4z
		 M268.7,254.3c3.9,0,7.1,3.2,7.1,7.1c0,3.9-3.2,7.1-7.1,7.1c-3.9,0-7.1-3.2-7.1-7.1C261.6,257.5,264.8,254.3,268.7,254.3z"/>
	<path d="M268.7,306.3c6.7,0,12.1-5.4,12.1-12.1s-5.4-12.1-12.1-12.1s-12.1,5.4-12.1,12.1S262,306.3,268.7,306.3z M268.7,287.2
		c3.9,0,7.1,3.2,7.1,7.1s-3.2,7.1-7.1,7.1c-3.9,0-7.1-3.2-7.1-7.1S264.8,287.2,268.7,287.2z"/>
	<path d="M268.7,339.3c6.7,0,12.1-5.4,12.1-12.1c0-6.7-5.4-12.1-12.1-12.1s-12.1,5.4-12.1,12.1C256.6,333.8,262,339.3,268.7,339.3z
		 M268.7,320.1c3.9,0,7.1,3.2,7.1,7.1c0,3.9-3.2,7.1-7.1,7.1c-3.9,0-7.1-3.2-7.1-7.1C261.6,323.3,264.8,320.1,268.7,320.1z"/>
	<path d="M301.6,207.6c6.7,0,12.1-5.4,12.1-12.1c0-6.7-5.4-12.1-12.1-12.1s-12.1,5.4-12.1,12.1C289.5,202.2,295,207.6,301.6,207.6z
		 M301.6,188.5c3.9,0,7.1,3.2,7.1,7.1c0,3.9-3.2,7.1-7.1,7.1c-3.9,0-7.1-3.2-7.1-7.1C294.5,191.6,297.7,188.5,301.6,188.5z"/>
	<path d="M301.6,240.5c6.7,0,12.1-5.4,12.1-12.1c0-6.7-5.4-12.1-12.1-12.1s-12.1,5.4-12.1,12.1C289.5,235.1,295,240.5,301.6,240.5z"
		/>
	<path d="M301.6,273.4c6.7,0,12.1-5.4,12.1-12.1c0-6.7-5.4-12.1-12.1-12.1s-12.1,5.4-12.1,12.1C289.5,268,295,273.4,301.6,273.4z"/>
	<path d="M301.6,306.3c6.7,0,12.1-5.4,12.1-12.1s-5.4-12.1-12.1-12.1s-12.1,5.4-12.1,12.1S295,306.3,301.6,306.3z"/>
	<path d="M301.6,339.3c6.7,0,12.1-5.4,12.1-12.1c0-6.7-5.4-12.1-12.1-12.1s-12.1,5.4-12.1,12.1C289.5,333.8,295,339.3,301.6,339.3z
		 M301.6,320.1c3.9,0,7.1,3.2,7.1,7.1c0,3.9-3.2,7.1-7.1,7.1c-3.9,0-7.1-3.2-7.1-7.1C294.5,323.3,297.7,320.1,301.6,320.1z"/>
	<path d="M334.5,207.6c6.7,0,12.1-5.4,12.1-12.1c0-6.7-5.4-12.1-12.1-12.1c-6.7,0-12.1,5.4-12.1,12.1
		C322.4,202.2,327.9,207.6,334.5,207.6z M334.5,188.5c3.9,0,7.1,3.2,7.1,7.1c0,3.9-3.2,7.1-7.1,7.1c-3.9,0-7.1-3.2-7.1-7.1
		C327.5,191.6,330.6,188.5,334.5,188.5z"/>
	<path d="M334.5,240.5c6.7,0,12.1-5.4,12.1-12.1c0-6.7-5.4-12.1-12.1-12.1c-6.7,0-12.1,5.4-12.1,12.1
		C322.4,235.1,327.9,240.5,334.5,240.5z"/>
	<path d="M334.5,273.4c6.7,0,12.1-5.4,12.1-12.1c0-6.7-5.4-12.1-12.1-12.1c-6.7,0-12.1,5.4-12.1,12.1
		C322.4,268,327.9,273.4,334.5,273.4z"/>
	<path d="M334.5,306.3c6.7,0,12.1-5.4,12.1-12.1s-5.4-12.1-12.1-12.1c-6.7,0-12.1,5.4-12.1,12.1S327.9,306.3,334.5,306.3z"/>
	<path d="M334.5,339.3c6.7,0,12.1-5.4,12.1-12.1c0-6.7-5.4-12.1-12.1-12.1c-6.7,0-12.1,5.4-12.1,12.1
		C322.4,333.8,327.9,339.3,334.5,339.3z M334.5,320.1c3.9,0,7.1,3.2,7.1,7.1c0,3.9-3.2,7.1-7.1,7.1c-3.9,0-7.1-3.2-7.1-7.1
		C327.5,323.3,330.6,320.1,334.5,320.1z"/>
	<path d="M367.4,207.6c6.7,0,12.1-5.4,12.1-12.1c0-6.7-5.4-12.1-12.1-12.1s-12.1,5.4-12.1,12.1C355.4,202.2,360.8,207.6,367.4,207.6
		z M367.4,188.5c3.9,0,7.1,3.2,7.1,7.1c0,3.9-3.2,7.1-7.1,7.1c-3.9,0-7.1-3.2-7.1-7.1C360.4,191.6,363.5,188.5,367.4,188.5z"/>
	<path d="M367.4,240.5c6.7,0,12.1-5.4,12.1-12.1c0-6.7-5.4-12.1-12.1-12.1s-12.1,5.4-12.1,12.1C355.4,235.1,360.8,240.5,367.4,240.5
		z"/>
	<path d="M367.4,273.4c6.7,0,12.1-5.4,12.1-12.1c0-6.7-5.4-12.1-12.1-12.1s-12.1,5.4-12.1,12.1C355.4,268,360.8,273.4,367.4,273.4z"
		/>
	<path d="M367.4,306.3c6.7,0,12.1-5.4,12.1-12.1s-5.4-12.1-12.1-12.1s-12.1,5.4-12.1,12.1S360.8,306.3,367.4,306.3z"/>
	<path d="M367.4,339.3c6.7,0,12.1-5.4,12.1-12.1c0-6.7-5.4-12.1-12.1-12.1s-12.1,5.4-12.1,12.1C355.4,333.8,360.8,339.3,367.4,339.3
		z M367.4,320.1c3.9,0,7.1,3.2,7.1,7.1c0,3.9-3.2,7.1-7.1,7.1c-3.9,0-7.1-3.2-7.1-7.1C360.4,323.3,363.5,320.1,367.4,320.1z"/>
	<path d="M400.3,207.6c6.7,0,12.1-5.4,12.1-12.1c0-6.7-5.4-12.1-12.1-12.1c-6.7,0-12.1,5.4-12.1,12.1
		C388.3,202.2,393.7,207.6,400.3,207.6z M400.3,188.5c3.9,0,7.1,3.2,7.1,7.1c0,3.9-3.2,7.1-7.1,7.1c-3.9,0-7.1-3.2-7.1-7.1
		C393.3,191.6,396.4,188.5,400.3,188.5z"/>
	<path d="M400.3,240.5c6.7,0,12.1-5.4,12.1-12.1c0-6.7-5.4-12.1-12.1-12.1c-6.7,0-12.1,5.4-12.1,12.1
		C388.3,235.1,393.7,240.5,400.3,240.5z M400.3,221.4c3.9,0,7.1,3.2,7.1,7.1c0,3.9-3.2,7.1-7.1,7.1c-3.9,0-7.1-3.2-7.1-7.1
		C393.3,224.5,396.4,221.4,400.3,221.4z"/>
	<path d="M400.3,273.4c6.7,0,12.1-5.4,12.1-12.1c0-6.7-5.4-12.1-12.1-12.1c-6.7,0-12.1,5.4-12.1,12.1
		C388.3,268,393.7,273.4,400.3,273.4z M400.3,254.3c3.9,0,7.1,3.2,7.1,7.1c0,3.9-3.2,7.1-7.1,7.1c-3.9,0-7.1-3.2-7.1-7.1
		C393.3,257.5,396.4,254.3,400.3,254.3z"/>
	<path d="M400.3,306.3c6.7,0,12.1-5.4,12.1-12.1s-5.4-12.1-12.1-12.1c-6.7,0-12.1,5.4-12.1,12.1S393.7,306.3,400.3,306.3z
		 M400.3,287.2c3.9,0,7.1,3.2,7.1,7.1s-3.2,7.1-7.1,7.1c-3.9,0-7.1-3.2-7.1-7.1S396.4,287.2,400.3,287.2z"/>
	<path d="M400.3,339.3c6.7,0,12.1-5.4,12.1-12.1c0-6.7-5.4-12.1-12.1-12.1c-6.7,0-12.1,5.4-12.1,12.1
		C388.3,333.8,393.7,339.3,400.3,339.3z M400.3,320.1c3.9,0,7.1,3.2,7.1,7.1c0,3.9-3.2,7.1-7.1,7.1c-3.9,0-7.1-3.2-7.1-7.1
		C393.3,323.3,396.4,320.1,400.3,320.1z"/>
	<path d="M433.3,183.5c-6.7,0-12.1,5.4-12.1,12.1c0,6.7,5.4,12.1,12.1,12.1c6.7,0,12.1-5.4,12.1-12.1
		C445.3,188.9,439.9,183.5,433.3,183.5z M433.3,202.6c-3.9,0-7.1-3.2-7.1-7.1c0-3.9,3.2-7.1,7.1-7.1c3.9,0,7.1,3.2,7.1,7.1
		C440.3,199.5,437.2,202.6,433.3,202.6z"/>
	<path d="M433.3,216.4c-6.7,0-12.1,5.4-12.1,12.1c0,6.7,5.4,12.1,12.1,12.1c6.7,0,12.1-5.4,12.1-12.1
		C445.3,221.8,439.9,216.4,433.3,216.4z M433.3,235.5c-3.9,0-7.1-3.2-7.1-7.1c0-3.9,3.2-7.1,7.1-7.1c3.9,0,7.1,3.2,7.1,7.1
		C440.3,232.4,437.2,235.5,433.3,235.5z"/>
	<path d="M433.3,249.3c-6.7,0-12.1,5.4-12.1,12.1c0,6.7,5.4,12.1,12.1,12.1c6.7,0,12.1-5.4,12.1-12.1
		C445.3,254.7,439.9,249.3,433.3,249.3z M433.3,268.4c-3.9,0-7.1-3.2-7.1-7.1c0-3.9,3.2-7.1,7.1-7.1c3.9,0,7.1,3.2,7.1,7.1
		C440.3,265.3,437.2,268.4,433.3,268.4z"/>
	<path d="M433.3,282.2c-6.7,0-12.1,5.4-12.1,12.1s5.4,12.1,12.1,12.1c6.7,0,12.1-5.4,12.1-12.1S439.9,282.2,433.3,282.2z
		 M433.3,301.3c-3.9,0-7.1-3.2-7.1-7.1s3.2-7.1,7.1-7.1c3.9,0,7.1,3.2,7.1,7.1S437.2,301.3,433.3,301.3z"/>
	<path d="M433.3,315.1c-6.7,0-12.1,5.4-12.1,12.1c0,6.7,5.4,12.1,12.1,12.1c6.7,0,12.1-5.4,12.1-12.1
		C445.3,320.5,439.9,315.1,433.3,315.1z M433.3,334.3c-3.9,0-7.1-3.2-7.1-7.1c0-3.9,3.2-7.1,7.1-7.1c3.9,0,7.1,3.2,7.1,7.1
		C440.3,331.1,437.2,334.3,433.3,334.3z"/>
	<path d="M466.2,183.5c-6.7,0-12.1,5.4-12.1,12.1c0,6.7,5.4,12.1,12.1,12.1c6.7,0,12.1-5.4,12.1-12.1
		C478.2,188.9,472.8,183.5,466.2,183.5z M466.2,202.6c-3.9,0-7.1-3.2-7.1-7.1c0-3.9,3.2-7.1,7.1-7.1c3.9,0,7.1,3.2,7.1,7.1
		C473.2,199.5,470.1,202.6,466.2,202.6z"/>
	<path d="M466.2,216.4c-6.7,0-12.1,5.4-12.1,12.1c0,6.7,5.4,12.1,12.1,12.1c6.7,0,12.1-5.4,12.1-12.1
		C478.2,221.8,472.8,216.4,466.2,216.4z M466.2,235.5c-3.9,0-7.1-3.2-7.1-7.1c0-3.9,3.2-7.1,7.1-7.1c3.9,0,7.1,3.2,7.1,7.1
		C473.2,232.4,470.1,235.5,466.2,235.5z"/>
	<path d="M466.2,249.3c-6.7,0-12.1,5.4-12.1,12.1c0,6.7,5.4,12.1,12.1,12.1c6.7,0,12.1-5.4,12.1-12.1
		C478.2,254.7,472.8,249.3,466.2,249.3z M466.2,268.4c-3.9,0-7.1-3.2-7.1-7.1c0-3.9,3.2-7.1,7.1-7.1c3.9,0,7.1,3.2,7.1,7.1
		C473.2,265.3,470.1,268.4,466.2,268.4z"/>
	<path d="M466.2,282.2c-6.7,0-12.1,5.4-12.1,12.1s5.4,12.1,12.1,12.1c6.7,0,12.1-5.4,12.1-12.1S472.8,282.2,466.2,282.2z
		 M466.2,301.3c-3.9,0-7.1-3.2-7.1-7.1s3.2-7.1,7.1-7.1c3.9,0,7.1,3.2,7.1,7.1S470.1,301.3,466.2,301.3z"/>
	<path d="M466.2,315.1c-6.7,0-12.1,5.4-12.1,12.1c0,6.7,5.4,12.1,12.1,12.1c6.7,0,12.1-5.4,12.1-12.1
		C478.2,320.5,472.8,315.1,466.2,315.1z M466.2,334.3c-3.9,0-7.1-3.2-7.1-7.1c0-3.9,3.2-7.1,7.1-7.1c3.9,0,7.1,3.2,7.1,7.1
		C473.2,331.1,470.1,334.3,466.2,334.3z"/>
</g>
</svg>