<?xml version="1.0" encoding="utf-8"?>
<!-- Generator: Adobe Illustrator 21.0.0, SVG Export Plug-In . SVG Version: 6.00 Build 0)  -->
<svg version="1.1" id="Layer_1" xmlns="http://www.w3.org/2000/svg" xmlns:xlink="http://www.w3.org/1999/xlink" x="0px" y="0px"
	 viewBox="0 0 654 1197.2" style="enable-background:new 0 0 654 1197.2;" xml:space="preserve">
<g>
	<path d="M467.2,0H186.8C83.8,0,0,83.8,0,186.8v712.9c0,79.5,30.9,154.2,87.1,210.3c56.2,56.2,130.9,87.1,210.3,87.1h59
		c79.5,0,154.2-30.9,210.3-87.1c56.2-56.2,87.1-130.9,87.1-210.3V186.8C654,83.8,570.2,0,467.2,0z M561.2,1104.4
		c-54.7,54.7-127.4,84.8-204.7,84.8h-59c-77.3,0-150-30.1-204.7-84.8c-8.1-8.1-15.6-16.6-22.6-25.4h513.6
		C576.8,1087.8,569.3,1096.3,561.2,1104.4z M646,899.7c0,64.2-20.8,125.2-59.1,175.3H67.1C28.8,1024.9,8,963.9,8,899.7V186.8
		C8,88.2,88.2,8,186.8,8h280.5C565.8,8,646,88.2,646,186.8V899.7z"/>
	<path d="M463.4,10.1H190.6C102.5,10.1,30.8,81.8,30.8,170v712.6c0,88.1,71.7,159.8,159.8,159.8h272.8
		c88.1,0,159.8-71.7,159.8-159.8V170C623.2,81.8,551.5,10.1,463.4,10.1z M619.2,882.6c0,85.9-69.9,155.8-155.8,155.8H190.6
		c-85.9,0-155.8-69.9-155.8-155.8V170c0-85.9,69.9-155.8,155.8-155.8h272.8c85.9,0,155.8,69.9,155.8,155.8V882.6z"/>
	<circle cx="327" cy="96" r="12.4"/>
	<path d="M327,144c-99.3,0-180,80.7-180,180s80.7,180,180,180s180-80.7,180-180S426.3,144,327,144z M327,500c-97,0-176-79-176-176
		s79-176,176-176s176,79,176,176S424,500,327,500z"/>
	<path d="M372.7,1104.1h-91.5c-16,0-29,13-29,29s13,29,29,29h91.5c16,0,29-13,29-29S388.7,1104.1,372.7,1104.1z M372.7,1158.1h-91.5
		c-13.8,0-25-11.2-25-25s11.2-25,25-25h91.5c13.8,0,25,11.2,25,25S386.5,1158.1,372.7,1158.1z"/>
</g>
</svg>