<?xml version="1.0" standalone="no"?>
<!DOCTYPE svg PUBLIC "-//W3C//DTD SVG 20010904//EN"
 "http://www.w3.org/TR/2001/REC-SVG-20010904/DTD/svg10.dtd">
<svg version="1.0" xmlns="http://www.w3.org/2000/svg"
 width="106.000000pt" height="296.000000pt" viewBox="0 0 106.000000 296.000000"
 preserveAspectRatio="xMidYMid meet">

<g transform="translate(0.000000,296.000000) scale(0.100000,-0.100000)"
fill="#000000" stroke="none">
<path d="M160 2325 c0 -10 10 -15 28 -15 l27 -1 -30 -13 c-16 -7 -54 -38 -82
-69 l-53 -56 -2 -803 c-2 -442 -2 -829 -1 -861 2 -71 32 -138 79 -175 19 -15
34 -35 34 -44 0 -17 22 -18 321 -18 304 0 320 1 317 18 -2 10 15 39 39 66 24
27 45 62 48 80 3 17 5 409 3 871 -3 839 -3 840 -25 880 -28 53 -72 93 -119
110 l-39 14 48 1 c35 0 47 4 47 15 0 13 -42 15 -320 15 -278 0 -320 -2 -320
-15z m333 -32 c-29 -2 -77 -2 -105 0 -29 2 -6 3 52 3 58 0 81 -1 53 -3z m213
-35 c44 -7 91 -43 117 -91 l22 -42 0 -846 0 -845 -24 -36 c-42 -60 -82 -81
-170 -86 -71 -4 -79 -3 -83 15 -5 17 3 21 59 30 76 13 123 46 156 106 l22 42
0 815 c0 776 -1 817 -19 850 -22 42 -55 80 -70 80 -5 0 4 -15 21 -32 18 -18
37 -46 42 -61 8 -19 11 -291 11 -838 0 -665 -2 -815 -14 -842 -16 -39 -61 -82
-99 -96 -44 -17 -440 -14 -480 3 -39 16 -94 76 -104 114 -10 35 -10 1609 0
1644 10 37 64 98 102 114 23 11 82 13 255 10 124 -2 239 -6 256 -8z m-491
-1894 c27 -7 72 -14 100 -14 44 0 54 -3 58 -20 5 -18 0 -20 -42 -20 -81 0
-144 25 -190 75 -49 54 -55 72 -7 26 18 -17 55 -39 81 -47z"/>
<path d="M621 1441 c-26 -4 -40 -15 -54 -38 l-19 -33 30 -30 c35 -35 60 -38
93 -12 28 24 30 76 3 101 -14 12 -29 16 -53 12z m49 -30 c14 -28 13 -38 -10
-61 -25 -25 -45 -25 -70 0 -19 19 -18 40 3 68 15 19 65 15 77 -7z"/>
</g>
</svg>
