<?xml version="1.0" standalone="no"?>
<!DOCTYPE svg PUBLIC "-//W3C//DTD SVG 20010904//EN"
 "http://www.w3.org/TR/2001/REC-SVG-20010904/DTD/svg10.dtd">
<svg version="1.0" xmlns="http://www.w3.org/2000/svg"
 width="266.000000pt" height="366.000000pt" viewBox="0 0 266.000000 366.000000"
 preserveAspectRatio="xMidYMid meet">

<g transform="translate(0.000000,366.000000) scale(0.100000,-0.100000)"
fill="#000000" stroke="none">
<path d="M920 2955 c0 -11 11 -15 41 -15 l42 0 -34 -23 c-40 -27 -75 -76 -89
-126 -6 -23 -10 -368 -10 -949 l0 -913 25 -52 c25 -55 70 -108 120 -145 l30
-21 -62 -1 c-49 0 -63 -3 -63 -15 0 -13 51 -15 400 -15 349 0 400 2 400 15 0
8 -5 15 -12 15 -6 0 7 16 31 36 23 20 52 55 64 78 l22 41 0 930 0 930 -39 78
c-27 57 -50 87 -79 108 -38 28 -39 29 -14 29 17 0 27 5 27 15 0 13 -51 15
-400 15 -349 0 -400 -2 -400 -15z m565 -27 c-102 -16 -227 -20 -249 -9 -12 5
-30 12 -41 14 -11 3 63 5 165 4 150 0 174 -2 125 -9z m-377 -19 c-89 -13 -144
-49 -167 -112 -8 -19 -11 -252 -11 -713 0 -461 -3 -684 -10 -684 -7 0 -10 222
-8 688 l3 687 22 42 c37 68 97 102 183 101 44 0 44 -1 -12 -9z m119 0 c10 -10
110 -8 258 4 28 2 32 2 10 0 -22 -2 -44 -8 -50 -14 -16 -16 -209 -11 -241 6
-24 12 -26 15 -8 15 11 0 25 -5 31 -11z m394 0 c40 -14 103 -71 119 -108 7
-18 10 -310 8 -963 l-3 -936 -31 -38 c-61 -76 -75 -79 -374 -79 -146 0 -277 3
-292 8 -35 9 -94 61 -116 101 -14 26 -17 68 -20 259 -3 158 0 227 7 227 8 0
11 -69 11 -219 0 -228 4 -258 43 -299 50 -54 66 -57 312 -60 126 -2 253 -1
282 3 60 7 108 36 140 84 l23 34 0 929 c0 1005 3 954 -54 1007 -13 13 -49 32
-78 42 -29 9 -44 18 -32 18 12 1 36 -4 55 -10z m-461 -34 c0 -8 5 -15 10 -15
6 0 10 6 10 13 0 9 43 12 180 13 157 0 180 -2 181 -15 1 -13 2 -12 6 2 11 43
116 0 152 -63 21 -38 21 -39 21 -957 l0 -920 -23 -34 c-12 -18 -38 -44 -56
-56 -33 -23 -39 -23 -311 -23 -271 0 -278 1 -310 23 -74 50 -75 52 -78 313
l-3 234 30 0 31 0 0 -240 0 -240 25 0 c18 0 25 -5 25 -20 0 -20 7 -20 276 -20
267 0 276 1 281 20 4 13 14 20 30 20 l25 0 -7 643 c-4 353 -9 644 -11 646 -6
6 -511 9 -581 3 l-63 -5 0 -398 0 -399 -30 0 -30 0 2 694 c3 687 3 695 24 723
37 50 81 73 140 73 41 0 54 -4 54 -15z m615 -2001 c-8 -46 -68 -109 -123 -131
-41 -16 -78 -18 -282 -18 -244 0 -278 5 -330 45 l-25 19 38 -10 c23 -6 141 -9
300 -7 258 3 263 3 307 28 49 28 84 73 100 129 6 22 11 365 12 916 l3 880 3
-910 c1 -500 0 -924 -3 -941z m-517 1315 l32 0 0 -620 0 -619 35 0 35 0 0 620
c0 407 3 620 10 620 6 0 10 -84 10 -233 0 -129 3 -410 7 -626 l6 -391 39 -6
c21 -4 38 -10 38 -15 0 -19 -43 -29 -124 -29 -72 0 -89 3 -105 19 -20 20 -20
20 7 23 l27 3 2 210 c2 116 -1 397 -6 625 l-9 415 3 -617 3 -618 -108 0 -108
0 -7 183 c-3 100 -5 378 -3 617 l3 435 30 7 c17 4 57 4 90 2 33 -3 75 -5 93
-5z m313 1 l36 -10 6 -83 c4 -45 7 -322 7 -614 l0 -533 -110 0 -110 0 0 268
c0 148 -3 424 -7 615 l-6 346 34 9 c46 14 106 14 150 2z m-542 -395 c3 -291 1
-395 -8 -395 -8 0 -11 106 -11 395 0 217 3 395 8 395 4 0 9 -178 11 -395z
m321 -220 l0 -615 -25 0 -25 0 0 615 0 615 25 0 25 0 0 -615z m293 -37 l4
-618 -24 0 c-13 0 -26 -7 -29 -15 -5 -11 -10 -12 -24 -3 -26 17 -15 28 26 28
l34 0 1 628 c1 345 3 620 5 612 1 -8 5 -293 7 -632z m-581 -603 c35 -8 20 -25
-16 -18 -19 4 -25 13 -30 50 -9 65 -8 408 2 417 4 4 8 -94 10 -217 l2 -225 32
-7z m478 -15 c0 -13 -30 -13 -50 0 -11 7 -7 10 18 10 17 0 32 -4 32 -10z
m-344 -21 c19 5 34 6 34 1 0 -4 -10 -10 -22 -14 -46 -12 -128 -3 -128 14 0 4
18 4 41 -1 25 -6 54 -6 75 0z m347 -6 c-13 -2 -35 -2 -50 0 -16 2 -5 4 22 4
28 0 40 -2 28 -4z"/>
<path d="M1160 2595 c0 -28 -20 -33 -130 -38 l-65 -2 0 -85 0 -85 190 0 190 0
0 85 0 85 -40 3 c-106 6 -125 12 -125 38 0 13 -4 24 -10 24 -5 0 -10 -11 -10
-25z m54 -41 c12 -4 16 -20 16 -55 0 -47 -1 -49 -21 -38 -12 6 -34 9 -50 7
-28 -4 -29 -3 -29 37 0 23 3 45 7 48 8 9 56 9 77 1z m-191 -11 c-7 -2 -21 -2
-30 0 -10 3 -4 5 12 5 17 0 24 -2 18 -5z m317 -65 l0 -73 -135 3 c-90 2 -135
0 -135 -7 0 -6 -7 -11 -15 -11 -12 0 -15 14 -15 70 0 56 3 70 15 70 12 0 15
-13 15 -55 0 -57 11 -69 39 -42 11 9 14 9 18 0 3 -9 9 -10 23 -1 13 8 25 9 42
2 13 -6 43 -11 68 -11 25 -1 36 1 25 3 -36 9 -48 14 -42 20 8 9 77 -7 71 -17
-3 -5 0 -9 6 -9 7 0 10 20 8 58 l-3 57 -45 6 -45 6 53 1 52 2 0 -72z m-310 35
c0 -10 -3 -42 -6 -70 -5 -41 -11 -53 -24 -53 -23 0 -30 20 -30 79 0 54 4 61
37 61 15 0 23 -6 23 -17z m285 7 c7 -11 -9 -11 -45 0 -24 8 -24 8 7 9 17 1 35
-3 38 -9z m-208 -47 c-3 -10 -5 -2 -5 17 0 19 2 27 5 18 2 -10 2 -26 0 -35z
m212 21 c10 -10 -8 -13 -42 -7 -20 3 -37 10 -37 15 0 9 69 2 79 -8z m-5 -34
c7 -7 -1 -8 -24 -4 -19 4 -39 11 -45 17 -7 6 2 7 25 3 19 -3 39 -11 44 -16z
m-56 -67 c-32 -2 -86 -2 -120 0 -35 2 -9 3 57 3 66 0 94 -1 63 -3z"/>
<path d="M1507 2593 c-77 -49 -87 -135 -21 -192 97 -86 260 15 211 131 -18 44
-48 65 -108 76 -39 7 -50 5 -82 -15z"/>
</g>
</svg>
