<?xml version="1.0" encoding="utf-8"?>
<!-- Generator: Adobe Illustrator 21.0.0, SVG Export Plug-In . SVG Version: 6.00 Build 0)  -->
<svg version="1.1" id="Layer_1" xmlns="http://www.w3.org/2000/svg" xmlns:xlink="http://www.w3.org/1999/xlink" x="0px" y="0px"
	 viewBox="0 0 1946.2 1946.2" style="enable-background:new 0 0 1946.2 1946.2;" xml:space="preserve">
<style type="text/css">
	.st0{fill-rule:evenodd;clip-rule:evenodd;}
</style>
<path class="st0" d="M1890,56.2C1853.7,20,1805.7,0,1754.8,0H191.3C140.4,0,92.4,20,56.2,56.2C20,92.4,0,140.4,0,191.3v1563.5
	c0,50.9,20,98.9,56.2,135.1c36.2,36.2,84.2,56.2,135.1,56.2h1563.5c50.9,0,98.9-20,135.1-56.2c36.2-36.2,56.2-84.2,56.2-135.1V191.3
	C1946.2,140.4,1926.2,92.4,1890,56.2z M1932,1754.8c0,47.1-18.5,91.6-52,125.1c-33.6,33.6-78,52-125.1,52H191.3
	c-47.1,0-91.6-18.5-125.1-52s-52-78-52-125.1V191.3c0-47.1,18.5-91.6,52-125.1c33.6-33.6,78-52,125.1-52h1563.5
	c47.1,0,91.6,18.5,125.1,52c33.6,33.6,52,78,52,125.1V1754.8z"/>
<path class="st0" d="M1859.9,86.2c-28.2-28.2-65.5-43.7-105.1-43.7H191.3c-39.6,0-76.9,15.5-105.1,43.7
	C58,114.4,42.5,151.7,42.5,191.3v1563.5c0,39.6,15.5,76.9,43.7,105.1c28.2,28.2,65.5,43.7,105.1,43.7h1563.5
	c39.6,0,76.9-15.5,105.1-43.7s43.7-65.5,43.7-105.1V191.3C1903.7,151.7,1888.1,114.4,1859.9,86.2z M952.1,1889.5H438.7H191.3
	c-35.8,0-69.6-14-95.1-39.6c-25.5-25.5-39.6-59.3-39.6-95.1v-247.3V994.1v-42V438.5V191.3c0-35.8,14-69.6,39.6-95.1
	c25.5-25.5,59.3-39.6,95.1-39.6h236.9c3.5-0.1,7-0.1,10.5-0.1h513.4L952.1,1889.5L952.1,1889.5z M1889.5,438.5v513.6v42v513.4v247.3
	c0,35.8-14,69.6-39.6,95.1s-59.3,39.6-95.1,39.6h-247.3H994.1V56.5h513.4c3.5,0,7,0.1,10.5,0.1h236.9c35.8,0,69.6,14,95.1,39.6
	c25.5,25.5,39.6,59.3,39.6,95.1V438.5z"/>
</svg>