<?xml version="1.0" encoding="utf-8"?>
<!-- Generator: Adobe Illustrator 20.0.0, SVG Export Plug-In . SVG Version: 6.00 Build 0)  -->
<svg version="1.1" id="Layer_1" xmlns="http://www.w3.org/2000/svg" xmlns:xlink="http://www.w3.org/1999/xlink" x="0px" y="0px"
	 viewBox="0 0 1946.17 1946.17" style="enable-background:new 0 0 1946.17 1946.17;" xml:space="preserve">
<style type="text/css">
	.st0{fill-rule:evenodd;clip-rule:evenodd;}
</style>
<path class="st0" d="M1889.97,56.2C1853.73,19.96,1805.74,0,1754.83,0H191.34c-50.9,0-98.9,19.96-135.14,56.2
	C19.96,92.44,0,140.43,0,191.34v1563.5c0,50.9,19.96,98.9,56.2,135.14c36.24,36.24,84.23,56.2,135.14,56.2h1563.5
	c50.9,0,98.9-19.96,135.14-56.2c36.24-36.24,56.2-84.23,56.2-135.14V191.34C1946.17,140.43,1926.21,92.44,1889.97,56.2z
	 M1932,1754.84c0,47.12-18.48,91.55-52.05,125.12c-33.56,33.56-78,52.05-125.12,52.05H191.34c-47.12,0-91.55-18.48-125.12-52.05
	s-52.05-78-52.05-125.12V191.34c0-47.12,18.48-91.55,52.05-125.12c33.56-33.56,78-52.05,125.12-52.05h1563.5
	c47.12,0,91.55,18.48,125.12,52.05c33.56,33.56,52.05,78,52.05,125.12V1754.84z"/>
<path class="st0" d="M1754.83,42.52H191.34c-39.59,0-76.92,15.52-105.11,43.71c-28.19,28.19-43.71,65.51-43.71,105.11v1563.5
	c0,39.59,15.52,76.92,43.71,105.11c28.19,28.19,65.51,43.71,105.11,43.71h1563.5c39.59,0,76.92-15.52,105.11-43.71
	s43.71-65.51,43.71-105.11V191.34c0-39.59-15.52-76.92-43.71-105.11C1831.76,58.04,1794.43,42.52,1754.83,42.52z M952.09,1889.48
	H191.34c-35.81,0-69.58-14.05-95.09-39.56c-25.51-25.51-39.56-59.28-39.56-95.09V994.09H838.7c62.36,0,113.39,51.02,113.39,113.39
	V1889.48z M952.09,838.7c0,62.36-51.02,113.39-113.39,113.39H56.69V191.34c0-35.81,14.05-69.58,39.56-95.09
	c25.51-25.51,59.28-39.56,95.09-39.56h760.75V838.7z M1889.48,1754.83c0,35.81-14.05,69.58-39.56,95.09s-59.28,39.56-95.09,39.56
	H994.09v-782.01c0-62.36,51.02-113.39,113.39-113.39h782.01V1754.83z M1889.48,952.09h-782.01c-62.36,0-113.39-51.02-113.39-113.39
	V56.69h760.75c35.81,0,69.58,14.05,95.09,39.56c25.51,25.51,39.56,59.28,39.56,95.09V952.09z"/>
</svg>