<?xml version="1.0" encoding="utf-8"?>
<!-- Generator: Adobe Illustrator 20.0.0, SVG Export Plug-In . SVG Version: 6.00 Build 0)  -->
<svg version="1.1" id="Layer_1" xmlns="http://www.w3.org/2000/svg" xmlns:xlink="http://www.w3.org/1999/xlink" x="0px" y="0px"
	 viewBox="0 0 818.24 818.24" style="enable-background:new 0 0 818.24 818.24;" xml:space="preserve">
<style type="text/css">
	.st0{fill:#1A1A18;}
	.st1{fill-rule:evenodd;clip-rule:evenodd;fill:#1A1A18;}
	.st2{fill:none;}
</style>
<g>
	<path class="st0" d="M604.64,817.24H213.6c-56.56,0-109.88-22.18-150.15-62.45C23.18,714.52,1,661.2,1,604.64V213.6
		c0-56.56,22.18-109.88,62.45-150.15C103.71,23.18,157.04,1,213.6,1h391.04c56.56,0,109.88,22.18,150.15,62.45
		c40.27,40.27,62.45,93.59,62.45,150.15v391.04c0,56.56-22.18,109.88-62.45,150.15C714.52,795.06,661.2,817.24,604.64,817.24z
		 M213.6,12.34c-53.53,0-104.01,21-142.13,59.12c-38.13,38.13-59.12,88.6-59.12,142.13v391.04c0,53.53,21,104.01,59.12,142.14
		c38.13,38.13,88.6,59.12,142.13,59.12h391.04c53.53,0,104.01-21,142.13-59.12c38.13-38.13,59.12-88.61,59.12-142.14V213.6
		c0-53.53-21-104.01-59.12-142.13c-38.13-38.13-88.61-59.12-142.13-59.12H213.6z"/>
</g>
<g>
	<path class="st0" d="M409.12,750.33c-91.14,0-176.83-35.49-241.27-99.94c-64.45-64.45-99.94-150.13-99.94-241.27
		c0-91.14,35.49-176.83,99.94-241.27c64.45-64.45,150.13-99.94,241.27-99.94c91.14,0,176.83,35.49,241.27,99.94
		c64.45,64.45,99.94,150.13,99.94,241.27c0,91.14-35.49,176.83-99.94,241.27S500.26,750.33,409.12,750.33z M409.12,74.99
		c-89.25,0-173.15,34.75-236.26,97.86c-63.11,63.11-97.86,147.01-97.86,236.26c0,89.25,34.75,173.16,97.86,236.26
		c63.11,63.11,147.01,97.86,236.26,97.86c89.25,0,173.15-34.76,236.26-97.86c63.11-63.11,97.86-147.01,97.86-236.26
		c0-89.25-34.76-173.15-97.86-236.26C582.27,109.75,498.37,74.99,409.12,74.99z"/>
</g>
<g>
	<circle class="st1" cx="681.7" cy="681.7" r="10.31"/>
</g>
<g>
	<path class="st0" d="M681.7,692.29c-5.84,0-10.59-4.75-10.59-10.59s4.75-10.59,10.59-10.59s10.59,4.75,10.59,10.59
		S687.54,692.29,681.7,692.29z M681.7,671.67c-5.53,0-10.03,4.5-10.03,10.03s4.5,10.03,10.03,10.03s10.03-4.5,10.03-10.03
		S687.23,671.67,681.7,671.67z"/>
</g>
<g>
	<circle class="st1" cx="136.76" cy="136.76" r="10.31"/>
</g>
<g>
	<path class="st0" d="M136.76,147.35c-5.84,0-10.59-4.75-10.59-10.59s4.75-10.59,10.59-10.59s10.59,4.75,10.59,10.59
		S142.6,147.35,136.76,147.35z M136.76,126.73c-5.53,0-10.03,4.5-10.03,10.03s4.5,10.03,10.03,10.03s10.03-4.5,10.03-10.03
		S142.28,126.73,136.76,126.73z"/>
</g>
<g>
	<rect class="st2" width="818.24" height="818.24"/>
</g>
</svg>