<?xml version="1.0" encoding="utf-8"?>
<!-- Generator: Adobe Illustrator 20.0.0, SVG Export Plug-In . SVG Version: 6.00 Build 0)  -->
<svg version="1.1" id="Layer_1" xmlns="http://www.w3.org/2000/svg" xmlns:xlink="http://www.w3.org/1999/xlink" x="0px" y="0px"
	 viewBox="0 0 259.33 586.64" style="enable-background:new 0 0 259.33 586.64;" xml:space="preserve">
<style type="text/css">
	.st0{fill-rule:evenodd;clip-rule:evenodd;fill:#020204;}
</style>
<g>
	<path class="st0" d="M179.67,416.84H79.66c-21.61,0-40.94-9.96-53.65-25.52v125.87c0,28.92,23.52,52.44,52.44,52.44h102.44
		c28.92,0,52.44-23.53,52.44-52.44V391.32C220.61,406.88,201.29,416.84,179.67,416.84z M120.02,529.55
		c0,17.53-12.36,26.04-37.79,26.04c-25.1,0-38.92-9.25-38.92-26.04v-8.87c0-16.79,13.82-26.04,38.92-26.04
		c25.43,0,37.79,8.52,37.79,26.04V529.55z M120.02,456.8c0,17.52-12.36,26.04-37.79,26.04c-25.1,0-38.92-9.25-38.92-26.04v-8.87
		c0-16.79,13.82-26.04,38.92-26.04c25.43,0,37.79,8.52,37.79,26.04V456.8z M129.66,554.76c-3.68,0-6.67-2.99-6.67-6.67
		s2.99-6.67,6.67-6.67c3.68,0,6.67,2.99,6.67,6.67S133.34,554.76,129.66,554.76z M218.64,529.55c0,17.53-12.36,26.04-37.79,26.04
		c-25.1,0-38.92-9.25-38.92-26.04v-8.87c0-16.79,13.82-26.04,38.92-26.04c25.43,0,37.79,8.52,37.79,26.04V529.55z M218.64,456.8
		c0,17.52-12.36,26.04-37.79,26.04c-25.1,0-38.92-9.25-38.92-26.04v-8.87c0-16.79,13.82-26.04,38.92-26.04
		c25.43,0,37.79,8.52,37.79,26.04V456.8z"/>
	<path class="st0" d="M246.1,170.92V66.42C246.1,29.89,216.21,0,179.67,0H79.66C43.12,0,13.23,29.89,13.23,66.42v104.5
		C4.9,182.96,0,197.54,0,213.26v298.79c0,41.12,33.46,74.58,74.58,74.58h110.17c41.12,0,74.58-33.46,74.58-74.58V213.26
		C259.33,197.54,254.43,182.96,246.1,170.92z M23.17,382.4c11.74,18.92,32.7,31.6,56.49,31.6h100.02c23.79,0,44.75-12.68,56.48-31.6
		v134.79c0,30.48-24.8,55.28-55.27,55.28H78.45c-30.48,0-55.28-24.8-55.28-55.28V382.4z M34.49,70.96
		c0-24.9,20.26-45.16,45.16-45.16h100.02c24.9,0,45.16,20.26,45.16,45.16v118.3v16.53v146.33c0,24.9-20.26,45.16-45.16,45.16H79.66
		c-24.9,0-45.16-20.26-45.16-45.16V205.79v-16.53V70.96z M74.58,583.8c-39.56,0-71.75-32.19-71.75-71.75V213.26
		c0-13.6,3.8-26.32,10.4-37.17v49.64c-0.91,4.37-1.4,8.88-1.4,13.51v277.94c0,36.73,29.88,66.62,66.61,66.62H74.58z M256.5,512.05
		c0,39.56-32.19,71.75-71.75,71.75h-3.86c36.73,0,66.61-29.88,66.61-66.62V239.25c0-4.63-0.49-9.15-1.4-13.52v-49.64
		c6.6,10.85,10.4,23.57,10.4,37.17V512.05z"/>
</g>
</svg>