<?xml version="1.0" encoding="utf-8"?>
<!-- Generator: Adobe Illustrator 21.0.0, SVG Export Plug-In . SVG Version: 6.00 Build 0)  -->
<svg version="1.1" id="Layer_1" xmlns="http://www.w3.org/2000/svg" xmlns:xlink="http://www.w3.org/1999/xlink" x="0px" y="0px"
	 viewBox="0 0 862.9 865.4" style="enable-background:new 0 0 862.9 865.4;" xml:space="preserve">
<style type="text/css">
	.st0{fill-rule:evenodd;clip-rule:evenodd;fill:#0074CC;}
</style>
<g>
	<path d="M132.3,170.5c-8.6,0-17.2-3.3-23.8-9.8L23.1,75.3l1.1-1.9C35.8,54,50.9,39,68.9,28.8l1.9-1.1l85.4,85.4
		c13.1,13.1,13.1,34.5,0,47.6C149.6,167.2,140.9,170.5,132.3,170.5z M30.2,74.4l82.3,82.3c10.9,10.9,28.7,10.9,39.6,0
		c10.9-10.9,10.9-28.7,0-39.6L69.8,34.8C54.1,44.2,40.8,57.5,30.2,74.4z"/>
</g>
<g>
	<path d="M638.3,202.5c-1.9,0-3.7-0.7-5.2-2.1L574.8,142c-1.4-1.4-2.1-3.2-2.1-5.2c0-2,0.8-3.8,2.1-5.2l10.1-10.1H605l48.6,48.6
		v20.1l-10.1,10.1C642.1,201.8,640.2,202.5,638.3,202.5z M587.2,127.2l-8.4,8.4c-0.3,0.3-0.5,0.7-0.5,1.2c0,0.4,0.2,0.9,0.5,1.2
		l58.4,58.4c0.6,0.6,1.7,0.6,2.3,0l8.4-8.4v-15.4l-45.3-45.3H587.2z"/>
</g>
<path class="st0" d="M208.8,77.2c-20.6,0-37.4,16.8-37.4,37.4c0,20.6,16.8,37.4,37.4,37.4s37.4-16.8,37.4-37.4
	C246.1,94,229.4,77.2,208.8,77.2z"/>
<path class="st0" d="M133.3,123.7c-8.7,0-15.8,7.1-15.8,15.8s7.1,15.8,15.8,15.8s15.8-7.1,15.8-15.8S142,123.7,133.3,123.7z"/>
<g>
	<path d="M806.4,0h-744C28,0,0,28,0,62.4v761.3c0,25.3,11.2,35.2,20.6,39.1c4.5,1.9,9.3,2.7,14.3,2.7c17.7,0,37.4-10.3,49.9-22.8
		L845.2,82.2c7.8-7.8,16-18.2,17.7-36.9l0-0.5C862.9,17.2,841.3,0,806.4,0z M278,633.4L62.7,418.2c-11.7-11.7-18.2-27.4-18.2-44.1
		S51,341.8,62.7,330L324.4,68.4c24.3-24.3,63.9-24.3,88.2,0l215.2,215.2L278,633.4z M837.2,74.2L631.8,279.6L416.6,64.4
		c-26.5-26.5-69.7-26.5-96.2,0L58.7,326c-12.8,12.8-19.8,29.9-19.8,48.1s7,35.3,19.8,48.1l215.2,215.2L76.8,834.6
		c-13.3,13.3-36.9,23.9-51.8,17.7c-9-3.7-13.6-13.4-13.6-28.7V62.4c0-28.1,22.9-51,51-51h744c10.6,0,45,2.4,45.2,33.2
		C850.2,58.6,844.8,66.6,837.2,74.2z"/>
	<path d="M208.8,71.5c-23.7,0-43,19.3-43,43c0,23.7,19.3,43,43,43s43-19.3,43-43C251.8,90.8,232.5,71.5,208.8,71.5z M208.8,151.9
		c-20.6,0-37.4-16.8-37.4-37.4c0-20.6,16.8-37.4,37.4-37.4s37.4,16.8,37.4,37.4C246.1,135.2,229.4,151.9,208.8,151.9z"/>
	<path d="M133.3,118.1c-11.8,0-21.4,9.6-21.4,21.4c0,11.8,9.6,21.4,21.4,21.4c11.8,0,21.4-9.6,21.4-21.4
		C154.7,127.7,145.1,118.1,133.3,118.1z M133.3,155.3c-8.7,0-15.8-7.1-15.8-15.8s7.1-15.8,15.8-15.8s15.8,7.1,15.8,15.8
		S142,155.3,133.3,155.3z"/>
</g>
</svg>