<?xml version="1.0" encoding="utf-8"?>
<!-- Generator: Adobe Illustrator 21.0.0, SVG Export Plug-In . SVG Version: 6.00 Build 0)  -->
<svg version="1.1" id="Layer_1" xmlns="http://www.w3.org/2000/svg" xmlns:xlink="http://www.w3.org/1999/xlink" x="0px" y="0px"
	 viewBox="0 0 1165 1417.3" style="enable-background:new 0 0 1165 1417.3;" xml:space="preserve">
<style type="text/css">
	.st0{fill:#010101;}
</style>
<g>
	<path class="st0" d="M683.8,57.1c0-13.3-10.8-24-24-24H505.2c-13.3,0-24,10.8-24,24c0,13.3,10.8,24,24,24h154.6
		C673.1,81.1,683.8,70.4,683.8,57.1z M491.3,57.1c0-7.6,6.2-13.8,13.8-13.8h154.6c7.6,0,13.8,6.2,13.8,13.8
		c0,7.6-6.2,13.8-13.8,13.8H505.2C497.6,70.9,491.3,64.7,491.3,57.1z"/>
	<circle class="st0" cx="572.5" cy="165.6" r="33.8"/>
	<path class="st0" d="M572.5,116.9c-26.8,0-48.7,21.8-48.7,48.7s21.8,48.7,48.7,48.7c26.8,0,48.7-21.8,48.7-48.7
		S599.3,116.9,572.5,116.9z M572.5,209.2c-24,0-43.6-19.5-43.6-43.6s19.5-43.6,43.6-43.6c24,0,43.6,19.5,43.6,43.6
		S596.5,209.2,572.5,209.2z"/>
	<path class="st0" d="M495.5,1351.1v0.4c0,11.8,9.6,21.4,21.4,21.4H648c11.8,0,21.4-9.6,21.4-21.4v-0.4c0-11.8-9.6-21.4-21.4-21.4
		H516.9C505.1,1329.7,495.5,1339.3,495.5,1351.1z M659.2,1351.1v0.4c0,6.2-5,11.2-11.2,11.2H516.9c-6.2,0-11.2-5-11.2-11.2v-0.4
		c0-6.2,5-11.2,11.2-11.2H648C654.2,1339.9,659.2,1344.9,659.2,1351.1z"/>
	<path class="st0" d="M1144.7,483c-1-16-2.3-41.1-3.7-67.6c-3.7-69.5-6.4-119.5-8.4-130.3c-10.7-56.8-27.4-94.3-54.4-121.5
		c-28.4-28.7-68.2-46.8-129.1-58.5c-3-0.6-6.1-1.1-9.2-1.7C904.7,78.8,782.5,5.9,573.3,5.9c-129.6,0-225.1,28.5-282.4,52.5
		c-51.3,21.4-81.5,42.6-91.3,50.1c-3.7,0.8-7.3,1.7-10.8,2.6c0,0,0,0,0,0c-49.8,12.7-84.3,31.7-108.7,59.8
		C56.9,197.5,42.2,232.8,32.4,285c-2,10.8-4.8,60.8-8.4,130.3c-1.4,26.5-2.7,51.6-3.7,67.6c-2.5,40-5.7,131.2-6.5,221.7
		c0,0.1,0,0.1,0,0.2c0.9,90.5,4,181.8,6.5,221.7c1,16,2.3,41.1,3.7,67.6c3.7,69.5,6.4,119.5,8.4,130.3
		c11.1,59.2,29.1,97.9,58.4,125.5c30.6,28.7,74.2,46.4,141.5,57.5c3.4,0.6,6.8,1.1,10.3,1.6c49.3,30.7,162.5,85.7,339.8,85.7
		c177.3,0,290.6-55.1,339.8-85.7c3.5-0.5,6.9-1.1,10.3-1.6c67.3-11.1,111-28.8,141.5-57.5c29.3-27.5,47.3-66.2,58.4-125.5
		c2-10.8,4.8-60.8,8.4-130.3c1.4-26.5,2.7-51.6,3.7-67.6c2.5-39.8,5.7-131,6.5-221.7c0-0.1,0-0.1,0-0.2
		C1150.4,614,1147.3,522.8,1144.7,483z M294.8,67.8c56.4-23.6,150.6-51.7,278.5-51.7c178.4,0,292.1,53.4,341.8,83.3
		c-74.3-10.4-175.3-14-332.3-16.6c-0.1,0-0.2,0-0.3,0c-153.4,2.6-272.9,5.7-357.1,20.5C240.6,93.7,263.8,80.7,294.8,67.8z
		 M582.5,1384.6c-153.2,0-257.5-41.5-313.5-72c73,8.6,170.6,11.8,313.3,14.1c0.1,0,0.1,0,0.2,0c0.1,0,0.1,0,0.2,0
		c142.7-2.4,240.4-5.5,313.3-14.1C840,1343.1,735.7,1384.6,582.5,1384.6z M1124.4,925.3c-1,16.1-2.3,41.3-3.8,67.8
		c-2.8,52.3-6.2,117.3-8.1,127.6c-10.3,54.7-26.4,90-52.3,114.3c-27.4,25.8-67.8,41.9-130.9,52.3c-75.1,12.3-179.8,16.2-346.8,19
		c-167-2.8-271.7-6.6-346.8-19c-63.1-10.4-103.4-26.5-130.9-52.3c-25.9-24.4-42.1-59.6-52.3-114.3c-1.9-10.3-5.4-75.4-8.1-127.6
		c-1.4-26.6-2.7-51.7-3.7-67.8c-2.6-40.2-5.7-133.7-6.5-220.5c0.8-86.8,3.9-180.3,6.5-220.5c1-16.1,2.3-41.2,3.7-67.8
		c2.8-52.3,6.2-117.3,8.1-127.6c9.1-48.5,22.4-80.8,43-104.6c21.5-24.8,52.7-41.8,98.3-53.4c82.3-21,213-24.7,388.7-27.6
		c154.7,2.6,279.7,5.8,362.6,21.8c56.6,10.9,93.2,27.2,118.5,52.8c23.9,24.2,39,58.4,48.9,111c1.9,10.3,5.4,75.4,8.1,127.6
		c1.4,26.6,2.7,51.7,3.8,67.8c2.5,40.1,5.7,133.5,6.5,220.5C1130,791.8,1126.9,885.2,1124.4,925.3z"/>
</g>
</svg>