<?xml version="1.0" encoding="utf-8"?>
<!-- Generator: Adobe Illustrator 21.0.0, SVG Export Plug-In . SVG Version: 6.00 Build 0)  -->
<svg version="1.1" id="Layer_1" xmlns="http://www.w3.org/2000/svg" xmlns:xlink="http://www.w3.org/1999/xlink" x="0px" y="0px"
	 viewBox="0 0 1417.3 756.9" style="enable-background:new 0 0 1417.3 756.9;" xml:space="preserve">
<g>
	<path d="M1345.5,157.7c-18.2-36.9-34.6-60.8-48.8-71.2c-16.8-12.2-71.8-8.5-79-8c-2.4,0-14.4,0.9-24.5,13.2
		c-1.2,1.3-7.8,9.2-7.9,20.5c-0.1,10.3,0.9,17.6,1.9,24.2c0.4,2.4,1.8,4.4,3.9,5.5c4.4,2.4,12.9,0.9,25.6-4.2
		c24.4,51.8,54,140.2,63.3,218.2c12.9,108.4,7.2,183-1.7,214.1c-2.6,9.1-5.3,16.9-8.2,23.5c-11.5-10.3-34-34.7-74-80.2
		c-48.8-55.4-159.4-215.3-164.1-222.1c-41.5-122.2-74.8-173.5-91-193.2c-2.9-3.6-9.1-9.9-17.8-11.7c-9.5-2-28.4-3.7-64.4-0.5l-0.3,0
		c-0.1,0-0.6,0.1-1.3,0.3c-1.1,0.1-2.2,0.2-3.3,0.3l-0.7,0.1c-1.7,0.4-17.2,3.9-22.1,14c-1.5,3.1-2.6,8.1,0.5,14.2
		C833,117.4,956.7,381.7,977,593c2.9,30.8,3.7,53.4,2.4,70.6C897.8,571,856.4,494.7,804.5,399l-8.4-15.4
		C736.7,274.2,680.2,99.6,676,82c-0.2-2.6-0.5-4.5-0.6-5.9c-3.4-24.9-24.5-33.6-33.6-33.7c-8.3-0.1-23.7,0-23.8,0
		c-4.6,0-8.8,0.4-12.7,1c-13.1,1.2-23.2,5.6-30.1,13c-9,9.7-9.6,21.6-9.1,27.8l0.2,3.2c6.7,86.1,10,164.6,11.5,215.3
		c3.6,119.1-7.6,231.2-12,269.3c-25.9-50.4-54.6-192.8-64.3-254.2c-2.7-17.1-5.9-40.2-9.3-64.6c-8-58.1-18-130.3-28.5-172.9
		c-15.2-61.6-25.2-63.9-70.1-63.9c-0.1,0-0.2,0-0.2,0h-1.4c-48.5,0-55.7,28.2-64.8,63.8c-15.3,59.7-40.8,157.2-54,207.7
		c-0.3-4.2-0.7-8.8-1.1-13.9c-5-63.7-16.2-144.8-58-207.3c-12.9-19.3-28.8-33.8-47.2-43C115-2,55.1,19.4,29.5,39.1
		c-6.8,4.8-8.4,12.3-8.5,13.2l-6.8,84.9c-0.3,3.5,2,6.6,5.5,7.4c3.4,0.8,6.8-1,8.1-4.3c3.8-9.5,6.4-16,7.2-17.8
		C53.4,83.1,84.4,61.8,102.7,52c12,6.1,72.1,44.3,88.1,208.8c14.1,144.6-11,284.1-22.6,337.6c-11.5,31.5-17.6,51.2-18.8,60.3
		c-0.8,6.3,0.8,11.8,4.6,16.1c11.1,12.2,38.7,11.2,60.9,10.5c3.6-0.1,7.1-0.3,10.1-0.3c15.1-0.2,27.8-13.8,42.6-45.2
		c14-29.9,30.4-77.2,50.6-138.9c26.1-79.6,65-243.2,80.2-308.4l41.9,262.7c0.1,0.5,9.3,53.1,25.9,105.7
		c22.8,72.6,48.3,110.7,75.8,113.4c46.3,4.5,80.5,4.5,96.5-10.7c4.8-4.5,17.2-19.1,28.4-56.6c11.4-37.9,18.1-86.7,19.7-145.1
		c0.8-29.2,0.9-64.4,0.3-104.8c24.6,53.7,82.8,176.6,127,238l2,2.8c56.9,78.9,106.1,147.1,166.8,147.1l6.2,0c1.9,0,3.7,0,5.5,0
		c50.5,0,70.1-1.4,86.4-42.4c12.1-30.5,9.9-111.4,2.6-180.5c16.6,22.1,43.5,56.9,57.9,70.1c1.7,1.6,3.6,3.4,5.7,5.3
		c18.7,17.6,50,47,89.9,55.8c46.7,10.3,111.3,3.4,130.1-22.9c4.3-4.4,36.3-41.1,36.3-133.7C1403.1,394.2,1388.1,243.9,1345.5,157.7z
		 M1069.8,504.4c0,0.2,0,0.3,0,0.5c0.5,3.9,0.9,7.7,1.4,11.6c8.8,80.2,8.3,153.7-1.8,179.1c-14.8,37.4-30.9,37.4-84.5,37.3l-6.2,0
		c-2.9,0-5.7-0.2-8.5-0.5c-49.8-9-94.3-70.6-145.2-141.2l-2-2.8c-51.2-71-121.7-226.4-135.4-256.9c-1.1-2.5-3.5-4-6-4
		c-0.5,0-1,0.1-1.5,0.2c-0.8-1.9-1.3-3-1.4-3.2c-2-85.6-6.4-171.5-9.4-217.1c17,54.1,66.2,193.8,115.2,284l8.4,15.4
		c54.1,99.8,96.9,178.6,185.5,276.8l1.2,1.4l3,0.6c-5.8,17.4-16.3,25.5-32.8,25.4l-0.1,4.6c0.2,0,0.5,0,0.7,0
		c18.3,0,30.4-9.5,36.7-29l0.3,0.1l0.7-3.5c0.6-2.2,1.2-4.4,1.6-6.8c3.8-19.4,3.7-46.5-0.3-88.1c-20.4-212.7-144.8-478.5-146-481
		c-0.5-1.1-0.8-2.1-1-3.1c2.8-3.2,9.5-5.6,12.9-6.4c34.8-3,52.7-1.4,61.6,0.4c6.3,1.3,11,6.2,13.2,9c26.9,32.8,59.6,102.5,89.7,191
		l0.4,1.2l0.6,0.6c0.3,0.4,0.7,1.1,1.4,2c13.3,39.9,25,80.9,32.5,113.6c5.5,23.9,10.4,52.3,14.1,82.1
		C1069.3,500,1069.6,502.2,1069.8,504.4z M204.7,73.3c40.3,60.3,51.2,139.5,56.1,201.8c1.2,15.2,2.1,26.2,2.6,33.9
		c0.3,3.9,3.4,7,7.3,7.4c0.8,0.1,1.5,0,2.2-0.1c-17.1,59.7-33.3,109.5-50.7,156.1c-2.2,5.9-5.9,15.3-10.5,27.2
		c-7.1,18.3-16.2,41.6-24.8,64.5c12.3-66.7,28.3-185.5,16.4-308.2c-5.2-53.8-18.9-128.5-54.2-178.8c-17.4-24.7-33.3-34-39-36.7
		c13.3-6.5,26.7-10.6,38-11.9c4.6,1.5,9.2,3.3,13.7,5.6C178.4,42.5,192.9,55.6,204.7,73.3z M32.2,54.2c0.2-0.8,1.3-4,3.9-5.9
		l0.2-0.1c16.6-12.7,59-31.2,101.2-22.4c-10.2,2.3-21.3,6.3-32.2,11.9c-1.5,0.8-3,1.6-4.5,2.4l-0.9,0.4
		c-18.3,9.3-51.2,30.6-72.3,70.9L32.2,54.2z M393.2,164.3c-5.5,24.1-54.9,238.4-85.8,332.9c-34.8,106.2-59.3,175.9-82.5,176.3
		c-3.1,0-6.7,0.2-10.4,0.3c-17.7,0.6-44.5,1.6-52.1-6.7c-1-1.1-2.3-3-1.8-6.9c1.1-8.1,7.3-27.7,18.4-58.3l0.3-1v-0.4
		c0.3-1.3,0.6-2.8,0.9-4.2l0.2,0c0.3-1.2,0.5-2.5,0.8-3.9c0.6-1.7,1.2-3.3,1.8-5l0.1-0.4c10.5-28.9,23.3-61.8,32.6-85.8
		c4.6-11.9,8.3-21.4,10.5-27.3c18.2-48.8,35.1-101.1,53.1-164.5l-0.2,0l0.7-2.7c11.2-42.9,41.1-156.8,58.2-223.6
		c9.8-38.3,15.8-55.2,53.8-55.2h1.4c20.3,0,31.5,0,39.1,6.1c7.5,6.1,12.7,18.9,20.2,49c10.3,42,20.3,113.9,28.2,171.7
		c3.4,24.5,6.6,47.6,9.3,64.8c7.1,44.5,39.8,220.3,70.9,267.1c1.9,2.8,5.3,4.2,8.6,3.4c0.3-0.1,0.6-0.2,0.9-0.3
		c-0.4,1.8-0.8,3.6-1.2,5.5c-6.9,30.3-20.9,41.4-28.7,45.3l2.1,4.1c8.5-4.3,23.8-16.2,31.1-48.4c1-4.2,1.7-7.9,2.4-11.6
		c9-45.8,18.7-132.7,14-286.3c-1.5-50.8-4.8-129.5-11.5-215.7l-0.2-3.2c-0.2-2-0.2-4.7,0.3-7.8c0.9-2.6,2.4-5.2,4.6-7.6
		c6-6.5,16-9.8,29.9-9.8c0.2,0,15.4-0.1,23.7,0c5.9,0.1,23.1,6.6,25.8,26.8c0.1,0.4,0.1,0.9,0.2,1.4l-0.2,0
		c2.8,30,8.9,136.7,11.4,242.7c1.2,52,1.3,96.5,0.3,132.2c-4.4,152.8-41.5,192.1-45.7,196.1c-11.7,11.1-37.5,13.6-88.7,8.7
		c-44.5-10.2-78.9-153.6-88.6-209.1l-45.9-288.4c-0.5-3-3-5.2-6-5.3c0,0-0.1,0-0.1,0l-1.2-0.8c5.5-24.1,9.3-40.6,11.8-50.2
		c10.9-43,18.3-62.6,24.7-65.8l-2-4.1c-6.8,3.4-13.6,16.1-27,68.8c-2.5,9.7-6.3,26.4-11.8,50.6C393.7,158,393.5,163.1,393.2,164.3z
		 M1358.5,622.6l-0.7,0.8c-13.7,20-71.3,29-118.5,18.6c-36.8-8.1-66.7-36.2-84.5-53c-2.1-2-4-3.8-5.8-5.4
		c-18.2-16.7-59.5-72.4-67.6-83.4c-1.7-2.3-4.8-3.2-7.5-2.2c-0.1,0-0.1,0.1-0.2,0.1c0-0.4-0.1-0.7-0.1-1.1
		c-3.8-29.9-8.7-58.5-14.2-82.6c-6.6-28.9-16.5-64.2-27.9-99.5c29.5,42.4,112.8,160.7,154.1,207.6c48.9,55.6,70.7,78.8,80.7,85.7
		c0.5,0.3,0.9,0.6,1.4,0.8c-10.5,14.4-22.8,18.2-38.7,12.1l-1.6,4.3c5.7,2.2,10.8,3.1,15.4,3.1c14.6,0,24.1-9.5,30.6-19.5
		c1.6-0.7,2.9-1.8,3.6-3.4c4.4-8.7,8.4-19.3,12.2-32.6c0.6-1.9,1.1-4,1.6-6.3c9.3-33.9,14.5-107.9,1.6-215.9
		c-9.7-81.4-41.2-174-66.4-225.6c-3.7-7.5-7-13.7-9.8-18.2c-1.8-3.1-4.2-3.4-5.4-3.3c-3.1,0.3-5.5,3.2-6.3,5.3l4.3,1.6
		c0.3-0.9,1.6-2.2,2.4-2.3c0.5,0,0.9,0.7,1.1,1c2.3,3.7,4.9,8.5,7.8,14.2l-3.3,1.7c-7.1,3.2-14.9,5.8-18.9,6.4
		c-0.8-5.5-1.4-11.3-1.3-19.2c0.1-7.5,5-13,5-13l0.3-0.3c7.4-9,15.6-9.1,15.9-9.1l0.3,0l0.3,0c22.3-1.7,61.4-1.6,71.6,5.8
		c8.7,6.4,23.6,23.1,45.3,67c41.7,84.4,56.4,232.6,56.4,333.9C1391.7,570.1,1370,611.2,1358.5,622.6z"/>
	<path d="M250.4,573.7l-20.3-6.4c-3.4-1.1-7,0.8-8.1,4.2l-2.9,9.1c-1.1,3.4,0.8,7,4.2,8.1l20.3,6.4c3.4,1.1,7-0.8,8.1-4.2l2.9-9.1
		C255.7,578.4,253.8,574.8,250.4,573.7z"/>
	<path d="M263.1,533.2l-20.3-6.4c-3.4-1.1-7,0.8-8.1,4.2l-2.9,9.1c-1.1,3.4,0.8,7,4.2,8.1l20.3,6.4c3.4,1.1,7-0.8,8.1-4.2l2.9-9.1
		C268.4,537.9,266.5,534.3,263.1,533.2z"/>
	<path d="M274.3,493.5l-18.6-5.3c-3.4-1-7,1-8,4.4l-2.3,7.9c-1,3.4,1,7,4.4,8l18.6,5.3c3.4,1,7-1,8-4.4l2.3-7.9
		C279.7,498.1,277.8,494.5,274.3,493.5z"/>
	<path d="M330.2,298.8l-20.4-6.2c-3.4-1-7,0.9-8.1,4.3l-2.8,9.1c-1,3.4,0.9,7,4.3,8.1l20.4,6.2c3.4,1,7-0.9,8.1-4.3l2.8-9.1
		C335.6,303.4,333.7,299.8,330.2,298.8z"/>
	<path d="M342.3,259.3l-20.4-6.2c-3.4-1-7,0.9-8.1,4.3l-2.8,9.1c-1,3.4,0.9,7,4.3,8.1l20.4,6.2c3.4,1,7-0.9,8.1-4.3l2.8-9.1
		C347.6,264,345.7,260.4,342.3,259.3z"/>
	<path d="M353.1,219.5l-18.6-5.2c-3.4-1-7,1.1-8,4.5l-2.2,7.9c-1,3.4,1.1,7,4.5,8l18.6,5.2c3.4,1,7-1.1,8-4.5l2.2-7.9
		C358.6,224,356.6,220.4,353.1,219.5z"/>
	<path d="M644.5,476.6l-21.3-0.7c-3.6-0.1-6.6,2.7-6.7,6.2l-0.3,9.5c-0.1,3.6,2.7,6.6,6.2,6.7l21.3,0.7c3.6,0.1,6.6-2.7,6.7-6.2
		l0.3-9.5C650.8,479.7,648,476.7,644.5,476.6z"/>
	<path d="M645.9,434.2l-21.3-0.7c-3.6-0.1-6.6,2.7-6.7,6.2l-0.3,9.5c-0.1,3.6,2.7,6.6,6.2,6.7l21.3,0.7c3.6,0.1,6.6-2.7,6.7-6.2
		l0.3-9.5C652.3,437.4,649.5,434.4,645.9,434.2z"/>
	<path d="M626.8,392.8c-3.6,0-6.5,2.8-6.5,6.4l-0.1,8.2c0,3.6,2.8,6.5,6.4,6.5l19.3,0.2c3.6,0,6.5-2.8,6.5-6.4l0.1-8.2
		c0-3.6-2.8-6.5-6.4-6.5L626.8,392.8z"/>
	<path d="M640.7,182.4l-21.3,1.1c-3.6,0.2-6.3,3.2-6.1,6.8l0.5,9.5c0.2,3.6,3.2,6.3,6.8,6.1l21.3-1.1c3.6-0.2,6.3-3.2,6.1-6.8
		l-0.5-9.5C647.3,185,644.2,182.2,640.7,182.4z"/>
	<path d="M617.3,142.3c-3.6,0.2-6.3,3.2-6.1,6.8l0.5,9.5c0.2,3.6,3.2,6.3,6.8,6.1l21.3-1.1c3.6-0.2,6.3-3.2,6.1-6.8l-0.5-9.5
		c-0.2-3.6-3.2-6.3-6.8-6.1L617.3,142.3z"/>
	<path d="M617.6,122.6l19.3-1.5c3.6-0.3,6.2-3.4,6-6.9l-0.6-8.2c-0.3-3.6-3.4-6.2-6.9-6l-19.3,1.5c-3.6,0.3-6.2,3.4-6,6.9l0.6,8.2
		C610.9,120.2,614,122.9,617.6,122.6z"/>
	<path d="M994.4,310c-1.1-3.4-4.7-5.3-8.1-4.2l-20.3,6.5c-3.4,1.1-5.3,4.7-4.2,8.1l2.9,9c1.1,3.4,4.7,5.3,8.1,4.2l20.3-6.5
		c3.4-1.1,5.3-4.7,4.2-8.1L994.4,310z"/>
	<path d="M984.8,279.8l-2.9-9c-1.1-3.4-4.7-5.3-8.1-4.2l-20.3,6.5c-3.4,1.1-5.3,4.7-4.2,8.1l2.9,9c1.1,3.4,4.7,5.3,8.1,4.2l20.3-6.5
		C984,286.8,985.8,283.2,984.8,279.8z"/>
	<path d="M970.9,239.4l-2.7-7.8c-1.2-3.4-4.9-5.2-8.2-4l-18.3,6.4c-3.4,1.2-5.2,4.9-4,8.2l2.7,7.8c1.2,3.4,4.9,5.2,8.2,4l18.3-6.4
		C970.3,246.4,972.1,242.7,970.9,239.4z"/>
	<path d="M1044.5,568.3l-21.2,1.8c-3.6,0.3-6.2,3.4-5.9,7l0.8,9.5c0.3,3.6,3.4,6.2,7,5.9l21.2-1.8c3.6-0.3,6.2-3.4,5.9-7l-0.8-9.5
		C1051.2,570.6,1048.1,568,1044.5,568.3z"/>
	<path d="M1042.9,549.5c3.6-0.3,6.2-3.4,5.9-7l-0.8-9.5c-0.3-3.6-3.4-6.2-7-5.9l-21.2,1.8c-3.6,0.3-6.2,3.4-5.9,7l0.8,9.5
		c0.3,3.6,3.4,6.2,7,5.9L1042.9,549.5z"/>
	<path d="M1019.4,509.3l19.2-2.1c3.5-0.4,6.1-3.6,5.7-7.1l-0.9-8.2c-0.4-3.5-3.6-6.1-7.1-5.7l-19.2,2.1c-3.5,0.4-6.1,3.6-5.7,7.1
		l0.9,8.2C1012.7,507.2,1015.9,509.7,1019.4,509.3z"/>
	<path d="M1338.8,248.5l-2.6-9.1c-1-3.4-4.5-5.4-8-4.5l-20.5,5.7c-3.4,1-5.4,4.5-4.5,8l2.6,9.1c1,3.4,4.5,5.4,8,4.5l20.5-5.7
		C1337.7,255.5,1339.7,251.9,1338.8,248.5z"/>
	<path d="M1327.7,208.7l-2.6-9.1c-1-3.4-4.5-5.4-8-4.5l-20.5,5.7c-3.4,1-5.4,4.5-4.5,8l2.6,9.1c1,3.4,4.5,5.4,8,4.5l20.5-5.7
		C1326.6,215.7,1328.6,212.2,1327.7,208.7z"/>
	<path d="M1311,175.9c3.4-1.1,5.3-4.7,4.3-8.1l-2.4-7.9c-1.1-3.4-4.7-5.3-8.1-4.3l-18.5,5.7c-3.4,1.1-5.3,4.7-4.3,8.1l2.4,7.9
		c1.1,3.4,4.7,5.3,8.1,4.3L1311,175.9z"/>
	<path d="M1365.3,517.6c0-3.6-3-6.4-6.6-6.4l-21.3,0.3c-3.6,0-6.4,3-6.4,6.6l0.1,9.5c0,3.6,3,6.4,6.6,6.4l21.3-0.3
		c3.6,0,6.4-3,6.4-6.6L1365.3,517.6z"/>
	<path d="M1337.2,492.7l21.3-0.3c3.6,0,6.4-3,6.4-6.6l-0.1-9.5c0-3.6-3-6.4-6.6-6.4l-21.3,0.3c-3.6,0-6.4,3-6.4,6.6l0.1,9.5
		C1330.7,489.9,1333.6,492.7,1337.2,492.7z"/>
	<path d="M1330.8,436.2l0.3,8.2c0.1,3.6,3.1,6.3,6.7,6.2l19.3-0.8c3.6-0.1,6.3-3.1,6.2-6.7l-0.3-8.2c-0.1-3.6-3.1-6.3-6.7-6.2
		l-19.3,0.8C1333.4,429.6,1330.7,432.6,1330.8,436.2z"/>
</g>
</svg>