<?xml version="1.0" standalone="no"?>
<!DOCTYPE svg PUBLIC "-//W3C//DTD SVG 20010904//EN"
        "http://www.w3.org/TR/2001/REC-SVG-20010904/DTD/svg10.dtd">
<svg version="1.0" xmlns="http://www.w3.org/2000/svg"
     width="201.000000pt" height="300.000000pt" viewBox="0 0 201.000000 300.000000"
     preserveAspectRatio="xMidYMid meet">
    <metadata>
        Created by potrace 1.10, written by Peter Selinger 2001-2011
    </metadata>
    <g transform="translate(0.000000,300.000000) scale(0.050000,-0.050000)"
       fill="#000000" stroke="none">
        <path d="M1750 5988 c-879 -133 -1551 -745 -1659 -1511 -72 -510 -131 -3772
-73 -4010 51 -208 169 -348 353 -419 126 -48 3087 -60 3243 -13 133 41 282
172 343 302 l53 113 5 1480 c7 2338 -56 2815 -436 3317 -397 525 -1174 839
-1829 741z m524 -89 c737 -100 1376 -669 1508 -1345 25 -131 24 -3195 -1
-3262 -31 -81 -147 -197 -241 -240 -107 -50 -2780 -79 -2992 -33 -132 29 -254
120 -307 228 -54 112 -65 3088 -12 3338 180 848 1103 1441 2045 1314z m1106
-489 c60 -60 104 -110 99 -110 -6 0 -59 50 -119 110 -60 61 -104 110 -99 110
6 0 59 -49 119 -110z m301 -400 c235 -419 262 -704 273 -2840 9 -1834 13
-1771 -119 -1921 -102 -116 -198 -164 -376 -189 -228 -33 -2840 -26 -2983 8
-152 35 -301 149 -366 280 l-50 100 0 1557 c0 2362 48 2792 354 3147 l49 58
-43 -65 c-72 -109 -197 -392 -233 -527 -31 -114 -35 -296 -42 -1674 -8 -1782
-16 -1697 157 -1852 177 -159 117 -154 1740 -148 l1428 6 82 44 c122 65 204
141 254 234 l44 82 0 1590 c0 1447 -3 1601 -35 1715 -52 190 -145 395 -246
542 -62 92 -71 111 -28 63 34 -38 97 -133 140 -210z"/>
        <path d="M1800 5548 c-1180 -211 -1640 -1430 -841 -2229 1013 -1012 2837 -51
2424 1277 -193 623 -934 1069 -1583 952z m32 -80 c-7 -17 -12 -115 -12 -217
l0 -186 -125 -24 c-323 -63 -660 -271 -845 -522 -93 -125 -223 -126 -200 -2
40 223 283 574 503 725 242 166 717 325 679 226z m548 -9 c451 -124 785 -418
937 -826 89 -236 -16 -285 -174 -82 -176 225 -532 437 -827 491 l-134 24 -6
217 c-7 250 -22 238 204 176z m-279 0 c34 -18 39 -41 36 -175 -2 -143 -4 -147
-15 -52 -14 117 -48 168 -109 168 -80 -1 -102 -34 -125 -184 l-23 -146 -2 170
c-1 94 4 180 12 192 32 47 160 63 226 27z m-41 -223 c0 -80 26 -188 62 -261
10 -19 18 -71 18 -115 l0 -80 -130 0 -130 0 0 98 c0 54 9 102 20 105 11 4 26
81 33 172 l13 165 57 0 c54 0 57 -5 57 -84z m-240 -366 l0 -150 190 0 190 0 0
150 c0 83 2 150 5 150 217 -11 618 -220 832 -434 l166 -166 -6 -218 c-5 -163
1 -225 22 -250 21 -26 22 -39 4 -57 -13 -13 -23 -86 -23 -172 0 -275 -300
-556 -747 -700 -272 -88 -329 -93 -337 -29 -6 52 -43 60 -216 47 -11 0 -20
-23 -20 -50 0 -172 -729 156 -968 436 l-92 107 0 157 c0 120 -8 165 -35 194
-32 36 -32 39 0 58 30 16 35 52 35 250 l0 231 175 173 c217 215 556 391 810
421 8 1 15 -65 15 -148z m-1078 -500 c0 -11 -14 -23 -32 -27 -47 -9 -95 13
-79 38 16 26 110 17 111 -11z m2627 11 c6 -10 3 -24 -8 -30 -28 -17 -123 10
-110 31 15 24 103 23 118 -1z m-2590 -292 c1 -91 -26 -129 -93 -129 -43 0 -46
8 -49 140 -2 77 -4 151 -5 165 -1 13 25 29 58 35 67 12 86 -35 89 -211z m2597
49 c-11 -180 -13 -185 -84 -167 -51 13 -52 17 -52 177 l0 164 72 -8 73 -9 -9
-157z m-2622 -398 l4 -110 -37 80 c-50 104 -52 155 -6 146 28 -5 36 -29 39
-116z m2585 105 c0 -8 -22 -55 -49 -105 l-48 -90 -1 92 c-1 50 5 97 12 105 19
18 87 17 86 -2z m-1279 -865 c0 -11 -27 -20 -60 -20 -33 0 -60 9 -60 20 0 11
27 20 60 20 33 0 60 -9 60 -20z"/>
        <path d="M1260 3958 c-39 -8 -94 -42 -125 -77 -162 -181 80 -447 303 -332 241
125 92 467 -178 409z m148 -81 c155 -70 88 -297 -89 -297 -74 0 -179 94 -179
160 0 109 155 189 268 137z"/>
        <path d="M1905 3951 c-148 -66 -182 -243 -68 -357 123 -124 336 -77 399 88 69
182 -143 354 -331 269z m246 -80 c107 -107 36 -283 -123 -304 -178 -24 -292
193 -161 306 78 67 216 66 284 -2z"/>
        <path d="M1889 3831 c-62 -62 -62 -114 -2 -184 97 -112 273 -50 273 95 0 131
-172 187 -271 89z m187 -2 c52 -37 57 -69 12 -69 -17 0 -36 18 -42 40 -6 22
-22 40 -36 40 -14 0 -30 -18 -36 -40 -10 -39 -74 -58 -74 -21 0 22 80 81 110
81 12 0 41 -14 66 -31z m-96 -170 c0 -47 -26 -50 -61 -7 -22 26 -22 34 1 48
37 23 60 7 60 -41z m140 32 c0 -15 -62 -71 -80 -71 -9 0 -12 18 -6 40 9 33 86
61 86 31z"/>
        <path d="M2602 3954 c-179 -63 -200 -295 -36 -395 195 -119 446 83 345 278
-57 112 -187 160 -309 117z m205 -95 c41 -32 53 -60 53 -119 0 -146 -185 -217
-291 -111 -149 150 71 361 238 230z"/>
        <path d="M1660 689 c-439 -123 -430 -404 17 -509 179 -42 208 61 34 124 -367
131 -54 345 430 293 315 -33 433 -232 171 -288 -105 -23 -158 -113 -82 -142
116 -44 450 150 450 262 0 214 -620 371 -1020 260z m707 -57 c349 -107 319
-351 -50 -403 l-87 -13 125 61 c316 154 121 370 -335 371 -495 1 -699 -220
-350 -380 118 -54 66 -65 -76 -16 -450 153 -129 441 466 418 116 -4 254 -21
307 -38z"/>
    </g>
</svg>