<?xml version="1.0" standalone="no"?>
<!DOCTYPE svg PUBLIC "-//W3C//DTD SVG 20010904//EN"
        "http://www.w3.org/TR/2001/REC-SVG-20010904/DTD/svg10.dtd">
<svg version="1.0" xmlns="http://www.w3.org/2000/svg"
     width="300.000000pt" height="300.000000pt" viewBox="0 0 300.000000 300.000000"
     preserveAspectRatio="xMidYMid meet">
    <metadata>
        Created by potrace 1.10, written by Peter Selinger 2001-2011
    </metadata>
    <g transform="translate(0.000000,300.000000) scale(0.100000,-0.100000)"
       fill="#000000" stroke="none">
        <path d="M1575 2189 c-125 -4 -191 -11 -216 -22 -45 -18 -107 -73 -143 -125
-19 -28 -39 -43 -69 -51 -67 -20 -122 -57 -169 -113 -61 -75 -68 -91 -66 -150
1 -46 2 -48 5 -13 5 60 64 164 106 186 11 7 30 20 40 30 11 10 40 25 64 33 38
13 44 13 40 1 -21 -52 -29 -114 -30 -231 l-2 -135 -112 3 c-62 2 -113 6 -113
11 0 4 -36 7 -79 7 -83 0 -111 -12 -111 -49 0 -38 25 -54 89 -59 51 -4 61 -2
61 12 0 13 -11 16 -53 16 -39 0 -58 5 -70 18 -24 27 -5 40 51 36 35 -3 42 -2
27 5 -17 8 -15 10 13 10 18 1 31 -2 28 -7 -2 -4 55 -9 127 -11 73 -1 134 -4
136 -6 3 -3 11 -80 13 -130 0 -11 0 -65 -2 -120 -1 -55 1 -117 5 -137 6 -31 4
-38 -8 -38 -44 0 -138 64 -172 117 -14 21 -15 27 -4 34 10 6 8 9 -8 9 -13 0
-23 3 -23 8 -1 4 -3 38 -6 76 l-5 68 88 -7 c48 -3 99 -9 112 -12 17 -4 22 -2
19 8 -3 10 -29 16 -80 20 -42 4 -102 9 -134 12 -33 3 -49 3 -36 0 20 -4 22
-11 24 -66 0 -34 0 -71 -1 -83 -4 -55 139 -194 216 -209 26 -5 37 -15 60 -61
62 -123 125 -169 251 -184 42 -5 137 -16 210 -25 l133 -17 177 42 c111 26 191
51 214 66 71 45 125 150 148 284 14 81 20 565 8 636 -19 112 -88 229 -156 263
-20 10 -62 21 -92 24 -30 3 -95 11 -145 17 -132 16 -162 17 -360 9z m414 -29
c84 -12 166 -27 181 -35 58 -30 121 -136 140 -235 14 -70 12 -594 -2 -652 -6
-24 -10 -51 -10 -60 0 -10 -2 -18 -6 -18 -4 0 -14 -21 -22 -47 -18 -62 -96
-147 -154 -167 -75 -26 -310 -76 -358 -76 -26 0 -59 5 -75 11 -15 6 -59 12
-98 14 -38 2 -79 6 -90 8 -11 3 -46 8 -78 11 -78 10 -130 42 -181 112 -69 95
-75 123 -78 332 l-3 182 92 0 c88 0 92 1 113 27 20 25 21 37 18 144 -2 79 -7
121 -17 132 -11 14 -33 17 -111 17 l-98 0 13 51 c13 49 35 90 62 117 7 8 25
29 39 47 14 19 47 47 72 62 46 27 50 28 215 30 93 1 171 4 174 7 12 11 108 6
262 -14z m-643 -324 c16 -12 20 -29 23 -101 6 -168 -5 -185 -125 -185 l-84 0
0 150 0 150 83 0 c56 0 90 -5 103 -14z"/>
        <path d="M1536 1964 c-10 -37 -2 -39 11 -4 6 17 8 30 3 30 -4 0 -11 -12 -14
-26z"/>
        <path d="M1561 1934 c0 -11 3 -14 6 -6 3 7 2 16 -1 19 -3 4 -6 -2 -5 -13z"/>
        <path d="M1522 1900 c0 -14 2 -19 5 -12 2 6 2 18 0 25 -3 6 -5 1 -5 -13z"/>
        <path d="M1512 1850 c0 -14 2 -19 5 -12 2 6 2 18 0 25 -3 6 -5 1 -5 -13z"/>
        <path d="M1542 1563 c-1 -150 1 -273 6 -273 4 0 6 80 4 177 -4 336 -8 367 -10
96z"/>
        <path d="M1543 1202 c3 -43 11 -89 16 -102 8 -19 9 -14 3 25 -4 28 -7 74 -7
103 0 28 -4 52 -9 52 -5 0 -6 -34 -3 -78z"/>
        <path d="M910 1661 c0 -6 4 -13 10 -16 6 -3 7 1 4 9 -7 18 -14 21 -14 7z"/>
    </g>
</svg>