<?xml version="1.0" encoding="UTF-8"?>
<svg width="748px" height="960px" viewBox="0 0 748 960" version="1.1" xmlns="http://www.w3.org/2000/svg" xmlns:xlink="http://www.w3.org/1999/xlink">
    <!-- Generator: Sketch 55.2 (78181) - https://sketchapp.com -->
    <title>sensor_Door-Windows-7</title>
    <desc>Created with Sketch.</desc>
    <g id="sensor_Door-Windows-7" stroke="none" stroke-width="1" fill="none" fill-rule="evenodd">
        <path d="M115.457158,919.145311 C116.112138,918.033216 116.985354,917.084853 118.071597,916.367489 C122.919865,913.16565 130.175972,915.7781 134.278566,922.202559 C136.781777,926.122464 137.532603,930.555825 136.636283,934.144044 C142.781402,937.329831 149.364334,939.969852 156.342038,942.005762 C167.069263,945.135138 178.7452,946.866389 191.219423,947 C210.291659,947.185636 229.482722,943.608305 247.87866,936.975416 C267.077307,930.053565 285.404352,919.800443 301.829545,907.026785 C318.194693,894.300447 332.663679,879.025181 344.184131,862.020557 C355.207157,845.749695 363.493388,827.941276 368.108648,809.329061 L382.138988,752.740356 C403.009418,668.562671 423.778088,584.795085 444.417187,501.685551 C456.969784,451.137299 469.487618,400.723434 481.958048,350.477393 C494.428478,300.231984 506.8534,250.151876 519.220173,200.27114 C523.59146,182.637486 524.064237,165.880183 521.191551,150.639619 C518.22532,134.89747 511.682927,120.750294 502.186312,108.921758 C489.442202,93.0483781 470.668296,74.5579312 449.254298,58 C454.387211,67.0915938 457.991184,76.7604818 460.190733,86.753033 L460.192629,86.7624968 C461.457369,92.4729767 462.284096,98.3834591 462.647527,104.462398 C463.361749,116.405131 462.286624,129.000868 459.22685,142.019324 L459.188295,142.182733 L459.041658,142.79662 L458.996782,142.982743 C458.934209,143.24079 458.871003,143.499468 458.807166,143.757515 L458.227572,146.096345 L457.647346,148.434544 L457.434344,149.294492 C445.520754,197.34366 433.554071,245.577057 421.545041,293.963769 C409.074611,344.209809 396.556777,394.623044 384.00418,445.171927 C363.365713,528.280829 342.596411,612.049046 321.72598,696.2261 L307.69564,752.815436 C302.80038,772.557633 294.057174,791.378684 282.448234,808.51454 C270.397488,826.301508 255.237668,842.299811 238.073603,855.647608 C220.881096,869.017488 201.667911,879.760206 181.513598,887.026541 C162.105741,894.024734 141.821224,897.798912 121.621403,897.593862 C115.214269,897.529508 109.025826,897.073982 103.073772,896.25189 C96.9725523,895.408978 91.0925517,894.183726 85.4533639,892.602003 L84.9515128,892.460046 L84.8788266,892.439225 L84.8661855,892.43544 L84.3055534,892.273924 L84.2834315,892.267614 C83.9503389,892.170452 83.6178784,892.072028 83.2860499,891.972973 L83.1640635,891.93638 L83.1204517,891.923131 L82.6242892,891.77234 L82.5958467,891.763507 L82.1287586,891.619657 L82.0288941,891.588111 L81.9644245,891.567921 L81.4707902,891.412714 L81.4638376,891.410821 L81.4524606,891.407036 L80.9259594,891.23858 L80.9006773,891.231009 L80.8147179,891.202617 L80.3482619,891.051196 L80.3387811,891.048041 L80.3242438,891.042994 L80,890.936368 C87.9879014,897.434239 96.0857802,903.826746 103.66411,909.809154 C107.792402,913.068248 111.773444,916.210979 115.457158,919.145311 Z M511.443584,101.336958 C522.214259,114.769408 529.626676,130.795823 532.977356,148.596991 C536.170164,165.558118 535.668762,184.109705 530.860605,203.529104 C518.504893,253.426651 506.091083,303.523006 493.631807,353.78598 C481.17253,404.048324 468.665892,454.47918 456.124522,505.044469 C435.504514,588.182012 414.753788,671.97783 393.902023,756.183886 L379.884232,812.791662 C374.89989,832.917301 366.012946,852.082352 354.218628,869.512412 C342.002474,887.566665 326.625719,903.811453 309.210517,917.370762 C291.778266,930.943955 272.287991,941.853126 251.832802,949.237408 C232.105088,956.359768 211.474976,960.200226 190.916854,960 C177.259643,959.853733 164.463151,957.952122 152.693461,954.514329 C140.404686,950.924432 129.248803,945.689166 119.407679,939.059091 L119.170871,938.900045 L118.893647,938.667787 C112.054622,932.949702 104.258891,926.788561 95.8038862,920.10547 C69.8736878,899.610618 38.0037046,874.422013 23.6809043,855.445671 C12.9986376,841.294358 5.77629869,824.443049 2.68642337,805.803734 C-0.256315037,788.051163 0.577250347,768.677838 5.77819316,748.489086 L6.49935351,745.690632 L17.7253322,702.120846 L31.5271542,648.569658 L47.1249307,588.057679 C59.7382905,539.1264 72.3093406,490.357953 84.8273456,441.772536 L101.648316,376.485388 L161.07395,145.973362 L161.188881,145.529674 L161.270343,145.313195 C165.857479,133.107672 170.665636,121.735247 175.69355,111.197183 C180.745462,100.607366 186.089753,90.7092725 191.725791,81.5029037 L191.749788,81.4782894 L192.58209,80.1276601 L192.791113,79.7881094 L192.924989,79.6139161 C198.351373,72.5313171 204.306314,65.7687036 210.707086,59.3891892 C217.144484,52.9724379 224.017609,46.9608753 231.241211,41.4195084 C248.136066,28.4585164 267.056106,17.9513779 286.943586,10.766535 C306.101066,3.84487551 326.129369,0 346.088208,0 C371.822013,0 400.650114,11.6760008 427.706889,28.3644772 C461.487757,49.200774 492.718042,77.984325 511.443584,101.336958 Z M215,73.1035072 C229.993283,67.6803743 247.445993,64.4622169 266.291284,63.6867649 C292.914446,62.5918241 322.370115,66.3703446 351.611784,75.6946365 C371.208917,81.9441635 390.720828,90.6892248 409.229651,102.132331 C424.864305,111.798123 439.774892,123.380849 453.409052,137 C456.521842,121.771455 456.912598,106.339771 454.130593,91.6080694 C453.998658,90.9068293 453.858516,90.207476 453.712061,89.5100094 L453.643884,89.1898917 L453.62179,89.0873786 C452.266454,82.8202419 450.351813,76.8097025 447.916375,71.1016712 C446.190484,67.0564908 444.209561,63.1716836 441.987492,59.4648594 C440.243925,56.5554992 438.345698,53.7442497 436.299753,51.038658 L436.088278,50.7606776 L435.902053,50.5166586 C435.782743,50.3613167 435.663433,50.2066036 435.543492,50.0518905 L435.463952,49.9500063 C435.326967,49.7745391 435.18935,49.5990718 435.051102,49.4242335 L435.023957,49.3896432 L435.011963,49.3745492 C434.856039,49.1776989 434.700116,48.9821064 434.54293,48.7865138 C434.178687,48.3336951 433.809394,47.884021 433.436314,47.4374914 C429.352631,44.6388203 425.207084,41.9376309 421.020504,39.3634824 C395.793079,23.8519261 369.209686,13 345.986541,13 C327.457517,13 308.878622,16.5527401 291.119747,22.9488043 C272.461944,29.6681308 254.677186,39.5200822 238.763512,51.6895849 C231.957163,56.8951132 225.495488,62.525788 219.459288,68.5237491 C217.947398,70.0262268 216.460127,71.5532321 215,73.1035072 Z M205.991307,83.1587955 C205.080767,84.2893389 204.184109,85.4293509 203.301964,86.5794626 L202.698092,87.5604031 L202.705033,87.5648218 C197.373671,96.2821889 192.244862,105.806907 187.320498,116.138344 C182.402444,126.457157 177.755723,137.433717 173.380964,149.066131 L114.115073,379.169276 L97.3069908,444.466837 C84.7985769,493.060005 72.2371585,541.836231 59.6334628,590.775315 L44.0476371,651.296947 L33,694.202679 C42.0082287,689.489241 52.8861254,685.612191 65.1225761,682.728074 C79.9007153,679.245546 96.7378242,677.198448 114.720207,676.86768 C148.766718,676.241494 186.881949,681.798264 222.805069,695.463257 C252.056572,706.590683 279.872538,723.091188 302.897914,746 L315.557769,694.826972 C336.393557,610.608115 357.127754,526.798299 377.732594,443.648125 C390.264355,393.074139 402.761411,342.635869 415.211141,292.364877 C427.522682,242.652528 439.78942,193.103038 452,143.747969 C437.973388,129.19167 422.496726,116.936857 406.226891,106.836452 C388.17699,95.6313848 369.135781,87.0642517 350.002444,80.9374765 C321.49111,71.8085435 292.792368,68.108239 266.870048,69.1794462 C243.563244,70.1420809 222.544464,74.9628291 205.991307,83.1587955 Z M30.8780501,703.5005 L30.2991565,705.744864 L19.0882963,749.217765 L18.3681477,752.009995 C13.6228601,770.413276 12.8547856,788.026243 15.5253894,804.121556 C18.269143,820.66146 24.6741777,835.602475 34.1439431,848.137286 C40.64546,856.743829 51.2875163,866.937927 63.4058143,877.431146 C64.5932397,878.088586 65.7976915,878.725875 67.0191695,879.341753 C69.7925615,880.740387 72.6536073,882.033226 75.599154,883.215232 L75.6426656,883.232235 L75.942202,883.351884 L76.2593953,883.477831 L76.5519951,883.592442 L76.6106412,883.615112 C77.1264744,883.816626 77.6454607,884.014362 78.1663388,884.208319 L78.1909323,884.217765 L78.5005584,884.333006 L78.8234271,884.451396 C79.0384627,884.530112 79.2547596,884.608829 79.4704258,884.686286 L79.7951864,884.802156 L80.1010288,884.91047 L80.1924662,884.942587 C80.3772329,885.008079 80.5626302,885.072941 80.7480275,885.137174 L80.7909085,885.151658 L81.099904,885.258082 L81.4278175,885.370174 L81.4479968,885.376472 L81.6655549,885.45015 L81.8831129,885.523199 L82.0855365,885.590581 L82.4153418,885.699524 L82.4802939,885.720935 L82.6682136,885.782649 L83.0251349,885.898519 L83.3082757,885.989831 L83.4829527,886.045247 L83.7402387,886.127112 L84.0731971,886.232277 L84.1116639,886.244242 L84.3140875,886.307215 L84.5827244,886.39034 L84.7309161,886.435681 L84.7403751,886.438829 L84.8488388,886.471575 L85.1925175,886.576111 L85.3268359,886.616414 L85.7461869,886.74173 L85.807986,886.759992 L85.8943786,886.785811 L86.3370619,886.915536 L86.3521964,886.919944 L86.8459585,887.062264 L86.9537917,887.093121 L87.4355724,887.229143 C92.8007427,888.735461 98.3897771,889.901094 104.184388,890.701483 C109.912786,891.493056 115.818383,891.931349 121.882261,891.992433 C141.286547,892.18891 160.796773,888.552839 179.486585,881.810931 C198.958975,874.787533 217.539062,864.391291 234.181306,851.443377 C250.774363,838.534506 265.440297,823.046884 277.110236,805.814275 C277.279868,805.563642 277.4495,805.312379 277.617871,805.061116 L277.633006,805.038446 C277.796332,804.794739 277.959027,804.550403 278.121092,804.305438 L278.121723,804.304178 L278.437655,803.826212 L278.640709,803.518273 L278.836827,803.217261 L279.159696,802.722292 L279.313563,802.483624 L279.642737,801.972911 L279.87543,801.608926 L280.145959,801.185117 L280.374237,800.823651 L280.622695,800.429439 L280.87935,800.018854 L281.118979,799.634088 L281.347257,799.265065 L281.598237,798.858258 L281.839128,798.464046 L282.075604,798.076131 L282.329106,797.65673 L282.544772,797.298413 L282.80332,796.865787 L283.011419,796.516286 L283.257354,796.100663 L283.493199,795.699524 L283.712019,795.325463 L283.956062,794.904802 L284.177404,794.521296 L284.396854,794.139678 L284.664229,793.671788 L284.833231,793.373925 L285.107543,792.887772 L285.304922,792.535752 L285.523741,792.143429 L285.76337,791.711433 L285.980298,791.316591 L286.184613,790.94316 L286.421089,790.509905 L286.624143,790.132695 L286.860619,789.692513 L287.039711,789.358125 L287.286907,788.892754 L287.489331,788.508617 L287.704997,788.096773 L287.89607,787.729009 L288.140113,787.25797 L288.316682,786.913507 L288.537393,786.48214 L288.761887,786.03818 L288.947915,785.670416 L289.169257,785.227715 L289.36033,784.844208 L289.52807,784.503523 L289.784726,783.982105 L289.876163,783.793816 C289.975168,783.590412 290.074172,783.387009 290.172546,783.183606 L290.316324,782.883224 L290.559737,782.37503 L290.698469,782.082205 L290.959539,781.528041 L291.003681,781.434211 C291.114037,781.198691 291.223762,780.963171 291.332856,780.727022 L291.430599,780.515432 L291.715632,779.894517 C291.8386,779.624992 291.960306,779.356096 292.082012,779.086571 L292.085796,779.077755 C292.208133,778.805081 292.329839,778.532407 292.450915,778.259103 C292.671626,777.760986 292.889815,777.262238 293.105481,776.762231 L293.172956,776.606058 C293.277005,776.3655 293.379793,776.124943 293.481951,775.883755 L293.523571,775.786777 L293.734823,775.28488 L293.893104,774.907041 L294.065259,774.492678 L294.231738,774.08965 L294.446143,773.565083 L294.56848,773.264701 C294.642891,773.080819 294.716041,772.896938 294.789822,772.713056 L294.906483,772.42275 L295.105754,771.917705 L295.246378,771.561277 L295.447541,771.044267 L295.56168,770.749552 L295.76095,770.229394 L295.899052,769.866039 L296.086972,769.366662 L296.202372,769.058723 L296.396598,768.533526 L296.527763,768.178358 L296.708116,767.682129 L296.826669,767.353409 L297.021526,766.808062 L297.126836,766.512088 L297.322323,765.954775 L297.42322,765.666358 L297.620599,765.093302 L297.71582,764.81559 L297.902478,764.263945 L298.014725,763.928928 L298.180574,763.429551 L298.296605,763.076901 L298.471282,762.541629 L298.562719,762.25762 L298.7519,761.665042 L298.834509,761.404333 L299.010448,760.841983 L299.119542,760.489963 L299.273409,759.989326 L299.381242,759.632268 L299.53637,759.117148 L299.632853,758.791577 L299.793656,758.24434 L299.888878,757.918139 L300.038961,757.396091 L300.134182,757.059814 L300.290572,756.505021 L300.360569,756.253128 L300.530201,755.63725 L300.594522,755.400471 L300.765416,754.766961 L300.817125,754.569225 C300.877663,754.341892 300.93757,754.115189 300.996847,753.887855 L301,753.874631 C278.159559,730.289288 250.108446,713.440186 220.524967,702.207031 C185.382092,688.861756 148.102104,683.434728 114.806265,684.046198 C97.3417149,684.366731 80.9624325,686.357943 66.5600905,689.7459 C52.387288,693.0797 40.2046685,697.752939 30.8780501,703.5005 Z M642.835188,299.410673 C628.591566,294.444365 614.520518,291.648573 601.978069,291.10012 L601.422558,291.077451 L601.403034,291.076821 L600.868937,291.057301 L600.830517,291.056042 L600.317205,291.0403 L600.260521,291.038411 L600.07724,291.034003 L599.711308,291.025187 L599.560779,291.022039 L599.174063,291.014483 L598.837733,291.009445 L598.646264,291.006927 L598.275294,291 L598.090754,291 L597.73364,291 L597.540912,291 L597.246151,291 L596.958948,291 L596.734098,291 L596.426111,291.005667 L596.140798,291.008816 L595.903352,291.012594 L595.605442,291.018261 L595.35036,291.023298 L595.079533,291.029595 L594.809966,291.036522 L594.522133,291.045337 L594.30988,291.052264 L593.985517,291.063598 L593.75059,291.073043 L593.475984,291.084377 L593.216494,291.095712 L592.962042,291.107676 L592.679248,291.122158 L592.414089,291.136011 L592.18798,291.149235 L591.88944,291.166866 L591.641917,291.182608 L591.395023,291.19898 L591.132384,291.217241 L590.841402,291.23802 L590.648674,291.252503 L590.341946,291.276431 L590.139771,291.293432 L589.816038,291.320509 L589.645354,291.336251 L589.314063,291.365846 L589.144008,291.382217 L588.808938,291.414961 L588.645182,291.431962 L588.306334,291.467225 L588.17218,291.481707 L587.801209,291.522637 L587.757121,291.528304 C587.443465,291.564196 587.131699,291.601347 586.821823,291.641017 C586.661216,291.661797 586.501239,291.682576 586.341891,291.703985 L586.338742,291.704615 C586.178136,291.726024 586.018159,291.748063 585.858811,291.770732 L585.844955,291.772621 C585.690017,291.79466 585.535708,291.817328 585.3814,291.840626 C585.109313,291.880926 584.838486,291.923115 584.568918,291.967193 L584.415239,291.99175 L584.060015,292.050941 L583.954833,292.069201 L583.614095,292.128392 L583.476162,292.152949 L583.163766,292.21025 L583.006938,292.239216 L582.70084,292.297147 L582.540233,292.328001 L582.280113,292.379635 L582.059043,292.424342 L581.814668,292.474717 L581.615012,292.516276 L581.313953,292.581133 L581.179169,292.610099 L580.859845,292.681253 L580.726321,292.712107 L580.412035,292.784521 L580.279141,292.815375 L579.981861,292.887159 L579.817475,292.926829 L579.516416,293.002391 L579.413124,293.028208 L579.071755,293.116364 L578.970983,293.14281 C578.862652,293.171146 578.754321,293.200112 578.64662,293.229077 L578.530101,293.261191 L578.221484,293.345568 L578.084181,293.384609 L577.817763,293.460171 L577.628813,293.515583 L577.383809,293.587996 L577.221943,293.636482 L576.953635,293.718341 L576.827669,293.757381 L576.714299,293.793273 C576.11407,294.683644 575.530847,295.583461 574.967149,296.493352 C572.884298,299.855858 571.047712,303.377044 569.49455,307.029834 C567.992403,310.562355 566.779979,314.16477 565.892548,317.807484 L562.788742,330.547226 C557.226707,353.377005 551.657114,376.227563 546.078703,399.105197 C540.500292,421.982201 534.911804,444.888801 529.313869,467.831293 L502,579.790778 C514.386881,572.820819 531.816186,570.959477 551.00146,573.549992 C576.319395,576.96728 604.879069,588.120851 628.769808,605.433349 C629.480257,605.9478 630.188817,606.470437 630.895487,607 C636.116784,585.151267 641.33871,563.323944 646.553079,541.529994 C652.558515,516.429579 658.553243,491.372613 664.523409,466.377985 C678.125863,409.426327 660.50068,483.191145 680.998521,397.329491 L681.249193,396.281699 L681.255492,396.252734 L681.499236,395.233278 L681.512463,395.175976 L681.749279,394.184856 L681.769434,394.099849 L681.999322,393.137064 L682.026404,393.023091 L682.249994,392.088642 L682.283375,391.946333 L682.500037,391.04085 L682.540346,390.869576 L682.75008,389.992428 L682.797947,389.793448 L683.000123,388.944636 L683.054288,388.716691 L683.250166,387.896844 L683.311259,387.640563 L683.500208,386.849051 L683.56823,386.564435 L683.750881,385.801259 L683.825201,385.487677 L684.000924,384.752838 L684.082172,384.411549 L684.250967,383.705045 L684.339143,383.335422 L684.501009,382.657883 L684.596114,382.259294 L684.751052,381.610091 L684.853085,381.183166 L685.001095,380.562299 L685.110056,380.107038 L685.251138,379.514507 L685.367027,379.03091 L685.501181,378.466714 L685.623998,377.954782 L685.751223,377.418922 L685.880339,376.878025 L686.001266,376.37176 L686.13731,375.802527 L686.251309,375.323968 L686.39428,374.726399 L686.501352,374.276176 L686.651251,373.650271 L686.751395,373.229013 L686.907593,372.574143 L687.001437,372.181221 L687.164563,371.498645 L687.25148,371.134059 L687.421534,370.422517 L687.501523,370.086267 L687.678505,369.346389 L687.751566,369.039104 L687.935476,368.270891 L688.001608,367.991312 L688.191817,367.194763 L688.251651,366.94415 L688.448788,366.119265 L688.501694,365.896987 L688.705759,365.043137 L688.751737,364.849825 L688.9621,363.967639 L689.00178,363.802033 L689.219071,362.891511 L689.251822,362.75487 L689.476042,361.816013 L689.501865,361.707708 L689.732383,360.739885 L689.751908,360.659916 L689.989354,359.664387 L690.001951,359.612753 L690.246325,358.588259 L690.251364,358.565591 L690.501407,357.518428 L690.502666,357.512761 L690.751449,356.471266 L690.759637,356.437263 L691.001492,355.424103 L691.015978,355.361135 L691.251535,354.376941 L691.272949,354.285637 L691.501578,353.329149 L691.52992,353.210139 L691.750991,352.281986 L691.786261,352.134641 L692.001034,351.234824 L692.043232,351.058513 L692.251076,350.187661 L692.300203,349.983015 L692.501119,349.140499 L692.556544,348.907516 L692.751162,348.093337 L692.813515,347.832018 L693.001205,347.046174 L693.070486,346.75652 L693.250618,345.999012 L693.326827,345.680392 L693.500661,344.951849 L693.583798,344.604894 L693.750703,343.904687 L693.840139,343.529396 L694.000746,342.857524 L694.09711,342.453898 L694.250789,341.810362 L694.354081,341.378399 L694.500832,340.763199 L694.610422,340.302272 L694.750874,339.716037 L694.867393,339.226773 L695.000287,338.668875 L695.123734,338.151275 L695.25033,337.621712 L695.380705,337.075777 L695.500373,336.57455 L695.637046,335.999649 L695.750416,335.527387 L695.894017,334.924151 L695.999829,334.479595 L696.150988,333.848653 L696.249872,333.432433 L696.407329,332.772525 L696.499914,332.38527 L696.6643,331.697027 L696.749957,331.338108 L696.920641,330.621529 L697,330.290945 C696.413628,329.786569 695.824106,329.287231 695.230176,328.7923 L695.17601,328.746963 L694.857316,328.481867 L694.831493,328.461087 L694.495793,328.184027 L694.454224,328.149394 L694.13427,327.886817 L694.090182,327.850925 C692.651019,326.674677 691.191071,325.524876 689.711599,324.402782 L689.689555,324.38578 C689.33496,324.116906 688.979106,323.84992 688.622622,323.584194 L688.491617,323.486593 L688.232756,323.29454 L688.150878,323.233461 C687.412717,322.688156 686.670146,322.149147 685.923167,321.616436 L685.920018,321.613917 L685.54212,321.345042 C684.783174,320.807923 684.020449,320.2771 683.253315,319.753204 L683.225602,319.734314 L682.866599,319.489367 L682.840146,319.471736 C682.205906,319.041033 681.568518,318.615367 680.928609,318.19411 L680.861218,318.150032 C679.728152,317.404487 678.586899,316.674055 677.438088,315.958106 L677.375105,315.918436 L677.249768,315.840985 L676.978941,315.67286 L676.829671,315.580297 L676.582778,315.428543 L676.544358,315.404615 C676.167089,315.172892 675.788561,314.942428 675.410033,314.713853 L675.350199,314.677331 L675.025836,314.482759 L674.950256,314.437422 L674.594402,314.22396 L674.293973,314.04576 L674.194459,313.986569 L673.869467,313.794516 L673.795147,313.750438 L673.444331,313.544532 L673.394574,313.515567 L673.018565,313.296437 L672.994002,313.281954 L672.5928,313.048972 L672.138062,312.787653 L672.138062,312.787024 L671.683324,312.527594 L671.683324,312.526965 L671.227957,312.268795 L670.771959,312.011884 L670.315332,311.756233 L669.858075,311.501841 L669.400818,311.249338 L668.942931,310.998725 L668.484414,310.74937 L668.025268,310.501275 L667.566121,310.255069 L667.106344,310.010123 C666.799617,309.847665 666.49226,309.685836 666.184902,309.525267 C665.877545,309.364698 665.570187,309.205388 665.2622,309.046078 L664.800534,308.809318 L664.799904,308.809318 L664.337609,308.573816 L663.875313,308.339574 L663.874683,308.339574 L663.411757,308.107221 L662.948832,307.876128 L662.948202,307.876128 L662.484647,307.646923 L662.020461,307.418978 L661.556276,307.192292 L661.091461,306.967496 L660.626016,306.744588 L660.160571,306.52294 L659.695126,306.302551 L659.229052,306.084051 L658.762977,305.86681 L658.296272,305.651459 L657.830198,305.437366 L657.829568,305.437366 L657.362863,305.225163 L656.896159,305.01422 L656.428194,304.804535 L655.96086,304.59674 L655.493526,304.390834 L655.025561,304.185557 L654.557597,303.982799 L654.089003,303.781301 L653.621039,303.581062 L653.152445,303.382712 L652.683851,303.185621 L652.215257,302.990419 L651.746033,302.796477 L651.277439,302.604424 L650.808215,302.41363 L650.339621,302.224725 L649.870397,302.03708 L649.401173,301.850693 L648.931949,301.666196 L648.463355,301.483588 L648.462725,301.483588 L647.994131,301.30224 L647.524907,301.12215 L647.055683,300.94458 L646.58646,300.767639 L646.117236,300.592587 L645.648012,300.418795 L645.179418,300.246891 L644.710194,300.076877 L644.2416,299.907492 L643.772376,299.740626 L643.303782,299.57502 L642.835188,299.410673 Z M499.399403,589.209685 L491.978026,619.646034 C491.33773,622.27128 491.021994,624.997958 491,627.797717 C490.880826,643.740086 499.850005,662.300772 512.902958,678.708089 L513.138657,678.82464 L513.14622,678.82779 L513.227517,678.868111 L513.262809,678.885121 L513.308815,678.907801 L513.472039,678.986552 L513.511743,679.006083 L513.553337,679.026243 L513.634634,679.065934 L513.635895,679.066564 L513.715932,679.104994 L513.879156,679.183745 L513.884828,679.186265 L513.961084,679.222806 L514.010241,679.246116 L514.043012,679.261866 L514.370092,679.417478 L514.385217,679.425039 L514.452019,679.456539 L514.616505,679.5334 L514.635411,679.54285 L514.698432,679.572461 L514.862918,679.649322 L514.886866,679.660032 L514.945475,679.687752 L515.192518,679.801784 L515.264993,679.835174 L515.275076,679.840214 L515.358264,679.878015 L515.391035,679.893135 L515.440822,679.916445 L515.517078,679.951096 L515.52338,679.954246 L515.64375,680.009057 L515.689126,680.029847 L515.769793,680.066387 L515.771683,680.067017 L515.854241,680.104818 L516.020617,680.179789 L516.023138,680.181049 L516.103175,680.217589 L516.150441,680.23838 L516.186363,680.25476 L516.352739,680.329101 L516.404416,680.352411 L516.436557,680.366271 L516.659022,680.465183 L516.686121,680.477153 L516.853127,680.550864 L516.914258,680.577324 L516.936946,680.587405 L517.103952,680.660486 L517.169494,680.689466 L517.18777,680.697026 L517.271588,680.733567 L517.297427,680.744907 L517.355406,680.770107 L517.42536,680.800347 L517.439225,680.806648 L517.523043,680.842558 L517.553293,680.855788 L517.606861,680.878469 L517.681856,680.911229 L517.691309,680.915009 L517.775128,680.95092 L517.81042,680.96604 L517.859576,680.98683 L517.938983,681.020851 L517.943394,681.022741 L518.027843,681.058651 L518.067546,681.075661 L518.112291,681.094562 L518.196109,681.129842 L518.19674,681.129842 L518.322152,681.183393 L518.448194,681.235683 L518.448194,681.236313 L518.574237,681.288604 L518.574867,681.289234 L518.700279,681.341525 L518.700909,681.341525 L518.826952,681.393816 L518.827582,681.394446 L518.952994,681.446106 L518.954254,681.446736 L519.181761,681.539978 L519.206339,681.550688 L519.20823,681.550688 L519.333012,681.602349 L519.334903,681.602979 L519.460315,681.654009 L519.462205,681.654639 L519.587618,681.70567 L519.589508,681.7063 L519.71492,681.757331 L519.716811,681.757961 L519.842223,681.808361 L519.844744,681.809621 L520.097459,681.910423 L520.09998,681.911683 L520.225392,681.961453 L520.228543,681.962714 L520.353325,682.011854 L520.356476,682.013114 L520.481258,682.062885 L520.48504,682.064145 L520.609822,682.113286 L520.613603,682.114546 L520.737755,682.163056 L520.742166,682.164946 L520.866318,682.213457 L520.870729,682.215347 L520.994881,682.263228 L520.999293,682.265118 L521.124075,682.312998 L521.128486,682.314888 L521.252638,682.362769 L521.25768,682.364659 L521.381831,682.41254 L521.386873,682.41443 L521.511025,682.46168 L521.516067,682.4642 L521.640218,682.510821 L521.64589,682.513341 L521.770042,682.559962 L521.775084,682.562482 L521.899236,682.609102 L521.905538,682.610992 L522.029059,682.657613 L522.035361,682.660133 L522.288707,682.755264 L522.295639,682.757154 L522.549614,682.851656 L522.555917,682.854176 L522.680068,682.899536 L522.687001,682.902056 L522.940976,682.995298 L522.948539,682.997818 L523.07206,683.042548 L523.079623,683.045698 L523.203144,683.090429 L523.210707,683.092949 L523.334229,683.13705 L523.341791,683.1402 L523.596397,683.231551 L523.60522,683.234701 L523.728111,683.278172 L523.736934,683.281952 C523.996581,683.373933 524.258119,683.465284 524.519658,683.556005 L524.529741,683.559786 L524.784347,683.647987 L524.79506,683.651767 L525.183271,683.783439 L525.193984,683.787849 L525.316246,683.828799 L525.327589,683.832579 L525.582825,683.91826 L525.594799,683.922041 C525.768108,683.980631 525.942676,684.037962 526.117245,684.095923 L526.13048,684.099703 L526.385716,684.183494 L526.39895,684.187904 L526.519951,684.226965 C528.266899,684.645921 530.071826,684.994945 531.931582,685.270259 L531.964353,685.275299 L532.079052,685.292309 L532.19438,685.30869 L532.219589,685.31247 L532.309709,685.32507 L532.331136,685.32822 L532.353194,685.33137 L532.374621,685.33452 L532.396678,685.33767 L532.418106,685.34082 L532.425038,685.34145 L532.439533,685.34334 L532.46096,685.34649 L532.483018,685.34964 L532.504445,685.35279 L532.526502,685.35594 L532.540997,685.35783 L532.547929,685.35846 L532.569987,685.36161 L532.591414,685.36476 L532.613471,685.36728 L532.634899,685.37043 L532.765353,685.388071 L532.772915,685.389331 L532.78741,685.391221 L532.808837,685.394371 L532.830895,685.396891 L532.852322,685.400041 L532.874379,685.402561 L532.888874,685.404451 L532.895806,685.405711 L532.917864,685.408861 L532.939921,685.411381 L532.961349,685.414531 L532.983406,685.417051 L533.005463,685.420201 L533.026891,685.422721 L533.048948,685.425871 L533.071005,685.428391 L533.092433,685.431541 L533.11449,685.434061 L533.122053,685.434691 L533.136547,685.437211 L533.180032,685.442251 L533.20209,685.445402 L533.224147,685.448552 L533.238642,685.449812 L533.245574,685.451072 L533.267632,685.453592 L533.289689,685.456742 L533.311116,685.459262 L533.333174,685.461782 L533.355231,685.464302 L533.377289,685.467452 L533.399346,685.469972 L533.420773,685.473122 L533.442831,685.475642 L533.464888,685.478162 L533.472451,685.479422 L533.486945,685.481312 L533.509003,685.483832 L533.53106,685.486352 L533.552487,685.488872 L533.574545,685.492022 L533.58967,685.493912 L533.596602,685.494542 L533.61866,685.497062 L533.640717,685.499582 L533.662775,685.502732 L533.684832,685.505252 L533.706889,685.507772 L533.812765,685.520373 L533.826,685.522263 L533.918641,685.532973 L533.944479,685.536123 L534.024516,685.545573 L534.063589,685.549983 L534.130392,685.557543 L534.1827,685.563213 L534.236268,685.569513 L534.30181,685.576443 L534.342143,685.581483 L534.42029,685.589674 L534.448649,685.592824 L534.54003,685.602904 L534.554525,685.604794 L534.65851,685.615504 L534.6604,685.615504 L534.766276,685.626844 L534.77762,685.628104 L534.89673,685.640704 L534.978657,685.648894 L535.01647,685.652674 L535.084533,685.659604 L535.13558,685.664645 L535.191039,685.670315 L535.25469,685.675985 L535.296915,685.680395 L535.3738,685.687955 L535.40342,685.690475 L535.492911,685.699295 L535.509296,685.700555 L535.612021,685.710005 L535.615802,685.710635 L535.722308,685.720085 L535.731761,685.721345 L535.828183,685.730165 L535.850871,685.732055 L535.934689,685.738986 L535.969981,685.742136 L536.040565,685.748436 L536.089091,685.752846 L536.147071,685.757256 L536.208831,685.762926 L536.253577,685.766706 L536.327942,685.772376 L536.359452,685.775526 L536.447682,685.782456 L536.465958,685.783716 L536.566792,685.791906 L536.572464,685.791906 L536.678339,685.800096 L536.686532,685.800726 L536.784845,685.808287 L536.805642,685.810177 L536.891351,685.816477 L536.925383,685.818997 L536.997857,685.824037 L537.044493,685.827187 L537.104363,685.831597 L537.164233,685.836007 L537.210869,685.839157 L537.283973,685.844197 L537.317375,685.846087 L537.403083,685.851757 L537.42388,685.853647 L537.522824,685.859947 L537.530386,685.860577 L537.642564,685.867507 L537.743398,685.873807 L537.762304,685.875067 L537.849904,685.880108 L537.881414,685.881998 L537.95641,685.886408 L538.001155,685.888928 L538.062915,685.892708 L538.120895,685.895858 L538.169421,685.898378 L538.240635,685.902158 L538.275927,685.904048 L538.360376,685.908458 L538.382433,685.909718 L538.480116,685.914758 L538.488939,685.915388 L538.596075,685.920428 L538.599856,685.920428 L538.702581,685.925468 L538.719596,685.926098 L538.809087,685.930508 L538.839337,685.931768 L538.915592,685.935548 L538.959077,685.936808 L539.022728,685.939958 L539.078817,685.942478 L539.129234,685.944368 L539.198558,685.946888 L539.23574,685.948148 L539.318298,685.951929 L539.342246,685.952559 L539.438038,685.956339 L539.449382,685.956339 L539.555888,685.960119 L539.557779,685.960119 L539.662394,685.963899 L539.677519,685.964529 L539.76953,685.967049 L539.797259,685.968309 L539.876036,685.970829 L539.91763,685.971459 L539.983172,685.973349 L540.03737,685.975239 L540.089678,685.976499 L540.15711,685.978389 L540.196814,685.979649 L540.276851,685.980909 L540.303319,685.981539 L540.397221,685.984059 L540.410455,685.984059 L540.516961,685.986579 L540.636702,685.989099 L540.876812,685.992879 L540.996553,685.994139 L541.116923,685.996029 L541.236664,685.997289 L541.357034,685.997919 C560.63018,686.144081 580.039452,678.580827 595.767026,666.293767 C611.486406,654.012378 623.485014,637.038684 627.946916,618.356406 L627.95952,618.356406 L628.245006,617.15939 L628.531122,615.963003 L628.817238,614.765987 L629,613.999266 C627.626138,612.933922 626.223286,611.883697 624.795225,610.848593 C601.717488,594.126902 574.184152,583.361314 549.81322,580.072039 C528.796907,577.235109 510.283166,579.944147 499.399403,589.209685 Z M541.733578,692.261882 L541.596749,692.260621 L541.533695,692.259991 L541.45992,692.258729 L541.323722,692.257468 L541.197613,692.255577 L541.187524,692.254946 L541.051956,692.253055 L540.785234,692.24801 L540.78082,692.24801 L540.662277,692.244857 L540.645253,692.244857 L540.540582,692.242335 L540.29656,692.23603 L540.240441,692.234769 L540.174864,692.232877 L540.106134,692.230985 L540.053168,692.229094 L539.932103,692.22531 L539.837521,692.222788 L539.811038,692.221527 L539.703214,692.218374 L539.689972,692.217744 L539.569538,692.21333 L539.568907,692.21333 L539.448473,692.208916 L539.435862,692.208285 L539.327407,692.203871 L539.302816,692.203241 L539.206973,692.199458 L539.16977,692.198197 L539.087169,692.194413 L539.036725,692.192522 L538.966734,692.189369 L538.903679,692.186847 L538.84693,692.183694 L538.771264,692.180541 L538.727126,692.178649 L538.638849,692.174236 L538.607322,692.172974 L538.506434,692.16793 L538.488148,692.166669 L538.37465,692.160994 L538.368975,692.160994 L538.249801,692.154688 L538.242865,692.154058 L538.130627,692.148383 L538.111081,692.147122 L537.979927,692.139555 L537.893541,692.135141 L537.848773,692.132619 L537.774998,692.128205 L537.717619,692.124422 L537.656455,692.120639 L537.587095,692.116855 L537.538543,692.113703 L537.456572,692.108028 L537.420631,692.106136 L537.326048,692.09983 L537.302718,692.098569 L537.196156,692.091633 L537.185436,692.090372 L537.067524,692.082805 L537.065632,692.082805 L536.950242,692.074608 L536.93637,692.073347 L536.83296,692.066411 L536.806477,692.064519 L536.716309,692.057583 L536.677215,692.054431 L536.599657,692.048756 L536.547952,692.044972 L536.483006,692.039928 L536.41869,692.034884 L536.366354,692.0311 L536.290058,692.024795 L536.161426,692.014706 L536.133682,692.012184 L536.033425,692.003987 L536.017661,692.002725 L535.904793,691.993267 L535.902271,691.993267 L535.78625,691.983178 L535.776792,691.981917 L535.67086,691.973089 L535.649421,691.971198 L535.55547,691.96237 L535.52142,691.959848 L535.44008,691.952281 L535.39405,691.947867 L535.32532,691.941562 L535.267309,691.935887 L535.21056,691.930842 L535.139939,691.923906 L535.0958,691.919493 L535.013199,691.911926 L534.981041,691.908773 L534.887089,691.899315 L534.866912,691.897423 L534.760349,691.886704 L534.752782,691.886073 L534.638653,691.874093 L534.634239,691.873462 L534.524524,691.862112 L534.50813,691.860221 L534.411025,691.850132 L534.382651,691.846979 L534.297527,691.838151 L534.257172,691.833737 L534.184028,691.82554 L534.131693,691.819865 L534.07116,691.812929 L534.006214,691.805993 L533.957661,691.800318 L533.881365,691.79149 L533.844793,691.787707 L533.756517,691.777618 L533.732556,691.774466 L533.632299,691.762485 L533.619688,691.761224 L533.50745,691.747982 L533.486642,691.74546 L533.465834,691.742938 L533.445026,691.740416 L533.424218,691.737894 L533.40341,691.735371 L533.382602,691.732849 L533.38008,691.732219 L533.361163,691.730327 L533.340986,691.727805 L533.319547,691.724652 L533.299369,691.72276 L533.277931,691.720238 L533.257123,691.717085 L533.252078,691.716455 L533.236315,691.714563 L533.215507,691.712041 L533.194699,691.709519 L533.17389,691.706997 L533.153082,691.704474 L533.132274,691.701952 L533.124708,691.700691 L533.111466,691.698799 L533.090658,691.696277 L533.06985,691.693755 L533.049042,691.691233 L533.028234,691.688711 L533.007426,691.685558 L532.997337,691.684297 L532.986618,691.683036 L532.96581,691.680513 L532.945002,691.677991 L532.924193,691.675469 L532.903385,691.672316 L532.882577,691.669794 L532.869966,691.668533 L532.861769,691.667272 L532.840961,691.664119 L532.820153,691.661597 L532.799345,691.659075 L532.778537,691.656552 L532.757729,691.6534 L532.742596,691.651508 L532.736921,691.650877 L532.716113,691.648355 L532.695305,691.645202 L532.674496,691.64268 L532.653688,691.640158 L532.63288,691.637005 L532.615225,691.634483 L532.612072,691.634483 L532.591264,691.63133 L532.570456,691.628808 L532.549648,691.625655 L532.52884,691.623133 L532.508032,691.61998 L532.488485,691.617458 L532.487224,691.617458 L532.466416,691.614936 L532.445608,691.611783 L532.4248,691.609261 L532.403991,691.606108 L532.32139,691.594758 L532.300582,691.591606 L532.279773,691.589083 L532.258965,691.585931 L532.238157,691.583408 L532.233744,691.582778 L532.217349,691.580256 L532.196541,691.577103 L532.175733,691.574581 L532.107003,691.565122 L532.021879,691.553142 L531.980263,691.546836 L531.979633,691.546836 L531.867395,691.531073 L531.853523,691.52855 L531.852893,691.52855 L531.726152,691.510264 L531.599412,691.491348 L531.560318,691.485673 C528.630793,691.051222 525.77378,690.43202 523,689.640047 C537.445222,704.580345 554.56775,716.13584 569.639106,719.808806 C572.744555,720.565468 575.716327,720.976588 578.503349,721 C597.069832,721.138009 615.802779,713.821715 631.012225,701.93581 C646.201494,690.065039 657.788442,673.688344 662.084996,655.692391 L662.109587,655.692391 C668.211399,630.138642 674.317625,604.610746 680.413131,579.12825 C686.425406,553.993188 692.426961,528.901634 698.403294,503.872505 C727.228161,383.16216 682.717153,569.514855 716.374539,428.488126 C722.3597,403.411075 728.336033,378.366182 734.315519,353.302372 C736.512978,344.090639 736.502259,335.399741 734.622596,327.638277 C732.693119,319.672514 728.795072,312.625465 723.303,306.961848 L723.278408,306.937256 L723.236792,306.894379 L723.237423,306.893748 L723.223551,306.879876 C719.032929,302.558073 715.17776,298.284192 711.293584,293.978152 C710.098066,292.653363 708.900025,291.32542 707.696309,290 C708.452966,293.933383 708.816792,298.047735 708.758151,302.305852 C708.690683,307.214068 708.068332,312.259745 706.84633,317.38298 L703.870144,329.855298 L703.613511,330.93228 L703.356247,332.009263 L703.098984,333.086876 L702.842351,334.163859 L702.425559,335.910488 L702.328454,336.317825 L701.948865,337.906816 L701.814558,338.472421 L701.711148,338.904979 L701.557294,339.549403 L701.472801,339.903143 L701.300031,340.626386 L701.234454,340.901307 L701.043398,341.703999 L700.996737,341.899471 L700.975929,341.985856 L700.529501,343.857965 L700.520043,343.895798 L700.282326,344.893962 L700.272238,344.934948 L700.043979,345.892125 L700.014974,346.01193 L699.805632,346.890289 L699.758341,347.089544 L699.567285,347.887822 L699.501078,348.166526 L699.329569,348.886617 L699.244445,349.243509 L699.091221,349.88415 L698.987181,350.320492 L698.852874,350.882314 L698.729917,351.398105 L698.615158,351.880477 L698.473284,352.475088 L698.376811,352.878641 L698.216021,353.552071 L698.138464,353.876805 L697.959388,354.629684 L697.900747,354.874969 L697.702124,355.706667 L697.6624,355.873132 L697.444861,356.783649 L697.424053,356.871296 L697.188228,357.860632 L697.185706,357.86946 L696.947989,358.867624 L696.930964,358.938245 L696.709642,359.865787 L696.673701,360.015228 L696.471295,360.863951 L696.417068,361.092211 L696.232948,361.862115 L696.159804,362.169824 L695.995231,362.860279 L695.902541,363.246807 L695.756884,363.858442 L695.645908,364.32442 L695.518537,364.856606 L695.388644,365.401403 L695.28019,365.85477 L695.131381,366.479016 L695.041843,366.852934 L694.874117,367.555999 L694.804126,367.851728 L694.617484,368.632982 L694.565779,368.849892 L694.360221,369.710595 L694.327432,369.848055 L694.102957,370.788208 L694.089085,370.846219 L693.850738,371.845014 L693.846324,371.865191 L693.612391,372.843177 L693.58906,372.942804 L693.374674,373.841341 L693.331797,374.020418 L693.136327,374.840135 L693.074533,375.0974 L692.89798,375.838299 L692.8179,376.175014 L692.659633,376.837093 L692.560637,377.252627 L692.421286,377.835257 L692.303373,378.33024 L692.182939,378.833421 L692.04611,379.407854 L691.944592,379.832215 L691.788846,380.485467 L691.706244,380.831009 L691.531583,381.56308 L691.467897,381.829173 L691.274319,382.640694 L691.230181,382.827967 L691.017686,383.718307 L690.991203,383.826762 L690.760423,384.79592 L690.753487,384.824926 L690.515139,385.82372 L690.503159,385.874164 L690.276792,386.822514 L690.245895,386.951777 L690.038445,387.821308 L689.988632,388.029391 L689.800098,388.820103 L689.731368,389.107004 L689.561751,389.818897 L689.474105,390.185248 L689.323404,390.817691 L689.216841,391.262861 L689.084426,391.816486 L688.959578,392.341105 L688.846079,392.81528 L688.702314,393.418718 L688.607732,393.814705 L688.445051,394.496962 L688.369385,394.813499 L688.187787,395.575206 L688.131038,395.812293 L687.930524,396.65345 L687.892691,396.811718 L687.67326,397.731694 L687.654344,397.810513 L687.415996,398.809937 C677.875176,438.784409 695.550695,364.709057 670.897533,467.953743 C664.9212,492.982242 658.919014,518.073796 652.90674,543.209488 C647.383141,566.301562 641.850083,589.431469 636.320178,612.584706 L636.109575,613.467479 L636.034539,613.782125 L635.748271,614.979543 L635.462632,616.177591 L635.176364,617.37501 L634.890095,618.573058 L634.604457,619.770476 L634.615807,619.772999 C629.816076,639.875626 616.974337,658.089119 600.170236,671.221625 C583.380006,684.343411 562.58832,692.420151 541.870407,692.263143 L541.733578,692.261882 Z M648.067519,241.024591 C680.451598,241.107191 700.638848,263.522683 720.13552,285.170814 C724.082572,289.553027 728.000036,293.903083 731.704725,297.729795 L731.742496,297.768888 L731.766418,297.793479 L731.807965,297.836355 L731.807336,297.836355 C738.824526,305.093174 743.800204,314.096572 746.255937,324.255109 C748.59647,333.933179 748.649978,344.602448 745.998466,355.733269 C740.028786,380.797004 734.062254,405.841193 728.086909,430.91754 C714.119886,489.534523 727.655063,432.717715 728.076837,430.915017 L728.076208,430.915017 C727.860284,431.80281 723.771592,448.938208 710.096663,506.299798 C704.130131,531.328224 698.137789,556.419072 692.135375,581.553427 C686.050494,607.033315 679.954912,632.558602 673.863736,658.10974 L673.886399,658.115415 C668.927089,678.918631 655.689672,697.744491 638.375524,711.297194 C621.086557,724.83035 599.644057,733.160338 578.243735,733 C574.428251,732.969286 570.500715,732.439637 566.515263,731.467353 C547.017331,726.70682 525.049187,711.038045 508.113377,691.550123 C499.39461,681.517693 491.943685,670.398222 486.761527,659.138772 C486.711166,659.031582 486.660805,658.924391 486.611073,658.816569 C486.397668,658.354388 486.189929,657.888423 485.988484,657.419936 C481.506975,647.211587 478.928487,636.928204 479,627.272203 C479.030468,623.471343 479.45539,619.777673 480.318453,616.230918 L488.653216,581.985974 L517.241957,464.57924 C522.837705,441.605725 528.422752,418.668782 533.998356,395.760212 C539.57396,372.851643 545.14138,349.970817 550.700616,327.110168 L553.80286,314.352569 C554.866739,309.977292 556.290699,305.718664 558.03697,301.605689 C559.809052,297.430291 561.939956,293.347582 564.385617,289.392871 C573.202588,275.136492 585.987384,262.933133 600.697863,254.368587 C615.069034,246.002028 631.357704,241.066206 647.682257,241.024591 L647.682257,241 L648.067519,241 L648.067519,241.024591 Z M697.228267,278.656232 C683.42073,264.565179 668.160066,253.051432 648.152433,253 L648.152433,253.024129 L647.768611,253.024129 L647.768611,253 C633.797386,253.035558 619.718289,257.38758 607.182631,264.764556 C598.051821,270.137596 589.781472,277.094228 583,285.141723 L583.030731,285.136009 C583.231422,285.101086 583.43274,285.066163 583.634058,285.03251 L583.748201,285.013461 L584.05739,284.962664 L584.106936,284.955045 C584.313899,284.922027 584.521488,284.889644 584.729705,284.857896 L584.823779,284.843927 C585.153665,284.7944 585.486059,284.746778 585.819081,284.701695 L585.915036,284.688361 L586.246803,284.644549 L586.296349,284.638199 C586.511464,284.610261 586.727207,284.582958 586.943577,284.556924 L587.021345,284.5474 L587.339314,284.509937 L587.476035,284.494063 C587.67359,284.471205 587.871773,284.449616 588.070582,284.428027 L588.135179,284.421043 L588.448759,284.38866 L588.656976,284.367706 L588.880245,284.345482 L589.260303,284.309924 L589.306086,284.30548 L589.560712,284.282621 L589.790253,284.262937 L590.148988,284.233094 L590.454414,284.208331 L590.692108,284.189917 L590.973702,284.169598 L591.168121,284.155629 L591.636609,284.124516 L591.827266,284.112452 L592.094435,284.096578 L592.347808,284.081338 L592.739782,284.060385 L592.763614,284.059115 L592.990019,284.047686 L593.324922,284.031812 L593.494882,284.024192 L593.975286,284.004508 L594.138974,283.998159 L594.50649,283.985459 L594.660144,283.98038 L595.122987,283.967046 L595.3519,283.961331 L595.684295,283.954346 L595.864289,283.950537 L596.320861,283.942917 L596.394866,283.941647 L596.473888,283.941012 L596.920425,283.936567 L597.046484,283.935297 L597.555111,283.932758 L597.716291,283.932758 L598.079416,283.933393 L598.285751,283.934663 C598.63257,283.936567 598.980643,283.939742 599.329971,283.944822 L599.490524,283.947362 L599.953995,283.956251 L599.996014,283.956886 L600.026745,283.957521 L600.177263,283.961331 L600.510285,283.969585 L600.755504,283.975935 L601.104204,283.986729 L601.240925,283.991174 L601.256604,283.991809 L601.363848,283.995619 L601.831082,284.012128 L601.91763,284.015938 C602.109541,284.022922 602.302706,284.031177 602.495871,284.039431 C615.573394,284.61915 630.196865,287.55394 644.953294,292.764429 L645.437461,292.935869 L645.921628,293.109213 L646.405795,293.284463 L646.889961,293.460982 L647.374128,293.638771 L647.858295,293.818465 L648.342462,294.000063 L648.827256,294.182932 L649.311423,294.367706 L649.311423,294.368341 L649.796217,294.554384 L650.280384,294.742333 L650.764551,294.931551 L651.249345,295.122674 L651.733512,295.315703 L652.217679,295.510001 L652.701846,295.706204 L653.186013,295.903676 L653.67018,296.103054 L654.153719,296.303702 L654.637886,296.506889 L655.121426,296.710712 L655.604966,296.916439 L656.088505,297.124071 L656.572045,297.332974 L657.054958,297.543146 L657.53787,297.755858 L658.020783,297.969204 L658.020783,297.969839 L658.503695,298.185091 L658.985981,298.402248 L659.468266,298.620674 L659.949925,298.841006 L660.431583,299.062607 L660.913241,299.286113 L660.913241,299.286748 L661.394272,299.511525 L661.875303,299.738206 L662.356334,299.966157 L662.356334,299.966792 L662.836111,300.196647 L663.316515,300.427773 L663.796292,300.661439 L664.275442,300.895739 L664.754591,301.131945 L665.233114,301.370055 L665.711636,301.609436 L666.189531,301.850721 L666.667427,302.093911 L667.144695,302.337736 L667.621336,302.584101 L668.097977,302.831735 L668.573991,303.08064 L669.049377,303.33145 L669.524137,303.584164 L669.998896,303.837513 L670.473029,304.093403 L670.946534,304.350562 L671.420039,304.608991 L671.89229,304.869325 L672.364541,305.131564 L672.836165,305.395073 L673.307161,305.659851 L673.77753,305.926535 L674.2479,306.195123 L674.717015,306.464982 L675.18613,306.73611 L675.18613,306.736745 L675.653991,307.009143 L675.653991,307.009778 C676.093629,307.266303 676.532014,307.526002 676.969144,307.786971 L676.972279,307.788875 C677.263908,307.962855 677.55491,308.137469 677.845912,308.313988 L677.87727,308.332402 L678.24604,308.556543 L678.282415,308.578767 L678.614809,308.781954 L678.718918,308.845451 L678.787905,308.887993 L679.144759,309.107689 L679.162946,309.119119 L679.586906,309.381358 L679.591296,309.383897 C679.878535,309.562321 680.165774,309.742015 680.452386,309.922344 L680.457403,309.926154 C680.879481,310.191568 681.301559,310.459521 681.721756,310.72938 L681.786981,310.771287 L682.170175,311.018287 L682.192753,311.033526 C682.886391,311.481808 683.57752,311.93517 684.265514,312.394882 L684.333874,312.439964 L684.455543,312.521239 L684.760969,312.726332 L684.816787,312.763795 L685.177403,313.006985 L685.187438,313.013969 L685.537393,313.251445 L685.613906,313.303511 L685.744355,313.392406 L685.981421,313.554956 L686.115006,313.64639 L686.430467,313.863547 L686.483776,313.900375 L686.836866,314.144835 L686.90899,314.194362 L687.310372,314.474379 L687.330441,314.488348 C687.598238,314.675662 687.866035,314.86488 688.133204,315.054099 L688.153901,315.068703 L688.39912,315.242682 L688.574724,315.367769 L688.754719,315.496031 L688.994921,315.668106 L689.016245,315.683345 L689.294703,315.883993 L689.414491,315.969712 L689.464036,316.005905 L689.817127,316.262429 L689.832806,316.273224 L690.170217,316.519589 L690.250494,316.578005 L690.522681,316.778018 L690.666928,316.884056 L690.874517,317.037717 L690.945386,317.089783 L691.171164,317.257413 L691.226354,317.298051 L691.497913,317.501238 L691.576936,317.559655 L691.912466,317.811099 L691.92689,317.822528 L692.276218,318.086037 L692.478163,318.238428 L692.727146,318.427646 L692.764775,318.456219 L693.092779,318.707029 L693.150478,318.750841 L693.321065,318.882278 L693.402596,318.945139 L693.667884,319.149597 L693.971429,319.384532 L694.014703,319.418185 L694.360268,319.688044 C694.561586,319.844879 694.762277,320.002984 694.962968,320.16109 L695.102825,320.271573 L695.344908,320.463331 L695.443372,320.542066 L695.679184,320.730015 L695.736882,320.775732 L696.007188,320.992253 L696.079311,321.05067 L696.411706,321.318623 L696.421113,321.325608 L696.762288,321.602451 L697.05329,321.839926 L697.124159,321.897708 L697.337393,322.072322 L697.540592,322.239317 L697.690483,322.363134 L697.900582,322.537113 L698.096255,322.699663 L698.189702,322.777129 L698.456872,323 L700.239258,315.43825 C701.363755,310.667153 701.935097,306.049717 701.994677,301.634199 C702.056139,297.098038 701.584515,292.716807 700.623707,288.547654 C700.584823,288.378754 700.545312,288.21049 700.504547,288.042225 L700.497021,288.009842 L700.490749,287.984443 C699.699901,284.722649 698.604881,281.604356 697.228267,278.656232 Z M677,308.0865 L678,308.9135 C677.666906,308.6355 677.333812,308.3605 677,308.0865 Z M246.74041,917.320513 C240.435356,921.679074 231.410885,919.696305 226.58369,912.891874 C221.756494,906.087442 222.954536,897.038048 229.25959,892.679487 C235.564644,888.320926 244.589115,890.303695 249.41631,897.108126 C254.243506,903.912558 253.045464,912.961952 246.74041,917.320513 Z M188.191009,933.62942 C183.544028,939.396958 174.542663,939.812669 168.085897,934.557934 C161.629131,929.3032 160.16201,920.367883 164.808991,914.600344 C169.455972,908.832806 178.457337,908.417096 184.914103,913.67183 C191.370869,918.926564 192.83799,927.861881 188.191009,933.62942 Z" id="Combined-Shape" fill="#000000"/>
    </g>
</svg>