<?xml version="1.0" standalone="no"?>
<!DOCTYPE svg PUBLIC "-//W3C//DTD SVG 20010904//EN"
        "http://www.w3.org/TR/2001/REC-SVG-20010904/DTD/svg10.dtd">
<svg version="1.0" xmlns="http://www.w3.org/2000/svg"
     width="711.000000pt" height="783.000000pt" viewBox="0 0 711.000000 783.000000"
     preserveAspectRatio="xMidYMid meet">
    <metadata>
        Created by potrace 1.10, written by Peter Selinger 2001-2011
    </metadata>
    <g transform="translate(0.000000,783.000000) scale(0.100000,-0.100000)"
       fill="#000000" stroke="none">
        <path d="M3530 7617 c-3 -3 -50 -8 -105 -12 -212 -13 -341 -25 -363 -35 -13
-5 -37 -10 -55 -10 -18 0 -48 -5 -67 -11 -19 -6 -64 -17 -100 -24 -117 -24
-165 -36 -197 -51 -17 -8 -40 -14 -51 -14 -12 0 -24 -4 -27 -10 -3 -5 -21 -10
-39 -10 -19 0 -39 -6 -45 -14 -6 -7 -27 -16 -46 -19 -43 -7 -115 -38 -115 -49
0 -4 -7 -8 -16 -8 -9 0 -28 -6 -42 -14 -15 -8 -47 -24 -72 -36 -25 -11 -52
-25 -60 -29 -8 -5 -51 -26 -95 -46 -44 -21 -95 -51 -113 -67 -18 -15 -37 -28
-43 -28 -14 0 -109 -67 -135 -95 -13 -14 -33 -25 -45 -25 -18 0 -20 -4 -15
-25 6 -24 5 -25 -15 -13 -18 11 -22 11 -27 -1 -2 -7 -12 -20 -22 -29 -9 -8
-44 -42 -77 -75 -56 -57 -84 -87 -136 -148 -12 -14 -38 -44 -57 -65 -19 -22
-44 -57 -55 -79 -11 -21 -25 -43 -30 -49 -13 -14 -69 -131 -96 -199 -11 -29
-25 -56 -30 -62 -5 -5 -9 -23 -9 -40 0 -31 -34 -75 -57 -75 -6 0 -39 -27 -74
-61 -35 -33 -88 -79 -116 -101 -29 -22 -53 -44 -53 -48 0 -7 -3 -11 -108 -125
-35 -38 -77 -88 -94 -112 -17 -24 -35 -43 -40 -43 -4 0 -8 -9 -8 -20 0 -10
-12 -32 -26 -47 -48 -52 -124 -167 -124 -188 0 -12 -10 -31 -23 -43 -13 -12
-34 -44 -46 -70 -12 -26 -29 -59 -37 -74 -8 -14 -14 -35 -14 -45 0 -10 -6 -27
-13 -38 -7 -11 -19 -36 -27 -55 -7 -19 -19 -48 -25 -65 -16 -39 -30 -79 -45
-135 -7 -25 -19 -63 -26 -85 -25 -78 -44 -153 -44 -180 0 -14 -5 -35 -11 -46
-6 -11 -15 -55 -20 -97 -4 -42 -15 -111 -24 -152 -24 -120 -29 -206 -28 -538
1 -240 5 -334 17 -400 40 -221 46 -254 46 -275 0 -12 7 -40 15 -62 8 -22 14
-54 15 -71 0 -18 7 -45 15 -60 8 -16 15 -40 15 -54 0 -15 4 -30 8 -35 5 -6 19
-39 32 -75 13 -36 27 -70 32 -76 4 -6 11 -32 14 -58 4 -25 11 -46 15 -46 5 0
9 -6 9 -12 0 -16 101 -219 118 -236 6 -7 12 -17 12 -22 0 -5 20 -38 45 -74 25
-37 45 -69 45 -72 0 -2 4 -10 10 -17 14 -17 87 -108 132 -165 22 -27 38 -58
38 -73 0 -14 7 -34 15 -45 8 -10 15 -33 15 -51 0 -17 4 -34 9 -37 5 -4 12 -24
16 -46 4 -22 10 -42 15 -45 4 -3 11 -21 14 -40 4 -19 11 -35 16 -35 4 0 11
-13 15 -29 7 -32 78 -174 119 -240 14 -22 26 -44 26 -49 0 -8 15 -29 53 -74 9
-12 17 -25 17 -30 0 -4 8 -16 18 -26 9 -10 42 -49 72 -87 66 -81 74 -89 169
-168 41 -34 95 -82 120 -107 50 -49 170 -142 266 -205 33 -22 62 -42 65 -45 9
-9 45 -30 70 -41 13 -5 27 -13 30 -17 3 -4 28 -18 55 -32 28 -14 51 -28 53
-32 2 -5 8 -8 14 -8 10 0 129 -53 158 -71 8 -5 22 -12 30 -15 8 -3 28 -12 43
-20 16 -7 33 -14 39 -14 5 0 26 -7 46 -16 21 -9 52 -22 70 -30 18 -8 38 -14
45 -14 7 0 24 -6 39 -14 14 -8 45 -17 67 -21 23 -4 43 -10 46 -15 3 -4 25 -11
50 -14 24 -4 47 -11 50 -17 4 -5 25 -9 48 -9 23 -1 53 -7 67 -15 14 -8 43 -15
65 -15 22 0 51 -7 65 -15 14 -8 49 -14 78 -15 29 0 62 -5 73 -11 11 -6 57 -15
102 -20 45 -5 105 -13 132 -18 86 -16 577 -24 760 -12 191 12 342 29 365 41 9
4 45 11 80 15 36 4 70 11 75 15 6 4 34 10 64 13 29 4 59 11 66 17 7 6 36 13
64 17 28 3 54 10 57 14 3 5 15 9 27 9 12 0 35 7 51 15 15 8 33 15 40 15 6 0
23 6 37 14 14 7 42 16 62 20 21 4 37 11 37 16 0 4 14 12 32 15 18 4 39 11 48
16 46 24 170 79 179 79 6 0 11 4 11 9 0 5 12 12 27 16 15 3 30 10 33 13 3 4
28 18 55 31 28 14 56 31 63 38 7 7 20 13 28 13 8 0 14 5 14 10 0 6 4 10 10 10
11 0 196 124 210 141 3 3 28 22 57 42 28 20 66 51 85 69 18 18 56 51 82 73 76
62 98 85 226 231 14 16 50 61 80 99 30 39 60 76 67 83 7 7 13 19 13 26 0 7 11
25 25 40 14 15 25 30 25 33 0 5 69 124 100 173 8 13 114 229 155 315 8 17 17
42 21 57 3 16 10 28 14 28 5 0 11 15 15 32 7 33 27 87 46 122 6 10 12 32 15
48 2 17 7 35 13 42 5 6 12 30 16 53 4 24 10 45 15 48 5 3 11 23 15 46 4 22 13
53 21 67 8 15 14 41 14 58 0 16 4 34 10 40 5 5 12 34 15 64 4 30 12 69 20 85
42 93 45 105 44 184 -1 44 3 86 9 93 5 7 13 56 17 108 4 52 11 100 15 105 4 6
10 60 14 120 4 61 11 135 16 165 5 30 14 161 20 291 16 322 -1 705 -41 954 -6
33 -14 92 -19 130 -5 39 -13 86 -19 105 -5 19 -15 64 -21 100 -39 200 -40 206
-86 365 -8 28 -20 70 -26 95 -5 25 -14 49 -19 54 -5 6 -9 19 -9 29 0 10 -6 31
-14 45 -8 15 -25 54 -37 87 -29 76 -98 226 -113 244 -6 7 -11 19 -11 25 0 19
-86 186 -96 186 -5 0 -9 7 -9 15 0 13 -55 112 -69 125 -4 3 -10 12 -16 22 -30
49 -106 157 -115 163 -5 3 -10 17 -10 31 0 17 -6 24 -19 24 -11 0 -21 4 -23 9
-7 21 -124 151 -136 151 -7 0 -17 12 -22 26 -6 14 -19 28 -30 31 -11 3 -20 9
-20 13 0 5 -9 12 -20 15 -11 3 -23 16 -26 28 -3 12 -33 45 -66 72 -34 28 -69
58 -79 68 -11 9 -23 17 -28 17 -5 0 -18 11 -28 24 -10 13 -34 31 -53 41 -19
10 -49 29 -66 41 -17 13 -35 24 -41 24 -5 0 -18 8 -29 18 -30 26 -75 57 -119
81 -22 12 -62 35 -90 51 -27 16 -55 28 -62 25 -6 -2 -17 3 -23 11 -7 8 -21 14
-31 14 -11 0 -19 3 -19 8 0 13 -87 55 -103 49 -8 -3 -25 2 -36 13 -12 10 -36
23 -54 30 -17 6 -45 18 -61 26 -21 11 -32 12 -42 3 -9 -8 -14 -8 -14 -1 0 6
-10 14 -22 17 -13 4 -38 13 -56 21 -18 9 -47 16 -65 18 -17 2 -45 8 -60 14
-16 7 -37 12 -47 12 -10 0 -22 5 -25 10 -3 6 -17 10 -29 10 -13 0 -29 7 -36
15 -7 9 -19 14 -26 11 -12 -5 -61 8 -94 24 -9 4 -48 11 -88 15 -40 4 -74 11
-77 15 -3 5 -44 11 -93 15 -48 4 -95 12 -105 17 -16 8 -77 14 -332 32 -177 13
-291 18 -295 13z m385 -73 c81 -3 158 -11 183 -20 23 -8 71 -14 105 -14 35 0
68 -5 73 -10 6 -6 44 -14 85 -17 41 -3 79 -10 85 -15 7 -5 35 -11 63 -15 28
-3 54 -10 57 -14 3 -5 12 -9 19 -9 8 0 49 -24 92 -52 113 -76 248 -219 318
-336 6 -9 29 -45 53 -80 23 -35 42 -70 42 -77 0 -8 4 -16 9 -19 14 -9 51 -85
51 -105 0 -10 7 -21 15 -25 8 -3 15 -12 15 -20 0 -8 6 -27 14 -43 8 -15 19
-39 25 -53 5 -14 19 -46 30 -72 12 -26 21 -51 21 -56 0 -5 7 -23 15 -38 8 -16
15 -38 15 -49 0 -11 7 -29 15 -39 8 -11 15 -33 15 -50 0 -16 7 -37 16 -47 21
-23 10 -39 -26 -39 -16 0 -40 -4 -54 -10 -15 -5 -63 -12 -109 -16 -45 -3 -91
-10 -102 -14 -11 -5 -58 -14 -105 -20 -186 -22 -275 -35 -285 -41 -5 -4 -48
-10 -94 -14 -69 -6 -93 -13 -140 -41 -74 -44 -116 -83 -142 -133 -11 -23 -25
-44 -30 -47 -5 -3 -9 -13 -9 -22 0 -9 -7 -29 -15 -45 -8 -15 -17 -55 -21 -90
-4 -34 -11 -67 -16 -74 -5 -7 -7 -47 -4 -90 6 -90 33 -429 41 -518 37 -407 34
-1450 -4 -1595 -9 -33 -27 -203 -38 -358 -2 -40 0 -78 5 -85 5 -7 13 -37 17
-67 4 -30 14 -64 21 -75 8 -11 14 -30 14 -42 0 -13 5 -23 10 -23 6 0 13 -8 17
-17 7 -19 58 -87 84 -113 21 -20 118 -84 149 -97 14 -6 39 -16 55 -24 35 -15
119 -36 194 -49 29 -5 58 -13 64 -19 6 -6 28 -11 49 -11 22 0 51 -6 66 -14 15
-7 51 -16 81 -19 30 -4 59 -11 65 -17 5 -5 26 -10 45 -10 20 0 49 -7 65 -15
15 -8 43 -15 61 -15 18 0 57 -7 86 -16 30 -9 60 -18 67 -20 17 -5 15 -46 -3
-70 -8 -10 -17 -40 -21 -67 -4 -26 -11 -50 -15 -53 -5 -3 -9 -17 -9 -32 0 -15
-6 -39 -14 -53 -7 -14 -16 -42 -20 -62 -4 -20 -13 -49 -21 -64 -8 -15 -15 -35
-15 -44 0 -9 -7 -30 -15 -45 -8 -16 -15 -37 -15 -46 0 -15 -18 -64 -41 -109
-4 -9 -11 -33 -14 -53 -4 -20 -11 -36 -15 -36 -5 0 -12 -14 -15 -32 -4 -18
-11 -39 -16 -48 -5 -8 -18 -37 -29 -65 -12 -27 -25 -59 -30 -70 -5 -11 -12
-30 -15 -42 -4 -13 -11 -23 -16 -23 -5 0 -9 -11 -9 -24 0 -13 -6 -29 -14 -35
-8 -7 -17 -23 -20 -36 -4 -14 -11 -25 -16 -25 -6 0 -10 -7 -10 -16 0 -14 -15
-49 -42 -94 -4 -8 -13 -27 -19 -42 -6 -16 -14 -28 -18 -28 -3 0 -17 -24 -31
-52 -13 -29 -48 -88 -77 -131 -29 -43 -53 -82 -53 -86 0 -4 -7 -16 -15 -26 -8
-11 -44 -60 -79 -110 -36 -49 -72 -101 -82 -114 l-17 -24 -169 5 c-92 3 -174
10 -181 16 -6 5 -65 12 -130 14 -71 3 -122 9 -129 16 -7 7 -43 12 -88 12 -47
0 -86 6 -104 15 -15 8 -45 15 -65 15 -20 0 -49 7 -65 15 -58 30 -187 17 -256
-26 -8 -5 -24 -13 -35 -18 -12 -5 -32 -21 -45 -35 -14 -14 -29 -26 -34 -26 -7
0 -82 -54 -96 -70 -20 -22 -243 -140 -264 -140 -7 0 -19 -7 -26 -15 -7 -8 -24
-15 -39 -15 -14 0 -35 -7 -45 -15 -11 -8 -37 -15 -59 -15 -21 0 -45 -7 -53
-15 -19 -19 -48 -19 -82 -1 -32 16 -124 46 -142 46 -11 0 -37 10 -115 45 -16
7 -39 16 -50 18 -42 11 -96 34 -107 45 -7 7 -22 12 -35 12 -13 0 -26 7 -29 15
-4 8 -16 15 -29 15 -12 0 -28 7 -35 15 -7 8 -18 15 -25 15 -14 0 -128 58 -180
90 -16 11 -49 29 -72 41 -23 11 -47 27 -54 35 -6 8 -17 14 -23 14 -6 0 -49 32
-96 71 -47 39 -103 85 -125 102 -21 18 -55 46 -75 63 -19 17 -44 34 -54 38
-14 5 -16 10 -8 18 8 8 30 5 84 -13 65 -21 88 -23 213 -21 95 3 147 8 161 17
12 7 38 17 60 21 21 4 45 13 52 21 7 7 20 13 28 13 9 0 22 7 30 15 9 8 24 15
35 15 10 0 19 4 19 9 0 5 21 23 48 39 66 41 187 162 255 254 31 43 57 81 57
84 0 4 20 40 45 81 25 40 45 80 45 87 0 8 7 19 15 26 8 7 15 20 15 30 0 10 7
20 15 24 8 3 15 16 15 30 0 13 7 26 15 30 8 3 15 16 15 29 0 14 7 30 15 37 8
7 15 23 15 35 0 12 7 28 15 35 8 7 15 23 15 35 0 12 7 28 15 35 8 7 15 22 15
34 0 12 7 31 15 42 8 10 15 26 15 34 0 8 7 28 15 44 8 15 15 38 15 50 0 12 7
31 15 42 8 10 15 31 15 45 0 14 7 34 15 45 8 10 15 33 15 49 0 17 6 40 14 51
8 11 17 41 21 67 4 26 11 50 16 53 5 3 9 20 9 37 0 18 6 43 13 58 8 14 17 51
21 83 3 32 10 64 14 70 23 35 112 573 136 821 7 72 15 137 19 145 7 17 23 308
36 652 12 300 -9 752 -38 843 -6 17 -13 64 -17 105 -3 41 -10 80 -15 86 -5 6
-13 37 -18 70 -10 64 -25 124 -47 194 -8 25 -14 57 -14 73 0 15 -4 27 -10 27
-5 0 -12 17 -15 38 -4 20 -13 51 -21 69 -8 17 -14 42 -14 55 0 12 -7 32 -15
42 -8 11 -15 30 -15 43 0 13 -4 23 -10 23 -5 0 -12 17 -16 38 -4 20 -13 46
-20 57 -8 11 -14 29 -14 41 0 12 -7 27 -15 34 -8 7 -15 20 -15 30 0 10 -7 23
-15 30 -8 7 -15 23 -15 35 0 12 -7 28 -15 35 -8 7 -15 18 -15 25 0 7 -7 18
-15 25 -8 7 -15 20 -15 30 0 9 -13 30 -30 46 -16 16 -30 37 -30 46 0 9 -6 21
-13 25 -7 4 -17 19 -24 33 -34 79 -236 307 -304 344 -19 10 -57 31 -85 46 -28
16 -73 31 -100 35 -27 4 -64 13 -82 22 -41 18 -65 4 -60 -36 3 -24 7 -26 63
-29 54 -2 97 -15 147 -42 10 -6 23 -10 31 -10 7 0 35 -20 64 -45 28 -25 57
-45 65 -45 7 0 23 -15 36 -34 13 -19 44 -56 68 -82 66 -69 88 -104 66 -104 -4
0 -38 23 -76 50 -38 28 -78 50 -90 50 -12 0 -32 8 -46 17 -19 14 -48 17 -141
18 -74 0 -121 -4 -130 -12 -8 -6 -32 -15 -54 -19 -22 -4 -49 -13 -60 -20 -11
-8 -29 -14 -40 -14 -11 0 -29 -7 -39 -15 -11 -8 -28 -15 -37 -15 -10 0 -30 -6
-46 -14 -15 -8 -73 -36 -128 -63 -55 -26 -121 -60 -146 -75 -25 -16 -52 -28
-58 -28 -7 0 -38 -19 -69 -42 -65 -49 -103 -71 -110 -63 -4 4 11 37 77 163 7
15 31 53 52 84 22 32 39 62 39 67 0 5 6 16 13 23 6 7 37 43 67 78 65 78 128
147 153 169 10 9 30 26 43 39 14 12 29 22 35 22 5 0 22 11 37 24 58 52 75 66
81 66 5 0 21 13 91 72 8 7 19 13 25 13 5 0 26 12 45 26 42 32 148 89 165 89 7
0 18 7 25 15 7 8 20 15 30 15 10 0 23 7 30 15 7 8 21 15 31 15 9 0 24 6 31 13
7 8 30 17 51 21 20 4 37 11 37 16 0 6 8 10 18 10 10 0 27 7 38 15 10 8 28 15
39 15 11 0 29 6 40 14 11 7 39 17 62 21 24 4 45 11 49 16 3 5 20 9 38 9 18 0
41 7 52 15 10 8 35 15 54 15 19 0 48 7 64 15 15 8 47 15 70 15 22 0 54 7 70
15 15 8 54 15 85 15 31 1 74 7 96 15 25 9 83 15 155 16 63 0 126 5 140 10 24
8 168 6 485 -7z m975 -195 c54 -21 110 -45 140 -59 9 -4 31 -11 50 -15 19 -4
40 -11 45 -15 6 -4 25 -11 44 -15 19 -4 56 -20 81 -36 26 -16 52 -29 58 -29
13 0 72 -31 90 -47 7 -7 19 -13 26 -13 8 0 19 -7 26 -15 7 -8 21 -15 31 -15
11 0 19 -3 19 -7 0 -5 22 -20 49 -35 27 -16 59 -39 72 -53 13 -13 30 -25 37
-25 6 0 12 -4 12 -10 0 -5 6 -10 13 -10 8 0 24 -9 37 -20 13 -11 27 -20 32
-20 5 0 15 -6 22 -12 8 -7 24 -20 36 -28 64 -43 96 -72 220 -194 132 -130 179
-181 210 -226 8 -12 30 -39 47 -59 18 -20 33 -42 33 -48 0 -7 5 -13 10 -13 6
0 10 -6 10 -12 0 -7 14 -27 30 -45 17 -18 30 -36 30 -42 0 -5 6 -16 13 -23 19
-21 36 -50 48 -80 6 -16 17 -28 25 -28 8 0 14 -9 14 -20 0 -11 11 -37 23 -58
13 -20 27 -49 31 -64 3 -16 11 -28 16 -28 6 0 10 -9 10 -19 0 -11 6 -26 13
-33 8 -7 17 -26 21 -41 3 -15 11 -27 16 -27 6 0 10 -7 10 -16 0 -9 6 -28 13
-42 8 -15 21 -42 30 -60 9 -19 17 -41 17 -51 0 -9 7 -26 15 -37 8 -10 15 -26
15 -34 0 -8 7 -28 15 -44 8 -16 18 -46 21 -67 4 -22 10 -39 14 -39 4 0 10 -19
13 -42 3 -24 11 -44 16 -46 6 -2 11 -20 11 -41 0 -20 7 -46 15 -57 8 -10 15
-35 15 -54 0 -19 7 -48 15 -64 8 -15 15 -49 15 -75 0 -25 7 -59 15 -75 8 -15
15 -51 15 -80 0 -28 6 -63 13 -77 8 -14 17 -67 21 -119 4 -51 11 -101 16 -110
5 -10 12 -94 16 -186 3 -93 10 -178 15 -189 20 -41 -7 -877 -30 -965 -6 -19
-14 -82 -20 -140 -5 -58 -14 -127 -20 -155 -5 -27 -10 -85 -10 -127 -1 -42 -5
-79 -10 -82 -4 -3 -11 -28 -15 -55 -4 -28 -10 -53 -15 -55 -5 -3 -12 -23 -16
-43 -4 -21 -10 -42 -15 -48 -4 -5 -11 -36 -14 -67 -4 -32 -12 -60 -17 -63 -5
-4 -9 -18 -9 -33 0 -15 -7 -40 -16 -57 -9 -16 -17 -45 -19 -64 -2 -19 -8 -37
-13 -40 -5 -3 -13 -25 -17 -48 -4 -24 -11 -45 -16 -49 -5 -3 -9 -13 -9 -22 0
-9 -7 -30 -15 -46 -8 -15 -15 -33 -15 -40 -1 -6 -9 -29 -20 -51 -11 -22 -19
-45 -20 -52 0 -7 -11 -32 -24 -56 -13 -25 -27 -58 -30 -73 -4 -16 -11 -31 -14
-34 -7 -5 -16 -22 -64 -125 -28 -61 -167 -294 -186 -314 -8 -8 -25 -33 -40
-55 -76 -121 -249 -307 -412 -444 -41 -34 -86 -73 -100 -86 -33 -30 -193 -142
-276 -193 -26 -17 -138 -75 -204 -108 -30 -15 -62 -31 -70 -36 -8 -5 -26 -14
-40 -19 -14 -6 -37 -17 -52 -25 -14 -8 -36 -15 -47 -15 -12 0 -21 -4 -21 -9 0
-5 -14 -12 -31 -16 -17 -4 -42 -13 -57 -21 -15 -8 -32 -14 -38 -14 -7 0 -25
-7 -40 -15 -16 -8 -38 -15 -49 -15 -12 0 -26 -5 -32 -11 -5 -5 -29 -12 -52
-14 -24 -2 -48 -8 -55 -14 -6 -6 -32 -13 -56 -17 -25 -4 -50 -10 -56 -15 -6
-5 -37 -11 -70 -15 -32 -4 -64 -11 -71 -16 -6 -5 -46 -12 -88 -15 -41 -3 -78
-10 -81 -14 -3 -5 -21 -9 -40 -9 -32 0 -34 1 -22 19 7 10 51 48 98 84 95 74
184 156 216 198 11 15 47 57 80 92 33 35 83 96 110 136 79 115 142 214 156
241 7 14 15 27 18 30 5 5 18 28 62 113 11 20 24 37 29 37 5 0 9 11 9 25 0 14
7 28 15 31 8 4 15 14 15 24 0 10 7 25 15 34 8 8 15 19 15 25 0 12 41 94 50
101 4 3 10 17 14 32 3 16 11 28 16 28 6 0 10 10 10 23 0 12 6 34 14 48 7 14
16 37 20 52 3 15 11 27 16 27 6 0 10 8 10 18 0 9 6 29 14 44 8 15 17 40 21 57
4 17 10 31 14 31 5 0 11 19 14 41 3 23 10 45 15 48 6 3 13 23 17 44 4 20 11
40 16 43 5 3 9 15 9 27 0 12 7 35 15 51 8 15 15 36 15 45 0 9 6 28 14 42 7 14
16 42 20 61 4 20 13 50 22 67 8 17 13 35 9 41 -3 5 1 24 9 42 8 18 17 54 21
80 3 26 10 50 16 53 5 4 9 24 9 47 0 22 6 54 14 71 8 18 17 56 20 86 3 30 10
59 16 65 5 5 10 29 10 53 0 23 6 62 14 85 8 24 16 73 19 111 3 37 9 73 15 80
5 6 12 59 15 117 3 58 13 123 21 145 13 36 18 40 53 43 34 3 43 9 64 42 13 21
41 48 61 60 51 29 68 68 68 157 0 69 -3 79 -37 130 -20 30 -46 59 -59 63 -12
5 -25 14 -29 19 -3 6 -17 11 -30 11 -13 0 -31 7 -40 17 -15 14 -16 38 -11 212
8 255 -23 1043 -43 1106 -5 17 -13 84 -16 150 -4 66 -12 126 -18 133 -6 8 -13
53 -15 100 -2 48 -10 106 -18 130 -8 23 -14 66 -14 95 -1 30 -7 60 -15 71 -9
12 -15 42 -15 77 0 31 -7 73 -15 92 -8 20 -15 52 -15 71 0 18 -7 47 -15 62 -8
16 -15 45 -15 64 0 19 -7 44 -15 54 -8 11 -15 36 -15 55 0 20 -7 45 -15 55 -8
11 -15 28 -15 39 0 21 -27 114 -41 139 -5 10 -9 23 -9 30 0 7 -6 25 -14 39 -7
14 -16 37 -19 52 -4 14 -21 55 -37 90 -17 36 -30 72 -30 81 0 9 -4 16 -9 16
-5 0 -13 10 -16 23 -11 35 -46 106 -56 113 -5 3 -9 14 -9 24 0 10 -4 20 -8 22
-4 2 -19 21 -32 43 -82 138 -177 266 -240 324 -38 35 -70 68 -70 73 0 14 32 9
90 -13z m-2705 -749 c3 -5 15 -10 25 -10 25 0 120 -41 120 -52 0 -4 5 -8 10
-8 26 0 146 -102 230 -197 35 -39 103 -141 123 -183 40 -90 57 -130 57 -138 0
-5 7 -23 15 -38 8 -16 15 -39 15 -51 0 -13 4 -23 10 -23 5 0 12 -12 16 -27 12
-52 35 -128 45 -146 5 -10 14 -37 19 -60 5 -23 17 -71 26 -107 8 -36 22 -94
29 -130 8 -36 18 -78 24 -93 6 -16 11 -46 11 -68 0 -22 4 -49 10 -59 5 -10 15
-60 20 -112 6 -51 15 -129 20 -173 13 -101 13 -714 0 -905 -17 -264 -29 -415
-35 -448 -3 -18 -13 -90 -21 -160 -8 -70 -21 -170 -29 -222 -9 -52 -20 -128
-25 -168 -6 -40 -14 -81 -19 -90 -4 -9 -12 -46 -15 -82 -4 -35 -11 -69 -14
-75 -4 -5 -12 -37 -18 -70 -12 -62 -30 -136 -59 -240 -9 -33 -21 -80 -26 -105
-5 -24 -14 -49 -19 -54 -6 -6 -10 -21 -10 -36 0 -14 -6 -37 -14 -52 -8 -15
-17 -42 -21 -60 -4 -18 -11 -37 -15 -43 -4 -5 -11 -26 -15 -45 -4 -19 -11 -41
-15 -50 -4 -8 -17 -35 -29 -60 -36 -76 -76 -147 -104 -184 -15 -19 -27 -37
-27 -41 0 -3 -27 -42 -60 -85 -71 -93 -158 -182 -211 -215 -21 -14 -46 -33
-56 -43 -34 -35 -115 -83 -203 -121 -42 -18 -126 -28 -172 -21 -24 3 -62 18
-85 33 -24 15 -47 27 -52 27 -5 0 -16 6 -23 13 -8 6 -29 20 -48 31 -121 65
-165 90 -168 98 -2 4 -9 8 -16 8 -7 0 -32 13 -54 30 -23 16 -44 30 -46 30 -3
0 -25 14 -49 30 -25 17 -48 30 -53 30 -4 0 -14 7 -23 15 -9 8 -43 35 -76 60
-178 132 -264 209 -371 331 -76 87 -184 230 -184 243 0 6 -3 11 -7 11 -5 0
-16 15 -27 33 -26 45 -80 145 -102 187 -39 78 -44 89 -44 100 0 6 -9 23 -20
37 -12 16 -20 41 -20 64 0 43 -13 84 -35 105 -15 15 -45 104 -45 134 0 9 -5
21 -10 26 -6 6 -15 33 -20 60 -19 100 -31 160 -41 204 -6 25 -15 86 -20 135
-5 50 -13 115 -18 145 -12 70 -12 617 -1 730 20 182 57 415 71 443 5 9 12 39
16 65 3 26 9 52 13 57 5 6 11 28 15 50 4 22 11 45 15 50 4 6 11 25 15 43 4 18
13 45 21 60 8 15 14 33 14 40 0 7 4 20 10 30 5 9 17 35 26 57 9 22 32 72 50
112 19 39 34 76 34 81 0 6 3 12 8 14 4 2 18 26 32 53 31 61 77 131 108 165 12
14 25 34 29 45 13 43 134 186 282 334 86 86 168 165 181 176 14 11 48 38 75
59 28 22 55 44 60 50 6 6 26 20 45 30 19 11 39 25 43 33 4 7 15 13 24 13 8 0
32 12 52 28 37 28 44 32 139 84 99 54 167 86 197 94 17 4 36 13 43 21 7 7 22
13 32 13 10 0 21 4 25 9 3 5 19 12 36 16 17 4 42 13 57 21 15 8 35 14 44 14 9
0 19 4 22 9 4 5 25 12 49 16 23 4 49 11 57 16 21 12 117 11 125 -1z m3196
-457 c5 -13 9 -37 9 -52 0 -16 7 -45 15 -64 8 -20 15 -52 15 -71 0 -18 7 -47
15 -62 8 -16 15 -48 15 -71 0 -39 -2 -43 -24 -43 -15 0 -43 -19 -77 -51 l-54
-51 0 -82 c0 -71 3 -86 26 -121 43 -65 101 -108 164 -119 22 -4 43 -13 47 -19
4 -7 8 -40 8 -75 0 -35 4 -82 10 -105 9 -41 22 -196 40 -492 5 -82 11 -325 13
-538 4 -433 10 -398 -68 -413 -49 -9 -127 -73 -155 -127 -29 -55 -31 -197 -2
-249 26 -49 94 -106 137 -114 53 -10 58 -23 40 -92 -8 -33 -15 -85 -15 -115 0
-31 -5 -68 -11 -84 -6 -15 -15 -65 -20 -111 -5 -46 -13 -91 -19 -102 -5 -10
-10 -34 -10 -53 0 -19 -7 -54 -15 -77 -8 -23 -15 -54 -15 -69 0 -14 -5 -43
-11 -63 -9 -34 -13 -38 -44 -38 -19 0 -49 6 -67 14 -34 14 -101 30 -197 46
-29 5 -58 13 -64 19 -6 6 -29 11 -51 11 -23 1 -52 7 -66 15 -14 8 -41 14 -60
15 -19 0 -48 7 -64 15 -15 8 -41 15 -57 15 -17 0 -46 7 -66 15 -19 8 -48 15
-62 15 -15 0 -36 7 -47 15 -10 8 -29 15 -40 15 -12 0 -27 7 -34 15 -7 8 -18
15 -25 15 -16 0 -135 115 -161 155 -65 102 -92 239 -74 382 50 413 63 687 55
1203 -4 245 -9 465 -11 490 -2 25 -8 110 -13 190 -6 80 -15 192 -22 249 -16
149 -17 386 -1 402 6 7 12 24 12 38 0 15 7 39 15 55 8 15 15 35 15 42 0 8 35
50 78 93 64 65 84 80 117 85 22 4 54 11 70 16 17 5 66 12 110 15 44 4 105 13
135 21 30 8 80 14 112 14 31 0 59 4 62 9 4 5 41 12 84 16 42 3 88 11 102 16
32 11 161 27 178 21 8 -3 18 -16 23 -29z m93 -439 c3 -9 6 -35 6 -58 0 -24 7
-65 15 -92 8 -27 15 -68 15 -91 0 -39 -2 -43 -25 -43 -16 0 -41 17 -73 49 -53
53 -71 106 -55 163 19 64 101 115 117 72z m125 -2126 c0 -57 -6 -146 -13 -198
l-12 -95 -33 3 c-40 3 -79 29 -87 59 -3 12 -12 27 -20 34 -10 8 -14 34 -14 83
l0 72 51 57 c28 31 56 57 64 57 7 0 18 7 25 15 7 8 19 15 26 15 11 0 14 -22
13 -102z m149 44 c17 -13 32 -30 32 -37 0 -7 7 -18 15 -25 25 -20 20 -125 -7
-169 -36 -58 -86 -101 -121 -104 -32 -2 -32 -2 -29 42 1 24 7 52 12 62 6 10
10 73 10 142 0 68 3 127 6 130 8 8 37 -7 82 -41z m-4912 -1837 c23 -19 62 -54
86 -77 24 -23 64 -56 89 -74 26 -17 60 -43 75 -58 16 -14 33 -26 37 -26 5 0
26 -13 47 -30 21 -16 43 -30 48 -30 6 0 17 -6 24 -12 19 -17 48 -36 76 -48 12
-5 22 -14 22 -20 0 -5 9 -10 19 -10 11 0 26 -6 33 -12 13 -12 37 -26 121 -70
20 -11 40 -24 43 -29 3 -5 14 -9 25 -9 11 0 22 -6 25 -14 3 -8 17 -17 31 -20
13 -4 42 -18 64 -31 33 -21 51 -25 119 -25 44 0 88 4 98 10 9 5 35 14 58 20
22 5 78 35 123 65 45 30 85 55 87 55 18 0 197 168 207 194 4 9 11 16 17 16 21
0 8 -36 -30 -90 -22 -30 -45 -66 -50 -79 -16 -37 -71 -111 -117 -157 -24 -23
-43 -47 -43 -53 0 -6 -6 -11 -14 -11 -8 0 -23 -10 -33 -22 -10 -13 -34 -34
-53 -47 -19 -14 -39 -30 -43 -38 -4 -7 -17 -13 -27 -13 -10 0 -21 -4 -25 -9
-5 -9 -58 -36 -120 -62 -102 -43 -388 -45 -470 -3 -67 35 -88 44 -96 44 -6 0
-45 27 -88 59 -71 54 -137 128 -186 208 -55 90 -125 215 -125 222 0 4 -13 33
-30 64 -16 31 -30 65 -30 75 0 10 -5 23 -12 30 -15 15 -39 78 -45 120 -7 42 8
42 63 -3z m2804 -1242 c25 -7 79 -17 120 -23 41 -6 117 -18 169 -26 51 -7 163
-19 250 -24 247 -17 304 -24 308 -37 9 -25 -33 -32 -138 -23 -57 5 -131 13
-165 19 -134 20 -324 -56 -324 -131 0 -34 31 -68 63 -68 12 0 32 -6 43 -14 11
-8 58 -17 104 -21 85 -8 120 -18 120 -35 0 -10 -84 -50 -105 -50 -7 0 -18 -7
-25 -15 -9 -11 -32 -15 -83 -15 -41 0 -77 -5 -86 -13 -16 -12 -107 -11 -456 7
-144 8 -147 8 -139 40 14 55 -94 73 -119 19 -10 -22 -16 -24 -66 -21 -49 3
-56 6 -59 26 -2 13 -16 29 -34 38 -30 15 -35 15 -82 -5 -46 -19 -56 -20 -94
-9 -49 15 -59 32 -22 36 42 5 192 68 275 115 89 51 132 80 215 141 141 105
145 107 220 103 36 -2 85 -8 110 -14z m635 -183 c43 -16 23 -34 -47 -44 -72
-9 -207 3 -211 19 -1 6 14 18 33 28 29 15 50 17 117 13 45 -3 94 -11 108 -16z
m124 -14 c9 -10 2 -20 -31 -47 -23 -19 -50 -42 -60 -51 -23 -23 -152 -25 -205
-3 -19 8 -53 15 -74 15 -21 0 -54 10 -75 22 -34 20 -35 22 -18 35 24 18 34 17
59 -7 14 -13 36 -20 70 -21 28 -1 56 -6 62 -12 9 -6 41 -5 95 3 74 10 86 15
114 46 35 37 46 41 63 20z"/>
        <path d="M4700 5886 l-42 -43 -75 -1 c-53 0 -79 -4 -92 -16 -10 -9 -22 -16
-27 -16 -16 0 -64 -55 -64 -73 0 -9 -5 -28 -12 -42 -18 -41 6 -149 44 -198 17
-21 40 -43 52 -48 12 -5 28 -13 36 -18 48 -27 93 -40 155 -46 56 -5 75 -12 98
-33 31 -29 107 -42 272 -46 122 -3 163 9 183 51 13 27 14 38 4 53 -6 11 -15
52 -18 92 -3 40 -10 88 -16 106 -5 18 -13 65 -18 105 -18 165 -40 181 -259
190 -79 3 -149 11 -155 17 -16 16 -20 13 -66 -34z m252 -44 c69 -4 128 -9 130
-12 22 -34 31 -64 36 -119 2 -37 9 -75 15 -86 6 -11 14 -54 18 -95 5 -41 11
-92 15 -112 6 -34 4 -38 -20 -44 -14 -3 -87 -4 -164 -2 -134 3 -139 4 -171 31
-23 19 -44 27 -71 27 -21 0 -42 5 -45 10 -3 6 -28 10 -54 10 -31 0 -53 5 -61
15 -7 8 -20 15 -30 15 -26 0 -79 49 -96 89 -40 94 6 211 82 211 18 0 36 5 39
10 8 12 95 13 95 1 0 -5 -15 -11 -32 -14 -76 -12 -129 -39 -154 -78 -13 -21
-24 -45 -24 -54 0 -31 66 -135 86 -135 7 0 17 -7 21 -15 6 -11 34 -15 113 -17
l105 -3 3 28 c2 16 -1 34 -7 41 -6 7 -13 39 -17 72 -4 32 -17 86 -30 118 l-24
59 26 35 c23 30 30 33 58 27 17 -3 88 -10 158 -13z m-274 -131 c7 -4 16 -33
19 -65 3 -31 10 -59 14 -62 16 -9 9 -40 -12 -60 -20 -18 -22 -18 -51 -1 -16 9
-38 17 -48 17 -41 0 -95 101 -72 136 22 34 117 56 150 35z"/>
        <path d="M4906 5105 c-14 -13 -26 -31 -26 -39 0 -8 -4 -17 -9 -20 -5 -4 -19
-27 -31 -54 -12 -26 -28 -60 -35 -77 -19 -40 -29 -99 -21 -129 5 -21 13 -25
49 -28 l42 -3 8 -98 c4 -55 11 -192 15 -307 8 -240 12 -250 87 -250 67 0 75
16 75 151 0 63 -5 141 -10 174 -5 33 -13 122 -16 198 l-7 137 56 0 c47 0 58 3
68 21 16 31 4 92 -29 142 -15 23 -29 47 -32 52 -20 39 -84 126 -102 139 -31
22 -51 20 -82 -9z m94 -107 c0 -4 14 -27 30 -51 17 -25 30 -49 30 -55 0 -5 7
-15 15 -22 8 -7 15 -21 15 -31 0 -14 -9 -19 -47 -21 -75 -5 -80 -21 -64 -210
18 -201 29 -420 23 -436 -2 -7 -12 -12 -21 -10 -19 4 -24 60 -36 402 -7 197
-10 221 -27 238 -11 11 -26 17 -35 14 -9 -4 -21 -2 -28 4 -16 13 -8 46 29 114
14 27 26 53 26 58 0 5 10 22 22 39 l22 29 23 -27 c12 -16 22 -31 23 -35z"/>
        <path d="M4864 3776 c-18 -8 -35 -20 -40 -28 -8 -13 -20 -121 -29 -283 -3 -49
-7 -96 -10 -102 -3 -8 -24 -13 -59 -13 -29 0 -67 -7 -82 -15 -16 -8 -37 -15
-46 -15 -38 0 -168 -90 -168 -116 0 -7 -7 -20 -17 -29 -13 -13 -16 -38 -17
-123 0 -99 2 -110 27 -149 43 -68 104 -100 212 -110 41 -4 56 0 85 19 31 21
35 29 38 74 4 64 -7 73 -86 78 -42 3 -70 10 -91 26 -27 19 -31 27 -31 69 0 40
5 51 33 77 47 44 77 60 124 66 39 6 44 3 77 -34 l36 -39 215 3 c169 2 218 6
224 17 9 14 34 204 36 276 1 22 5 88 9 146 5 58 5 119 2 136 -11 47 -51 60
-205 67 -74 4 -150 8 -170 11 -20 3 -50 -1 -67 -9z m371 -77 c14 -13 6 -222
-11 -297 -8 -35 -14 -95 -14 -133 l0 -69 -186 2 c-175 3 -188 4 -198 23 -18
32 -27 35 -107 35 -59 0 -78 -3 -83 -15 -3 -8 -13 -15 -23 -15 -10 0 -32 -13
-50 -28 -70 -60 -93 -162 -52 -228 26 -42 48 -55 123 -68 64 -12 80 -28 46
-46 -15 -8 -36 -8 -82 1 -49 10 -69 20 -98 49 -39 39 -50 72 -50 152 0 93 37
145 140 196 52 25 78 32 126 32 47 0 69 5 95 23 34 22 34 24 46 132 6 61 12
138 12 173 1 106 -6 102 189 95 92 -3 171 -10 177 -14z"/>
        <path d="M3732 444 c-15 -32 -4 -55 42 -79 l34 -19 41 27 c71 47 45 97 -51 97
-49 0 -56 -3 -66 -26z"/>
        <path d="M3396 411 c-14 -16 -15 -23 -6 -41 10 -18 19 -21 73 -18 60 3 62 4
65 32 4 36 -10 46 -69 46 -33 0 -51 -6 -63 -19z"/>
        <path d="M3643 363 c-52 -10 -54 -66 -4 -76 16 -4 45 -3 65 0 31 5 36 9 36 33
0 21 -6 29 -24 34 -13 3 -30 8 -38 10 -7 2 -23 1 -35 -1z"/>
        <path d="M3258 332 c-16 -9 -28 -22 -28 -28 0 -23 37 -44 77 -44 56 0 73 8 73
35 0 50 -68 71 -122 37z"/>
        <path d="M3479 269 c-11 -11 -18 -27 -15 -36 3 -8 6 -19 6 -24 0 -5 27 -9 60
-9 56 0 60 1 66 27 14 54 -74 85 -117 42z"/>
        <path d="M3086 241 c-29 -32 -7 -58 51 -63 39 -3 51 0 65 17 14 17 15 23 4 40
-19 29 -96 33 -120 6z"/>
        <path d="M3343 210 c-17 -7 -23 -18 -23 -40 l0 -30 59 0 c51 0 59 3 64 21 11
43 -45 71 -100 49z"/>
    </g>
</svg>