<?xml version="1.0" encoding="utf-8"?>
<!-- Generator: Adobe Illustrator 21.0.0, SVG Export Plug-In . SVG Version: 6.00 Build 0)  -->
<svg version="1.1" id="Layer_1" xmlns="http://www.w3.org/2000/svg" xmlns:xlink="http://www.w3.org/1999/xlink" x="0px" y="0px"
	 viewBox="0 0 630.4 575.8" style="enable-background:new 0 0 630.4 575.8;" xml:space="preserve">
<style type="text/css">
	.st0{fill:#010101;}
</style>
<g>
	<ellipse transform="matrix(0.5547 -0.832 0.832 0.5547 -22.8167 349.6879)" class="st0" cx="315.3" cy="196.2" rx="6" ry="6"/>
	<ellipse transform="matrix(0.2704 -0.9627 0.9627 0.2704 16.6699 423.1199)" class="st0" cx="287.5" cy="200.6" rx="6" ry="6"/>

		<ellipse transform="matrix(0.9992 -4.028794e-02 4.028794e-02 0.9992 -8.3816 10.7469)" class="st0" cx="262.5" cy="213.3" rx="6" ry="6"/>
	<ellipse transform="matrix(0.9378 -0.3471 0.3471 0.9378 -65.8705 98.6953)" class="st0" cx="242.6" cy="233.2" rx="6" ry="6"/>
	<ellipse transform="matrix(0.7847 -0.6199 0.6199 0.7847 -110.6299 198.0667)" class="st0" cx="229.8" cy="258.3" rx="6" ry="6"/>
	<ellipse transform="matrix(0.5547 -0.832 0.832 0.5547 -137.65 314.9183)" class="st0" cx="225.4" cy="286.1" rx="6" ry="6"/>
	<ellipse transform="matrix(0.2704 -0.9627 0.9627 0.2704 -134.4975 450.2022)" class="st0" cx="229.8" cy="313.8" rx="6" ry="6"/>

		<ellipse transform="matrix(0.9992 -4.032890e-02 4.032890e-02 0.9992 -13.4703 10.058)" class="st0" cx="242.6" cy="338.9" rx="6" ry="6"/>
	<ellipse transform="matrix(0.9378 -0.3471 0.3471 0.9378 -108.2165 113.399)" class="st0" cx="262.5" cy="358.8" rx="6" ry="6"/>
	<ellipse transform="matrix(0.7847 -0.6199 0.6199 0.7847 -168.4256 258.2404)" class="st0" cx="287.5" cy="371.6" rx="6" ry="6"/>
	<ellipse transform="matrix(0.5547 -0.832 0.832 0.5547 -172.4196 429.7489)" class="st0" cx="315.3" cy="376" rx="6" ry="6"/>
	<ellipse transform="matrix(0.2704 -0.9627 0.9627 0.2704 -107.4195 601.3739)" class="st0" cx="343.1" cy="371.6" rx="6" ry="6"/>

		<ellipse transform="matrix(0.9992 -4.029777e-02 4.029777e-02 0.9992 -14.1595 15.1265)" class="st0" cx="368.1" cy="358.8" rx="6" ry="6"/>
	<ellipse transform="matrix(0.9378 -0.3471 0.3471 0.9378 -93.5103 155.7568)" class="st0" cx="388" cy="338.9" rx="6" ry="6"/>
	<ellipse transform="matrix(0.7847 -0.6199 0.6199 0.7847 -108.2519 316.0524)" class="st0" cx="400.8" cy="313.8" rx="6" ry="6"/>
	<ellipse transform="matrix(0.5547 -0.8321 0.8321 0.5547 -57.5832 464.5287)" class="st0" cx="405.2" cy="286.1" rx="6" ry="6"/>
	<ellipse transform="matrix(0.2704 -0.9627 0.9627 0.2704 43.7486 574.2925)" class="st0" cx="400.8" cy="258.3" rx="6" ry="6"/>

		<ellipse transform="matrix(0.9992 -4.032890e-02 4.032890e-02 0.9992 -9.0898 15.8384)" class="st0" cx="388" cy="233.2" rx="6" ry="6"/>
	<ellipse transform="matrix(0.9378 -0.3471 0.3471 0.9378 -51.1577 141.0348)" class="st0" cx="368.1" cy="213.3" rx="6" ry="6"/>
	<ellipse transform="matrix(0.7847 -0.6199 0.6199 0.7847 -50.4563 255.8623)" class="st0" cx="343.1" cy="200.6" rx="6" ry="6"/>
	<path class="st0" d="M298.8,175.2c-0.8,0-1.5,0.1-2.3,0.4c-1.6,0.6-2.9,1.8-3.6,3.4c-1.5,3.3-0.1,7.1,3.2,8.6
		c1.6,0.7,3.3,0.8,5,0.2c1.6-0.6,2.9-1.8,3.6-3.4c0.7-1.6,0.8-3.3,0.2-5c-0.6-1.6-1.8-2.9-3.4-3.6
		C300.6,175.4,299.7,175.2,298.8,175.2z"/>
	<path class="st0" d="M273.8,192.7c0.4-3.6-2.1-6.8-5.7-7.2c-0.3,0-0.5,0-0.8,0c-1.5,0-2.9,0.5-4,1.4c-1.4,1.1-2.2,2.6-2.4,4.3
		c-0.4,3.6,2.1,6.8,5.7,7.2C270.1,198.8,273.4,196.2,273.8,192.7z"/>
	<path class="st0" d="M234.2,212.6c0.7,3.5,4.1,5.8,7.6,5.1c3.5-0.7,5.8-4.1,5.1-7.6c-0.3-1.7-1.3-3.2-2.8-4.1
		c-1.1-0.7-2.3-1.1-3.6-1.1c-0.4,0-0.9,0-1.3,0.1c-1.7,0.3-3.2,1.3-4.1,2.8C234.2,209.2,233.9,210.9,234.2,212.6z"/>
	<path class="st0" d="M224.3,243.8c1.5-0.8,2.6-2.2,3.1-3.9c0.5-1.7,0.3-3.4-0.6-4.9c-1.2-2.1-3.4-3.3-5.7-3.3
		c-1.1,0-2.2,0.3-3.2,0.8c-1.5,0.8-2.6,2.2-3.1,3.9c-0.5,1.7-0.3,3.4,0.6,4.9c0.8,1.5,2.2,2.6,3.9,3.1
		C221.1,244.8,222.8,244.6,224.3,243.8z"/>
	<path class="st0" d="M211.2,276c1.7-0.1,3.3-0.8,4.5-2.1c2.4-2.6,2.3-6.7-0.4-9.2c-1.2-1.1-2.8-1.7-4.4-1.7c-1.8,0-3.5,0.7-4.8,2.1
		c-1.2,1.3-1.8,2.9-1.7,4.7c0.1,1.7,0.8,3.3,2.1,4.5C207.8,275.5,209.5,276.1,211.2,276z"/>
	<path class="st0" d="M208.2,308.5c3.3,1.5,7.1,0.1,8.6-3.2c1.5-3.3,0.1-7.1-3.2-8.6c-0.9-0.4-1.8-0.6-2.7-0.6
		c-0.8,0-1.5,0.1-2.3,0.4c-1.6,0.6-2.9,1.8-3.6,3.4C203.5,303.1,205,307,208.2,308.5z"/>
	<path class="st0" d="M227.6,334.8c0.2-1.7-0.3-3.4-1.4-4.8c-1.1-1.4-2.6-2.2-4.3-2.4c-0.3,0-0.5,0-0.8,0c-3.2,0-6.1,2.4-6.4,5.7
		c-0.2,1.7,0.3,3.4,1.4,4.8c1.1,1.4,2.6,2.2,4.3,2.4C224,340.9,227.2,338.3,227.6,334.8z"/>
	<path class="st0" d="M241.9,367.1c1.7-0.3,3.2-1.3,4.1-2.8c1-1.4,1.3-3.2,1-4.9s-1.3-3.2-2.8-4.1c-1.4-1-3.2-1.3-4.9-1
		c-3.5,0.7-5.8,4.1-5.1,7.6C234.9,365.6,238.3,367.8,241.9,367.1z"/>
	<path class="st0" d="M270.5,385.9c1.5-0.8,2.6-2.2,3.1-3.9s0.3-3.4-0.6-4.9c-0.8-1.5-2.2-2.6-3.9-3.1c-0.6-0.2-1.2-0.2-1.8-0.2
		c-1.1,0-2.2,0.3-3.2,0.8c-1.5,0.8-2.6,2.2-3.1,3.9c-0.5,1.7-0.3,3.4,0.6,4.9C263.4,386.5,267.4,387.6,270.5,385.9z"/>
	<path class="st0" d="M305.3,390.2c-0.1-1.7-0.8-3.3-2.1-4.5c-1.2-1.1-2.8-1.7-4.4-1.7c-1.8,0-3.5,0.7-4.8,2.1
		c-1.2,1.3-1.8,2.9-1.7,4.7c0.1,1.7,0.8,3.3,2.1,4.5s2.9,1.8,4.7,1.7c1.7-0.1,3.3-0.8,4.5-2.1C304.7,393.5,305.3,391.9,305.3,390.2z
		"/>

		<ellipse transform="matrix(0.4177 -0.9086 0.9086 0.4177 -161.504 528.8218)" class="st0" cx="331.8" cy="390.4" rx="6.5" ry="6.5"/>
	<path class="st0" d="M362.5,386.6c1.7,0.2,3.4-0.3,4.8-1.4c1.4-1.1,2.2-2.6,2.4-4.3c0.2-1.7-0.3-3.4-1.4-4.8
		c-1.1-1.4-2.6-2.2-4.3-2.4c-0.3,0-0.5,0-0.8,0c-1.5,0-2.9,0.5-4,1.4c-1.4,1.1-2.2,2.6-2.4,4.3c-0.2,1.7,0.3,3.4,1.4,4.8
		S360.8,386.4,362.5,386.6z"/>
	<path class="st0" d="M396.4,359.5c-0.3-1.7-1.3-3.2-2.8-4.1c-1.1-0.7-2.3-1.1-3.6-1.1c-0.4,0-0.9,0-1.3,0.1
		c-3.5,0.7-5.8,4.1-5.1,7.6c0.7,3.5,4.1,5.8,7.6,5.1c1.7-0.3,3.2-1.3,4.1-2.8C396.4,362.9,396.7,361.2,396.4,359.5z"/>
	<path class="st0" d="M411.2,327.8c-0.6-0.2-1.2-0.2-1.8-0.2c-1.1,0-2.2,0.3-3.2,0.8c-3.1,1.8-4.2,5.7-2.5,8.8
		c0.8,1.5,2.2,2.6,3.9,3.1c1.7,0.5,3.4,0.3,4.9-0.6c1.5-0.8,2.6-2.2,3.1-3.9c0.5-1.7,0.3-3.4-0.6-4.9
		C414.2,329.3,412.9,328.2,411.2,327.8z"/>
	<path class="st0" d="M426.1,302.3c-0.1-1.7-0.8-3.3-2.1-4.5c-1.2-1.1-2.8-1.7-4.4-1.7c-1.8,0-3.5,0.7-4.8,2.1
		c-2.4,2.6-2.3,6.7,0.4,9.2c1.3,1.2,2.9,1.8,4.7,1.7c1.7-0.1,3.3-0.8,4.5-2.1C425.6,305.7,426.2,304.1,426.1,302.3z"/>
	<path class="st0" d="M422.4,263.6c-0.9-0.4-1.8-0.6-2.7-0.6c-2.5,0-4.8,1.4-5.9,3.8c-1.5,3.3-0.1,7.1,3.2,8.6
		c3.3,1.5,7.1,0.1,8.6-3.2C427,269,425.6,265.1,422.4,263.6z"/>
	<path class="st0" d="M403,237.3c-0.4,3.6,2.1,6.8,5.7,7.2c1.7,0.2,3.4-0.3,4.8-1.4c1.4-1.1,2.2-2.6,2.4-4.3
		c0.4-3.6-2.1-6.8-5.7-7.2c-0.3,0-0.5,0-0.8,0c-1.5,0-2.9,0.5-4,1.4C404,234.1,403.2,235.6,403,237.3z"/>
	<path class="st0" d="M393.6,206c-1.1-0.7-2.3-1.1-3.6-1.1c-0.4,0-0.9,0-1.3,0.1c-1.7,0.3-3.2,1.3-4.1,2.8c-1,1.4-1.3,3.2-1,4.9
		c0.7,3.5,4.1,5.8,7.6,5.1c3.5-0.7,5.8-4.1,5.1-7.6C396,208.4,395,206.9,393.6,206z"/>
	<path class="st0" d="M361.5,198.2c1.7,0.5,3.4,0.3,4.9-0.6c3.1-1.8,4.2-5.7,2.5-8.8c-0.8-1.5-2.2-2.6-3.9-3.1
		c-0.6-0.2-1.2-0.2-1.8-0.2c-1.1,0-2.2,0.3-3.2,0.8c-1.5,0.8-2.6,2.2-3.1,3.9c-0.5,1.7-0.3,3.4,0.6,4.9
		C358.4,196.6,359.8,197.7,361.5,198.2z"/>
	<path class="st0" d="M327.4,186.5c1.3,1.2,2.9,1.8,4.7,1.7c1.7-0.1,3.3-0.8,4.5-2.1s1.8-2.9,1.7-4.7c-0.1-1.7-0.8-3.3-2.1-4.5
		c-1.2-1.1-2.8-1.7-4.4-1.7c-0.1,0-0.2,0-0.3,0c-1.7,0.1-3.3,0.8-4.5,2.1s-1.8,2.9-1.7,4.7C325.4,183.7,326.1,185.3,327.4,186.5z"/>
	<path class="st0" d="M280.6,174.8c1.7-0.9,2.9-2.5,3.4-4.3c1.1-3.8-1.2-7.8-5-8.9c-0.6-0.2-1.3-0.3-1.9-0.3c-3.1,0-6,2.1-6.9,5.2
		c-0.5,1.8-0.3,3.8,0.7,5.5c0.9,1.7,2.5,2.9,4.3,3.4C277,176,279,175.7,280.6,174.8z"/>
	<path class="st0" d="M242.4,178.9c-1.9,0.1-3.7,0.9-5,2.3c-1.3,1.4-2,3.2-1.9,5.2c0.1,1.9,0.9,3.7,2.3,5c1.4,1.3,3.2,2,5.2,1.9
		c1.9-0.1,3.7-0.9,5-2.3c1.3-1.4,2-3.2,1.9-5.2c-0.2-3.9-3.3-6.9-7.2-6.9C242.6,178.9,242.5,178.9,242.4,178.9z"/>
	<path class="st0" d="M208.6,215.9c1.4,3.7,5.5,5.6,9.2,4.2c3.7-1.4,5.6-5.5,4.2-9.2c-0.7-1.8-2-3.2-3.7-4c-1.7-0.8-3.7-0.9-5.5-0.2
		h0C209.1,208.1,207.2,212.2,208.6,215.9z"/>
	<path class="st0" d="M203.4,243.4c-1.4-1.8-3.5-2.7-5.6-2.7c-1.6,0-3.1,0.5-4.4,1.5c-3.1,2.5-3.6,7-1.2,10.1
		c2.5,3.1,7,3.6,10.1,1.2C205.3,251.1,205.9,246.5,203.4,243.4z"/>
	<path class="st0" d="M197.7,290c2.2-3.3,1.3-7.8-2-10c-1.2-0.8-2.6-1.2-4-1.2c-0.5,0-0.9,0-1.4,0.1c-1.9,0.4-3.5,1.5-4.6,3.1
		c-2.2,3.3-1.3,7.8,2,10C191,294.2,195.5,293.3,197.7,290z"/>
	<path class="st0" d="M204.7,326.2c1.1-3.8-1.2-7.8-5-8.9c-3.8-1.1-7.8,1.2-8.9,5c-1.1,3.8,1.2,7.8,5,8.9
		C199.6,332.2,203.6,330,204.7,326.2z"/>
	<path class="st0" d="M215,351.5c-4,0.2-7,3.5-6.9,7.5c0.2,4,3.5,7.1,7.5,6.9c1.9-0.1,3.7-0.9,5-2.3c1.3-1.4,2-3.2,1.9-5.2
		C222.3,354.4,219,351.4,215,351.5z"/>
	<path class="st0" d="M239.7,392.6c1.7,0.8,3.7,0.9,5.5,0.2c1.8-0.7,3.2-2,4-3.7c0.8-1.7,0.9-3.7,0.2-5.5c-0.7-1.8-2-3.2-3.7-4
		c-1-0.4-2-0.7-3-0.7c-0.8,0-1.7,0.1-2.5,0.5c-1.8,0.7-3.2,2-4,3.7s-0.9,3.7-0.2,5.5v0C236.6,390.3,237.9,391.8,239.7,392.6z"/>
	<path class="st0" d="M282.7,399.1c-1.2-1.5-2.9-2.5-4.8-2.7c-0.3,0-0.6,0-0.9,0c-1.6,0-3.2,0.5-4.4,1.5c-1.5,1.2-2.5,2.9-2.7,4.8
		s0.3,3.8,1.5,5.3h0c1.2,1.5,2.9,2.5,4.8,2.7c1.9,0.2,3.8-0.3,5.3-1.5c1.5-1.2,2.5-2.9,2.7-4.8S283.9,400.6,282.7,399.1z"/>
	<path class="st0" d="M311.3,415.6c3.3,2.2,7.8,1.3,10-2c2.2-3.3,1.3-7.8-2-10c-1.2-0.8-2.6-1.2-4-1.2c-2.3,0-4.6,1.1-6,3.2
		C307.1,408.9,308,413.4,311.3,415.6z"/>
	<path class="st0" d="M360.4,405.5c1.1-3.8-1.2-7.8-5-8.9c-0.6-0.2-1.3-0.3-1.9-0.3c-3.1,0-6,2.1-6.9,5.2c-0.5,1.8-0.3,3.8,0.7,5.5
		s2.5,2.9,4.3,3.4c1.8,0.5,3.8,0.3,5.5-0.7C358.7,408.9,359.9,407.4,360.4,405.5z"/>
	<path class="st0" d="M388.2,393.2c4-0.2,7-3.5,6.9-7.5c-0.1-1.9-0.9-3.7-2.3-5c-1.3-1.2-3.1-1.9-4.9-1.9c-0.1,0-0.2,0-0.3,0
		c-1.9,0.1-3.7,0.9-5,2.3c-1.3,1.4-2,3.2-1.9,5.2C380.9,390.3,384.3,393.4,388.2,393.2z"/>
	<path class="st0" d="M412.8,352c-3.7,1.4-5.6,5.5-4.2,9.2c0.7,1.8,2,3.2,3.7,4s3.7,0.9,5.5,0.2h0c1.8-0.7,3.2-2,4-3.7
		c0.8-1.7,0.9-3.7,0.2-5.5c-1.1-2.9-3.8-4.7-6.7-4.7C414.4,351.5,413.6,351.7,412.8,352z"/>
	<path class="st0" d="M432,331.4c1.9,0.2,3.8-0.3,5.3-1.5v0c1.5-1.2,2.5-2.9,2.7-4.8s-0.3-3.8-1.5-5.3c-1.2-1.5-2.9-2.5-4.8-2.7
		c-0.3,0-0.6,0-0.9,0c-1.6,0-3.2,0.5-4.4,1.5c-1.5,1.2-2.5,2.9-2.7,4.8s0.3,3.8,1.5,5.3C428.4,330.2,430.1,331.2,432,331.4z"/>
	<path class="st0" d="M442.8,280.1c-1.2-0.8-2.6-1.2-4-1.2c-2.3,0-4.6,1.1-6,3.2c-2.2,3.3-1.3,7.8,2,10c3.3,2.2,7.8,1.3,10-2
		C447,286.8,446.1,282.3,442.8,280.1z"/>
	<path class="st0" d="M425.9,245.9c-0.5,1.8-0.3,3.8,0.7,5.5c0.9,1.7,2.5,2.9,4.3,3.4c1.8,0.5,3.8,0.3,5.5-0.7s2.9-2.5,3.4-4.3
		s0.3-3.8-0.7-5.5c-0.9-1.7-2.5-2.9-4.3-3.4c-0.6-0.2-1.3-0.3-2-0.3c-1.2,0-2.4,0.3-3.5,0.9C427.6,242.6,426.4,244.1,425.9,245.9z"
		/>
	<path class="st0" d="M415.6,220.6c4-0.2,7-3.5,6.9-7.5c-0.1-1.9-0.9-3.7-2.3-5c-1.3-1.2-3.1-1.9-4.9-1.9c-0.1,0-0.2,0-0.3,0
		c-1.9,0.1-3.7,0.9-5,2.3c-1.3,1.4-2,3.2-1.9,5.2C408.3,217.7,411.5,220.8,415.6,220.6z"/>
	<path class="st0" d="M387.9,178.9c-0.8,0-1.7,0.1-2.5,0.4c-3.7,1.4-5.6,5.5-4.2,9.2c1.4,3.7,5.5,5.6,9.2,4.2
		c3.7-1.4,5.6-5.5,4.2-9.2C393.6,180.7,390.8,178.9,387.9,178.9z"/>
	<path class="st0" d="M357.9,174.2c3.1-2.5,3.6-7,1.2-10.1c-1.4-1.8-3.5-2.7-5.6-2.7c-1.6,0-3.1,0.5-4.4,1.5
		c-3.1,2.5-3.6,7-1.2,10.1C350.3,176.1,354.8,176.6,357.9,174.2z"/>
	<path class="st0" d="M322.3,161.1c-0.4-1.9-1.5-3.5-3.1-4.6c-1.2-0.8-2.6-1.2-4-1.2c-2.3,0-4.6,1.1-6,3.2c-1.1,1.6-1.4,3.5-1.1,5.4
		c0.4,1.9,1.5,3.5,3.1,4.6c3.3,2.2,7.8,1.3,10-2C322.3,164.9,322.7,163,322.3,161.1z"/>
	<path class="st0" d="M252.7,153.2c-0.8-0.1-1.5-0.1-2.2,0c-3.5,0.6-6.4,3.4-6.8,7.1c-0.3,2.2,0.3,4.3,1.7,6c1.3,1.7,3.3,2.8,5.4,3
		c2.2,0.3,4.3-0.3,6-1.7c1.7-1.3,2.8-3.3,3-5.4C260.3,157.8,257.1,153.7,252.7,153.2z"/>
	<path class="st0" d="M209.5,182.5c-1.2,1.8-1.6,4-1.2,6.1c0.4,2.1,1.7,4,3.5,5.2c1.8,1.2,4,1.6,6.1,1.2c2.1-0.4,4-1.7,5.2-3.5
		c1.2-1.8,1.6-4,1.2-6.1c-0.9-4.3-5-7.1-9.2-6.4c-0.1,0-0.2,0-0.3,0.1C212.5,179.5,210.7,180.7,209.5,182.5z"/>
	<path class="st0" d="M183.4,226.5c2.2,3.9,7.2,5.3,11.1,3.1c3.9-2.2,5.3-7.2,3.1-11.1c-1.1-1.9-2.8-3.3-4.9-3.9
		c-2.1-0.6-4.3-0.3-6.2,0.7l0,0C182.6,217.6,181.2,222.5,183.4,226.5z"/>
	<path class="st0" d="M175.7,256.1c-1.7,0.3-3.4,1.1-4.7,2.5c-3,3.3-2.8,8.5,0.5,11.5c3.3,3,8.5,2.8,11.5-0.5
		c3-3.3,2.8-8.5-0.5-11.5C180.6,256.4,178.1,255.7,175.7,256.1z"/>
	<path class="st0" d="M184.4,311.4c1.9-4.1,0.1-8.9-4-10.8c-1.5-0.7-3.1-0.9-4.7-0.6c-0.5,0.1-1.1,0.2-1.6,0.4
		c-2,0.8-3.7,2.3-4.6,4.2c-1.9,4.1-0.1,8.9,4,10.8C177.6,317.2,182.5,315.4,184.4,311.4z"/>
	<path class="st0" d="M182.4,348.7c-0.5,4.5,2.7,8.5,7.1,9c4.5,0.5,8.5-2.7,9-7.1c0.5-4.5-2.7-8.5-7.1-9
		C187,341,182.9,344.2,182.4,348.7z"/>
	<path class="st0" d="M217.9,393.1c2.1-0.4,4-1.7,5.2-3.5c1.2-1.8,1.6-4,1.2-6.1c-0.9-4.4-5.1-7.3-9.6-6.4c-4.4,0.9-7.3,5.2-6.4,9.6
		C209.2,391.1,213.4,394,217.9,393.1z"/>
	<path class="st0" d="M244.6,414.8c1.1,1.9,2.8,3.3,4.9,3.9c2.1,0.6,4.3,0.3,6.2-0.7c1.9-1.1,3.3-2.8,3.9-4.9
		c0.6-2.1,0.3-4.3-0.7-6.2c-1.1-1.9-2.8-3.3-4.9-3.9c-1.1-0.3-2.3-0.4-3.5-0.2c-0.9,0.1-1.9,0.5-2.7,0.9c-1.9,1.1-3.3,2.8-3.9,4.9
		C243.3,410.7,243.6,412.9,244.6,414.8L244.6,414.8z"/>
	<path class="st0" d="M287.9,430.4c1.6,1.5,3.7,2.2,5.8,2.2c2.2-0.1,4.2-1,5.7-2.6c1.5-1.6,2.2-3.7,2.2-5.8c-0.1-2.2-1-4.2-2.6-5.7
		c-1.6-1.5-3.7-2.2-5.8-2.2c-0.3,0-0.6,0-1,0.1c-1.8,0.3-3.4,1.2-4.7,2.5c-1.5,1.6-2.2,3.7-2.2,5.8
		C285.3,426.9,286.3,428.9,287.9,430.4L287.9,430.4z"/>
	<path class="st0" d="M333.8,431.8c4.1,1.9,8.9,0.1,10.8-4c1.9-4.1,0.1-8.9-4-10.8c-1.5-0.7-3.1-0.9-4.7-0.6c-2.6,0.4-5,2.1-6.1,4.6
		C327.9,425.1,329.7,429.9,333.8,431.8z"/>
	<path class="st0" d="M377.9,418.9c2.2,0.3,4.3-0.3,6-1.7c1.7-1.3,2.8-3.3,3-5.4c0.5-4.5-2.7-8.5-7.1-9c-0.8-0.1-1.5-0.1-2.2,0
		c-3.5,0.6-6.4,3.4-6.8,7.1c-0.3,2.2,0.3,4.3,1.7,6S375.8,418.7,377.9,418.9z"/>
	<path class="st0" d="M422.3,383.5c-0.4-2.1-1.7-4-3.5-5.2c-1.7-1.1-3.8-1.6-5.8-1.3c-0.1,0-0.2,0-0.3,0.1c-2.1,0.4-4,1.7-5.2,3.5
		c-1.2,1.8-1.6,4-1.2,6.1c0.9,4.4,5.2,7.3,9.6,6.4C420.3,392.2,423.2,387.9,422.3,383.5z"/>
	<path class="st0" d="M438.8,341.6c-0.9,0.1-1.8,0.5-2.7,0.9c-3.9,2.2-5.3,7.2-3.1,11.1c1.1,1.9,2.8,3.3,4.9,3.8
		c2.1,0.6,4.3,0.3,6.2-0.7l0,0c1.9-1.1,3.3-2.8,3.9-4.9c0.6-2.1,0.3-4.3-0.7-6.2C445.5,342.6,442.1,341.1,438.8,341.6z"/>
	<path class="st0" d="M459.6,313.5L459.6,313.5c1.5-1.6,2.2-3.7,2.2-5.8s-1-4.2-2.6-5.7c-1.6-1.5-3.7-2.2-5.8-2.1
		c-0.3,0-0.6,0-1,0.1c-1.8,0.3-3.4,1.2-4.7,2.5c-1.5,1.6-2.2,3.7-2.2,5.8c0.1,2.2,1,4.2,2.6,5.7c1.6,1.5,3.7,2.2,5.8,2.1
		C456.1,316,458.1,315.1,459.6,313.5z"/>
	<path class="st0" d="M452.4,256.1c-2.6,0.4-5,2.1-6.1,4.6c-1.9,4.1-0.1,8.9,4,10.8c4.1,1.9,8.9,0.1,10.8-4c1.9-4.1,0.1-8.9-4-10.8
		C455.5,256.1,453.9,255.9,452.4,256.1z"/>
	<path class="st0" d="M448.2,223.4c0.3-2.2-0.3-4.3-1.7-6c-1.3-1.7-3.3-2.8-5.4-3c-0.8-0.1-1.5-0.1-2.2,0c-1.4,0.2-2.6,0.8-3.8,1.7
		c-1.7,1.3-2.8,3.3-3,5.4c-0.3,2.2,0.3,4.3,1.7,6c1.3,1.7,3.3,2.8,5.4,3c2.2,0.3,4.3-0.3,6-1.7S447.9,225.6,448.2,223.4z"/>
	<path class="st0" d="M418.8,180.3c-1.7-1.1-3.8-1.6-5.8-1.3c-0.1,0-0.2,0-0.3,0.1c-2.1,0.4-4,1.7-5.2,3.5c-1.2,1.8-1.6,4-1.2,6.1
		c0.9,4.4,5.1,7.3,9.6,6.4c4.4-0.9,7.3-5.2,6.4-9.6C421.9,183.3,420.6,181.5,418.8,180.3z"/>
	<path class="st0" d="M377.6,153.2c-0.9,0.1-1.8,0.5-2.7,0.9c-3.9,2.2-5.3,7.2-3.1,11.1c2.2,3.9,7.2,5.3,11.1,3.1
		c3.9-2.2,5.3-7.2,3.1-11.1C384.3,154.2,380.9,152.7,377.6,153.2z"/>
	<path class="st0" d="M343.2,153.2c3-3.3,2.8-8.5-0.5-11.5c-1.9-1.8-4.4-2.4-6.8-2.1c-1.7,0.3-3.4,1.1-4.7,2.5
		c-3,3.3-2.8,8.5,0.5,11.5C335,156.8,340.1,156.5,343.2,153.2z"/>
	<path class="st0" d="M292.1,139.7c-2.6,0.4-5,2.1-6.1,4.6c-0.9,2-1,4.2-0.2,6.2c0.8,2,2.3,3.7,4.2,4.6c4.1,1.9,8.9,0.1,10.8-4
		c0.9-2,1-4.2,0.2-6.2c-0.8-2-2.3-3.7-4.2-4.6C295.3,139.6,293.7,139.5,292.1,139.7z"/>
	<path class="st0" d="M273.5,136.5c0.6-2,0.3-4.1-0.7-5.9c-1-1.8-2.7-3.1-4.7-3.7c-0.7-0.2-1.4-0.3-2.1-0.3c-3.5,0-6.5,2.3-7.5,5.7
		c-0.6,2-0.3,4.1,0.7,5.9s2.7,3.1,4.7,3.7l0,0c2,0.6,4.1,0.3,5.9-0.7C271.6,140.1,272.9,138.5,273.5,136.5z"/>
	<path class="st0" d="M221.5,149.3c-0.1,0-0.2,0-0.3,0c-2.1,0.1-4,1-5.4,2.5s-2.1,3.5-2.1,5.6c0.1,2.1,1,4,2.5,5.4
		c1.5,1.4,3.5,2.1,5.6,2.1c2.1-0.1,4-1,5.4-2.5c1.4-1.5,2.1-3.5,2.1-5.6C229.1,152.5,225.7,149.3,221.5,149.3z"/>
	<path class="st0" d="M179,195L179,195c1.5,4,6,6.1,10,4.6c1.9-0.7,3.5-2.2,4.4-4s0.9-4,0.2-5.9c-0.7-1.9-2.2-3.5-4-4.4
		c-1.9-0.9-4-0.9-5.9-0.2C179.5,186.5,177.5,191,179,195z"/>
	<path class="st0" d="M169.7,232c-1.5-1.9-3.7-2.9-6.1-2.9c-1.8,0-3.4,0.6-4.8,1.7c-3.4,2.7-3.9,7.5-1.3,10.9
		c2.7,3.4,7.5,3.9,10.9,1.3C171.8,240.2,172.3,235.3,169.7,232z"/>
	<path class="st0" d="M149.3,281.8c-1.1,1.7-1.6,3.8-1.1,5.8s1.6,3.8,3.3,4.9c1.7,1.1,3.8,1.6,5.8,1.1c2-0.4,3.8-1.6,4.9-3.3
		s1.6-3.8,1.1-5.8s-1.6-3.8-3.3-4.9c-1.3-0.9-2.8-1.3-4.3-1.3c-0.5,0-1,0.1-1.5,0.2C152.2,278.9,150.5,280,149.3,281.8z"/>
	<path class="st0" d="M171.1,337.5c1.2-4.1-1.3-8.4-5.4-9.6c-0.7-0.2-1.4-0.3-2.1-0.3c-1.3,0-2.6,0.3-3.8,1c-1.8,1-3.1,2.7-3.7,4.7
		c-0.6,2-0.3,4.1,0.7,5.9c1,1.8,2.7,3.1,4.7,3.7c2,0.6,4.1,0.3,5.9-0.7C169.2,341.1,170.5,339.4,171.1,337.5z"/>
	<path class="st0" d="M186.6,387.6c2.1-0.1,4-1,5.4-2.5c1.4-1.5,2.1-3.5,2.1-5.6c-0.2-4.2-3.6-7.5-7.8-7.5c-0.1,0-0.2,0-0.3,0
		c-4.3,0.2-7.6,3.8-7.4,8.1c0.1,2.1,1,4,2.5,5.4C182.5,386.9,184.5,387.7,186.6,387.6z"/>
	<path class="st0" d="M218.3,422.2c1.9,0.9,4,0.9,5.9,0.2c1.9-0.7,3.5-2.2,4.4-4h0c0.9-1.9,0.9-4,0.2-5.9c-0.7-1.9-2.2-3.5-4-4.4
		c-1-0.5-2.1-0.7-3.2-0.7c-0.9,0-1.8,0.2-2.7,0.5c-1.9,0.7-3.5,2.2-4.4,4c-0.9,1.9-0.9,4-0.2,5.9S216.4,421.3,218.3,422.2z"/>
	<path class="st0" d="M266.9,430c-0.3,0-0.6-0.1-0.9-0.1c-1.8,0-3.4,0.6-4.8,1.7c-1.6,1.3-2.7,3.1-2.9,5.2c-0.2,2.1,0.3,4.1,1.6,5.7
		c1.3,1.6,3.1,2.7,5.2,2.9c2.1,0.2,4.1-0.3,5.7-1.6c1.6-1.3,2.7-3.1,2.9-5.2c0.2-2.1-0.3-4.1-1.6-5.7
		C270.8,431.3,269,430.3,266.9,430z"/>
	<path class="st0" d="M368.4,444.5c1.8-1,3.1-2.7,3.7-4.7c0.6-2,0.3-4.1-0.7-5.9c-1-1.8-2.7-3.1-4.7-3.7c-0.7-0.2-1.4-0.3-2.1-0.3
		c-3.5,0-6.5,2.3-7.5,5.7c-0.6,2-0.3,4.1,0.7,5.9s2.7,3.1,4.7,3.7C364.5,445.8,366.6,445.6,368.4,444.5z"/>
	<path class="st0" d="M409.4,422.9c4.3-0.2,7.6-3.8,7.4-8.1c-0.1-2.1-1-4-2.5-5.4c-1.4-1.3-3.3-2.1-5.3-2.1c-0.1,0-0.2,0-0.3,0
		c-2.1,0.1-4,1-5.4,2.5c-1.4,1.5-2.1,3.5-2.1,5.6c0.1,2.1,1,4,2.5,5.4C405.3,422.2,407.3,423,409.4,422.9z"/>
	<path class="st0" d="M451.4,383.1c0.9-1.9,0.9-4,0.2-5.9c-1.1-3-4.1-5.1-7.3-5.1c-0.9,0-1.8,0.2-2.7,0.5c-4,1.5-6.1,6-4.6,10
		c0.7,1.9,2.2,3.5,4,4.4c1.9,0.9,4,0.9,5.9,0.2C449,386.4,450.5,384.9,451.4,383.1z"/>
	<path class="st0" d="M459.3,334.4c-0.2,2.1,0.3,4.1,1.6,5.7c1.3,1.6,3.1,2.7,5.2,2.9c2.1,0.2,4.1-0.3,5.7-1.6
		c1.6-1.3,2.7-3.1,2.9-5.2c0.2-2.1-0.3-4.1-1.6-5.7c-1.3-1.6-3.1-2.7-5.2-2.9c-0.3,0-0.6-0.1-0.9-0.1c-1.8,0-3.4,0.6-4.8,1.7
		C460.5,330.5,459.5,332.4,459.3,334.4z"/>
	<path class="st0" d="M481.3,290.4c1.1-1.7,1.6-3.8,1.1-5.8s-1.6-3.8-3.3-4.9c-1.3-0.9-2.8-1.3-4.3-1.3c-2.6,0-5,1.3-6.5,3.5
		c-1.1,1.7-1.6,3.8-1.1,5.8s1.6,3.8,3.3,4.9c1.7,1.1,3.8,1.6,5.8,1.1C478.4,293.3,480.1,292.1,481.3,290.4z"/>
	<path class="st0" d="M459.5,234.7c-0.6,2-0.3,4.1,0.7,5.9c1,1.8,2.7,3.1,4.7,3.7l0,0c2,0.6,4.1,0.3,5.9-0.7c1.8-1,3.1-2.7,3.7-4.7
		c0.6-2,0.3-4.1-0.7-5.9c-1-1.8-2.7-3.1-4.7-3.7c-0.7-0.2-1.4-0.3-2.1-0.3c-1.3,0-2.6,0.3-3.8,1C461.4,231,460.1,232.7,459.5,234.7z
		"/>
	<path class="st0" d="M444,184.5c-2.1,0.1-4,1-5.4,2.5c-1.4,1.5-2.1,3.5-2.1,5.6c0.2,4.3,3.8,7.6,8.1,7.4c4.3-0.2,7.6-3.8,7.4-8.1
		c-0.1-2.1-1-4-2.5-5.4C448.1,185.2,446.1,184.5,444,184.5z"/>
	<path class="st0" d="M409,149.3c-0.9,0-1.8,0.2-2.7,0.5c-4,1.5-6.1,6-4.6,10c1.5,4,6,6.1,10,4.6c4-1.5,6.1-6,4.6-10
		C415.2,151.3,412.3,149.3,409,149.3z"/>
	<path class="st0" d="M364.6,126.6c-1.8,0-3.4,0.6-4.8,1.7c-3.4,2.7-3.9,7.5-1.3,10.9c2.7,3.4,7.5,3.9,10.9,1.3
		c1.6-1.3,2.7-3.1,2.9-5.2s-0.3-4.1-1.6-5.7C369.2,127.7,367,126.6,364.6,126.6z"/>
	<path class="st0" d="M322.9,125c-0.4-2-1.6-3.8-3.3-4.9c-1.3-0.9-2.8-1.3-4.3-1.3c-2.6,0-5,1.3-6.5,3.5c-1.2,1.7-1.6,3.8-1.2,5.8
		c0.4,2,1.6,3.8,3.3,4.9c3.6,2.4,8.4,1.4,10.8-2.2C322.9,129.1,323.3,127.1,322.9,125z"/>
	<path class="st0" d="M228.8,135.1c1.4,1.8,3.5,3,5.8,3.2c2.3,0.3,4.6-0.4,6.4-1.8c1.8-1.4,3-3.5,3.2-5.8c0.3-2.3-0.4-4.6-1.8-6.4
		c-1.4-1.8-3.5-3-5.8-3.2c-0.3,0-0.7-0.1-1-0.1c-0.5,0-0.9,0-1.3,0.1c-3.8,0.6-6.8,3.7-7.3,7.6C226.7,131,227.4,133.3,228.8,135.1z"
		/>
	<path class="st0" d="M189.5,153.4c-2.3,0.5-4.2,1.8-5.5,3.7c-1.3,1.9-1.7,4.3-1.3,6.5v0c0.5,2.3,1.8,4.2,3.7,5.5
		c1.9,1.3,4.2,1.7,6.5,1.3c2.3-0.5,4.2-1.8,5.5-3.7c1.3-1.9,1.7-4.3,1.3-6.5c-0.8-4.1-4.4-7-8.5-7c-0.5,0-0.9,0-1.4,0.1
		C189.7,153.4,189.6,153.4,189.5,153.4z"/>
	<path class="st0" d="M163.2,214c4.2-2.3,5.7-7.7,3.3-11.8c-1.1-2-3-3.5-5.2-4.1c-2.2-0.6-4.6-0.3-6.6,0.8
		c-4.2,2.3-5.7,7.7-3.3,11.8l0,0C153.7,214.8,159,216.3,163.2,214z"/>
	<path class="st0" d="M140.6,250c-1.9,0.3-3.7,1.2-5,2.7c-3.3,3.5-3,9,0.5,12.3h0c3.5,3.3,9,3,12.3-0.5c3.3-3.5,3-9-0.5-12.3
		C145.9,250.4,143.2,249.6,140.6,250z"/>
	<path class="st0" d="M145,321.7c2.2-0.8,3.9-2.4,4.9-4.5c1-2.1,1.1-4.5,0.2-6.7c-0.8-2.2-2.4-3.9-4.5-4.9c-1.2-0.5-2.4-0.8-3.6-0.8
		c-0.4,0-0.9,0-1.3,0.1c-0.6,0.1-1.1,0.2-1.7,0.4c-2.2,0.8-3.9,2.4-4.9,4.5c-1,2.1-1.1,4.5-0.3,6.7c0.8,2.2,2.4,3.9,4.5,4.9v0
		C140.4,322.4,142.8,322.5,145,321.7z"/>
	<path class="st0" d="M157.9,374.4c4.8,0.6,9.1-2.9,9.7-7.6c0.6-4.8-2.9-9.1-7.6-9.6c-0.3,0-0.7-0.1-1-0.1c-1.9,0-3.8,0.7-5.4,1.9
		c-1.8,1.4-3,3.5-3.2,5.8C149.7,369.5,153.2,373.8,157.9,374.4z"/>
	<path class="st0" d="M186.4,417.4c1.9,1.3,4.2,1.7,6.5,1.3c2.3-0.5,4.2-1.8,5.5-3.7s1.7-4.3,1.3-6.5c-0.8-4.1-4.5-7-8.5-7
		c-0.6,0-1.1,0.1-1.7,0.2c-4.7,0.9-7.8,5.5-6.8,10.2C183.1,414.1,184.5,416.1,186.4,417.4z"/>
	<path class="st0" d="M233.3,450.8c2.2,0.6,4.6,0.3,6.6-0.8c2-1.1,3.5-3,4.1-5.2c0.6-2.2,0.3-4.6-0.8-6.6c-1.1-2-3-3.5-5.2-4.1
		c-0.8-0.2-1.6-0.3-2.4-0.3c-0.4,0-0.9,0-1.3,0.1c-1,0.2-2,0.5-2.9,1c-2,1.1-3.5,3-4.1,5.2c-0.6,2.2-0.3,4.6,0.8,6.6
		S231,450.2,233.3,450.8z"/>
	<path class="st0" d="M394,451.1c2.3,0.3,4.6-0.4,6.4-1.8c1.8-1.4,3-3.5,3.2-5.8c0.3-2.3-0.4-4.6-1.8-6.4c-1.4-1.8-3.5-3-5.8-3.2v0
		c-0.3,0-0.7-0.1-1-0.1c-0.5,0-0.9,0-1.4,0.1c-3.8,0.6-6.8,3.7-7.3,7.6c-0.3,2.3,0.4,4.6,1.8,6.4C389.6,449.6,391.6,450.8,394,451.1
		z"/>
	<path class="st0" d="M434.6,417.4c1.9,1.3,4.2,1.7,6.5,1.3c4.7-0.9,7.8-5.5,6.8-10.2c-0.5-2.3-1.8-4.2-3.7-5.5
		c-1.4-1-3.1-1.5-4.8-1.5c-0.5,0-0.9,0-1.4,0.1c-0.1,0-0.2,0-0.4,0.1c-2.3,0.5-4.2,1.8-5.5,3.7c-1.3,1.9-1.7,4.2-1.3,6.5
		C431.3,414.1,432.6,416.1,434.6,417.4z"/>
	<path class="st0" d="M469.3,374.1c2.2,0.6,4.6,0.3,6.6-0.8c2-1.1,3.5-3,4.1-5.2c0.6-2.2,0.3-4.6-0.8-6.6c-1.5-2.8-4.5-4.4-7.6-4.4
		c-0.4,0-0.9,0-1.4,0.1c-1,0.2-2,0.5-2.9,1c-4.2,2.3-5.7,7.7-3.3,11.8C465.2,372,467.1,373.5,469.3,374.1z"/>
	<path class="st0" d="M495,319.4c1.6-1.7,2.4-3.9,2.3-6.2c-0.1-2.3-1.1-4.5-2.8-6c-1.7-1.6-3.9-2.4-6.2-2.3c-0.3,0-0.7,0-1,0.1
		c-1.9,0.3-3.7,1.2-5,2.7c-1.6,1.7-2.4,3.9-2.3,6.2c0.1,2.3,1.1,4.5,2.8,6c1.7,1.6,3.9,2.4,6.2,2.3
		C491.3,322.1,493.5,321.1,495,319.4z"/>
	<path class="st0" d="M488.6,249.9c-0.5,0-0.9,0-1.4,0.1c-2.9,0.5-5.3,2.3-6.6,5c-1,2.1-1.1,4.5-0.2,6.6s2.4,3.9,4.5,4.9
		c2.1,1,4.5,1.1,6.6,0.3s3.9-2.4,4.9-4.5l0,0c1-2.1,1.1-4.5,0.2-6.6c-0.8-2.2-2.4-3.9-4.5-4.9C491.1,250.2,489.9,249.9,488.6,249.9z
		"/>
	<path class="st0" d="M470.6,215c2.3,0.3,4.6-0.4,6.4-1.8c1.8-1.4,3-3.5,3.2-5.8c0.3-2.3-0.4-4.6-1.8-6.4c-1.4-1.8-3.5-3-5.8-3.2
		c-0.3,0-0.7-0.1-1-0.1c-0.5,0-0.9,0-1.4,0.1c-1.5,0.2-2.8,0.8-4,1.8c-1.8,1.4-3,3.5-3.2,5.8c-0.3,2.3,0.4,4.6,1.8,6.4
		C466.3,213.6,468.3,214.8,470.6,215z"/>
	<path class="st0" d="M444.2,154.7c-1.8-1.2-4-1.7-6.2-1.4c-0.1,0-0.2,0-0.4,0.1c-2.3,0.5-4.2,1.8-5.5,3.7c-1.3,1.9-1.7,4.3-1.3,6.5
		c0.9,4.7,5.5,7.8,10.2,6.8c4.7-0.9,7.8-5.5,6.8-10.2C447.5,158,446.1,156,444.2,154.7z"/>
	<path class="st0" d="M393.6,121.1c-1,0.2-2,0.5-2.9,1c-4.2,2.3-5.7,7.7-3.3,11.8c2.4,4.2,7.7,5.7,11.8,3.3
		c4.2-2.3,5.7-7.7,3.3-11.8C400.8,122.3,397.2,120.5,393.6,121.1z"/>
	<path class="st0" d="M336.9,119.1c3.5,3.3,9,3,12.3-0.5c1.6-1.7,2.4-3.9,2.3-6.2s-1.1-4.5-2.8-6c-1.6-1.5-3.7-2.3-5.9-2.3
		c-0.5,0-0.9,0-1.4,0.1c-1.9,0.3-3.7,1.2-5,2.7C333.1,110.4,333.3,115.9,336.9,119.1L336.9,119.1z"/>
	<path class="st0" d="M287.9,104c-0.5,0-0.9,0-1.4,0.1c-2.9,0.5-5.3,2.3-6.6,5c-1,2.1-1.1,4.5-0.3,6.7c0.8,2.2,2.4,3.9,4.5,4.9
		c2.1,1,4.5,1.1,6.6,0.2c2.2-0.8,3.9-2.4,4.9-4.5c1-2.1,1.1-4.5,0.3-6.7c-0.8-2.2-2.4-3.9-4.5-4.9C290.3,104.3,289.1,104,287.9,104z
		"/>
	<path class="st0" d="M245.3,96c-0.7,2.4-0.4,5,0.9,7.2c1.2,2.2,3.3,3.8,5.7,4.5c2.4,0.7,5,0.4,7.2-0.9c2.2-1.2,3.8-3.3,4.5-5.7
		c1.4-5-1.5-10.3-6.5-11.7c-0.8-0.2-1.7-0.4-2.6-0.4C250.1,89.1,246.4,91.9,245.3,96z"/>
	<path class="st0" d="M199.4,117.1c-0.1,0-0.3,0-0.4,0c-2.5,0.1-4.9,1.2-6.6,3c-1.7,1.9-2.6,4.3-2.5,6.8c0.1,2.5,1.2,4.9,3,6.6
		c1.9,1.7,4.3,2.6,6.8,2.5c2.5-0.1,4.9-1.2,6.6-3c1.7-1.9,2.6-4.3,2.5-6.8C208.6,121.1,204.5,117.1,199.4,117.1z"/>
	<path class="st0" d="M146.9,173.4c1.8,4.9,7.3,7.4,12.2,5.6c4.9-1.8,7.4-7.3,5.6-12.2c-0.9-2.4-2.6-4.3-4.9-5.3
		c-2.3-1.1-4.9-1.2-7.2-0.3C147.6,163.1,145.1,168.6,146.9,173.4z"/>
	<path class="st0" d="M127.7,215.7c-2.1,0-4.2,0.7-5.8,2c-2,1.6-3.2,3.8-3.5,6.3c-0.3,2.5,0.4,5,2,7c3.2,4.1,9.2,4.8,13.3,1.6
		c2-1.6,3.2-3.8,3.5-6.3c0.3-2.5-0.4-5-2-7C133.4,217,130.7,215.7,127.7,215.7z"/>
	<path class="st0" d="M116.3,276.8c-2.5,0.5-4.6,1.9-6,4c-1.4,2.1-1.9,4.6-1.4,7.1c0.5,2.5,1.9,4.6,4,6v0c2.1,1.4,4.6,1.9,7.1,1.4
		c2.5-0.5,4.6-1.9,6-4c1.4-2.1,1.9-4.6,1.4-7.1c-0.5-2.5-1.9-4.6-4-6c-1.6-1-3.4-1.6-5.2-1.6C117.5,276.6,116.9,276.7,116.3,276.8z"
		/>
	<path class="st0" d="M136.9,349.6c1.4-5-1.5-10.3-6.5-11.7c-0.8-0.2-1.7-0.4-2.6-0.4c-1.6,0-3.2,0.4-4.6,1.2
		c-2.2,1.2-3.8,3.3-4.5,5.7c-1.4,5,1.5,10.3,6.5,11.7C130.2,357.5,135.5,354.6,136.9,349.6z"/>
	<path class="st0" d="M156.1,411.4c2.5-0.1,4.9-1.2,6.6-3c1.7-1.9,2.6-4.3,2.5-6.8c-0.2-5.1-4.4-9.1-9.5-9.1c-0.1,0-0.2,0-0.4,0
		c-5.2,0.2-9.3,4.6-9.1,9.8c0.1,2.5,1.2,4.9,3.1,6.6C151.2,410.6,153.6,411.5,156.1,411.4z"/>
	<path class="st0" d="M208.3,442.3c-0.9-2.4-2.6-4.3-4.9-5.3c-1.3-0.6-2.6-0.9-3.9-0.9c-1.1,0-2.2,0.2-3.3,0.6
		c-2.4,0.9-4.3,2.6-5.3,4.9c-1.1,2.3-1.2,4.9-0.3,7.2c0.9,2.4,2.6,4.3,4.9,5.3c2.3,1.1,4.9,1.2,7.2,0.3c2.4-0.9,4.3-2.6,5.3-4.9
		C209,447.2,209.1,444.7,208.3,442.3z"/>
	<path class="st0" d="M440.6,445.2L440.6,445.2c-0.1-2.5-1.2-4.9-3-6.6c-1.8-1.6-4-2.5-6.4-2.5c-0.1,0-0.3,0-0.4,0
		c-2.5,0.1-4.8,1.2-6.6,3c-1.7,1.9-2.6,4.3-2.5,6.8c0.1,2.5,1.2,4.9,3,6.6c1.9,1.7,4.3,2.6,6.8,2.5
		C436.8,454.8,440.9,450.4,440.6,445.2z"/>
	<path class="st0" d="M483.4,405.9c1.1-2.3,1.2-4.9,0.3-7.2c-1.4-3.7-4.9-6.2-8.9-6.2c-1.1,0-2.2,0.2-3.3,0.6
		c-4.9,1.8-7.4,7.3-5.6,12.2c0.9,2.4,2.6,4.3,4.9,5.3c2.3,1.1,4.9,1.2,7.2,0.3C480.5,410,482.4,408.2,483.4,405.9z"/>
	<path class="st0" d="M501.7,356.4c2.5,0.3,5-0.4,7-2c2-1.6,3.2-3.8,3.5-6.3c0.3-2.5-0.4-5-2-7c-1.6-2-3.8-3.2-6.3-3.5h0
		c-0.4,0-0.8-0.1-1.1-0.1c-2.1,0-4.2,0.7-5.8,2c-2,1.6-3.2,3.8-3.5,6.3c-0.3,2.5,0.4,5,2,7C497,354.8,499.2,356.1,501.7,356.4z"/>
	<path class="st0" d="M514.3,295.3c2.5-0.5,4.6-1.9,6-4v0c1.4-2.1,1.9-4.6,1.4-7.1c-0.5-2.5-1.9-4.6-4-6c-1.6-1-3.4-1.6-5.2-1.6
		c-3.2,0-6.1,1.6-7.9,4.2c-1.4,2.1-1.9,4.6-1.4,7.1s1.9,4.6,4,6C509.3,295.3,511.9,295.8,514.3,295.3z"/>
	<path class="st0" d="M500.3,234.2c2.4,0.7,5,0.4,7.2-0.9c2.2-1.2,3.8-3.3,4.5-5.7c0.7-2.4,0.4-5-0.9-7.2c-1.2-2.2-3.3-3.8-5.7-4.5
		c-0.8-0.2-1.7-0.4-2.6-0.4c-1.6,0-3.2,0.4-4.6,1.2c-2.2,1.2-3.8,3.3-4.5,5.7c-0.7,2.4-0.4,5,0.9,7.2
		C495.8,232,497.8,233.5,500.3,234.2z"/>
	<path class="st0" d="M474.4,160.7c-2.5,0.1-4.9,1.2-6.6,3c-1.7,1.9-2.6,4.3-2.5,6.8c0.2,5.2,4.6,9.3,9.8,9.1
		c5.2-0.2,9.3-4.6,9.1-9.8c-0.1-2.5-1.2-4.9-3-6.6C479.4,161.5,477,160.6,474.4,160.7z"/>
	<path class="st0" d="M431.2,117.1c-1.1,0-2.2,0.2-3.3,0.6c-4.9,1.8-7.4,7.3-5.6,12.2c0.9,2.4,2.6,4.2,4.9,5.3
		c2.3,1.1,4.9,1.2,7.2,0.3c4.9-1.8,7.4-7.3,5.6-12.2C438.7,119.6,435.1,117.1,431.2,117.1z"/>
	<path class="st0" d="M382.1,105.9c2-1.6,3.2-3.8,3.5-6.3c0.3-2.5-0.4-5-2-7c-1.8-2.3-4.5-3.6-7.4-3.6c-2.1,0-4.2,0.7-5.9,2
		c-4.1,3.2-4.8,9.2-1.6,13.3C372,108.5,378,109.2,382.1,105.9z"/>
	<path class="st0" d="M324.6,87c-0.5-2.5-1.9-4.6-4-6c-1.6-1-3.4-1.6-5.2-1.6c-3.2,0-6.1,1.6-7.9,4.2c-1.4,2.1-1.9,4.6-1.4,7.1
		c0.5,2.5,1.9,4.6,4,6c2.1,1.4,4.6,1.9,7.1,1.4c2.5-0.5,4.6-1.9,6-4C324.6,92,325.1,89.5,324.6,87z"/>
	<path class="st0" d="M206,91c-0.3,2.8,0.5,5.6,2.2,7.8c1.8,2.2,4.3,3.6,7.1,4h0c2.8,0.3,5.6-0.5,7.8-2.2c2.2-1.8,3.6-4.3,4-7.1
		c0.7-5.8-3.5-11.1-9.3-11.8c-0.4,0-0.8-0.1-1.2-0.1c-0.6,0-1.1,0-1.6,0.1C210.2,82.5,206.5,86.3,206,91z"/>
	<path class="st0" d="M161.5,121.6c-0.6,0-1.1,0-1.7,0.1c-0.1,0-0.3,0-0.4,0.1c-2.8,0.6-5.2,2.2-6.8,4.5c-1.6,2.4-2.1,5.2-1.6,8
		c0.6,2.8,2.2,5.2,4.5,6.8c2.4,1.6,5.2,2.1,8,1.6c2.8-0.6,5.2-2.2,6.8-4.5c1.6-2.4,2.1-5.2,1.6-8
		C170.9,125.1,166.5,121.6,161.5,121.6z"/>
	<path class="st0" d="M126.7,196.6c5.1-2.9,6.9-9.4,4.1-14.5c-1.4-2.5-3.7-4.3-6.4-5c-2.7-0.8-5.6-0.4-8.1,1
		c-5.1,2.9-6.9,9.4-4.1,14.5C115,197.6,121.6,199.4,126.7,196.6z"/>
	<path class="st0" d="M98.7,241.5c-2.4,0.4-4.5,1.5-6.1,3.3c-4,4.3-3.7,11.1,0.6,15v0c4.3,4,11.1,3.7,15-0.6c4-4.3,3.7-11.1-0.6-15
		C105.2,242,102,241,98.7,241.5z"/>
	<path class="st0" d="M110.1,324.5c1.2-2.6,1.3-5.5,0.3-8.1c-1-2.7-3-4.8-5.5-6c-1.4-0.6-2.9-1-4.4-1c-0.5,0-1.1,0-1.6,0.1
		c-0.7,0.1-1.4,0.3-2.1,0.5c-2.7,1-4.8,3-6,5.5c-1.2,2.6-1.3,5.5-0.3,8.1c1,2.7,3,4.8,5.5,6l0,0c2.6,1.2,5.5,1.3,8.1,0.3
		C106.8,329.1,108.9,327.1,110.1,324.5z"/>
	<path class="st0" d="M120.2,395.4c5.8,0.7,11.1-3.5,11.8-9.3c0.3-2.8-0.5-5.6-2.2-7.8c-1.8-2.2-4.3-3.6-7.1-4
		c-0.4,0-0.8-0.1-1.3-0.1c-2.4,0-4.7,0.8-6.6,2.3c-2.2,1.8-3.6,4.3-4,7.1C110.2,389.4,114.4,394.7,120.2,395.4z"/>
	<path class="st0" d="M155.6,448.8c2.4,1.6,5.2,2.1,8,1.6c2.8-0.6,5.2-2.2,6.8-4.5c1.6-2.4,2.1-5.2,1.6-8v0c-1-5-5.5-8.6-10.4-8.6
		c-0.7,0-1.4,0.1-2.1,0.2c-5.8,1.2-9.5,6.8-8.3,12.5C151.6,444.8,153.2,447.2,155.6,448.8z"/>
	<path class="st0" d="M463.2,448.8c2.4,1.6,5.2,2.1,8,1.6c2.8-0.6,5.2-2.2,6.8-4.5c1.6-2.4,2.1-5.2,1.6-8v0
		c-0.6-2.8-2.2-5.2-4.5-6.8c-1.8-1.2-3.8-1.8-5.9-1.8c-0.6,0-1.1,0-1.7,0.1c-0.1,0-0.3,0-0.4,0.1c-2.8,0.6-5.2,2.2-6.8,4.5
		c-1.6,2.4-2.1,5.2-1.6,8S460.9,447.2,463.2,448.8z"/>
	<path class="st0" d="M509.1,374.2c-0.5,0-1.1,0-1.7,0.1c-1.2,0.2-2.4,0.6-3.5,1.2c-5.1,2.9-6.9,9.4-4.1,14.5c1.4,2.5,3.7,4.3,6.4,5
		s5.6,0.4,8.1-1c2.5-1.4,4.3-3.7,5-6.4c0.8-2.7,0.4-5.6-1-8.1C516.5,376.2,512.9,374.2,509.1,374.2z"/>
	<path class="st0" d="M538,327.3l0.1-0.2c1.8-2.1,2.8-4.7,2.7-7.5c-0.1-2.8-1.3-5.5-3.4-7.4c-2-1.8-4.5-2.8-7.2-2.8
		c-0.1,0-0.3,0-0.4,0h0c-0.4,0-0.8,0.1-1.3,0.1c-2.4,0.4-4.5,1.5-6.1,3.3c-1.9,2.1-2.9,4.8-2.8,7.6c0.1,2.8,1.3,5.5,3.4,7.4
		c2.1,1.9,4.8,2.9,7.6,2.8C533.4,330.6,536.1,329.4,538,327.3z"/>
	<path class="st0" d="M520.2,255.7c1,2.7,3,4.8,5.5,6c2.6,1.2,5.5,1.3,8.1,0.3c2.7-1,4.8-3,6-5.5v0c1.2-2.6,1.3-5.5,0.3-8.1
		c-1-2.7-3-4.8-5.5-6c-1.4-0.6-2.9-1-4.4-1c-0.6,0-1.1,0-1.7,0.1c-3.5,0.6-6.5,2.8-8,6.1C519.3,250.2,519.2,253.1,520.2,255.7z"/>
	<path class="st0" d="M509.1,176.7c-0.6,0-1.1,0-1.7,0.1c-1.8,0.3-3.5,1-4.9,2.2c-2.2,1.8-3.6,4.3-4,7.1s0.5,5.6,2.2,7.8
		c1.8,2.2,4.3,3.6,7.1,4h0c2.8,0.3,5.6-0.5,7.8-2.2c2.2-1.8,3.6-4.3,4-7.1c0.3-2.8-0.5-5.6-2.2-7.8c-1.8-2.2-4.3-3.6-7.1-4
		C510,176.7,509.5,176.7,509.1,176.7z"/>
	<path class="st0" d="M475,123.4c-2.2-1.5-4.9-2.1-7.6-1.7c-0.1,0-0.3,0-0.4,0.1c-2.8,0.6-5.2,2.2-6.8,4.5c-1.6,2.4-2.1,5.2-1.6,8
		c1.2,5.7,6.8,9.5,12.5,8.3c5.7-1.1,9.5-6.8,8.3-12.5C479,127.4,477.4,125,475,123.4z"/>
	<path class="st0" d="M419.3,101.5c5.1-2.9,6.9-9.4,4.1-14.5c-2.2-3.9-6.6-6-11-5.3c-1.2,0.2-2.4,0.6-3.5,1.2
		c-5.1,2.9-6.9,9.4-4.1,14.5C407.7,102.5,414.2,104.4,419.3,101.5z"/>
	<path class="st0" d="M357.1,78.4c4-4.3,3.7-11.1-0.6-15c-2-1.8-4.5-2.8-7.2-2.8c-0.6,0-1.1,0-1.7,0.1c-2.4,0.4-4.5,1.5-6.1,3.3
		c-4,4.3-3.7,11.1,0.6,15C346.4,83,353.2,82.7,357.1,78.4z"/>
	<path class="st0" d="M281.3,60.5c-0.6,0-1.1,0-1.7,0.1c-3.5,0.6-6.5,2.8-8,6.1c-1.2,2.6-1.3,5.5-0.3,8.1c1,2.7,3,4.8,5.5,6
		c5.3,2.4,11.7,0.1,14.1-5.2c1.2-2.6,1.3-5.5,0.3-8.1c-1-2.7-3-4.8-5.5-6C284.3,60.9,282.8,60.5,281.3,60.5z"/>
	<path class="st0" d="M240.5,76.5c2.9,0.8,6,0.5,8.7-1c2.7-1.5,4.6-4,5.4-6.9c0.8-2.9,0.5-6-1-8.7c-1.5-2.7-4-4.6-6.9-5.4
		c-1-0.3-2.1-0.4-3.1-0.4c-5.1,0-9.7,3.4-11.1,8.4c-0.8,3-0.5,6,1,8.7C235.1,73.7,237.6,75.7,240.5,76.5z"/>
	<path class="st0" d="M167.5,98.9c0.1,3.1,1.4,5.9,3.7,8c2.3,2.1,5.2,3.2,8.2,3c3.1-0.1,5.9-1.4,8-3.7c2.1-2.3,3.2-5.2,3-8.2
		c-0.2-6.2-5.3-11-11.5-11c-0.2,0-0.3,0-0.5,0c-3.1,0.1-5.9,1.4-8,3.7C168.4,92.9,167.4,95.8,167.5,98.9L167.5,98.9z"/>
	<path class="st0" d="M131.6,160.5c2.9-1.1,5.2-3.2,6.4-6c1.3-2.8,1.4-5.9,0.3-8.8c-1.1-2.9-3.2-5.2-6-6.4c-2.8-1.3-5.9-1.4-8.8-0.3
		c-5.9,2.2-9,8.8-6.8,14.7C119.1,159.6,125.7,162.7,131.6,160.5z"/>
	<path class="st0" d="M94.7,202.9c-2.6,0-5.1,0.9-7.1,2.5c-2.4,1.9-3.9,4.6-4.3,7.7s0.5,6.1,2.4,8.5c3.9,5,11.2,5.8,16.1,1.9
		c5-3.9,5.8-11.2,1.9-16.1C101.5,204.5,98.2,202.9,94.7,202.9z"/>
	<path class="st0" d="M85.6,297.3c3-0.6,5.6-2.3,7.3-4.9c1.7-2.5,2.3-5.6,1.7-8.6c-0.6-3-2.3-5.6-4.9-7.3c-1.9-1.3-4.1-1.9-6.3-1.9
		c-0.8,0-1.5,0.1-2.3,0.2c-3,0.6-5.6,2.3-7.3,4.9c-1.7,2.5-2.3,5.6-1.7,8.6c0.6,3,2.3,5.6,4.9,7.3l0,0
		C79.5,297.3,82.6,297.9,85.6,297.3z"/>
	<path class="st0" d="M97.8,346.7c-1-0.3-2.1-0.4-3.1-0.4c-1.9,0-3.9,0.5-5.6,1.5c-2.7,1.5-4.6,4-5.4,6.9
		c-1.7,6.1,1.9,12.4,7.9,14.2c6.1,1.7,12.4-1.9,14.2-7.9C107.5,354.8,103.9,348.4,97.8,346.7z"/>
	<path class="st0" d="M139.1,421.9c-0.2-6.2-5.4-11-11.5-11c-0.1,0-0.3,0-0.5,0c-6.3,0.3-11.3,5.6-11,11.9c0.1,3.1,1.4,5.9,3.7,8
		c2.3,2.1,5.2,3.1,8.2,3c3.1-0.1,5.9-1.4,8-3.7C138.2,427.9,139.2,425,139.1,421.9z"/>
	<path class="st0" d="M502.9,410.9c-1.4,0-2.7,0.2-4,0.7c-5.9,2.2-9,8.8-6.8,14.7c1.1,2.9,3.2,5.2,6,6.4c2.8,1.3,5.9,1.4,8.8,0.3
		c2.9-1.1,5.2-3.2,6.4-6c1.3-2.8,1.4-5.9,0.3-8.8C512.1,413.9,507.7,410.9,502.9,410.9z"/>
	<path class="st0" d="M534.6,369.1c3.1,0.4,6.1-0.5,8.5-2.4c2.4-1.9,3.9-4.6,4.3-7.7c0.4-3-0.5-6-2.4-8.5c-1.9-2.4-4.6-3.9-7.7-4.3
		c-0.5-0.1-0.9-0.1-1.4-0.1c-2.6,0-5,0.9-7.1,2.5c-2.4,1.9-3.9,4.6-4.3,7.7c-0.4,3,0.5,6,2.4,8.5
		C528.8,367.3,531.5,368.8,534.6,369.1z"/>
	<path class="st0" d="M537.7,279.7c-1.7,2.5-2.3,5.6-1.7,8.6c0.6,3,2.3,5.6,4.9,7.3c2.5,1.7,5.6,2.3,8.6,1.7c3-0.6,5.6-2.3,7.3-4.9
		v0c1.7-2.5,2.3-5.6,1.7-8.6c-0.6-3-2.3-5.6-4.9-7.3c-1.9-1.3-4.1-1.9-6.3-1.9C543.4,274.6,539.8,276.5,537.7,279.7z"/>
	<path class="st0" d="M525.9,220c1.5,2.7,4,4.6,6.9,5.4c3,0.8,6,0.5,8.7-1c2.7-1.5,4.6-4,5.4-6.9c0.8-3,0.5-6-1-8.7
		c-1.5-2.7-4-4.6-6.9-5.4c-1-0.3-2.1-0.4-3.1-0.4c-1.9,0-3.9,0.5-5.6,1.5c-2.7,1.5-4.6,4-5.4,6.9C524,214.2,524.4,217.3,525.9,220z"
		/>
	<path class="st0" d="M494.5,141.9c-2.1,2.3-3.2,5.2-3,8.2c0.3,6.3,5.6,11.3,11.9,11c6.3-0.3,11.3-5.6,11-11.9
		c-0.1-3.1-1.4-5.9-3.7-8c-2.2-2.1-5.2-3.1-8.2-3C499.4,138.4,496.6,139.7,494.5,141.9z"/>
	<path class="st0" d="M446.8,108.8c2.8,1.3,5.9,1.4,8.8,0.3c5.9-2.2,9-8.8,6.8-14.7c-1.7-4.5-6-7.5-10.8-7.5c-1.4,0-2.7,0.2-4,0.7
		c-5.9,2.2-9,8.8-6.8,14.7C441.9,105.3,444.1,107.5,446.8,108.8z"/>
	<path class="st0" d="M393.7,74.8c2.6-1.9,4.3-4.8,4.7-8c0.4-3-0.5-6.1-2.4-8.5c-2.2-2.8-5.5-4.4-9-4.4c-2.6,0-5.1,0.9-7.1,2.5
		c-5.1,4-5.8,11.4-1.7,16.4C382,77.4,388.9,78.2,393.7,74.8z"/>
	<path class="st0" d="M310.1,64.3c5,2.6,11.2,1,14.5-3.5c1.9-2.6,2.6-5.8,2-9c-0.6-3-2.3-5.6-4.9-7.3c-1.9-1.3-4.1-1.9-6.3-1.9
		c-3.9,0-7.4,1.9-9.6,5.1c-1.7,2.6-2.3,5.6-1.7,8.6C304.7,59.8,306.9,62.7,310.1,64.3z"/>
	<path class="st0" d="M202.7,76.6c1.7,0,3.5-0.3,5-1.1c3.7-1.8,6-5.2,6.6-9.1c0.7-5.1-2-10.3-6.7-12.4c-1.6-0.7-3.4-1.1-5.1-1.1
		c-0.6,0-1.2,0-1.8,0.1c-5.3,0.8-9.4,5.1-10,10.4c-0.4,3.1,0.5,6.2,2.4,8.7C195.4,75,199,76.6,202.7,76.6z"/>
	<path class="st0" d="M133,120.4c2.6,1.8,5.8,2.4,9,1.8c3.1-0.6,5.8-2.4,7.6-5.1c1.8-2.7,2.4-5.8,1.8-9c-1.1-5.7-6.1-9.6-11.7-9.6
		c-0.6,0-1.3,0-1.9,0.1c-0.2,0-0.3,0.1-0.5,0.1c-3.1,0.6-5.8,2.4-7.6,5.1c-1.8,2.7-2.4,5.8-1.8,9C128.6,115.9,130.4,118.6,133,120.4
		z"/>
	<path class="st0" d="M97.2,161.8c-3-0.9-6.2-0.5-9,1l-0.1,0.1c-5.7,3.2-7.8,10.5-4.6,16.2c3.2,5.7,10.5,7.8,16.2,4.6
		c5.7-3.2,7.8-10.5,4.6-16.2C102.8,164.7,100.3,162.7,97.2,161.8z"/>
	<path class="st0" d="M61.2,239.1c-2.2,2.3-3.3,5.4-3.1,8.6s1.5,6.1,3.8,8.3c4.8,4.5,12.4,4.2,16.9-0.7c2.2-2.3,3.3-5.4,3.1-8.6
		c-0.1-3.2-1.5-6.1-3.8-8.3c-2.7-2.5-6.3-3.6-10-3C65.4,235.9,63,237.1,61.2,239.1z"/>
	<path class="st0" d="M70,313c-0.6,0-1.2,0-1.8,0.1c-0.8,0.1-1.6,0.3-2.3,0.6c-3,1.1-5.4,3.3-6.7,6.2c-2.7,6-0.1,13.1,5.9,15.8h0
		c2.9,1.3,6.1,1.5,9.1,0.3c3-1.1,5.4-3.3,6.7-6.2c2.7-6,0.1-13.1-5.9-15.8C73.4,313.3,71.7,313,70,313z"/>
	<path class="st0" d="M92.6,410.7c6.5,0.8,12.5-3.9,13.2-10.5c0.8-6.5-3.9-12.5-10.5-13.2c-0.5-0.1-0.9-0.1-1.4-0.1
		c-2.7,0-5.2,0.9-7.4,2.6c-2.5,2-4.1,4.8-4.5,8C81.4,404,86.1,409.9,92.6,410.7z"/>
	<path class="st0" d="M542.4,409.2L542.4,409.2c2.8-1.6,4.8-4.1,5.6-7.2c0.9-3.1,0.5-6.3-1.1-9.1c-2.1-3.8-6.2-6.1-10.4-6.1
		c-0.6,0-1.2,0-1.9,0.1c-1.4,0.2-2.7,0.7-4,1.4c-5.7,3.2-7.8,10.5-4.6,16.2c1.6,2.8,4.1,4.8,7.2,5.6
		C536.4,411.2,539.7,410.8,542.4,409.2z"/>
	<path class="st0" d="M572.5,324.4c-0.1-3.2-1.5-6.1-3.8-8.3c-2.3-2.2-5.4-3.3-8.6-3.2c-0.5,0-0.9,0.1-1.4,0.1
		c-2.7,0.4-5,1.7-6.9,3.7c-2.2,2.3-3.3,5.4-3.2,8.6c0.1,3.2,1.5,6.1,3.8,8.3c2.3,2.2,5.4,3.3,8.6,3.2c3.2-0.1,6.1-1.5,8.3-3.8
		C571.6,330.7,572.7,327.6,572.5,324.4z"/>
	<path class="st0" d="M549.4,251.3c1.1,3,3.3,5.4,6.2,6.7c2.9,1.3,6.1,1.5,9.1,0.3c3-1.1,5.4-3.3,6.7-6.2v0c1.3-2.9,1.5-6.1,0.3-9.1
		c-1.1-3-3.3-5.4-6.2-6.7c-1.6-0.7-3.3-1.1-5-1.1c-0.6,0-1.2,0-1.9,0.1c-4,0.6-7.3,3.2-9,6.8C548.5,245.1,548.3,248.4,549.4,251.3z"
		/>
	<path class="st0" d="M535.2,185.1L535.2,185.1c3.2,0.4,6.3-0.5,8.8-2.5c2.5-2,4.1-4.8,4.5-8c0.4-3.2-0.5-6.3-2.5-8.8
		c-2-2.5-4.8-4.1-8-4.5c-0.5-0.1-0.9-0.1-1.4-0.1c-0.6,0-1.2,0-1.9,0.1c-2,0.3-3.9,1.2-5.5,2.4c-2.5,2-4.1,4.8-4.5,8
		c-0.4,3.2,0.5,6.3,2.5,8.8C529.2,183.2,532.1,184.8,535.2,185.1z"/>
	<path class="st0" d="M488.6,98.7c-3.1,0.6-5.8,2.4-7.6,5.1c-1.8,2.7-2.4,5.8-1.8,9c1.3,6.4,7.6,10.6,14,9.4
		c6.4-1.3,10.6-7.6,9.4-14c-0.6-3.1-2.4-5.8-5.1-7.6c-2.5-1.7-5.5-2.3-8.5-1.9C488.9,98.7,488.7,98.7,488.6,98.7z"/>
	<path class="st0" d="M433.9,75.2c6.3-3.6,8.2-12.1,3.4-18c-1.9-2.3-4.7-3.9-7.7-4.3c-2.6-0.3-5.1,0.2-7.4,1.4
		c-5.7,3.2-7.8,10.5-4.6,16.2C420.9,76.3,428.2,78.4,433.9,75.2z"/>
	<path class="st0" d="M354.6,52.7c3.2-0.1,6.1-1.5,8.3-3.8c2.2-2.3,3.3-5.4,3.1-8.6s-1.5-6.1-3.8-8.3c-2.2-2.1-5.1-3.2-8.1-3.2
		c-0.6,0-1.3,0-1.9,0.2c-4,0.6-7.3,3.1-9.1,7c-1.3,2.8-1.4,6.1-0.2,9C345.1,50,349.7,52.8,354.6,52.7z"/>
	<path class="st0" d="M272.7,52.1c5.2,1.7,11.1-0.5,13.9-5.1c1.9-3.2,2.3-6.9,1-10.3c-1.1-3-3.3-5.4-6.2-6.7c-1.6-0.7-3.3-1.1-5-1.1
		c-0.6,0-1.2,0-1.9,0.1c-4,0.6-7.3,3.2-9,6.8c-1.3,2.9-1.5,6.1-0.3,9.1C266.5,48.3,269.2,50.9,272.7,52.1z"/>
	<path class="st0" d="M141.3,65.5c0,1.6,0.3,3.1,0.9,4.5c2.4,5.5,7.6,8.5,13,8.3c4.4-0.2,8.4-2.5,10.8-6.3c1-1.6,1.7-3.5,1.9-5.4
		c0.9-8.2-5.4-15-13.3-15c-0.4,0-0.9,0-1.3,0.1c-1.7,0.1-3.3,0.6-4.8,1.3C143.7,55.6,141.1,60.4,141.3,65.5L141.3,65.5z"/>
	<path class="st0" d="M81.6,130.1c2.6,6.9,10.3,10.5,17.2,7.9c6.9-2.6,10.5-10.3,7.9-17.2c-1.2-3.4-3.7-6-7-7.5
		c-3.2-1.5-6.9-1.6-10.2-0.4C82.6,115.4,79.1,123.1,81.6,130.1L81.6,130.1z"/>
	<path class="st0" d="M44.9,209.9c4.6,5.8,13,6.8,18.8,2.2c2.8-2.2,4.6-5.4,5-8.9c0.4-3.6-0.6-7.1-2.8-9.9
		c-2.5-3.2-6.4-5.1-10.5-5.1c-3,0-5.9,1-8.3,2.9c-2.8,2.2-4.6,5.4-5,8.9S42.6,207.1,44.9,209.9L44.9,209.9z"/>
	<path class="st0" d="M53.1,293.5c2-3,2.7-6.5,2-10c-0.7-3.5-2.7-6.5-5.7-8.5c-2.2-1.5-4.8-2.3-7.4-2.3c-0.9,0-1.8,0.1-2.7,0.3
		c-3.5,0.7-6.5,2.7-8.5,5.7c-2,3-2.7,6.5-2,10c0.7,3.5,2.7,6.5,5.7,8.5l0,0c3,2,6.5,2.7,10,2C48.1,298.5,51.1,296.5,53.1,293.5z"/>
	<path class="st0" d="M68.2,374.1c1-3.4,0.5-7-1.2-10.2c-1.8-3.1-4.6-5.4-8-6.3c-1.2-0.3-2.4-0.5-3.6-0.5c-2.3,0-4.5,0.6-6.5,1.7
		c-3.1,1.8-5.4,4.6-6.3,8c-2,7.1,2.2,14.5,9.3,16.5C58.8,385.4,66.2,381.2,68.2,374.1z"/>
	<path class="st0" d="M576.8,357.2c-0.5-0.1-1.1-0.1-1.6-0.1c-3,0-5.9,1-8.3,2.9c-2.8,2.2-4.6,5.4-5,8.9c-0.4,3.5,0.6,7,2.8,9.9
		s5.4,4.6,8.9,5c3.6,0.4,7.1-0.6,9.9-2.8c2.8-2.2,4.6-5.4,5-8.9c0.4-3.5-0.6-7-2.8-9.9S580.3,357.6,576.8,357.2z"/>
	<path class="st0" d="M577.5,278.6c-2,3-2.7,6.5-2,10c0.7,3.5,2.7,6.5,5.7,8.5c3,2,6.5,2.7,10,2c3.5-0.7,6.5-2.7,8.5-5.7
		c2-3,2.7-6.5,2-10c-0.7-3.5-2.7-6.5-5.7-8.5c-2.2-1.5-4.8-2.2-7.4-2.2C584.1,272.7,580,274.9,577.5,278.6z"/>
	<path class="st0" d="M571.6,214.5L571.6,214.5c3.4,1,7.1,0.5,10.2-1.2c3.1-1.8,5.4-4.6,6.3-8c1-3.4,0.5-7.1-1.2-10.2
		c-1.7-3.1-4.6-5.4-8-6.3c-1.2-0.3-2.4-0.5-3.6-0.5c-2.3,0-4.5,0.6-6.5,1.7c-3.1,1.7-5.4,4.6-6.3,8c-1,3.4-0.5,7.1,1.2,10.2
		C565.3,211.3,568.2,213.5,571.6,214.5z"/>
	<path class="st0" d="M537,138.8c7.4-0.3,13.1-6.5,12.8-13.9c-0.1-3.6-1.7-6.9-4.3-9.3c-2.6-2.4-6-3.7-9.6-3.5
		c-3.6,0.1-6.9,1.7-9.3,4.3c-2.4,2.6-3.7,6-3.5,9.6C523.3,133.3,529.6,139.1,537,138.8z"/>
	<path class="st0" d="M480.6,77.5c6.9-2.6,10.5-10.3,7.9-17.2c-1.9-5.2-7-8.7-12.6-8.7c-1.6,0-3.1,0.3-4.6,0.8
		c-6.9,2.6-10.5,10.3-7.9,17.2C466,76.5,473.7,80.1,480.6,77.5z"/>
	<path class="st0" d="M86.4,480.7c-17.3,0-31.3,14.1-31.3,31.3s14.1,31.3,31.3,31.3s31.3-14.1,31.3-31.3S103.7,480.7,86.4,480.7z
		 M86.4,539.4c-15.1,0-27.3-12.3-27.3-27.3s12.3-27.3,27.3-27.3s27.3,12.3,27.3,27.3S101.4,539.4,86.4,539.4z"/>
	<path class="st0" d="M86.4,486.7c-14,0-25.3,11.4-25.3,25.3s11.4,25.3,25.3,25.3s25.3-11.4,25.3-25.3S100.3,486.7,86.4,486.7z
		 M90.4,489.1v9.5c-0.7-1.5-2.3-2.6-4-2.6s-3.3,1-4,2.6v-9.5c1.3-0.2,2.7-0.4,4-0.4S89.1,488.9,90.4,489.1z M63,512.1
		c0-10.8,7.4-19.9,17.3-22.5v18h-5.5c-2.5,0-4.5,2-4.5,4.5s2,4.5,4.5,4.5h5.5v18C70.4,532,63,522.9,63,512.1z M82.3,535.1v-9.5
		c0.7,1.5,2.3,2.6,4,2.6s3.3-1,4-2.6v9.5c-1.3,0.2-2.7,0.4-4,0.4S83.6,535.3,82.3,535.1z M92.4,534.6v-18h5.5c2.5,0,4.5-2,4.5-4.5
		s-2-4.5-4.5-4.5h-5.5v-18c10,2.7,17.3,11.8,17.3,22.5S102.4,532,92.4,534.6z"/>
	<path class="st0" d="M162.7,480.7c-17.3,0-31.3,14.1-31.3,31.3s14.1,31.3,31.3,31.3s31.3-14.1,31.3-31.3S180,480.7,162.7,480.7z
		 M162.7,539.4c-15.1,0-27.3-12.3-27.3-27.3s12.3-27.3,27.3-27.3c15.1,0,27.3,12.3,27.3,27.3S177.8,539.4,162.7,539.4z"/>
	<path class="st0" d="M162.7,486.7c-14,0-25.3,11.4-25.3,25.3s11.4,25.3,25.3,25.3c14,0,25.3-11.4,25.3-25.3
		S176.7,486.7,162.7,486.7z M166.7,489.1v9.5c-0.7-1.5-2.3-2.6-4-2.6s-3.3,1-4,2.6v-9.5c1.3-0.2,2.7-0.4,4-0.4
		S165.4,488.9,166.7,489.1z M139.3,512.1c0-10.8,7.4-19.9,17.3-22.5v18h-5.5c-2.5,0-4.5,2-4.5,4.5s2,4.5,4.5,4.5h5.5v18
		C146.7,532,139.3,522.9,139.3,512.1z M158.6,535.1v-9.5c0.7,1.5,2.3,2.6,4,2.6s3.3-1,4-2.6v9.5c-1.3,0.2-2.7,0.4-4,0.4
		S160,535.3,158.6,535.1z M168.7,534.6v-18h5.5c2.5,0,4.5-2,4.5-4.5s-2-4.5-4.5-4.5h-5.5v-18c10,2.7,17.3,11.8,17.3,22.5
		S178.7,532,168.7,534.6z"/>
	<path class="st0" d="M239,480.7c-17.3,0-31.3,14.1-31.3,31.3s14.1,31.3,31.3,31.3s31.3-14.1,31.3-31.3S256.3,480.7,239,480.7z
		 M239,539.4c-15.1,0-27.3-12.3-27.3-27.3s12.3-27.3,27.3-27.3c15.1,0,27.3,12.3,27.3,27.3S254.1,539.4,239,539.4z"/>
	<path class="st0" d="M239,486.7c-14,0-25.3,11.4-25.3,25.3s11.4,25.3,25.3,25.3c14,0,25.3-11.4,25.3-25.3S253,486.7,239,486.7z
		 M243,489.1v9.5c-0.7-1.5-2.3-2.6-4-2.6s-3.3,1-4,2.6v-9.5c1.3-0.2,2.7-0.4,4-0.4S241.7,488.9,243,489.1z M215.6,512.1
		c0-10.8,7.4-19.9,17.3-22.5v18h-5.5c-2.5,0-4.5,2-4.5,4.5s2,4.5,4.5,4.5h5.5v18C223,532,215.6,522.9,215.6,512.1z M234.9,535.1
		v-9.5c0.7,1.5,2.3,2.6,4,2.6s3.3-1,4-2.6v9.5c-1.3,0.2-2.7,0.4-4,0.4S236.3,535.3,234.9,535.1z M245,534.6v-18h5.5
		c2.5,0,4.5-2,4.5-4.5s-2-4.5-4.5-4.5H245v-18c10,2.7,17.3,11.8,17.3,22.5S255,532,245,534.6z"/>
	<path class="st0" d="M315.3,480.7c-17.3,0-31.3,14.1-31.3,31.3s14.1,31.3,31.3,31.3s31.3-14.1,31.3-31.3S332.6,480.7,315.3,480.7z
		 M315.3,539.4c-15.1,0-27.3-12.3-27.3-27.3s12.3-27.3,27.3-27.3s27.3,12.3,27.3,27.3S330.4,539.4,315.3,539.4z"/>
	<path class="st0" d="M315.3,486.7c-14,0-25.3,11.4-25.3,25.3s11.4,25.3,25.3,25.3s25.3-11.4,25.3-25.3S329.3,486.7,315.3,486.7z
		 M319.3,489.1v9.5c-0.7-1.5-2.3-2.6-4-2.6s-3.3,1-4,2.6v-9.5c1.3-0.2,2.7-0.4,4-0.4S318,488.9,319.3,489.1z M291.9,512.1
		c0-10.8,7.4-19.9,17.3-22.5v18h-5.5c-2.5,0-4.5,2-4.5,4.5s2,4.5,4.5,4.5h5.5v18C299.3,532,291.9,522.9,291.9,512.1z M311.3,535.1
		v-9.5c0.7,1.5,2.3,2.6,4,2.6s3.3-1,4-2.6v9.5c-1.3,0.2-2.7,0.4-4,0.4S312.6,535.3,311.3,535.1z M321.3,534.6v-18h5.5
		c2.5,0,4.5-2,4.5-4.5s-2-4.5-4.5-4.5h-5.5v-18c10,2.7,17.3,11.8,17.3,22.5S331.3,532,321.3,534.6z"/>
	<path class="st0" d="M391.6,480.7c-17.3,0-31.3,14.1-31.3,31.3s14.1,31.3,31.3,31.3s31.3-14.1,31.3-31.3S408.9,480.7,391.6,480.7z
		 M391.6,539.4c-15.1,0-27.3-12.3-27.3-27.3s12.3-27.3,27.3-27.3c15.1,0,27.3,12.3,27.3,27.3S406.7,539.4,391.6,539.4z"/>
	<path class="st0" d="M391.6,486.7c-14,0-25.3,11.4-25.3,25.3s11.4,25.3,25.3,25.3c14,0,25.3-11.4,25.3-25.3
		S405.6,486.7,391.6,486.7z M395.6,489.1v9.5c-0.7-1.5-2.3-2.6-4-2.6c-1.8,0-3.3,1-4,2.6v-9.5c1.3-0.2,2.7-0.4,4-0.4
		S394.3,488.9,395.6,489.1z M368.3,512.1c0-10.8,7.4-19.9,17.3-22.5v18h-5.5c-2.5,0-4.5,2-4.5,4.5s2,4.5,4.5,4.5h5.5v18
		C375.6,532,368.3,522.9,368.3,512.1z M387.6,535.1v-9.5c0.7,1.5,2.3,2.6,4,2.6c1.8,0,3.3-1,4-2.6v9.5c-1.3,0.2-2.7,0.4-4,0.4
		S388.9,535.3,387.6,535.1z M397.6,534.6v-18h5.5c2.5,0,4.5-2,4.5-4.5s-2-4.5-4.5-4.5h-5.5v-18c10,2.7,17.3,11.8,17.3,22.5
		S407.6,532,397.6,534.6z"/>
	<path class="st0" d="M467.9,480.7c-17.3,0-31.3,14.1-31.3,31.3s14.1,31.3,31.3,31.3s31.3-14.1,31.3-31.3S485.2,480.7,467.9,480.7z
		 M467.9,539.4c-15.1,0-27.3-12.3-27.3-27.3s12.3-27.3,27.3-27.3s27.3,12.3,27.3,27.3S483,539.4,467.9,539.4z"/>
	<path class="st0" d="M467.9,486.7c-14,0-25.3,11.4-25.3,25.3s11.4,25.3,25.3,25.3s25.3-11.4,25.3-25.3S481.9,486.7,467.9,486.7z
		 M472,489.1v9.5c-0.7-1.5-2.3-2.6-4-2.6s-3.3,1-4,2.6v-9.5c1.3-0.2,2.7-0.4,4-0.4S470.6,488.9,472,489.1z M444.6,512.1
		c0-10.8,7.4-19.9,17.3-22.5v18h-5.5c-2.5,0-4.5,2-4.5,4.5s2,4.5,4.5,4.5h5.5v18C451.9,532,444.6,522.9,444.6,512.1z M463.9,535.1
		v-9.5c0.7,1.5,2.3,2.6,4,2.6s3.3-1,4-2.6v9.5c-1.3,0.2-2.7,0.4-4,0.4S465.2,535.3,463.9,535.1z M474,534.6v-18h5.5
		c2.5,0,4.5-2,4.5-4.5s-2-4.5-4.5-4.5H474v-18c10,2.7,17.3,11.8,17.3,22.5S483.9,532,474,534.6z"/>
	<path class="st0" d="M627.7,308.7c-1.3-73.7-6.1-150.6-47.9-209.3C533,33.6,446.4,1.6,315.2,1.6c-130,0-216.2,32-263.4,97.7
		C8.9,159,4,238.7,2.7,308.8v254c0,6.4,5.2,11.5,11.5,11.5h528.2c6.4,0,11.5-5.2,11.5-11.5v-16.5h41.2c4.9,0,8.8-4,8.8-8.8V433.7
		h12.2c6.4,0,11.5-5.2,11.5-11.5L627.7,308.7z M10.7,562.7l0-253.9c1.2-68.8,6-147,47.6-204.8C103.9,40.5,187.9,9.6,315.2,9.6
		c128.5,0,212.9,30.9,258.1,94.4c40.5,56.9,45.1,132.4,46.4,204.8v109.5h-67.3c-7.5,0-13.7,6.2-13.7,13.9v134.1H14.2
		C12.3,566.2,10.7,564.7,10.7,562.7z M600,537.4c0,2.7-2.2,4.8-4.8,4.8h-41.2v-17c0.2,0,0.4,0,0.5,0h32.3c3.3,0,6-2.7,6-6v-85.5
		c0,0,0,0,0,0h7.2V537.4z M570.6,458.2c2.4,0,4.3,1.9,4.3,4.3c0,2.4-1.9,4.3-4.3,4.3c-2.4,0-4.3-1.9-4.3-4.3
		C566.3,460.1,568.2,458.2,570.6,458.2z M566.3,445.5c0-2.4,1.9-4.3,4.3-4.3c2.4,0,4.3,1.9,4.3,4.3s-1.9,4.3-4.3,4.3
		C568.2,449.9,566.3,447.9,566.3,445.5z M570.6,475.1c2.4,0,4.3,1.9,4.3,4.3c0,2.4-1.9,4.3-4.3,4.3c-2.4,0-4.3-1.9-4.3-4.3
		C566.3,477.1,568.2,475.1,570.6,475.1z M570.6,492.1c2.4,0,4.3,1.9,4.3,4.3s-1.9,4.3-4.3,4.3c-2.4,0-4.3-1.9-4.3-4.3
		S568.2,492.1,570.6,492.1z M581.9,514.1v-80.4h7.9c0,0,0,0,0,0v85.5c0,1.7-1.4,3-3,3h-32.3c-0.2,0-0.4,0-0.5-0.1v-8.1H581.9z
		 M617,425.6h-60.3c-6,0-10.8,4.9-10.8,10.8v7.3c0,0.1,0,0.2,0,0.3v118.6c0,1.9-1.4,3.4-3.3,3.5V432.1c0-5.4,4.4-9.9,9.7-9.9h67.3
		C619.7,423.9,618.6,425.2,617,425.6z"/>
</g>
</svg>