<?xml version="1.0" encoding="utf-8"?>
<!-- Generator: Adobe Illustrator 20.0.0, SVG Export Plug-In . SVG Version: 6.00 Build 0)  -->
<svg version="1.1" id="Layer_1" xmlns="http://www.w3.org/2000/svg" xmlns:xlink="http://www.w3.org/1999/xlink" x="0px" y="0px"
	 viewBox="0 0 178.75 185.06" style="enable-background:new 0 0 178.75 185.06;" xml:space="preserve">
<style type="text/css">
	.st0{fill:#010101;}
</style>
<path class="st0" d="M44.95,168.08l-6.67,16.65h1.56l1.94-4.97h8.02l1.94,4.97h1.56l-6.67-16.65H44.95z M42.24,178.55l3.52-8.93
	h0.07l3.5,8.93H42.24z"/>
<polygon class="st0" points="57.98,176.75 67.68,176.75 67.68,175.47 57.98,175.47 57.98,169.34 68.24,169.34 68.24,168.08 
	56.55,168.08 56.55,184.73 68.63,184.73 68.63,183.47 57.98,183.47 "/>
<path class="st0" d="M136.77,168.08l-6.67,16.65h1.56l1.94-4.97h8.02l1.94,4.97h1.56l-6.67-16.65H136.77z M134.06,178.55l3.52-8.93
	h0.07l3.5,8.93H134.06z"/>
<path class="st0" d="M157.72,176.06c0.85-0.27,1.55-0.72,2.08-1.35c0.54-0.68,0.82-1.5,0.82-2.45c0-1.31-0.44-2.33-1.33-3.08
	c-0.87-0.73-2.07-1.1-3.59-1.1h-7.32v16.65h7.25c1.65,0,2.97-0.34,3.96-1.03c1.13-0.81,1.7-2,1.7-3.57c0-1.1-0.32-2.02-0.96-2.75
	C159.68,176.68,158.81,176.24,157.72,176.06z M149.79,169.32h5.62c1.2,0,2.12,0.25,2.78,0.75c0.67,0.53,1,1.31,1,2.33
	c0,1.01-0.34,1.79-1.03,2.33c-0.67,0.53-1.59,0.79-2.78,0.79h-5.6V169.32z M158.56,182.75c-0.76,0.5-1.76,0.75-2.98,0.75h-5.78
	v-6.76h5.76c1.32,0,2.36,0.27,3.1,0.82c0.81,0.58,1.21,1.43,1.21,2.56C159.87,181.26,159.43,182.14,158.56,182.75z"/>
<path class="st0" d="M9.35,176.06c0.86-0.27,1.55-0.72,2.08-1.35c0.54-0.68,0.82-1.5,0.82-2.45c0-1.31-0.44-2.33-1.33-3.08
	c-0.87-0.73-2.07-1.1-3.59-1.1H0v16.65h7.25c1.65,0,2.97-0.34,3.96-1.03c1.13-0.81,1.7-2,1.7-3.57c0-1.1-0.32-2.02-0.96-2.75
	C11.31,176.68,10.44,176.24,9.35,176.06z M1.42,169.32h5.62c1.2,0,2.12,0.25,2.78,0.75c0.67,0.53,1,1.31,1,2.33
	c0,1.01-0.34,1.79-1.03,2.33c-0.67,0.53-1.59,0.79-2.78,0.79h-5.6V169.32z M10.19,182.75c-0.76,0.5-1.76,0.75-2.98,0.75H1.42v-6.76
	h5.76c1.32,0,2.36,0.27,3.1,0.82c0.81,0.58,1.21,1.43,1.21,2.56C11.5,181.26,11.06,182.14,10.19,182.75z"/>
<polygon class="st0" points="23.01,176.54 17.34,168.08 15.59,168.08 22.28,177.87 22.28,184.73 23.71,184.73 23.71,177.87 
	30.4,168.08 28.65,168.08 "/>
<path class="st0" d="M175.5,176.96c-0.7-0.44-2.13-0.96-4.29-1.59c-1.57-0.45-2.63-0.81-3.19-1.07c-1.04-0.56-1.56-1.3-1.56-2.21
	c0-1.07,0.43-1.86,1.31-2.35c0.78-0.47,1.83-0.7,3.17-0.7c1.46,0,2.58,0.33,3.36,1c0.79,0.68,1.28,1.67,1.47,2.96h1.42
	c-0.14-1.72-0.76-3.03-1.87-3.92c-1.07-0.89-2.52-1.33-4.34-1.33c-1.71,0-3.09,0.36-4.15,1.07c-1.2,0.76-1.8,1.87-1.8,3.31
	c0,1.37,0.64,2.41,1.91,3.12c0.56,0.33,1.83,0.77,3.82,1.33c1.82,0.5,3.04,0.93,3.66,1.28c1.14,0.64,1.7,1.52,1.7,2.66
	c0,0.98-0.45,1.76-1.35,2.35c-0.93,0.58-2.12,0.86-3.57,0.86c-1.52,0-2.71-0.34-3.57-1.03c-0.92-0.76-1.46-1.93-1.63-3.5h-1.4
	c0.14,2.02,0.84,3.53,2.1,4.52c1.1,0.87,2.61,1.31,4.52,1.31c1.9,0,3.41-0.4,4.55-1.19c1.2-0.84,1.8-1.97,1.8-3.4
	C177.58,178.95,176.89,177.79,175.5,176.96z"/>
<polygon class="st0" points="103.97,182.52 103.9,182.52 93.82,168.08 92.21,168.08 92.21,184.73 93.64,184.73 93.64,170.18 
	93.71,170.18 103.83,184.73 105.41,184.73 105.41,168.08 103.97,168.08 "/>
<polygon class="st0" points="118,168.08 116.58,168.08 116.58,184.73 128.01,184.73 128.01,183.47 118,183.47 "/>
<path class="st0" d="M80.1,167.75c-2.47,0-4.43,0.84-5.88,2.52c-1.35,1.59-2.03,3.63-2.03,6.13c0,2.5,0.68,4.55,2.03,6.13
	c1.43,1.68,3.38,2.52,5.85,2.52c2.46,0,4.41-0.83,5.85-2.5c1.35-1.59,2.03-3.64,2.03-6.16c0-2.5-0.68-4.55-2.03-6.13
	C84.48,168.59,82.54,167.75,80.1,167.75z M84.85,181.68c-1.17,1.38-2.76,2.08-4.78,2.08c-2.04,0-3.64-0.7-4.8-2.1
	c-1.1-1.31-1.65-3.05-1.65-5.25c0-2.15,0.56-3.89,1.68-5.25c1.17-1.4,2.77-2.1,4.8-2.1c2.02,0,3.61,0.69,4.76,2.08
	c1.12,1.31,1.68,3.06,1.68,5.27C86.53,178.58,85.97,180.34,84.85,181.68z"/>
<path class="st0" d="M43.77,84.93l23.68-53.16C79.32,58.4,91.1,84.99,103.23,111.5c15.36,34.73,33.49,47.66,75.52,47.66
	c-35.3-3.22-50.03-21.96-63.25-51.45l-10.13-22.6L73.35,13.25L67.45,0l-5.9,13.25C41.2,58.93,20.8,104.22,0,149.69h14.21l23.7-51.8
	h53.4c-1.98-4.32-3.93-8.63-5.87-12.97H43.77z"/>
</svg>
