<?xml version="1.0" encoding="utf-8"?>
<!-- Generator: Adobe Illustrator 20.0.0, SVG Export Plug-In . SVG Version: 6.00 Build 0)  -->
<svg version="1.1" id="Layer_1" xmlns="http://www.w3.org/2000/svg" xmlns:xlink="http://www.w3.org/1999/xlink" x="0px" y="0px"
	 viewBox="0 0 493.47 1082.99" style="enable-background:new 0 0 493.47 1082.99;" xml:space="preserve">
<g>
	<path d="M491.73,962.74l-36.02-116.23c6.02-10.87,9.47-21.43,10.26-31.4l0.08-1.11l-0.03-0.39c-0.05-0.79-0.13-1.61-0.22-2.46
		c0.4-26.5-16.35-49.4-45.99-62.87c-28.8-13.09-65.79-16.77-106.97-10.64c-29.92,4.45-59.3,14.06-84.89,27.54
		c2.69-2.17,5.24-4.4,7.59-6.72c14.82-14.59,22.23-30.72,21.67-46.97c39.58-6.52,76.05-23.79,100.71-47.82
		c25.13-24.48,35.38-54.17,28.18-80.6c26.18-7.85,48.33-20.58,65.9-37.88c20.33-20.02,30.87-45.26,28.2-67.5
		c-2.87-23.9-18.97-43.34-45.35-54.74c-25.64-11.09-59.14-13.06-91.93-5.41c-2.57,0.6-5.13,1.27-7.67,1.99
		C289.17,271.36,252.54,161.34,228.23,88.3c-3.53-10.59-6.78-20.36-9.75-29.33c-7.29-26.92-32.76-47.73-68.17-55.69
		c-20.59-4.63-43-4.36-63.1,0.75c-22.2,5.65-40.93,16.87-54.12,32.4C11.17,61.44,0.03,86.85,0,111.97l0,0.5l0.09,0.49
		C26.97,265.4,58.53,435.29,107.07,644.46c0.8,4.23,2.03,8.4,3.69,12.5c-24.24,7.42-44.38,19.4-58.52,34.87
		C35.81,709.8,30.07,731.7,36.9,750.4c6.69,18.32,24.15,32.78,49.17,40.73c13.4,4.25,28.21,6.4,43.53,6.4
		c11.99,0,24.29-1.31,36.45-3.95c12.43-2.7,24.39-6.79,35.3-11.95c-26.45,19.22-44.06,42.06-49.87,64.88
		c-1.76,6.93-2.43,13.83-1.98,20.52c1.27,18.74,19.01,40.55,28.58,47.49l1.89,1.38c0.45,0.33,0.85,0.62,1.2,0.87l27.56,121.87
		c1.64,8.74,6.26,16.54,13.76,23.18c15.41,13.66,42.17,21.18,75.37,21.18c0.02,0,0.03,0,0.05,0c31.44-0.01,66.48-6.75,98.66-18.99
		c32.86-12.49,60.44-29.81,77.65-48.78C490.74,997,496.8,978.86,491.73,962.74z M163.64,782.49c-7.94,1.72-15.93,2.84-23.83,3.36
		c-14.33,0.59-28.14-1.04-40.37-4.87c-19.48-6.1-32.77-17.03-37.43-30.79c-4.7-13.9-0.07-29.3,13.05-43.38
		c12.53-13.45,31.61-24.18,53.73-30.22c2.25-0.61,4.51-1.24,6.79-1.87c1.97-0.54,3.96-1.09,5.95-1.63l3.38-0.92l-1.61-3.11
		c-1.21-2.35-2.41-4.68-3.61-7.02l-0.36-0.71c-10.93-21.33-5.22-46.56,15.69-69.22c21.61-23.43,57.27-40.9,95.4-46.72l2.19-0.33
		c3.86-0.59,7.72-1.18,11.6-1.75l2.78-0.41l-0.31-2.26l0.71-0.49c-0.29-0.41-0.61-0.8-0.93-1.19c-0.24-1.78-0.46-3.58-0.68-5.39
		l-0.33-2.69c-1.99-16,4.86-33.32,19.29-48.77c16.46-17.62,40.49-30.97,67.69-37.57c11.89-2.89,23.66-4.32,34.92-4.32
		c14.64,0,28.41,2.43,40.42,7.25c20.48,8.22,33.03,22.38,35.33,39.87c2.27,17.23-5.64,35.75-22.28,52.14
		c-15.17,14.95-36.45,26.75-59.92,33.24l-16.43,4.55l1.76,4.42c0.89,2.24,1.79,4.48,2.65,6.7c8.57,21.91,0.61,47.03-21.85,68.93
		c-22.25,21.7-55.77,37.23-91.97,42.61l-1.86,0.28c-3.67,0.54-7.34,1.09-11.01,1.64l-2.76,0.42l0.37,2.76
		c0.25,1.89,0.54,3.78,0.81,5.65l0.35,2.38c1.92,13.13-4.02,27.26-16.72,39.78c-2.92,2.88-6.15,5.61-9.62,8.19
		C200.47,770.71,182.41,778.42,163.64,782.49z M126.96,664.08l-3.24-6.15c-12.25-23.22-6.59-50.61,15.52-75.15
		c23.38-25.95,62.51-45,104.65-50.95l2.09-0.29c1.61,0.99,3.22,1.91,4.8,2.81c2.5,1.43,4.83,2.76,6.85,4.18
		c-1.96,0.3-3.92,0.59-5.88,0.89l-2.19,0.33c-39.94,6.1-75.92,23.77-98.71,48.48c-22.61,24.51-28.65,52.09-16.57,75.65l0.36,0.71
		c0.24,0.47,0.48,0.93,0.71,1.39c-0.35-0.07-0.69-0.14-1.04-0.21C131.97,665.34,129.47,664.84,126.96,664.08z M373.6,581.23
		c1.71,4.51,2.76,9.17,3.18,13.93c-0.62-3-1.5-5.96-2.64-8.87c-0.68-1.75-1.38-3.51-2.08-5.27l1.32-0.37L373.6,581.23z
		 M345.5,428.58c12.36-2.88,24.8-4.31,36.78-4.31c17.55,0,34.13,3.06,48.07,9.09c22.52,9.74,36.22,25.96,38.59,45.69
		c0.42,3.5,0.44,7.1,0.07,10.76c-0.07-1.08-0.17-2.16-0.31-3.24c-2.58-19.61-16.38-35.38-38.84-44.39
		c-22.33-8.96-50.31-10.09-78.79-3.17c-28.26,6.86-53.29,20.79-70.49,39.21c-15.59,16.7-22.96,35.64-20.77,53.34l0.22,1.78
		c-2.03-1.36-4.2-2.61-6.44-3.89c-1.56-0.89-3.14-1.8-4.71-2.76l-0.17-1.23c-2.58-18.42,4.38-36.82,20.69-54.68
		C287.15,451.33,315.6,435.56,345.5,428.58z M147.82,14.35c31.29,7.03,53.62,24.87,59.75,47.72l0.1,0.32
		c2.99,9.01,6.26,18.84,9.81,29.49c24.3,73,60.91,182.98,106.98,331.07c-25.06,8.85-47.93,23.2-63.42,40.16
		c-17.11,18.73-25.19,38.33-24.09,58.33c-20.91,3.5-41.02,10.06-58.94,18.99L59.86,27.98C86.13,10.98,120.81,8.28,147.82,14.35z
		 M41.68,43.84c3.97-4.68,8.4-8.78,13.17-12.37L172.8,543.12c-16.46,8.84-30.86,19.73-41.99,32.08
		c-9.55,10.6-16.39,21.73-20.45,32.96C66.27,414.81,36.71,255.37,11.34,111.5C11.52,89.36,21.7,66.62,41.68,43.84z M47.55,746.51
		c-5.35-14.65-0.47-32.23,13.06-47.03c13.57-14.84,33.49-26.18,57.68-32.89c3.7,2.06,7.52,3.18,11.04,3.97
		c-0.67,0.18-1.35,0.37-2.02,0.56c-23.12,6.32-43.14,17.62-56.38,31.83c-14.61,15.68-19.67,33.1-14.27,49.07
		c2.56,7.58,7.37,14.36,14.08,20.09C59.25,765.37,51.24,756.61,47.55,746.51z M211.16,813.22l36.51,164.5l-8.55,3.18l-36.68-164.68
		L211.16,813.22z M184.73,879.23c-1.46-6.69-1.27-13.77,0.58-21.04c2.44-9.6,7.7-19.26,15.37-28.52l34.49,155.73l1.36-0.51
		c-5.45,5.33-10.06,10.82-13.72,16.42c-3.22,4.92-5.61,9.84-7.15,14.68L184.73,879.23z M249.66,973.61l-35.08-158.03
		c4.54-3.93,9.51-7.73,14.91-11.36c24.08-16.12,54.49-27.56,85.62-32.19c10.57-1.57,20.77-2.35,30.52-2.35
		c17.83,0,34.11,2.63,48.22,7.8l-1.46-5.18l-0.5-1.79c-3.8-1.12-7.73-2.08-11.77-2.88c-19.45-4.33-41.77-4.78-65.85-1.2
		c-31.95,4.75-63.18,16.5-87.95,33.09c-4.84,3.25-9.35,6.65-13.54,10.15l-13.69,4.69l0,0l-1.7,0.58l1.73,7.83
		c-9.76,10.9-16.4,22.47-19.33,34.02c-1.84,7.23-2.2,14.31-1.1,21.12c0.19,1.48,0.43,2.94,0.76,4.39l5.12,22.92
		c-7.93-5.86-22.82-24.88-23.77-38.96c-0.23-3.42-0.1-6.92,0.39-10.48c6.45-22.17,25.03-44.43,52.6-62.92
		c28.79-19.28,65.13-32.94,102.33-38.48c39.83-5.93,75.44-2.44,102.99,10.08c10.95,4.98,19.94,11.24,26.73,18.51
		c5.82,8.53,8.81,18.14,8.6,28.33l-0.01,0.39l0.05,0.39c0.08,0.63,0.14,1.27,0.19,1.91l-0.01,0.2c-0.51,6.41-2.39,13.2-5.59,20.27
		l-6.5-20.96c-0.22-0.8-0.47-1.59-0.74-2.38c-5.03-14.83-17.19-26.98-35.16-35.15c-0.63-0.29-1.29-0.56-1.93-0.83l-4.02-13.25
		l-5.44,0.25l-3.82,6.48l43.48,159.07c-6.77-1.34-14.05-2.26-21.81-2.69c-34.58-1.93-75.37,5.4-111.9,20.13
		C281.13,953.26,263.66,962.96,249.66,973.61z M437.74,927.41L394.53,769.3l1.89-3.48l48.74,159.68L437.74,927.41z M446.04,834.36
		c-0.44-1.45-0.88-2.92-1.32-4.39l2.56,8.26c-0.02,0.03-0.03,0.06-0.05,0.09C446.83,837,446.43,835.68,446.04,834.36z
		 M440.44,816.18c-0.62-1.92-1.24-3.82-1.88-5.71c-0.14-0.41-0.3-0.81-0.45-1.21c0.38,0.92,0.74,1.85,1.06,2.79
		c0.25,0.74,0.48,1.49,0.7,2.27L440.44,816.18z M447.17,927.91h3.94L407.32,783.6c13.04,7.29,21.94,17.1,25.87,28.69
		c2.63,7.75,5.06,15.86,7.42,23.7c1.2,3.99,2.4,7.98,3.62,11.92l30.14,97.26c-7.75-7.02-18.84-12.42-32.47-15.91L447.17,927.91z
		 M213.92,786.67c28.27-18.93,64-32.36,100.59-37.81c39.01-5.81,73.8-2.44,100.61,9.75c4.89,2.22,9.36,4.73,13.4,7.47
		c-2.61-1.49-5.35-2.9-8.22-4.2c-28.05-12.75-64.22-16.31-104.59-10.31v0c-37.61,5.6-74.36,19.42-103.49,38.93
		c-18.05,12.11-32.33,25.84-42,40.15C179.18,815.09,194.16,799.92,213.92,786.67z M465.83,1007.6
		c-16.03,17.67-42.06,33.93-73.28,45.8c-30.93,11.76-64.54,18.24-94.64,18.25c-0.02,0-0.03,0-0.05,0
		c-30.42,0-54.51-6.51-67.85-18.33c-5.59-4.95-9-10.62-10.15-16.86l-0.56-2.47l0.4-0.08c-1.64-8.94,1.07-19.15,7.84-29.51
		c13.2-20.2,40.84-39.88,75.82-54.01c35.79-14.43,75.67-21.61,109.46-19.73c31.43,1.76,55.52,11.76,64.43,26.76
		c1.23,2.07,2.21,4.23,2.89,6.42c0,0,0,0.01,0,0.01l0.04-0.01l0.71,2.29C485.7,981.38,475.35,997.09,465.83,1007.6z"/>
	<path d="M343.68,537.52c4.5,2.04,9.6,3.01,14.86,3.01c11.66,0,24.07-4.77,32.33-13.24c6.33-6.5,9.22-14.38,7.91-21.62
		c-1.18-6.56-5.62-11.96-12.49-15.21c-14.58-6.9-36.18-2.2-48.14,10.47c-6.14,6.49-8.86,14.3-7.45,21.43
		C332.02,528.96,336.62,534.34,343.68,537.52z M342.28,504.81c7.1-7.52,18.45-11.86,28.85-11.86c4.58,0,8.97,0.84,12.74,2.62
		c0.09,0.04,0.18,0.09,0.28,0.14c0,0,0,0,0,0c0.09,4.03-1.82,8.33-5.42,12.03v0c-2.08,2.14-4.58,3.96-7.31,5.4
		c-0.1,0.05-0.21,0.1-0.31,0.15c-0.58,0.3-1.17,0.59-1.78,0.86c-7.79,3.45-16.98,4.04-23.85,0.92c-0.46-0.21-0.9-0.43-1.32-0.66
		c-0.08-0.05-0.16-0.1-0.24-0.14c-0.34-0.19-0.67-0.39-0.99-0.6c-0.07-0.05-0.13-0.1-0.2-0.15c-0.32-0.22-0.62-0.44-0.92-0.67
		c-0.07-0.05-0.12-0.11-0.19-0.16c-0.28-0.24-0.56-0.47-0.82-0.72c-0.07-0.07-0.13-0.14-0.2-0.21c-0.24-0.24-0.47-0.49-0.69-0.74
		c-0.08-0.09-0.15-0.19-0.23-0.29c-0.19-0.24-0.37-0.47-0.54-0.72c-0.09-0.13-0.16-0.26-0.25-0.4c-0.04-0.07-0.08-0.14-0.13-0.21
		C339.72,507.83,340.89,506.29,342.28,504.81z M337.32,512.31c0.07,0.09,0.14,0.18,0.21,0.27c0.28,0.35,0.58,0.68,0.89,1.01
		c0.12,0.12,0.24,0.24,0.36,0.35c0.24,0.23,0.48,0.46,0.74,0.68c0.13,0.11,0.26,0.23,0.4,0.34c0.37,0.3,0.75,0.59,1.15,0.87
		c0.1,0.07,0.2,0.13,0.3,0.19c0.35,0.23,0.7,0.45,1.07,0.66c0.14,0.08,0.27,0.16,0.41,0.23c0.47,0.26,0.95,0.51,1.46,0.74
		c0.62,0.28,1.27,0.53,1.92,0.76c0.14,0.05,0.27,0.1,0.41,0.14c0.64,0.21,1.29,0.4,1.95,0.57c0.12,0.03,0.24,0.05,0.36,0.08
		c0.61,0.14,1.24,0.27,1.87,0.37c0.1,0.02,0.21,0.04,0.31,0.05c0.68,0.1,1.38,0.18,2.08,0.24c0.16,0.01,0.32,0.02,0.48,0.03
		c0.69,0.05,1.39,0.08,2.09,0.08c0.01,0,0.03,0,0.04,0c0.08,0,0.15-0.01,0.23-0.01c0.65-0.01,1.31-0.03,1.97-0.08
		c0.21-0.01,0.41-0.03,0.62-0.05c0.66-0.06,1.31-0.13,1.97-0.22c0.08-0.01,0.16-0.02,0.24-0.03c0.72-0.11,1.44-0.24,2.16-0.39
		c0.2-0.04,0.41-0.09,0.61-0.14c0.59-0.14,1.18-0.29,1.77-0.45c0.15-0.04,0.29-0.08,0.44-0.12c0.7-0.21,1.4-0.44,2.09-0.68
		c0.19-0.07,0.37-0.14,0.56-0.21c0.55-0.21,1.1-0.43,1.65-0.67c0.17-0.07,0.34-0.14,0.51-0.22c0.67-0.3,1.33-0.62,1.98-0.97
		c0.15-0.08,0.3-0.16,0.45-0.25c0.53-0.29,1.05-0.59,1.56-0.9c0.17-0.11,0.35-0.21,0.52-0.32c0.62-0.4,1.23-0.81,1.82-1.24
		c0.09-0.07,0.18-0.14,0.27-0.21c0.51-0.38,1-0.78,1.49-1.19c0.16-0.13,0.31-0.27,0.46-0.4c0.55-0.48,1.08-0.98,1.59-1.5
		c0.01-0.01,0.01-0.01,0.02-0.02c0.01-0.01,0.01-0.01,0.02-0.02c0.4-0.41,0.77-0.83,1.13-1.25c0.09-0.1,0.18-0.21,0.26-0.31
		c0.35-0.42,0.68-0.84,0.99-1.27c0.01-0.01,0.01-0.02,0.02-0.03c0.35-0.48,0.66-0.96,0.96-1.45c0.02-0.03,0.04-0.07,0.06-0.1
		c1.51-2.49,2.42-5.09,2.69-7.67c0-0.03,0.01-0.06,0.01-0.09c3.11,5.65,1.56,12.88-4.41,19.02c-9.12,9.38-25.45,12.98-36.39,8.03
		c-5.38-2.44-8.59-6.56-9.11-11.4C337.09,512.89,337.2,512.6,337.32,512.31z M393.2,506.66c0.98,5.42-1.35,11.49-6.39,16.66
		c-10.25,10.52-28.55,14.56-40.8,9.02c-5.34-2.4-8.8-6.35-9.74-11.1c-0.13-0.64-0.2-1.29-0.24-1.95c1.82,3.28,4.85,6.03,8.9,7.86
		c3.77,1.71,8.04,2.52,12.44,2.52c9.79,0,20.21-4.02,27.15-11.15c5.09-5.23,7.33-11.37,6.61-16.94
		C392.17,503.14,392.87,504.84,393.2,506.66z"/>
	<path d="M228.46,655.81c1.76,0.69,3.74,1.02,5.77,1.02c4.9,0,10.1-1.9,13.28-5.18h0c2.22-2.3,3.16-4.93,2.63-7.43
		c-0.53-2.48-2.44-4.5-5.4-5.69c-6.08-2.44-14.71-0.57-19.24,4.17c-2.2,2.32-3.1,4.95-2.55,7.43
		C223.51,652.62,225.47,654.64,228.46,655.81z M225.92,643.09c3.08-3.22,8.11-5.08,12.88-5.08c2.02,0,3.99,0.33,5.74,1.04
		c2.77,1.12,4.57,2.99,5.05,5.28c0.49,2.3-0.39,4.76-2.48,6.91h0c-4.36,4.5-12.63,6.31-18.44,4.03c-2.82-1.1-4.65-2.97-5.16-5.28
		C223,647.72,223.85,645.26,225.92,643.09z"/>
	<path d="M229.98,654.07c4.87,1.9,11.75,0.37,15.4-3.41c3.65-3.77,2.68-8.41-2.2-10.39c-4.91-1.97-11.88-0.41-15.51,3.4
		C224.04,647.51,225.08,652.13,229.98,654.07z"/>
	<path d="M171.15,710.86c-13.78-6.52-34.18-2.08-45.47,9.88c-5.82,6.15-8.39,13.55-7.05,20.3c1.24,6.27,5.61,11.38,12.3,14.39
		c4.25,1.93,9.07,2.84,14.04,2.84c11.01,0,22.74-4.5,30.53-12.5c6-6.15,8.73-13.62,7.49-20.49
		C181.87,719.06,177.66,713.94,171.15,710.86z M169.15,734.94c-8.56,8.81-23.88,12.19-34.13,7.53c-4.94-2.24-7.92-5.96-8.5-10.36
		c0.17,0.21,0.36,0.4,0.54,0.6c0.12,0.14,0.24,0.27,0.37,0.41c0.27,0.29,0.56,0.56,0.86,0.83c0.16,0.14,0.32,0.28,0.48,0.41
		c0.29,0.24,0.59,0.48,0.9,0.7c0.24,0.18,0.5,0.34,0.75,0.5c0.26,0.17,0.52,0.35,0.8,0.5c0.56,0.32,1.14,0.63,1.75,0.9
		c0.59,0.27,1.2,0.5,1.82,0.72c0.13,0.04,0.25,0.09,0.38,0.13c0.61,0.2,1.22,0.38,1.85,0.54c0.11,0.03,0.21,0.05,0.32,0.07
		c0.59,0.14,1.18,0.26,1.78,0.35c0.09,0.02,0.19,0.03,0.28,0.05c0.65,0.1,1.31,0.17,1.97,0.22c0.14,0.01,0.29,0.02,0.43,0.03
		c0.66,0.04,1.32,0.07,1.98,0.07c0.02,0,0.03,0,0.05,0c0.05,0,0.11,0,0.16,0c0.64,0,1.27-0.03,1.91-0.08
		c0.19-0.01,0.37-0.03,0.56-0.04c0.63-0.05,1.26-0.12,1.89-0.21c0.07-0.01,0.13-0.01,0.2-0.02c0.68-0.1,1.37-0.23,2.05-0.37
		c0.19-0.04,0.37-0.08,0.55-0.12c0.57-0.13,1.14-0.27,1.71-0.43c0.13-0.04,0.25-0.07,0.38-0.1c0.67-0.2,1.33-0.42,1.99-0.65
		c0.17-0.06,0.33-0.12,0.5-0.19c0.54-0.2,1.07-0.42,1.59-0.65c0.15-0.07,0.3-0.13,0.45-0.2c0.64-0.29,1.27-0.59,1.89-0.92
		c0.13-0.07,0.26-0.14,0.38-0.21c0.51-0.28,1.02-0.57,1.51-0.88c0.15-0.09,0.31-0.19,0.46-0.28c0.59-0.38,1.17-0.77,1.73-1.18
		c0.08-0.06,0.15-0.11,0.22-0.17c0.49-0.37,0.97-0.76,1.44-1.16c0.14-0.12,0.28-0.24,0.42-0.36c0.52-0.46,1.04-0.94,1.52-1.44
		c0.4-0.41,0.77-0.83,1.13-1.25c0.1-0.12,0.2-0.24,0.3-0.36c0.31-0.38,0.6-0.76,0.88-1.14c0.15-0.21,0.28-0.41,0.42-0.62
		c0.12-0.18,0.24-0.37,0.36-0.55c0.93-1.48,1.63-3,2.1-4.54c0.01-0.03,0.02-0.06,0.03-0.09c0.21-0.7,0.38-1.4,0.49-2.1
		c0.49,0.44,0.95,0.89,1.37,1.37C175.5,724.93,173.64,730.32,169.15,734.94z M165.32,727.51c-0.49,0.5-1,0.99-1.54,1.45
		c-5.34,4.63-12.83,7.27-19.83,7.34c-3.5,0.03-6.88-0.58-9.81-1.91c-0.46-0.21-0.89-0.43-1.31-0.66c-0.31-0.17-0.61-0.36-0.9-0.55
		c-0.1-0.06-0.2-0.12-0.3-0.18c-1.14-0.77-2.1-1.66-2.89-2.64c0-0.01-0.01-0.01-0.02-0.02c-0.22-0.28-0.42-0.57-0.62-0.87
		c-0.04-0.06-0.08-0.11-0.12-0.17c-0.15-0.25-0.29-0.5-0.42-0.76c-0.06-0.12-0.13-0.23-0.19-0.35c-0.06-0.12-0.1-0.24-0.15-0.36
		c0.74-1.09,1.59-2.16,2.57-3.19c6.65-7.04,17.28-11.11,27.01-11.11c4.28,0,8.4,0.79,11.92,2.45c0.58,0.27,1.13,0.57,1.65,0.88
		c0,0.03-0.01,0.07-0.01,0.1C170.24,720.53,168.48,724.26,165.32,727.51z M171.44,741.82c-9.6,9.85-26.72,13.64-38.19,8.45
		c-4.97-2.24-8.19-5.9-9.07-10.32c-0.33-1.66-0.31-3.4,0.03-5.16c1.32,4.34,4.66,8.01,9.62,10.26c3.55,1.61,7.58,2.38,11.74,2.38
		c9.23,0,19.06-3.79,25.6-10.52c3.35-3.44,5.41-7.29,6.11-11.1c0.04,0.16,0.09,0.32,0.12,0.48
		C178.32,731.34,176.15,737,171.44,741.82z"/>
	<path d="M401.78,942.46c-27.82-1.56-61.53,3.96-93.42,16.82c-31.51,12.72-54.15,29.75-65.1,46.49
		c-10.51,16.09-10.09,31.7,2.9,43.21c12.39,10.98,34.14,16.3,59.12,16.3c24.43-0.01,52.75-5.1,79.75-15.36
		c27.27-10.36,49-24.4,62.27-39.02c13.76-15.17,18.92-30.99,10.78-44.69C449.94,952.51,428.91,943.98,401.78,942.46z"/>
</g>
</svg>