<?xml version="1.0" encoding="utf-8"?>
<!-- Generator: Adobe Illustrator 20.0.0, SVG Export Plug-In . SVG Version: 6.00 Build 0)  -->
<svg version="1.1" id="Layer_1" xmlns="http://www.w3.org/2000/svg" xmlns:xlink="http://www.w3.org/1999/xlink" x="0px" y="0px"
	 viewBox="0 0 481.3 226.92" style="enable-background:new 0 0 481.3 226.92;" xml:space="preserve">
<style type="text/css">
.fillpulse {
	animation: fillpulse 6s infinite;
}

@keyframes fillpulse {
	0%, 20%, 40%, 60%, 100% {
		fill: rgba(255,255,255,0);
	}
	10%, 30%, 50% {
		fill: #0078CC;
	}
}
</style>
<g>
	<path d="M388,20.16c-21.79,0-42.81,7.6-59.53,21.46C306.8,15.13,274.97,0,240.65,0c-34.32,0-66.15,15.13-87.82,41.62
		c-16.71-13.86-37.74-21.46-59.53-21.46C41.85,20.16,0,62.01,0,113.46c0,51.45,41.85,93.3,93.3,93.3c21.79,0,42.81-7.6,59.53-21.46
		c21.67,26.49,53.5,41.62,87.82,41.62c34.32,0,66.15-15.13,87.82-41.62c16.71,13.86,37.74,21.46,59.53,21.46
		c51.45,0,93.3-41.85,93.3-93.3C481.3,62.01,439.45,20.16,388,20.16z M388,201.09c-21.4,0-42.02-7.81-58.04-21.98l-1.31-1.16
		c-0.56-2.83-0.87-6.51-0.92-8.86l6.22,5.51c14.92,13.2,34.11,20.47,54.04,20.47c45,0,81.6-36.61,81.6-81.6
		c0-44.99-36.61-81.6-81.6-81.6c-19.93,0-39.12,7.27-54.04,20.47l-5.64,4.99c0.21-2.97,0.5-5.9,0.84-8.8l0.8-0.71
		C345.98,33.64,366.6,25.83,388,25.83c48.32,0,87.63,39.31,87.63,87.63C475.63,161.78,436.32,201.09,388,201.09z M240.65,221.25
		c-33.54,0-64.6-15.22-85.19-41.76l-0.23-0.29c0.67-2.9,0.89-5.48,0.89-8.69l4.1,5.29c19.45,25.05,48.76,39.42,80.43,39.42
		s60.98-14.37,80.43-39.42l3.88-5c0.14,2.79,0.59,6.05,1.1,8.42l-0.22,0.28C305.25,206.03,274.19,221.25,240.65,221.25z
		 M151.34,179.11c-16.02,14.17-36.63,21.98-58.04,21.98c-48.32,0-87.63-39.31-87.63-87.63c0-48.32,39.31-87.63,87.63-87.63
		c21.4,0,42.02,7.81,58.04,21.98l1.04,0.92c0.61,3.32,0.92,6.29,0.94,8.88l-5.98-5.29c-14.92-13.2-34.11-20.47-54.04-20.47
		c-45,0-81.6,36.61-81.6,81.6c0,45,36.61,81.6,81.6,81.6c19.93,0,39.12-7.27,54.04-20.47l5.93-5.25c0.05,3.38-0.09,5.89-0.68,8.65
		L151.34,179.11z M240.65,5.67c33.54,0,64.6,15.22,85.19,41.76l0.51,0.66c-0.34,2.87-0.63,5.79-0.85,8.74l-4.43-5.7
		c-19.45-25.05-48.76-39.42-80.43-39.42s-60.98,14.37-80.43,39.42l-4.1,5.28c-0.1-2.56-0.43-5.4-1.02-8.53l0.35-0.45
		C176.05,20.89,207.11,5.67,240.65,5.67z M326.49,164.2l-0.72,0.93c-0.05,0.03-0.1,0.06-0.15,0.1c-0.12,0.11-0.22,0.28-0.31,0.49
		l-6.47,8.34c-18.91,24.36-47.41,38.33-78.19,38.33c-30.79,0-59.29-13.97-78.19-38.33l-7.65-9.85l-9.34,8.27
		c-14.4,12.74-32.93,19.76-52.16,19.76c-43.43,0-78.77-35.33-78.77-78.77S49.87,34.69,93.3,34.69c19.24,0,37.76,7.02,52.16,19.76
		l9.34,8.27l7.65-9.85c18.91-24.36,47.41-38.33,78.19-38.33c30.79,0,59.29,13.97,78.19,38.33l7.65,9.85l9.34-8.27
		c14.4-12.74,32.93-19.76,52.16-19.76c43.43,0,78.77,35.33,78.77,78.77s-35.33,78.77-78.77,78.77c-19.24,0-37.76-7.02-52.16-19.76
		L326.49,164.2z"/>
	<path d="M93.3,87.12c-14.53,0-26.34,11.82-26.34,26.34S78.77,139.8,93.3,139.8s26.34-11.82,26.34-26.34
		S107.83,87.12,93.3,87.12z M93.3,136.97c-12.96,0-23.51-10.55-23.51-23.51c0-12.96,10.55-23.51,23.51-23.51
		s23.51,10.55,23.51,23.51C116.81,126.42,106.26,136.97,93.3,136.97z"/>
	<path d="M93.3,92.32c-11.66,0-21.14,9.48-21.14,21.14s9.48,21.14,21.14,21.14s21.14-9.48,21.14-21.14
		S104.96,92.32,93.3,92.32z M93.3,131.76c-10.09,0-18.3-8.21-18.3-18.3c0-10.09,8.21-18.3,18.3-18.3s18.3,8.21,18.3,18.3
		C111.6,123.55,103.39,131.76,93.3,131.76z"/>
	<path d="M388,139.8c14.53,0,26.34-11.82,26.34-26.34S402.53,87.12,388,87.12s-26.34,11.82-26.34,26.34
		S373.47,139.8,388,139.8z M388,89.95c12.96,0,23.51,10.55,23.51,23.51c0,12.96-10.55,23.51-23.51,23.51s-23.51-10.55-23.51-23.51
		C364.49,100.5,375.04,89.95,388,89.95z"/>
	<path d="M388,134.6c11.66,0,21.14-9.48,21.14-21.14S399.66,92.32,388,92.32s-21.14,9.48-21.14,21.14
		S376.34,134.6,388,134.6z M388,95.16c10.09,0,18.3,8.21,18.3,18.3c0,10.09-8.21,18.3-18.3,18.3s-18.3-8.21-18.3-18.3
		C369.7,103.37,377.91,95.16,388,95.16z"/>
	<path d="M261.67,97.08c-9.03,0-16.38,7.35-16.38,16.38c0,9.03,7.35,16.38,16.38,16.38c9.03,0,16.38-7.35,16.38-16.38
		C278.05,104.43,270.7,97.08,261.67,97.08z M261.67,127c-7.47,0-13.54-6.08-13.54-13.54c0-7.47,6.08-13.54,13.54-13.54
		c7.47,0,13.54,6.08,13.54,13.54C275.21,120.93,269.14,127,261.67,127z"/>
</g>
<g>
	<path class="fillpulse" d="M261.67,101.18c6.78,0,12.28,5.5,12.28,12.28c0,6.78-5.5,12.28-12.28,12.28c-6.78,0-12.28-5.5-12.28-12.28
		C249.39,106.68,254.89,101.18,261.67,101.18"/>
</g>
</svg>