<?xml version="1.0" standalone="no"?>
<!DOCTYPE svg PUBLIC "-//W3C//DTD SVG 20010904//EN"
        "http://www.w3.org/TR/2001/REC-SVG-20010904/DTD/svg10.dtd">
<svg version="1.0" xmlns="http://www.w3.org/2000/svg"
     width="500.000000pt" height="500.000000pt" viewBox="0 0 500.000000 500.000000"
     preserveAspectRatio="xMidYMid meet">
    <metadata>
        Created by potrace 1.13, written by Peter Selinger 2001-2015
    </metadata>
    <g transform="translate(0.000000,500.000000) scale(0.100000,-0.100000)"
       fill="#000000" stroke="none">
        <path d="M1475 4580 c-120 -16 -199 -56 -283 -142 -64 -65 -99 -128 -227 -413
-64 -143 -150 -332 -190 -420 -40 -88 -106 -232 -145 -320 -40 -88 -160 -353
-267 -590 -107 -236 -201 -454 -209 -485 -11 -47 -12 -90 0 -290 13 -225 15
-238 42 -294 53 -108 206 -219 355 -257 73 -19 77 -35 42 -173 -24 -96 -28
-130 -28 -256 0 -124 3 -156 23 -220 67 -215 199 -344 412 -402 74 -20 107
-23 260 -22 161 0 182 2 265 27 117 36 260 107 360 181 113 82 334 308 447
456 143 188 248 348 538 820 300 490 425 672 595 875 333 395 675 586 914 508
102 -33 174 -126 184 -238 6 -69 -23 -182 -85 -332 -46 -109 -58 -129 -90
-149 -20 -13 -44 -37 -54 -53 -13 -22 -24 -29 -38 -26 -149 31 -201 32 -269 9
-76 -26 -101 -64 -246 -384 -155 -339 -158 -354 -121 -498 l21 -84 -31 -76
c-29 -70 -41 -118 -56 -223 -5 -31 -2 -39 21 -58 49 -38 63 -31 152 76 17 21
43 65 57 97 15 33 31 65 36 71 13 15 270 -33 270 -51 0 -6 -8 -29 -17 -50 -9
-22 -20 -61 -25 -89 -5 -27 -11 -64 -14 -82 -8 -44 24 -75 74 -71 29 2 41 10
59 38 12 19 32 44 43 55 11 11 38 57 59 103 31 64 45 82 61 82 28 0 90 33 118
63 12 13 86 161 164 328 139 298 141 305 142 374 1 94 -29 207 -63 244 -15 16
-50 37 -77 47 -47 16 -52 21 -60 58 -8 37 -4 53 49 180 100 240 129 384 103
499 -19 80 -44 133 -89 183 -62 71 -125 113 -213 140 -77 24 -96 26 -197 21
-261 -12 -505 -145 -779 -423 -230 -235 -404 -477 -748 -1044 -344 -565 -504
-799 -687 -1002 -278 -307 -553 -445 -844 -424 -209 15 -325 79 -394 215 -58
116 -72 292 -34 450 21 84 23 88 56 100 19 7 39 24 45 37 10 20 18 24 58 24
25 0 54 6 64 13 14 11 36 10 124 -6 252 -44 407 -10 529 115 52 53 86 118 338
653 18 39 61 129 95 200 34 72 122 256 195 410 73 154 152 321 175 370 23 50
81 169 127 265 121 250 152 324 165 399 10 63 9 73 -36 246 -65 251 -83 299
-135 357 -53 59 -104 90 -196 117 -124 37 -773 156 -820 150 -5 -1 -37 -5 -70
-9z m173 -37 c-10 -2 -26 -2 -35 0 -10 3 -2 5 17 5 19 0 27 -2 18 -5z m-294
-38 c-127 -61 -179 -133 -304 -415 -23 -52 -55 -122 -70 -155 -15 -33 -91
-202 -170 -375 -78 -173 -175 -387 -215 -475 -40 -88 -114 -252 -165 -365 -51
-113 -105 -232 -120 -265 -81 -180 -103 -261 -88 -328 18 -82 79 -141 193
-185 49 -19 393 -90 645 -133 288 -49 462 15 548 201 65 140 369 784 452 955
173 357 321 676 451 974 50 114 59 143 59 193 0 143 -105 240 -317 293 -54 13
-78 22 -53 19 71 -10 190 -42 239 -66 60 -29 118 -89 146 -152 37 -81 115
-398 115 -466 0 -80 -12 -110 -252 -615 -113 -236 -221 -464 -240 -505 -20
-41 -72 -149 -115 -240 -44 -91 -158 -331 -254 -535 -155 -329 -180 -376 -224
-421 -113 -114 -257 -145 -490 -106 l-100 17 -12 100 c-15 137 -22 143 -211
179 -77 15 -151 25 -162 21 -13 -4 -30 -25 -41 -51 -17 -37 -18 -52 -10 -106
6 -34 9 -64 7 -66 -9 -8 -144 32 -201 59 -121 57 -176 126 -194 239 -6 36 -13
155 -17 265 l-7 200 36 85 c19 47 56 130 82 185 26 55 62 134 80 175 18 41 89
199 158 350 385 849 463 1022 494 1094 109 255 193 368 314 426 35 16 69 30
74 30 6 0 -22 -16 -61 -35z m364 28 c-10 -2 -26 -2 -35 0 -10 3 -2 5 17 5 19
0 27 -2 18 -5z m65 -10 c-7 -2 -21 -2 -30 0 -10 3 -4 5 12 5 17 0 24 -2 18 -5z
m-48 -23 c445 -81 600 -116 664 -152 90 -50 150 -136 151 -216 0 -70 -135
-371 -670 -1487 -224 -468 -310 -652 -310 -665 0 -6 -22 -33 -48 -59 -55 -55
-125 -86 -236 -102 -82 -12 -146 -3 -580 82 -320 62 -398 96 -447 191 -36 71
-21 148 71 348 76 166 190 418 290 640 51 113 127 282 170 375 43 94 128 283
190 420 61 138 132 293 156 345 128 271 273 339 599 280z m125 10 c20 -6 21
-8 5 -8 -11 0 -31 4 -45 8 -20 6 -21 8 -5 8 11 0 31 -4 45 -8z m73 -17 c-7 -2
-21 -2 -30 0 -10 3 -4 5 12 5 17 0 24 -2 18 -5z m50 -10 c-7 -2 -19 -2 -25 0
-7 3 -2 5 12 5 14 0 19 -2 13 -5z m50 -10 c-7 -2 -19 -2 -25 0 -7 3 -2 5 12 5
14 0 19 -2 13 -5z m50 -10 c-7 -2 -19 -2 -25 0 -7 3 -2 5 12 5 14 0 19 -2 13
-5z m60 -10 c-7 -2 -21 -2 -30 0 -10 3 -4 5 12 5 17 0 24 -2 18 -5z m2238
-1123 c132 -25 245 -109 304 -226 28 -55 30 -66 30 -174 0 -109 -3 -121 -44
-240 -24 -69 -59 -160 -78 -202 l-35 -76 -32 19 c-17 10 -39 19 -48 19 -25 0
-23 7 26 123 121 282 122 424 6 547 -43 46 -104 76 -186 91 -210 39 -537 -142
-812 -451 -197 -221 -344 -433 -686 -988 -278 -452 -358 -575 -488 -747 -232
-309 -428 -490 -643 -598 -162 -81 -312 -113 -490 -104 -122 6 -241 33 -325
74 -74 36 -176 140 -217 223 -89 178 -94 421 -15 649 30 84 50 98 99 66 29
-19 29 -21 -12 -170 -25 -91 -27 -110 -23 -235 4 -112 9 -146 30 -201 70 -188
209 -274 458 -286 289 -14 537 102 801 373 194 201 332 393 615 852 73 119
177 289 231 377 290 471 512 763 728 958 288 259 567 372 806 327z m124 -924
c32 -14 74 -71 61 -83 -3 -3 -53 2 -110 13 l-104 18 14 27 c7 15 19 29 26 32
25 10 79 7 113 -7z m-498 -85 c-15 -10 -34 -27 -41 -37 -28 -41 -266 -582
-266 -605 0 -29 31 -66 67 -80 14 -5 113 -27 220 -49 397 -81 403 -79 530 195
33 72 84 181 113 244 60 130 73 195 46 237 -17 25 -17 25 4 14 37 -20 62 -70
57 -115 -4 -36 -244 -574 -283 -632 -21 -33 -89 -63 -143 -63 -61 0 -551 98
-581 117 -38 24 -60 55 -60 88 0 17 32 100 70 185 39 85 101 222 137 304 64
142 114 216 146 216 7 0 -1 -8 -16 -19z m383 -21 c85 -17 176 -37 201 -46 112
-37 109 -70 -45 -399 -64 -137 -124 -261 -134 -275 -53 -72 -114 -74 -427 -10
-216 44 -258 61 -263 102 -4 31 249 597 279 624 30 27 107 44 174 39 33 -3
130 -19 215 -35z m373 -330 c-7 -39 -26 -84 -98 -240 -37 -80 -83 -181 -103
-225 -92 -199 -105 -217 -179 -240 -22 -6 -23 -6 -6 22 22 39 11 79 -28 102
l-31 19 41 7 c87 14 106 40 220 291 58 126 121 263 140 304 l35 75 7 -45 c4
-25 5 -56 2 -70z m-3950 -371 c66 -12 127 -29 138 -38 13 -12 21 -38 28 -96 5
-44 6 -84 2 -88 -5 -5 -12 17 -16 48 -11 91 -25 101 -192 133 -79 14 -143 31
-143 37 0 19 24 36 45 31 11 -3 73 -15 138 -27z m-103 -48 c24 -7 24 -7 -8
-14 -26 -5 -36 -15 -49 -44 -14 -34 -17 -36 -24 -18 -4 11 -8 35 -8 53 -1 30
1 32 32 31 17 -1 43 -4 57 -8z m3061 -41 l34 -8 -32 -1 c-18 -1 -42 -10 -53
-21 -19 -19 -19 -19 -30 18 -16 59 -13 65 19 41 16 -11 44 -25 62 -29z m-2868
-2 c29 -11 32 -20 46 -108 10 -64 8 -70 -26 -70 -20 0 -24 3 -17 18 4 9 9 33
11 52 5 40 -20 80 -71 112 l-31 19 30 -6 c17 -4 42 -11 58 -17z m-73 -28 c52
-26 67 -58 50 -100 -15 -36 -21 -37 -46 -9 -29 33 -89 59 -133 59 -40 0 -41 0
-29 28 22 50 29 55 75 48 24 -3 61 -15 83 -26z m3214 -26 c122 -24 182 -40
170 -45 -28 -10 -40 -29 -48 -72 -4 -21 -13 -40 -19 -43 -7 -2 -67 6 -132 18
l-120 24 3 42 c4 51 -13 82 -60 106 -27 14 -28 16 -8 12 14 -2 110 -21 214
-42z m-214 -13 c38 -27 36 -60 -9 -150 l-41 -80 -36 24 c-20 14 -47 25 -60 25
-13 0 -24 3 -24 6 0 19 74 181 88 192 18 14 46 8 82 -17z m-3067 -45 c39 -16
90 -73 80 -89 -4 -6 -9 -3 -14 10 -19 51 -115 96 -158 73 -28 -14 -36 -13 -21
5 16 19 70 19 113 1z m-166 -2 c-3 -3 -12 -4 -19 -1 -8 3 -5 6 6 6 11 1 17 -2
13 -5z m3695 -34 c58 -16 62 -36 27 -111 -17 -35 -37 -79 -45 -97 l-14 -34
-31 26 c-18 15 -43 26 -61 26 -20 0 -29 4 -25 13 2 6 19 49 36 94 29 73 37 84
71 92 3 0 22 -4 42 -9z m-588 -160 c26 -9 33 -33 18 -57 -6 -10 -16 -9 -44 6
-35 17 -36 19 -22 40 18 24 15 24 48 11z m-17 -97 c17 -22 7 -33 -27 -33 -29
0 -49 28 -35 50 8 14 46 3 62 -17z m508 4 c13 -10 16 -21 11 -40 -6 -25 -7
-25 -34 -11 -15 7 -33 14 -39 14 -10 0 -10 6 -1 25 12 28 35 32 63 12z m-35
-85 c27 -22 20 -42 -14 -42 -28 0 -50 24 -42 45 7 20 29 19 56 -3z"/>
    </g>
</svg>