
<?xml version="1.0" standalone="no"?>
<!DOCTYPE svg PUBLIC "-//W3C//DTD SVG 20010904//EN"
        "http://www.w3.org/TR/2001/REC-SVG-20010904/DTD/svg10.dtd">
<svg version="1.0" xmlns="http://www.w3.org/2000/svg"
     width="500.000000pt" height="500.000000pt" viewBox="0 0 500.000000 500.000000"
     preserveAspectRatio="xMidYMid meet">
    <metadata>
        Created by potrace 1.13, written by Peter Selinger 2001-2015
    </metadata>
    <g transform="translate(0.000000,500.000000) scale(0.100000,-0.100000)"
       fill="#000000" stroke="none">
        <path d="M2216 4844 c-9 -8 -16 -20 -16 -25 0 -5 -44 -9 -98 -9 -179 0 -300
-49 -423 -170 -54 -54 -85 -94 -107 -141 -66 -139 -63 -20 -60 -1941 l3 -1743
26 -66 c65 -169 172 -280 330 -342 112 -45 173 -49 666 -45 408 4 464 6 513
22 92 30 165 72 231 133 77 72 121 139 154 236 l25 76 0 1753 c0 1543 -2 1761
-15 1813 -49 186 -216 349 -411 400 -32 8 -100 15 -151 15 -85 0 -94 2 -117
25 l-25 25 -255 0 c-218 0 -257 -2 -270 -16z m528 -10 c46 -18 -21 -24 -260
-24 -241 0 -277 3 -257 23 8 9 496 9 517 1z m322 -75 c184 -67 325 -226 363
-407 8 -37 11 -563 11 -1770 0 -1888 4 -1763 -61 -1897 -40 -82 -149 -190
-236 -234 -98 -49 -160 -61 -316 -61 l-138 0 3 42 c3 47 28 67 28 22 l0 -27
118 6 c64 3 143 12 175 21 148 41 259 127 321 248 69 138 66 32 66 1894 0
1078 -4 1701 -10 1735 -16 87 -75 196 -144 265 -106 106 -203 143 -393 151
l-133 6 0 -25 c0 -17 -7 -27 -20 -31 -14 -3 -20 -14 -20 -31 l0 -26 -189 0
-188 0 -6 30 c-4 18 -13 30 -22 30 -9 0 -15 9 -15 25 l0 25 -110 0 c-169 0
-269 -29 -377 -111 -67 -50 -148 -165 -172 -244 -19 -60 -19 -123 -22 -1801
-1 -1360 1 -1749 10 -1784 34 -122 143 -257 258 -318 81 -43 173 -62 301 -62
l102 0 0 26 c0 43 25 22 28 -24 l3 -42 -133 0 c-88 0 -154 5 -193 15 -190 50
-339 190 -395 374 -20 62 -20 102 -20 1815 l0 1751 25 69 c67 192 232 331 433
366 26 5 261 8 522 7 l475 -2 71 -26z m-818 -35 c-3 -14 -21 -17 -118 -19
-146 -4 -225 -27 -312 -93 -109 -83 -167 -181 -188 -321 -7 -43 -10 -649 -8
-1761 l3 -1695 37 -78 c65 -135 172 -225 313 -262 35 -9 102 -15 162 -15 82 0
103 -3 103 -14 0 -34 -191 -31 -309 6 -155 48 -274 171 -326 338 -16 51 -17
173 -15 1770 1 1876 -1 1789 60 1896 52 91 124 160 214 204 98 49 139 57 279
59 96 1 108 -1 105 -15z m702 6 c110 -14 220 -71 298 -154 78 -83 118 -166
133 -276 16 -113 4 -3394 -12 -3473 -16 -74 -75 -182 -130 -236 -92 -91 -214
-135 -404 -147 -103 -7 -105 -6 -105 15 0 20 4 21 108 21 122 0 184 14 271 60
117 63 196 172 226 317 21 98 22 3421 1 3498 -39 147 -142 256 -299 317 -38
15 -86 23 -177 27 -108 5 -125 8 -128 24 -3 15 5 17 70 17 40 0 107 -5 148
-10z m-679 -85 c5 -16 6 -39 3 -51 -5 -20 -11 -21 -127 -22 -136 0 -179 -11
-252 -63 -25 -18 -60 -55 -80 -83 -63 -93 -65 -105 -65 -446 0 -291 -1 -308
-19 -313 -23 -6 -34 -48 -21 -81 8 -22 16 -26 50 -26 22 0 40 -4 40 -10 0 -6
-28 -10 -63 -10 -37 0 -68 -5 -76 -12 -10 -11 -11 66 -9 387 4 381 5 403 25
457 42 112 120 203 223 259 52 29 145 45 254 45 l109 -1 8 -30z m714 13 c69
-15 132 -48 194 -104 61 -55 94 -104 124 -183 l22 -56 3 -1660 c1 -1044 -1
-1691 -8 -1743 -25 -214 -177 -372 -385 -402 -38 -5 -103 -10 -142 -10 -66 0
-73 2 -73 20 0 19 -7 20 -235 20 -202 0 -235 -2 -235 -15 0 -12 -20 -15 -118
-15 -142 0 -196 14 -284 73 -112 75 -185 199 -201 343 l-5 41 23 -23 c18 -18
30 -21 67 -17 28 3 48 1 52 -6 5 -7 -7 -11 -38 -11 -39 0 -46 -3 -51 -23 -4
-12 -1 -35 4 -50 8 -22 17 -27 43 -27 28 0 40 -9 78 -58 50 -63 127 -114 199
-133 64 -16 746 -24 854 -10 87 12 180 49 232 94 17 14 44 49 59 77 62 115 58
2 63 1777 4 1180 2 1641 -7 1695 -25 166 -109 270 -246 307 -23 6 -93 11 -156
12 l-113 0 3 42 c6 73 0 70 120 63 59 -4 130 -12 157 -18z m-315 -48 c0 -6
-67 -10 -180 -10 -113 0 -180 4 -180 10 0 6 67 10 180 10 113 0 180 -4 180
-10z m-87 -27 c-51 -2 -135 -2 -185 0 -51 1 -10 3 92 3 102 0 143 -2 93 -3z
m370 -34 c86 -18 155 -63 195 -129 72 -121 67 1 70 -1560 1 -773 -2 -1531 -6
-1685 -8 -252 -11 -286 -31 -336 -47 -122 -153 -198 -307 -220 -54 -7 -205 -9
-445 -7 -335 4 -369 6 -427 25 -84 28 -177 101 -198 157 -5 13 1 16 25 16 23
0 39 -9 61 -33 16 -18 53 -46 82 -63 l53 -29 434 -3 c501 -3 510 -2 591 74 83
78 92 106 102 351 4 116 7 872 6 1680 -3 1648 3 1524 -78 1615 -70 80 -108 90
-375 101 -126 4 -320 6 -430 4 -170 -4 -209 -7 -259 -25 -77 -28 -116 -59
-148 -119 -39 -72 -48 -149 -48 -435 l0 -258 -31 0 -30 0 3 323 3 322 27 50
c67 126 150 181 289 193 133 11 806 4 872 -9z m-4 -76 c74 -25 128 -70 159
-132 l27 -56 3 -1650 c2 -1192 0 -1667 -8 -1710 -23 -119 -87 -189 -202 -220
-55 -14 -114 -16 -473 -13 -404 3 -411 3 -460 26 -49 22 -105 67 -105 84 0 4
86 8 190 8 163 0 191 2 197 15 5 14 7 14 23 0 15 -13 55 -15 296 -13 l279 3 3
39 c2 21 -1 43 -7 49 -7 7 -3 17 14 33 l25 23 0 1280 c0 1431 7 1310 -73 1312
l-42 2 43 7 c50 8 65 24 56 60 -12 51 -9 50 -300 50 -272 0 -273 0 -285 -22
l-12 -22 -8 22 c-8 22 -10 22 -234 22 l-225 0 0 258 c0 144 5 284 11 317 27
149 107 223 263 245 34 5 227 7 430 4 298 -4 378 -8 415 -21z m-1029 -858 c0
-22 -4 -25 -35 -25 -24 0 -35 5 -35 15 0 11 -12 15 -50 15 -39 0 -50 -3 -50
-16 0 -19 -22 -14 -28 7 -3 11 -2 11 7 -1 9 -12 11 -11 11 8 0 21 3 22 90 22
89 0 90 0 90 -25z m340 13 c0 -9 -15 -12 -50 -10 -41 3 -50 1 -50 -13 0 -13
-8 -16 -37 -13 -31 2 -39 7 -41 26 -3 21 -1 22 87 22 66 0 91 -3 91 -12z m17
-25 c-3 -10 -5 -4 -5 12 0 17 2 24 5 18 2 -7 2 -21 0 -30z m243 12 c0 -22 -4
-25 -34 -25 -21 0 -36 6 -40 15 -8 21 -89 20 -110 -1 -15 -14 -16 -13 -16 9 0
24 1 25 100 26 l100 2 0 -26z m337 -5 c1 -14 0 -18 -3 -7 -7 23 -104 25 -104
2 0 -10 -11 -15 -35 -15 -31 0 -35 3 -35 25 l0 26 88 -3 c85 -3 87 -4 89 -28z
m-787 5 c0 -12 -14 -15 -70 -15 -64 0 -81 6 -63 23 3 4 35 7 70 7 49 0 63 -3
63 -15z m598 -2 c3 -10 -15 -13 -67 -13 -57 0 -71 3 -71 15 0 13 12 15 67 13
42 -2 68 -8 71 -15z m-828 -13 c0 -5 -4 -10 -10 -10 -5 0 -10 5 -10 10 0 6 5
10 10 10 6 0 10 -4 10 -10z m940 0 c0 -5 -4 -10 -10 -10 -5 0 -10 5 -10 10 0
6 5 10 10 10 6 0 10 -4 10 -10z m-977 -7 c-7 -2 -19 -2 -25 0 -7 3 -2 5 12 5
14 0 19 -2 13 -5z m430 0 c-7 -2 -19 -2 -25 0 -7 3 -2 5 12 5 14 0 19 -2 13
-5z m164 1 c-3 -3 -12 -4 -19 -1 -8 3 -5 6 6 6 11 1 17 -2 13 -5z m426 -1 c-7
-2 -19 -2 -25 0 -7 3 -2 5 12 5 14 0 19 -2 13 -5z m-643 -38 l0 -25 -175 0
-175 0 0 25 0 25 175 0 175 0 0 -25z m136 16 c5 -5 25 -11 44 -14 19 -2 -8 -4
-60 -4 -52 0 -79 2 -60 4 19 3 39 9 45 14 5 5 12 9 15 9 3 0 10 -4 16 -9z
m454 -16 l0 -25 -175 1 -175 0 0 25 0 24 175 0 175 0 0 -25z m117 -40 c2 -6
-29 -8 -84 -6 -73 4 -81 6 -48 12 55 9 128 6 132 -6z m-1154 -2 l-43 -4 0
-1270 0 -1269 93 -1 c82 -2 87 -2 42 -9 -27 -5 -74 -9 -102 -9 l-53 -1 -2 473
c-2 259 -2 838 0 1285 l2 812 53 -2 c50 -1 50 -2 10 -5z m395 0 c-65 -2 -171
-2 -235 0 -65 1 -12 3 117 3 129 0 182 -2 118 -3z m315 0 c-34 -2 -93 -2 -130
0 -37 2 -9 3 62 3 72 0 102 -1 68 -3z m215 0 c-27 -2 -69 -2 -95 0 -27 2 -5 3
47 3 52 0 74 -1 48 -3z m-1011 -1216 c-1 -221 -2 -37 -2 408 0 446 1 626 2
402 2 -225 2 -589 0 -810z m623 -57 l0 -1250 -280 0 -280 0 0 1250 0 1250 280
0 280 0 0 -1250z m598 -2 l-3 -1253 -140 -3 c-77 -2 -204 0 -282 3 l-143 7 0
1249 0 1249 285 0 285 0 -2 -1252z m-1221 -1181 c-1 -45 -3 -5 -3 88 0 94 2
130 3 82 2 -48 2 -125 0 -170z m381 -94 c-26 -2 -71 -2 -100 0 -29 2 -8 3 47
3 55 0 79 -1 53 -3z m308 -4 c5 -9 -27 -10 -120 -7 -70 3 -130 8 -133 12 -4 3
50 6 120 6 83 0 128 -4 133 -11z m471 5 c-8 -9 -457 -10 -457 -1 0 4 104 7
232 7 127 0 229 -3 225 -6z m73 -4 c0 -5 -13 -10 -30 -10 -16 0 -30 5 -30 10
0 6 14 10 30 10 17 0 30 -4 30 -10z m-122 -25 c20 -7 14 -32 -10 -39 -30 -8
-199 -8 -277 0 -50 6 -61 10 -61 25 0 12 9 19 28 21 39 4 305 -1 320 -7z
m-588 -14 c0 -11 -9 -21 -22 -25 -30 -8 -199 -8 -277 0 -50 6 -61 10 -61 25 0
18 11 19 180 19 170 0 180 -1 180 -19z m170 -8 c-19 -3 -39 -8 -45 -13 -6 -4
-16 -2 -23 6 -11 12 -4 14 45 12 40 -1 47 -2 23 -5z m-547 -30 c-7 -2 -21 -2
-30 0 -10 3 -4 5 12 5 17 0 24 -2 18 -5z m110 -2 c4 -1 7 -10 7 -21 0 -18 -7
-20 -80 -20 -44 0 -83 0 -87 -1 -4 0 -9 4 -11 10 -2 7 17 11 52 11 39 0 56 4
56 13 0 11 15 13 63 8z m310 2 c-7 -2 -19 -2 -25 0 -7 3 -2 5 12 5 14 0 19 -2
13 -5z m170 0 c-7 -2 -19 -2 -25 0 -7 3 -2 5 12 5 14 0 19 -2 13 -5z m110 -2
c4 -1 7 -10 7 -21 0 -20 -5 -21 -87 -18 -79 3 -88 5 -90 23 -2 11 0 14 3 8 8
-18 104 -18 104 0 0 11 15 13 63 8z m320 2 c-7 -2 -19 -2 -25 0 -7 3 -2 5 12
5 14 0 19 -2 13 -5z m37 -18 c0 -25 0 -25 -95 -25 -88 0 -95 1 -95 20 0 17 7
20 40 20 22 0 40 -4 40 -10 0 -5 23 -10 50 -10 38 0 50 4 50 15 0 8 2 15 5 15
3 0 5 -11 5 -25z m-792 -2 c-3 -15 -16 -19 -71 -21 -62 -3 -67 -1 -67 18 0 18
6 20 71 20 62 0 70 -2 67 -17z m82 7 c0 -5 25 -10 55 -10 30 0 55 -4 55 -10 0
-6 -37 -10 -90 -10 -83 0 -90 1 -90 20 0 16 7 20 35 20 19 0 35 -4 35 -10z
m510 -10 c0 -18 -7 -20 -65 -20 -58 0 -65 2 -65 20 0 18 7 20 65 20 58 0 65
-2 65 -20z m217 -2 c-3 -8 -6 -5 -6 6 -1 11 2 17 5 13 3 -3 4 -12 1 -19z
m-157 -339 c0 -7 -8 -17 -17 -24 -13 -10 -16 -25 -14 -59 l3 -46 -196 0 -196
0 0 49 c0 31 -5 53 -15 61 -8 7 -12 16 -9 21 8 14 444 12 444 -2z"/>
        <path d="M1860 4276 c0 -8 5 -27 11 -43 l11 -28 10 25 10 25 10 -25 10 -25 13
35 c17 44 17 50 5 50 -5 0 -10 -12 -11 -27 l-1 -28 -13 30 -13 30 -11 -25 c-6
-17 -10 -19 -10 -8 -1 21 -21 35 -21 14z"/>
        <path d="M2000 4255 c-2 -25 -4 -32 -7 -17 -2 12 -11 22 -19 22 -8 0 -13 -4
-9 -9 3 -5 1 -12 -5 -16 -6 -4 -8 -11 -5 -16 9 -13 55 -11 55 2 0 8 4 8 14 0
11 -10 14 -7 12 14 0 15 -6 23 -13 21 -6 -3 -14 5 -16 17 -3 13 -5 6 -7 -18z"/>
        <path d="M2123 4255 c2 -33 6 -40 22 -40 16 0 20 7 22 40 1 38 1 38 -5 7 -4
-18 -11 -33 -17 -33 -5 0 -13 15 -17 33 -6 31 -6 31 -5 -7z"/>
        <path d="M2349 4281 c12 -8 13 -14 3 -36 -16 -35 -16 -35 16 -34 16 1 20 3 10
6 -22 5 -22 7 -3 43 15 30 15 30 -12 30 -21 0 -24 -3 -14 -9z"/>
        <path d="M2436 4263 c12 -51 22 -61 32 -33 l9 25 8 -24 c9 -28 20 -17 30 28 5
23 4 31 -4 27 -6 -4 -11 -15 -12 -24 0 -11 -4 -9 -10 8 l-10 25 -14 -25 c-10
-18 -14 -20 -15 -8 0 9 -5 20 -10 23 -7 4 -8 -3 -4 -22z"/>
        <path d="M2054 4245 c-8 -19 3 -35 24 -35 15 0 15 2 2 10 -10 6 -11 10 -2 10
6 0 12 7 12 15 0 19 -29 20 -36 0z"/>
        <path d="M2191 4218 c0 -24 3 -36 6 -28 4 8 13 20 21 26 18 13 9 44 -13 44
-11 0 -15 -11 -14 -42z m16 10 c-3 -8 -6 -5 -6 6 -1 11 2 17 5 13 3 -3 4 -12
1 -19z"/>
        <path d="M2540 4250 c10 -6 11 -10 3 -10 -7 0 -13 -7 -13 -15 0 -8 8 -15 19
-15 14 0 17 6 13 25 -2 15 -11 25 -21 25 -14 0 -14 -2 -1 -10z"/>
        <path d="M2577 4243 c3 -10 8 -22 11 -27 6 -10 22 14 22 34 0 13 -1 13 -10 0
-6 -10 -10 -11 -10 -2 0 6 -4 12 -10 12 -5 0 -7 -8 -3 -17z"/>
        <path d="M2622 4238 c2 -14 11 -24 23 -26 17 -3 17 -1 5 7 -10 7 -11 11 -2 11
6 0 12 7 12 15 0 9 -9 15 -21 15 -15 0 -20 -5 -17 -22z"/>
        <path d="M2405 4240 c-3 -5 -1 -10 4 -10 6 0 11 5 11 10 0 6 -2 10 -4 10 -3 0
-8 -4 -11 -10z"/>
        <path d="M1952 4124 c-121 -62 -126 -232 -9 -308 71 -46 159 -34 218 31 39 41
49 66 49 118 0 57 -27 112 -72 145 -43 32 -137 39 -186 14z m144 -13 c160 -73
113 -301 -61 -301 -78 0 -133 42 -154 117 -5 17 -6 36 -1 42 4 7 7 -1 8 -19 2
-72 68 -130 147 -130 85 0 146 60 147 143 2 88 -57 147 -147 147 -65 0 -110
-28 -135 -83 -11 -23 -20 -35 -20 -26 0 30 45 84 90 107 53 27 73 27 126 3z
m18 -32 c106 -84 52 -249 -81 -249 -124 0 -181 153 -89 237 31 29 43 33 90 33
39 0 60 -6 80 -21z"/>
        <path d="M2400 4119 c-97 -56 -117 -182 -42 -271 32 -38 78 -58 134 -58 56 0
106 27 142 78 62 88 22 224 -77 261 -46 18 -118 13 -157 -10z m170 -15 c39
-23 71 -77 76 -126 l3 -43 -9 44 c-19 87 -71 131 -157 131 -41 0 -58 -5 -83
-26 -61 -52 -78 -130 -40 -192 61 -100 211 -95 262 8 10 19 18 27 18 18 0 -22
-46 -75 -81 -93 -15 -8 -49 -15 -75 -15 -166 0 -212 231 -60 301 46 22 101 19
146 -7z m11 -43 c22 -21 40 -48 40 -60 5 -77 0 -92 -40 -132 -34 -34 -44 -39
-86 -39 -59 0 -101 24 -126 72 -23 46 -24 79 -2 125 22 48 66 73 127 73 43 0
53 -4 87 -39z"/>
    </g>
</svg>