<?xml version="1.0" encoding="utf-8"?>
<!-- Generator: Adobe Illustrator 20.0.0, SVG Export Plug-In . SVG Version: 6.00 Build 0)  -->
<svg version="1.1" id="Layer_1" xmlns="http://www.w3.org/2000/svg" xmlns:xlink="http://www.w3.org/1999/xlink" x="0px" y="0px"
	 viewBox="0 0 1998.69 2059.52" style="enable-background:new 0 0 1998.69 2059.52;" xml:space="preserve">
<style type="text/css">
	.st0{fill:#1A1A18;}
</style>
<g>
	<path class="st0" d="M14.05,2059.52C1.9,1814.93,2.96,1623.72,17.23,1491c7.18-66.76,21.72-125.59,42.07-170.13
		c17.04-37.29,38.01-63.79,59.59-75.52v20.86h8.85c-18.05,10.48-35.86,34.78-50.68,69.38c-17.81,41.59-30.72,96.16-37.35,157.8
		c-14.17,131.82-15.19,322.22-3.04,566.13h5.68c-12.15-243.75-11.14-433.95,3-565.53c14.57-135.52,55.75-210.82,90.09-225.33
		l2.61-1.1l-0.57-1.35h449.13V886.16v-11.34V646.66l-68.17-68.17H187.06l-68.17,68.17v188.02h-11.51v150.7h11.51v253.58
		c-23.92,11.66-46.25,39.04-64.75,79.55c-20.6,45.09-35.31,104.53-42.55,171.88c-14.29,132.96-15.37,324.37-3.22,569.12H14.05z
		 M531.43,1254.87H174.08V886.16h52.24v29.59c0,41.62,33.86,75.47,75.47,75.47h111.57c41.62,0,75.47-33.86,75.47-75.47v-29.59h42.6
		V1254.87z M237.66,915.75v-29.59v-11.34v-87.05c0-35.36,28.77-64.13,64.13-64.13h111.57c35.36,0,64.13,28.77,64.13,64.13v87.05
		v11.34v29.59c0,35.36-28.77,64.13-64.13,64.13H301.79C266.43,979.89,237.66,951.12,237.66,915.75z M575.28,1254.87H537.1V886.16
		h38.18V1254.87z M560.08,636.16l15.2,15.2v223.46h-15.2V636.16z M151.1,630.5l40.66-40.66h322l40.66,40.66v244.32h-65.58v-87.05
		c0-41.62-33.86-75.47-75.47-75.47H301.79c-41.62,0-75.47,33.86-75.47,75.47v87.05H151.1V630.5z M130.23,651.36l15.2-15.2v238.65
		h-15.2V651.36z M130.23,886.16h38.18v368.71h-35.7l-2.48-5.88V886.16z M113.62,979.15V840.92h5.27v33.9v11.34v93H113.62z"/>
	<path class="st0" d="M603.54,2059.52c10.18-10.13,19.7-20.98,27.57-30.5c21.43-25.93,42.48-56.42,58.05-84.06l7.4,4.06
		c-15.86,28.19-37.22,59.17-58.91,85.41c-7.61,9.21-15.05,17.59-22.24,25.09h7.79c6.88-7.37,13.26-14.75,18.82-21.48
		c21.91-26.51,43.48-57.81,59.5-86.29l0.08,0.04c-5.76,17.99-16.7,50.48-29.75,80.74c-4.35,10.08-8.56,19.07-12.64,26.99h6.36
		c3.73-7.4,7.57-15.65,11.49-24.75c12.89-29.89,23.73-61.91,29.61-80.2l7.05,3.87l0.53,0.29c-6.75,20.93-17.13,50.99-29.38,79.39
		c-3.33,7.72-6.6,14.85-9.82,21.4h6.3c2.87-5.94,5.77-12.33,8.72-19.16c12.14-28.14,22.43-57.86,29.23-78.86l3.86,2.12l1.37-2.48
		c21.6-39.19,37.35-106.85,48.15-206.87c9.6-88.9,14.51-194.59,19.25-296.8c0.3-6.43,0.6-12.88,0.9-19.32l5.49,31.79
		c0.48,2.8,2.04,5.26,4.38,6.91c1.83,1.29,3.96,1.96,6.15,1.96c0.61,0,1.22-0.05,1.83-0.16l3.49-0.6l3.83,22.2l15.19-2.62
		l15.98,92.56l-6.72,1.16l4.14,23.99l6.72-1.16l19.37,112.16l28.63-4.94c2.56,14.2,5.32,28.89,7.99,43.16
		c15.5,82.65,26.28,140.12,28.3,294.97h5.66c-2.12-155.97-13.38-216.02-28.39-296.03c-2.67-14.22-5.42-28.89-7.98-43.06l22.32-3.85
		c2.95,16.49,5.45,29.83,7.88,42.77c15.83,84.37,26.82,142.97,28.86,300.17h5.65c-2.13-158.3-13.62-219.57-28.94-301.23
		c-2.42-12.9-4.92-26.22-7.86-42.68l25.84-4.46l-19.37-112.16l6.72-1.16l-4.14-23.99l-6.72,1.16l-15.98-92.56l14.6-2.52l-3.83-22.2
		l4.07-0.7c5.81-1,9.72-6.54,8.71-12.35l-14.12-81.79c-1-5.81-6.54-9.72-12.35-8.71l-12.54,2.17l-24.81-143.71l-1.47,0.25
		l-13.8-12.01l-11.05-63.98l12.85-2.22l-4.19-24.28l-36.65,6.33c-1.01-7.99-1.68-17.77-1.99-29.15c-0.15-5.4-0.22-11.22-0.21-17.43
		c2.27-11.88,4.73-23.1,7.37-33.57c6.7,0.99,13.49,1.62,19.73,1.62c10.1,0,18.78-1.65,23.34-6.12l1.47,0.35l0.73-2.63h46.7h1.63
		c6.18,10.27,28.89,14.8,48.95,16.31c-0.5,17.4-0.58,32.94-0.21,46.25c0.31,11.41,0.94,21.44,1.88,29.92l-31.35,5.41l4.19,24.28
		l12.85-2.22l11.05,63.98l-8.97,15.94l-1.47,0.25l24.81,143.71l-12.54,2.17c-2.81,0.48-5.26,2.04-6.91,4.38
		c-1.65,2.34-2.29,5.17-1.81,7.98l14.12,81.79c0.48,2.8,2.04,5.26,4.38,6.91c1.83,1.29,3.96,1.96,6.15,1.96
		c0.61,0,1.22-0.05,1.83-0.16l3.49-0.6l3.83,22.2l15.19-2.62l15.98,92.56l-6.72,1.16l4.14,23.99l6.72-1.16l19.37,112.16l27.9-4.82
		c2.53,14.01,5.24,28.5,7.88,42.56l0.09,0.48c15.5,82.65,26.28,140.12,28.3,294.97h5.66c-2.12-155.97-13.38-216.02-28.38-296.01
		l-0.09-0.48c-2.63-14.03-5.34-28.5-7.87-42.47l22.32-3.85c2.91,16.26,5.38,29.44,7.78,42.22l0.08,0.43
		c15.83,84.37,26.82,142.97,28.86,300.17h5.65c-2.13-158.3-13.62-219.57-28.94-301.22l-0.08-0.43c-2.39-12.75-4.86-25.92-7.76-42.14
		l26.56-4.59l-19.37-112.16l6.72-1.16l-4.14-23.99l-6.72,1.16l-15.98-92.56l14.61-2.52l-3.83-22.2l4.07-0.7
		c5.81-1,9.72-6.54,8.71-12.35l-14.12-81.79c-1-5.81-6.54-9.72-12.35-8.71l-12.54,2.17l-24.81-143.71l-1.46,0.25l-13.8-12.01
		l-11.05-63.98l12.85-2.22l-4.19-24.28l-35.34,6.1c-0.74-7.12-1.24-15.49-1.5-24.95c-0.35-12.93-0.27-28.23,0.25-45.54
		c9.99-0.82,19.18-2.34,26.8-4.47c10.65-2.97,17.46-6.91,20.37-11.74h51.56l0.62,2.28l1.39-0.23c4.49,4.63,13.29,6.34,23.56,6.34
		c14.35,0,31.57-3.33,43.97-6.69c16.21-4.39,31.04-10.32,41.75-16.68c13.04-7.75,18.65-15.36,16.68-22.63
		c-0.34-1.27-0.92-2.46-1.71-3.54c9.04-6.6,17.65-13.95,25.73-22.02c40.74-40.74,63.17-94.69,63.17-151.9V285.51
		c0-75.39-29.73-146.38-83.71-199.88c-53.52-53.04-124.91-83.23-201.04-85c-36.13-0.84-68.48-0.84-101.8,0
		c-76.15,1.92-147.54,32.15-201.02,85.11c-53.99,53.46-83.72,124.41-83.72,199.77v529.21c0,57.22,22.44,111.17,63.17,151.9
		c10.72,10.72,22.36,20.14,34.72,28.25c-0.18,11.44,17.95,21.94,36.6,29.28c-7.5,29.6-13.48,64.43-18.38,102.86l-3.93,0.68
		l2.24,12.99c-11.02,92.98-16.23,205.08-21.32,314.7c-9.25,199.13-18.81,405.04-61.55,482.58l-1.37,2.49l3.2,1.76
		c-15.41,27.35-36.22,57.51-57.44,83.18c-10.87,13.15-21.46,24.64-31.38,34.12H603.54z M954.07,1706.53l-20.28,3.5l0,0l-28.28,4.88
		l-28.22,4.87l-18.4-106.58l76.78-13.26L954.07,1706.53z M939.2,1580.39l2.21,12.82l-47.17,8.15l-41.92,7.24l0,0l-1.13,0.2
		l-2.21-12.82L939.2,1580.39z M931.52,1575.96l-76.78,13.26l-15.98-92.56l76.78-13.26L931.52,1575.96z M920.16,1476.85l-0.05-0.29
		l-87.96,15.19l0.05,0.29l-9.6,1.66l-2.87-16.61l5.33-0.92l8.66-1.48l0-0.02l57.14-9.87l20-3.45l0.01,0.05l15.46-2.64l2.85,16.53
		L920.16,1476.85z M809.9,1403.21l5.57-0.95l11.71,67.79l-2.7,0.47l-2.87,0.49L809.9,1403.21z M870.25,1461.79L858.55,1394
		l5.57-0.95l11.71,67.79L870.25,1461.79z M903.79,1387.07l5.57-0.95l11.69,67.72l-5.57,0.96L903.79,1387.07z M906.63,1361.92
		L906.63,1361.92l12.54-2.17c0.29-0.05,0.57-0.07,0.86-0.07c2.4,0,4.52,1.73,4.94,4.17l14.12,81.79c0.47,2.73-1.36,5.33-4.09,5.8
		l-8.37,1.44l-12.66-73.3l-16.75,2.86l12.66,73.33l-16.48,2.84l-11.87,2.05l-12.8-74.15l-16.75,2.86l12.81,74.19l-32.04,5.53
		l-12.67-73.37l-16.75,2.86l12.67,73.4l-2.83,0.49v0l-3.49,0.6c-1.32,0.23-2.64-0.08-3.74-0.85c-1.1-0.78-1.83-1.93-2.06-3.24
		l-14.12-81.79c-0.23-1.31,0.08-2.64,0.85-3.74c0.78-1.1,1.93-1.83,3.24-2.06l62.66-10.82L906.63,1361.92z M795.84,1375.3
		c0.74-14.71,1.51-29.35,2.31-43.88l7.29,42.22L795.84,1375.3z M900.08,1357.3l-44.53,7.69l-44.53,7.69l-9.88-57.21l89.05-15.38
		L900.08,1357.3z M889.24,1294.5l-89.05,15.38l-1.45-8.38l89.05-15.38L889.24,1294.5z M886.83,1280.53l-89.05,15.38l-1.47-8.49
		l89.05-15.38L886.83,1280.53z M884.4,1266.46l-89.05,15.38l-1.51-8.73l89.05-15.38L884.4,1266.46z M881.93,1252.14l-89.05,15.38
		l-5.69-32.97l89.05-15.38L881.93,1252.14z M872.18,1214.12l-82.88,14.31l6.54-11.62l66.28-11.44L872.18,1214.12z M859.69,1200.03
		l-63.35,10.94l-10.74-62.18l63.35-10.94L859.69,1200.03z M824.85,1040.76c0.05-1.74,0.11-3.51,0.18-5.3
		c0.36,0.07,0.72,0.13,1.08,0.2C825.68,1037.34,825.27,1039.04,824.85,1040.76z M1135.67,1706.53l-21.01,3.63l0,0l-15.42,2.66
		l-40.35,6.97l-18.4-106.58l76.78-13.26L1135.67,1706.53z M1120.81,1580.39l2.21,12.82l-90.22,15.58l-2.21-12.82L1120.81,1580.39z
		 M1113.13,1575.96l-76.78,13.26l-15.98-92.56l76.78-13.26L1113.13,1575.96z M1101.77,1476.85l-0.05-0.29l-87.96,15.19l0.05,0.29
		l-9.6,1.66l-2.87-16.61l5.27-0.91l8.72-1.49l0-0.02l44.88-7.75l32.25-5.57l0.01,0.05l15.46-2.64l2.85,16.53L1101.77,1476.85z
		 M991.5,1403.21l5.57-0.95l11.71,67.79l-2.71,0.47l-2.87,0.49L991.5,1403.21z M1051.86,1461.79l-11.71-67.79l5.57-0.95l11.71,67.79
		L1051.86,1461.79z M1085.39,1387.07l5.57-0.95l11.69,67.72l-5.57,0.96L1085.39,1387.07z M1088.24,1361.92l12.54-2.17
		c0.29-0.05,0.57-0.07,0.86-0.07c2.4,0,4.52,1.73,4.94,4.17l14.12,81.79c0.47,2.73-1.37,5.33-4.09,5.8l-4.07,0.7l-4.29,0.74
		l-12.66-73.3l-16.75,2.86l12.66,73.33l-28.35,4.89l-12.8-74.15l-16.75,2.86l12.81,74.19l-32.04,5.53l-12.67-73.37l-16.75,2.86
		l12.67,73.4l-2.83,0.49v0l-3.49,0.6c-1.31,0.23-2.64-0.08-3.74-0.85s-1.83-1.93-2.06-3.24l-14.12-81.79
		c-0.23-1.31,0.08-2.64,0.85-3.74s1.93-1.83,3.24-2.06l92.48-15.97L1088.24,1361.92z M1081.69,1357.3l-39.25,6.78l-49.8,8.6
		l-9.88-57.21l89.05-15.38L1081.69,1357.3z M1070.84,1294.5l-89.05,15.38l-1.45-8.38l89.05-15.38L1070.84,1294.5z M1068.43,1280.53
		l-89.05,15.38l-1.47-8.49l89.05-15.38L1068.43,1280.53z M1066,1266.46l-89.05,15.38l-1.51-8.73l89.05-15.38L1066,1266.46z
		 M1063.53,1252.14l-89.05,15.38l-5.69-32.97l89.05-15.38L1063.53,1252.14z M1053.79,1214.12l-82.88,14.31l6.54-11.62l66.28-11.44
		L1053.79,1214.12z M1041.3,1200.03l-63.35,10.94l-10.74-62.18l63.35-10.94L1041.3,1200.03z M1010.11,1122.14L1010.11,1122.14
		l30.07-5.19l2.26,13.11l-89.05,15.38l-2.26-13.11l25.47-4.4l0,0L1010.11,1122.14z M1002.29,1091.7c0.27,9.76,0.79,18.41,1.57,25.76
		l-22.34,3.86c-0.89-8.24-1.5-18.02-1.8-29.11c-0.36-13.16-0.29-28.53,0.21-45.75c3.68,0.18,7.21,0.27,10.43,0.27
		c4.13,0,8.2-0.11,12.17-0.33C1002.02,1063.59,1001.94,1078.8,1002.29,1091.7z M990.36,1035.39c-35.66,0-53.9-8.14-55.33-11.47
		v-2.44h109.91l0.04,1.49l0.63,1.12C1043.7,1027.5,1025.47,1035.39,990.36,1035.39z M1173.51,1020.56
		c-34.42,9.32-54.16,6.23-56.4,3.4l-0.64-2.36l106.09-28.74l0.42,1.42l0.9,0.91C1222.93,999,1207.41,1011.38,1173.51,1020.56z
		 M753.43,978.95l-1.26,4.64c-10.71-7.27-20.82-15.61-30.18-24.98c-38.6-38.6-59.85-89.7-59.85-143.89V285.51
		c0-72.31,28.54-140.39,80.36-191.71c51.42-50.92,120.08-79.98,193.33-81.84c33.13-0.84,65.31-0.84,101.25,0
		c73.21,1.71,141.87,30.73,193.32,81.72c51.82,51.35,80.36,119.48,80.36,191.83v529.21c0,54.19-21.26,105.29-59.85,143.89
		c-8.02,8.02-16.6,15.28-25.62,21.77l-122.71,33.24l1.31,4.84h-47.59v-8.33H923.69v8.33h-43.6l1.31-4.84L753.43,978.95z
		 M760.08,995.19l0.96-0.97l0.37-1.35l106.09,28.74l-0.64,2.36c-2.24,2.84-21.98,5.93-56.4-3.4
		C776.55,1011.38,761.02,998.99,760.08,995.19z M818.89,1087.73c0.32,11.68,1.01,21.74,2.06,29.96l-22.33,3.86
		c-1.17-9.09-1.94-20.27-2.3-33.31c-0.45-16.64-0.22-36.77,0.69-59.86c3.67,1.2,7.22,2.25,10.47,3.14
		c3.62,0.98,7.66,1.96,11.91,2.85C818.66,1054.93,818.49,1072.86,818.89,1087.73z M790.63,1026.18c0.26,0.1,0.53,0.19,0.79,0.28
		c-0.97,23.93-1.23,44.76-0.76,61.93c0.36,13.34,1.16,24.79,2.38,34.12l-20.29,3.5C777.54,1088.76,783.37,1054.97,790.63,1026.18z
		 M797.16,1127.55l30.17-5.21l0,0l31.25-5.4l2.26,13.11l-89.05,15.38l-2.26-13.11L797.16,1127.55z M731.22,1744.43
		c8.93-85.94,13.71-189.05,18.35-288.78c4.9-105.55,9.92-213.4,20.11-304.11l10.35-1.79l11.05,63.98l-8.97,15.94l-1.47,0.25
		l13.26,76.81c-1.37,23.02-2.62,46.42-3.8,69.96c-1.62,0.78-3.03,1.96-4.1,3.47c-1.65,2.34-2.29,5.17-1.81,7.97l4.18,24.18
		c-0.71,14.97-1.41,29.94-2.11,44.88c-9.39,202.16-19.1,411.14-65.36,498.7l-17.14-9.41l-15.1-8.29
		C707.72,1901.97,721.27,1840.23,731.22,1744.43z"/>
	<path class="st0" d="M1422.28,1266.2h448.95l-0.46,1.1l2.61,1.1c17.79,7.51,34.4,31.42,48.05,69.14
		c14.25,39.39,24.99,92.02,31.92,156.45c14.14,131.58,15.15,321.78,3,565.53h5.68c12.15-243.91,11.13-434.31-3.04-566.13
		c-6.97-64.87-17.81-117.96-32.22-157.77c-12.94-35.75-28.15-59.05-45.29-69.41h8.53v-21.05c20.79,11.47,39.07,36.8,54.4,75.45
		c17.07,43.05,29.54,100.37,37.07,170.39c14.27,132.72,15.33,323.93,3.18,568.52h5.68c12.15-244.75,11.07-436.16-3.22-569.12
		c-14.94-139.03-49.35-228.04-97.1-251.63V982.37l10.34-0.04l-0.8-104.69l-9.54,0.03v-2.86h-109.12v40.93
		c0,35.36-28.77,64.13-64.13,64.13h-111.57c-35.36,0-64.13-28.77-64.13-64.13v-40.93h-84.33l78.02-32l-37.33-91.03
		c-6.47-15.78-6.38-33.2,0.25-49.05c6.63-15.85,18.97-28.15,34.75-34.62l103.23-42.33c15.78-6.47,33.2-6.38,49.05,0.25
		c15.85,6.63,28.15,18.97,34.62,34.75l37.33,91.03l93.09-38.18l37.54,91.55l18.25-7.48l-56.97-138.91l-10.38,4.26l-71.45-174.22
		l-88.93-37.2l-306.61,125.74l-37.2,88.93l88.3,215.3V1266.2z M1890,883.35l3.91-0.01l0.71,93.36l-4.62,0.02V883.35z
		 M1840.48,886.16h38.18v362.4l-2.66,6.31h-35.52V886.16z M1477.46,886.16h52.24v29.59c0,41.62,33.86,75.47,75.47,75.47h111.57
		c41.62,0,75.47-33.86,75.47-75.47v-29.59h42.6v368.71h-357.35V886.16z M1471.79,886.16v368.71h-38.18V886.16H1471.79z
		 M1845.47,666.19l52.67,128.42l-7.76,3.18l-35.39-86.3l2.62-1.08l-17.27-42.12L1845.47,666.19z M1758.02,497.48l84.79,206.75
		l-14.06,5.77l-90.55-220.81L1758.02,497.48z M1379.83,586.08l297.92-122.18l53.05,22.19l92.7,226.05l-60.68,24.88l-33.03-80.54
		c-15.79-38.5-59.96-56.98-98.46-41.19l-103.23,42.33c-18.58,7.62-33.11,22.09-40.91,40.73c-7.8,18.65-7.9,39.15-0.28,57.73
		l33.03,80.54l-69.6,28.54l-92.71-226.05L1379.83,586.08z M1346.25,666.34l8.29-19.82l90.55,220.81l-14.06,5.77L1346.25,666.34z"/>
</g>
</svg>