<svg width="null" height="null" xmlns="http://www.w3.org/2000/svg"
     style="animation-delay: 0s; animation-direction: normal; animation-duration: 0s; animation-fill-mode: none; animation-iteration-count: 1; animation-name: none; animation-play-state: running; animation-timing-function: ease; background-attachment: scroll; background-blend-mode: normal; background-clip: border-box; background-color: rgba(0, 0, 0, 0); background-image: none; background-origin: padding-box; background-position: 0% 0%; background-repeat: repeat; background-size: auto; border-bottom-color: rgb(0, 0, 0); border-bottom-left-radius: 0px; border-bottom-right-radius: 0px; border-bottom-style: none; border-bottom-width: 0px; border-collapse: separate; border-image-outset: 0px; border-image-repeat: stretch; border-image-slice: 100%; border-image-source: none; border-image-width: 1; border-left-color: rgb(0, 0, 0); border-left-style: none; border-left-width: 0px; border-right-color: rgb(0, 0, 0); border-right-style: none; border-right-width: 0px; border-top-color: rgb(0, 0, 0); border-top-left-radius: 0px; border-top-right-radius: 0px; border-top-style: none; border-top-width: 0px; bottom: auto; box-shadow: none; box-sizing: content-box; break-after: auto; break-before: auto; break-inside: auto; caption-side: top; clear: none; clip: auto; color: rgb(0, 0, 0); content: ; cursor: auto; direction: ltr; display: block; empty-cells: show; float: none; font-family: &quot;Times New Roman&quot;; font-kerning: auto; font-size: 16px; font-stretch: normal; font-style: normal; font-variant: normal; font-variant-ligatures: normal; font-variant-caps: normal; font-variant-numeric: normal; font-weight: normal; height: 681px; image-rendering: auto; isolation: auto; left: auto; letter-spacing: normal; line-height: normal; list-style-image: none; list-style-position: outside; list-style-type: disc; margin-bottom: 0px; margin-left: 0px; margin-right: 0px; margin-top: 0px; max-height: none; max-width: none; min-height: 0px; min-width: 0px; mix-blend-mode: normal; motion-offset: 0px; motion-path: none; motion-rotation: auto 0deg; object-fit: fill; object-position: 50% 50%; opacity: 1; orphans: 2; outline-color: rgb(0, 0, 0); outline-offset: 0px; outline-style: none; outline-width: 0px; overflow-wrap: normal; overflow-x: visible; overflow-y: visible; padding-bottom: 0px; padding-left: 0px; padding-right: 0px; padding-top: 0px; pointer-events: auto; position: static; resize: none; right: auto; speak: normal; table-layout: auto; tab-size: 8; text-align: start; text-align-last: auto; text-decoration: none; text-indent: 0px; text-rendering: auto; text-shadow: none; text-overflow: clip; text-transform: none; top: auto; touch-action: auto; transition-delay: 0s; transition-duration: 0s; transition-property: all; transition-timing-function: ease; unicode-bidi: normal; vertical-align: baseline; visibility: visible; white-space: normal; widows: 2; width: 1366px; will-change: auto; word-break: normal; word-spacing: 0px; word-wrap: normal; z-index: 0; zoom: 1; -webkit-appearance: none; backface-visibility: visible; -webkit-background-clip: border-box; -webkit-background-origin: padding-box; -webkit-border-horizontal-spacing: 0px; -webkit-border-image: none; -webkit-border-vertical-spacing: 0px; -webkit-box-align: stretch; -webkit-box-decoration-break: slice; -webkit-box-direction: normal; -webkit-box-flex: 0; -webkit-box-flex-group: 1; -webkit-box-lines: single; -webkit-box-ordinal-group: 1; -webkit-box-orient: horizontal; -webkit-box-pack: start; -webkit-box-reflect: none; -webkit-clip-path: none; column-count: auto; column-gap: normal; column-rule-color: rgb(0, 0, 0); column-rule-style: none; column-rule-width: 0px; column-span: none; column-width: auto; -webkit-filter: none; align-content: normal; align-items: stretch; align-self: start; flex-basis: auto; flex-grow: 0; flex-shrink: 1; flex-direction: row; flex-wrap: nowrap; justify-content: normal; -webkit-font-smoothing: auto; -webkit-highlight: none; -webkit-hyphenate-character: auto; -webkit-line-break: auto; -webkit-line-clamp: none; -webkit-locale: auto; -webkit-margin-before-collapse: collapse; -webkit-margin-after-collapse: collapse; -webkit-mask-box-image: none; -webkit-mask-box-image-outset: 0px; -webkit-mask-box-image-repeat: stretch; -webkit-mask-box-image-slice: 0 fill; -webkit-mask-box-image-source: none; -webkit-mask-box-image-width: auto; -webkit-mask-clip: border-box; -webkit-mask-composite: source-over; -webkit-mask-image: none; -webkit-mask-origin: border-box; -webkit-mask-position: 0% 0%; -webkit-mask-repeat: repeat; -webkit-mask-size: auto; order: 0; perspective: none; perspective-origin: 683px 340.5px; -webkit-print-color-adjust: economy; -webkit-rtl-ordering: logical; shape-outside: none; shape-image-threshold: 0; shape-margin: 0px; -webkit-tap-highlight-color: rgba(0, 0, 0, 0.180392); -webkit-text-combine: none; -webkit-text-decorations-in-effect: none; -webkit-text-emphasis-color: rgb(0, 0, 0); -webkit-text-emphasis-position: over; -webkit-text-emphasis-style: none; -webkit-text-fill-color: rgb(0, 0, 0); -webkit-text-orientation: vertical-right; -webkit-text-security: none; -webkit-text-stroke-color: rgb(0, 0, 0); -webkit-text-stroke-width: 0px; transform: none; transform-origin: 0px 0px; transform-style: flat; -webkit-user-drag: auto; -webkit-user-modify: read-only; -webkit-user-select: text; -webkit-writing-mode: horizontal-tb; -webkit-app-region: no-drag; buffered-rendering: auto; clip-path: none; clip-rule: nonzero; mask: none; filter: none; flood-color: rgb(0, 0, 0); flood-opacity: 1; lighting-color: rgb(255, 255, 255); stop-color: rgb(0, 0, 0); stop-opacity: 1; color-interpolation: sRGB; color-interpolation-filters: linearRGB; color-rendering: auto; fill: rgb(0, 0, 0); fill-opacity: 1; fill-rule: nonzero; marker-end: none; marker-mid: none; marker-start: none; mask-type: luminance; shape-rendering: auto; stroke: none; stroke-dasharray: none; stroke-dashoffset: 0px; stroke-linecap: butt; stroke-linejoin: miter; stroke-miterlimit: 4; stroke-opacity: 1; stroke-width: 1px; alignment-baseline: auto; baseline-shift: 0px; dominant-baseline: auto; text-anchor: start; writing-mode: horizontal-tb; vector-effect: none; paint-order: fill stroke markers; d: none; cx: 0px; cy: 0px; x: 0px; y: 0px; r: 0px; rx: 0px; ry: 0px;"
     version="1.1" xmlns:xlink="http://www.w3.org/1999/xlink">
    <style type="text/css">.fillpulse { animation: fillpulse 6s infinite; }</style>
    <svg xmlns="http://www.w3.org/2000/svg" xmlns:xlink="http://www.w3.org/1999/xlink" version="1.1" id="Layer_1" x="0px" y="0px" viewBox="0 0 682.43 682.43" style="enable-background:new 0 0 682.43 682.43;" xml:space="preserve">
<style type="text/css">
.fillpulse {
	animation: fillpulse 6s infinite;
}

@keyframes fillpulse {
	0%, 20%, 40%, 60%, 100% {
		fill: #FFFFFF;
	}
	10%, 30%, 50% {
		fill: #0078CC;
	}
}
</style>

<g>
	<path d="M341.21,682.43c-91.14,0-176.83-35.49-241.27-99.94C35.49,518.04,0,432.35,0,341.21   c0-91.14,35.49-176.83,99.94-241.27C164.39,35.49,250.07,0,341.21,0c91.14,0,176.83,35.49,241.27,99.94   c64.45,64.45,99.94,150.13,99.94,241.27c0,91.14-35.49,176.83-99.94,241.27C518.04,646.93,432.35,682.43,341.21,682.43z    M341.21,7.09c-89.25,0-173.15,34.75-236.26,97.86C41.84,168.06,7.09,251.96,7.09,341.21c0,89.25,34.75,173.15,97.86,236.26   c63.11,63.11,147.01,97.86,236.26,97.86s173.15-34.76,236.26-97.86s97.86-147.01,97.86-236.26s-34.76-173.15-97.86-236.26   C514.37,41.84,430.46,7.09,341.21,7.09z"/>
</g>
<g>
	<path d="M477.27,163.27c-11.73,0-21.27-9.54-21.27-21.27s9.54-21.27,21.27-21.27c11.73,0,21.27,9.54,21.27,21.27   S489,163.27,477.27,163.27z M477.27,124.27c-9.78,0-17.73,7.95-17.73,17.73s7.95,17.73,17.73,17.73c9.77,0,17.73-7.95,17.73-17.73   S487.05,124.27,477.27,124.27z"/>
</g>
<g>
	<path d="M387.44,154.06l31.64,11.34l-2.86,7.97L384.49,162C385.73,159.48,386.72,156.82,387.44,154.06 M388.63,140   h34.27v8.5h-34.42c0.19-1.64,0.3-3.31,0.3-5C388.77,142.32,388.72,141.16,388.63,140z M384.93,125.94l28.26-10.42l2.92,7.97   l-28.42,10.48C387.04,131.17,386.11,128.49,384.93,125.94z M376.93,114.27l21.51-17.9l5.41,6.51l-21.67,18.03   C380.66,118.53,378.9,116.3,376.93,114.27z M364.71,105.52l12.55-20.83l7.27,4.38l-12.56,20.84   C369.72,108.21,367.29,106.74,364.71,105.52z M350.23,101.65l4-21.53l8.34,1.53l-4,21.54C355.89,102.4,353.1,101.88,350.23,101.65z    M335.27,103.1l-3.56-19.99l8.37-1.46l3.55,19.97C340.76,101.83,337.96,102.33,335.27,103.1z M321.61,109.88l-10.72-17.82   l7.27-4.35l10.71,17.8C326.29,106.72,323.86,108.19,321.61,109.88z M311.97,119.98l-13.3-11.1l5.45-6.51l13.3,11.1   C315.39,115.45,313.57,117.63,311.97,119.98z M306.14,132.85l-17.09-6.38l2.96-7.94l17.1,6.38   C307.86,127.43,306.86,130.09,306.14,132.85z M304.99,147.76h-12.96v-8.5h12.96c-0.14,1.4-0.21,2.82-0.21,4.25   C304.77,144.94,304.85,146.36,304.99,147.76z M298.01,157.53l8.2-3.12c0.74,2.77,1.76,5.43,3.02,7.94l-8.2,3.12L298.01,157.53z"/>
</g>
<g>
	<path d="M289,69.66l2.46-0.22c0.12,0.99,0.39,1.81,0.81,2.45c0.43,0.64,1.09,1.15,1.99,1.55   c0.9,0.39,1.91,0.59,3.03,0.59c1,0,1.88-0.15,2.64-0.45c0.76-0.3,1.33-0.71,1.7-1.23c0.37-0.52,0.56-1.09,0.56-1.69   c0-0.62-0.18-1.16-0.54-1.62c-0.36-0.46-0.95-0.85-1.78-1.17c-0.53-0.2-1.7-0.52-3.52-0.96c-1.82-0.44-3.09-0.85-3.82-1.23   c-0.94-0.5-1.64-1.11-2.1-1.85c-0.46-0.73-0.7-1.56-0.7-2.46c0-1,0.29-1.94,0.85-2.8c0.57-0.87,1.39-1.53,2.48-1.98   c1.09-0.45,2.3-0.68,3.63-0.68c1.46,0,2.76,0.23,3.88,0.71c1.12,0.47,1.98,1.16,2.58,2.09c0.6,0.92,0.93,1.96,0.97,3.12l-2.51,0.19   c-0.13-1.25-0.59-2.19-1.37-2.83c-0.78-0.64-1.93-0.96-3.45-0.96c-1.58,0-2.74,0.29-3.46,0.87c-0.72,0.58-1.09,1.28-1.09,2.1   c0,0.71,0.26,1.29,0.77,1.75c0.51,0.46,1.82,0.93,3.95,1.41c2.13,0.48,3.59,0.9,4.38,1.26c1.15,0.53,2,1.2,2.55,2.01   c0.55,0.81,0.82,1.74,0.82,2.8c0,1.05-0.3,2.04-0.9,2.97c-0.6,0.93-1.46,1.65-2.59,2.17c-1.13,0.52-2.39,0.77-3.81,0.77   c-1.79,0-3.28-0.26-4.49-0.78c-1.21-0.52-2.15-1.3-2.84-2.35C289.4,72.17,289.04,70.99,289,69.66"/>
</g>
<g>
	<path d="M309.8,67.48h7.98c-0.11-1.21-0.41-2.11-0.92-2.71c-0.77-0.93-1.77-1.4-3-1.4c-1.11,0-2.05,0.37-2.81,1.12   C310.31,65.23,309.89,66.23,309.8,67.48 M317.76,71.38l2.51,0.33c-0.39,1.46-1.12,2.6-2.19,3.4c-1.07,0.81-2.43,1.21-4.09,1.21   c-2.09,0-3.75-0.64-4.97-1.93c-1.22-1.28-1.84-3.09-1.84-5.42c0-2.4,0.62-4.27,1.86-5.6c1.24-1.33,2.85-1.99,4.82-1.99   c1.91,0,3.47,0.65,4.68,1.95c1.21,1.3,1.82,3.14,1.82,5.5c0,0.14,0,0.36-0.01,0.64h-10.68c0.09,1.57,0.53,2.78,1.34,3.61   c0.8,0.83,1.8,1.25,2.99,1.25c0.89,0,1.65-0.23,2.27-0.7C316.9,73.16,317.39,72.41,317.76,71.38z"/>
</g>
<g>
	<path d="M323.35,76.02V61.68h2.18v2.04c1.05-1.56,2.57-2.34,4.55-2.34c0.87,0,1.66,0.16,2.38,0.46   c0.72,0.31,1.27,0.72,1.63,1.22c0.36,0.5,0.61,1.1,0.76,1.79c0.09,0.45,0.13,1.24,0.13,2.36v8.8h-2.43v-8.71   c0-0.99-0.09-1.73-0.28-2.22c-0.19-0.49-0.52-0.88-1-1.17c-0.48-0.29-1.05-0.44-1.69-0.44c-1.03,0-1.92,0.33-2.67,0.99   c-0.75,0.65-1.12,1.9-1.12,3.73v7.82H323.35z"/>
</g>
<g>
	<path d="M337.74,71.74l2.4-0.39c0.13,0.96,0.51,1.7,1.13,2.21c0.62,0.51,1.48,0.77,2.59,0.77   c1.12,0,1.95-0.23,2.49-0.68c0.54-0.45,0.81-0.99,0.81-1.6c0-0.55-0.24-0.98-0.73-1.29c-0.34-0.22-1.17-0.49-2.49-0.82   c-1.78-0.45-3.01-0.83-3.7-1.16c-0.69-0.33-1.21-0.78-1.56-1.36c-0.35-0.58-0.53-1.22-0.53-1.92c0-0.64,0.15-1.23,0.44-1.77   c0.29-0.54,0.69-0.99,1.19-1.35c0.38-0.28,0.89-0.51,1.54-0.7c0.65-0.19,1.35-0.29,2.1-0.29c1.12,0,2.11,0.16,2.96,0.49   c0.85,0.32,1.48,0.76,1.88,1.32c0.4,0.56,0.68,1.3,0.83,2.23l-2.38,0.33c-0.11-0.75-0.42-1.33-0.93-1.75   c-0.52-0.42-1.24-0.63-2.19-0.63c-1.11,0-1.91,0.18-2.38,0.55c-0.47,0.37-0.71,0.8-0.71,1.29c0,0.31,0.1,0.6,0.29,0.85   c0.2,0.26,0.51,0.47,0.93,0.64c0.24,0.09,0.95,0.3,2.14,0.62c1.71,0.46,2.91,0.83,3.59,1.12c0.68,0.29,1.22,0.72,1.6,1.27   c0.39,0.56,0.58,1.25,0.58,2.08c0,0.81-0.23,1.57-0.71,2.28c-0.47,0.71-1.16,1.27-2.04,1.66c-0.89,0.39-1.9,0.58-3.03,0.58   c-1.86,0-3.28-0.39-4.26-1.16C338.64,74.39,338.01,73.25,337.74,71.74"/>
</g>
<g>
	<path d="M352.52,76.02V61.68h2.43v14.34H352.52z M352.52,59v-2.76h2.43V59H352.52z"/>
</g>
<g>
	<path d="M363.94,73.85l0.33,2.15c-0.68,0.14-1.29,0.22-1.83,0.22c-0.88,0-1.56-0.14-2.05-0.42   c-0.48-0.28-0.82-0.64-1.02-1.1c-0.2-0.46-0.29-1.41-0.29-2.87v-8.26h-1.8v-1.88h1.8v-3.55l2.43-1.46v5h2.43v1.88h-2.43v8.4   c0,0.7,0.04,1.14,0.13,1.34c0.08,0.2,0.22,0.35,0.41,0.47c0.19,0.12,0.47,0.18,0.83,0.18C363.14,73.95,363.5,73.91,363.94,73.85"/>
</g>
<g>
	<path d="M366.34,76.02V61.68h2.43v14.34H366.34z M366.34,59v-2.76h2.43V59H366.34z"/>
</g>
<g>
	<path d="M376.39,76.02l-5.41-14.34h2.6l3.07,8.59c0.33,0.93,0.64,1.89,0.92,2.89c0.22-0.76,0.52-1.66,0.91-2.73   l3.19-8.75h2.5l-5.43,14.34H376.39z"/>
</g>
<g>
	<path d="M386.29,76.02V61.68h2.43v14.34H386.29z M386.29,59v-2.76h2.43V59H386.29z"/>
</g>
<g>
	<path d="M397.7,73.85l0.33,2.15c-0.68,0.14-1.29,0.22-1.83,0.22c-0.88,0-1.56-0.14-2.05-0.42   c-0.48-0.28-0.82-0.64-1.02-1.1c-0.2-0.46-0.29-1.41-0.29-2.87v-8.26h-1.8v-1.88h1.8v-3.55l2.43-1.46v5h2.43v1.88h-2.43v8.4   c0,0.7,0.04,1.14,0.13,1.34c0.08,0.2,0.22,0.35,0.41,0.47c0.19,0.12,0.47,0.18,0.83,0.18C396.91,73.95,397.26,73.91,397.7,73.85"/>
</g>
<g>
	<path d="M399.99,81.53l-0.28-2.25c0.53,0.14,0.99,0.22,1.39,0.22c0.54,0,0.98-0.09,1.3-0.27   c0.33-0.18,0.59-0.43,0.8-0.76c0.15-0.24,0.4-0.85,0.74-1.81c0.05-0.13,0.12-0.33,0.22-0.59l-5.44-14.38h2.6l2.99,8.28   c0.39,1.05,0.74,2.15,1.05,3.31c0.28-1.09,0.61-2.17,1-3.23l3.06-8.36h2.43l-5.42,14.59c-0.58,1.57-1.04,2.65-1.37,3.24   c-0.43,0.8-0.93,1.38-1.49,1.75c-0.56,0.37-1.23,0.56-2,0.56C401.09,81.82,400.56,81.72,399.99,81.53"/>
</g>
<g>
	<polygon points="438.4,178.19 438.4,169.95 430.21,169.95 430.21,166.51 438.4,166.51 438.4,158.32 441.89,158.32    441.89,166.51 450.09,166.51 450.09,169.95 441.89,169.95 441.89,178.19  "/>
</g>
<g>
	<rect x="260.81" y="169.97" width="11.43" height="3.7"/>
</g>
<g>
	<path class="fillpulse" d="M477.27,126.02c8.83,0,15.99,7.16,15.99,15.99c0,8.83-7.16,15.99-15.99,15.99c-8.83,0-15.99-7.16-15.99-15.99   C461.29,133.18,468.45,126.02,477.27,126.02"/>
</g>
<path d="M564.17,118.26C504.61,58.7,425.43,25.91,341.21,25.91c-84.22,0-163.4,32.8-222.96,92.35c-12,12-22.89,24.8-32.66,38.27  l-0.01-0.01l-0.83,1.16c-38.22,53.17-58.85,116.76-58.85,183.53c0,84.22,32.8,163.4,92.35,222.96s138.73,92.35,222.96,92.35  c84.22,0,163.4-32.8,222.96-92.35s92.35-138.73,92.35-222.96C656.52,256.99,623.72,177.81,564.17,118.26z M85.61,162.61  c13.69,16.77,50.43,26.91,112.1,30.96l0.06,0h284.89l0.12,0c62.89-4.13,99.89-14.6,112.9-31.98c2.48,3.51,4.9,7.09,7.23,10.67  c-14.58,15.67-52.76,25.63-113.52,29.63H191.1c-59.53-3.92-97.4-13.57-112.62-28.7C80.78,169.64,83.17,166.09,85.61,162.61z   M120.76,120.76c58.88-58.88,137.17-91.31,220.45-91.31c83.27,0,161.57,32.43,220.45,91.31c11.75,11.75,22.43,24.29,32.03,37.47  c-11.23,16.99-48.59,27.69-111.09,31.81H197.89c-60.8-4-97.83-14.25-110.13-30.45C97.6,145.91,108.61,132.92,120.76,120.76z   M561.66,561.66c-58.88,58.88-137.18,91.31-220.45,91.31c-83.27,0-161.57-32.43-220.45-91.31  c-58.88-58.88-91.31-137.18-91.31-220.45c0-59.24,16.43-115.95,47.1-164.95c16.34,15.65,53.81,25.21,114.38,29.19l298.57,0l0.06,0  c62.1-4.08,99.96-14.03,115.58-30.39c31.15,49.28,47.84,106.43,47.84,166.15C652.98,424.49,620.55,502.78,561.66,561.66z"/>
<g>
	<g>
		<polygon points="347.42,131.63 330.89,126.89 334.07,142.14 337.8,137.74 351.69,160.71 362.08,149.16 341.16,134.69   "/>
		<path d="M346.77,105.32c-21.09,0-38.18,17.09-38.18,38.18c0,21.09,17.09,38.18,38.18,38.18s38.18-17.09,38.18-38.18    C384.95,122.42,367.86,105.32,346.77,105.32z M351.47,163.07l-0.99-1.63l-12.88-21.28l-4.32,5.11l-4.26-20.38l22.31,6.4    l-7.39,3.62l20.26,14.01L351.47,163.07z"/>
	</g>
</g>
</svg>
</svg>