<?xml version="1.0" encoding="utf-8"?>
<!-- Generator: Adobe Illustrator 21.0.0, SVG Export Plug-In . SVG Version: 6.00 Build 0)  -->
<svg version="1.1" id="Layer_1" xmlns="http://www.w3.org/2000/svg" xmlns:xlink="http://www.w3.org/1999/xlink" x="0px" y="0px"
	 viewBox="0 0 1050.1 878.3" style="enable-background:new 0 0 1050.1 878.3;" xml:space="preserve">
<style type="text/css">
	.st0{fill-rule:evenodd;clip-rule:evenodd;fill:#0074CC;}
</style>
<path d="M994.9,58.4c-11.8-10.2-24.7-17-38.3-20.2l0.2-1.3l-210.5-32c-37.6-7.5-69.1-5.4-104.9,0l-193.7,32l0.5,2.8l-0.6-2.8
	c-13.4,2.9-25.9,6.6-38.6,11.5c-6.1,2.3-11.9,4.7-17.4,7.2c-26.7,11.9-55.8,28.6-95.2,51.2l-11.9,6.8l1.4,2.5l-1.5-2.4
	c-11.8,7.6-21.8,18.2-29.9,31.9c-24.9,7.5-47.9,22.5-68.4,44.7c-21.2,23-40.2,54.3-56.5,93l-0.6-0.1l1.3,62.9
	c-22.5-3.2-45.1-6.4-67.6-9.7c-11-1.6-22-3.2-33-4.7l-0.1,0c-13.3-0.6-25.6,10.9-28.7,26.8c-3.3,16.8,4.8,32.2,18.6,35.1
	c23.8,4,48.4,8.2,72.8,12.3l18.2,3.1c0.1,1,0.1,2,0.2,3c0.8,8.8,3.1,19.5,9.6,20.6l11.8,1.7l1.7,78.6l0,0.2l0.1,0.2
	c7.6,24.9,19.3,44.4,35.8,59.4c14.8,13.5,33.4,23.8,58.4,32.4v17.3c0,32.2,7.8,64.2,23.1,95.1c16.2,32.6,40.4,63,72.1,90.4
	c7.7,7.7,16.5,14.1,26.5,19.3c2.5,1.3,5,2.5,7.7,3.6c0.1,0,0.2,0.1,0.3,0.1l0,0c1.7,0.7,3.4,1.3,5.2,1.9
	c41,12.9,128.2,27.7,245.6,41.5c8.4,2.6,17,3.9,25.8,3.9c7.5,0,15.1-0.9,22.8-2.8l54.7-13.5c27.1-6.7,54.1-13.3,80.8-19.9
	l131.3-32.3c33.4-8.2,64.7-35.4,88.3-76.7c23.4-40.9,36.4-90.8,36.5-140.4l1.4-385.8C1050.3,143.9,1029.7,88.4,994.9,58.4z
	 M188,192.3c19.3-20.9,40.9-35.4,64.2-43c-4,7.3-7.5,15.3-10.5,24.2c-9.2,27.2-13.9,62.6-13.8,105v21.6l-95.6-16.2
	C148.4,245.7,167.2,214.9,188,192.3z M227.9,384.3l-94.4-13.2l-0.5-24.5h0l-1.3-60l96.2,16.3V384.3z M131.7,373.9l0.5-0.1l95.7,13.4
	v5.4l-106.4-15.8L131.7,373.9z M113.4,411.9c-0.1-1.1-0.2-2.3-0.3-3.4l0-0.6c-0.2-3.4-0.2-6.8,0-10c0-0.2,0-0.4,0-0.6
	c0-0.1,0-0.2,0-0.3c0.3-6.2,1.2-11.5,2.1-15c0.4-1.4,0.8-2.5,1.2-3.2l111.4,16.6v50.4l-107.3-15.9
	C117.1,429.4,114.4,422.6,113.4,411.9z M227.9,448.7v76.6l-91.5-15.3l-1.6-75L227.9,448.7z M171.4,570.8c-16-14.7-27.5-33.6-34.9-58
	l0,0l91.4,15.3v74.1C203.8,594,185.7,583.9,171.4,570.8z M256.1,715.1c-14.9-30-22.5-61.2-22.5-92.5v-17.2l0.3-1.1
	c-0.1,0-0.2-0.1-0.3-0.1V278.5c-0.1-83.3,17.9-137.1,53.6-160l11.8-6.8c16.6-9.5,31.3-17.9,44.8-25.4c-7.5,6.7-14.3,14-20.4,22
	c-21.3,27.7-35.6,64.8-43.7,113.3c-3.4,20.3-4.8,35.1-4.8,51.1v328.3c0,72.4,6,122.9,19,158.8c2.9,8.1,6.2,15.5,9.9,22.3
	C283.8,761,267.8,738.6,256.1,715.1z M280.6,278.6l111.9,3.6c10,0.3,19.3,4.6,26.2,11.9c6.9,7.4,10.5,17,10.2,27.1l-3.6,102.6
	c-0.7,20.8-18.2,37.1-39,36.4l-105.7-3.6V278.6z M364.5,827.5c-1.7-0.5-3.4-1.1-5-1.8c-2.5-1.1-4.8-2.2-7.2-3.4
	c-9.4-5.1-17.7-11.8-24.9-18.1c0,0,0,0,0,0c-11.9-11.9-21.1-27.2-28.1-46.4c-12.7-35.3-18.7-85.1-18.7-156.9V462.3l105.5,3.5
	c0.5,0,1,0,1.5,0c23.3,0,42.6-18.5,43.4-41.9l3.6-102.6c0.4-11.6-3.8-22.6-11.7-31.2c-7.9-8.5-18.6-13.4-30.1-13.7l-112.1-3.6v-0.3
	c0-15.6,1.4-30.2,4.7-50.1c7.9-47.5,21.9-83.8,42.6-110.8c16.1-20.9,36.3-37,62.8-49.5c7.2-3.3,14.2-6.2,21.2-8.9
	c1-0.4,1.9-0.7,2.9-1.1l0,0c11.1-4.1,22.2-7.3,33.9-9.8l193.6-32c35.2-5.3,66.1-7.4,102.9,0l177,26.9L657.1,77.4
	c-36.5,5.5-70.9,31.7-97,73.8c-25.9,41.9-40.3,94.1-40.3,147.1l-0.4,411c-0.1,64.4,21.8,120,58.4,148.7c4.1,3.2,8.2,6,12.5,8.4
	C446.1,848.9,387.1,834.6,364.5,827.5z M1043,592.7c-0.4,100.4-54.4,195.4-120.5,211.6l-131.3,32.3c-26.7,6.6-53.7,13.2-80.8,19.9
	L655.6,870c-15.8,3.9-31.3,3.5-45.8-1.1l0,0c0,0-0.1,0-0.1,0c-10-3.1-19.5-8.2-28.4-15.2c-35.2-27.6-56.2-81.6-56.2-144.3l0.4-411
	c0-52,14.1-103.1,39.5-144.1c25.2-40.6,58.2-65.9,93-71.2l267.8-40.5c4-0.6,7.9-0.9,11.8-0.9c19.2,0,37.5,7.2,53.6,21.1
	c33.5,28.9,53.4,82.8,53.2,144.1L1043,592.7z"/>
<path class="st0" d="M425.4,423.8l3.6-102.6c0.4-10.1-3.3-19.7-10.2-27.1c-6.9-7.4-16.2-11.6-26.2-11.9l-111.9-3.6v178l105.7,3.6
	C407.1,460.9,424.7,444.6,425.4,423.8z"/>
</svg>